<?xml version="1.0" standalone="no"?>
<!DOCTYPE svg PUBLIC "-//W3C//DTD SVG 1.1//EN" "http://www.w3.org/Graphics/SVG/1.1/DTD/svg11.dtd" >
<svg xmlns="http://www.w3.org/2000/svg" xmlns:xlink="http://www.w3.org/1999/xlink" version="1.1">
<metadata></metadata>
<defs>
<font id="pluto_sansmedium" horiz-adv-x="1372" >
<font-face units-per-em="2048" ascent="1536" descent="-512" />
<missing-glyph horiz-adv-x="491" />
<glyph horiz-adv-x="0" />
<glyph horiz-adv-x="0" />
<glyph horiz-adv-x="682" />
<glyph unicode=" "  horiz-adv-x="491" />
<glyph unicode="&#x09;" horiz-adv-x="491" />
<glyph unicode="&#xa0;" horiz-adv-x="491" />
<glyph unicode="!" horiz-adv-x="602" d="M125 145q0 83 45.5 128.5t130.5 45.5t131.5 -45.5t46.5 -128.5t-46.5 -127.5t-131.5 -44.5t-130.5 44.5t-45.5 127.5zM156 1393h288l-43 -938h-202z" />
<glyph unicode="&#x22;" horiz-adv-x="952" d="M139 1393h226l-13 -521h-200zM588 1393h225l-12 -521h-201z" />
<glyph unicode="#" horiz-adv-x="1433" d="M86 313v213h223l84 332h-162v213h218l81 322h211v-21l-75 -301h282l82 322h211v-21l-76 -301h189v-213h-242l-84 -332h180v-213h-233l-78 -313h-215v23l74 290h-281l-78 -313h-215v23l74 290h-170zM528 526h281l84 332h-281z" />
<glyph unicode="$" horiz-adv-x="1261" d="M88 989q0 81 28 150.5t83 125.5t144 93.5t204 48.5v168h172v-166q123 -9 236.5 -39.5t189.5 -69.5l-82 -268q-64 41 -157.5 72t-186.5 41v-320l76 -20q192 -55 283 -146.5t91 -238.5q0 -172 -123 -289t-327 -143v-252h-172v246q-128 8 -247 43t-189 75l67 273 q73 -47 170 -83t199 -46v334l-139 38q-158 41 -239 136t-81 237zM385 1014q0 -54 35.5 -83t116.5 -52l10 -5v269q-82 -12 -122 -46t-40 -83zM719 252q73 17 112 54.5t39 90.5q0 47 -37 77.5t-114 55.5v-278z" />
<glyph unicode="%" horiz-adv-x="1822" d="M70 1038q0 160 107.5 267.5t271.5 107.5q165 0 272.5 -107t107.5 -268q0 -160 -107.5 -265t-272.5 -105q-164 0 -271.5 105t-107.5 265zM289 1038q0 -68 45 -114.5t115 -46.5t114.5 46.5t44.5 114.5q0 70 -44.5 117t-114.5 47t-115 -47t-45 -117zM428 0v23l715 1370h246 v-21l-713 -1372h-248zM993 350q0 160 107.5 267.5t271.5 107.5q165 0 273 -107t108 -268q0 -160 -108 -265t-273 -105q-164 0 -271.5 105t-107.5 265zM1212 350q0 -68 45 -115t115 -47t115 47t45 115q0 70 -45 117t-115 47t-115 -47t-45 -117z" />
<glyph unicode="&#x26;" horiz-adv-x="1589" d="M121 389q0 132 72 215.5t213 143.5q-70 73 -103 141t-33 162q0 72 30 137t86 115.5t144 80t195 29.5q202 0 331.5 -100.5t129.5 -257.5q0 -82 -24.5 -147t-70.5 -110.5t-99 -76t-124 -55.5l234 -209q133 148 209 344l217 -154q-89 -200 -238 -362l271 -244v-41h-377 l-113 106q-208 -126 -461 -126q-228 0 -358.5 108.5t-130.5 300.5zM410 408q0 -83 63.5 -134t167.5 -51q123 0 244 62l-299 286q-87 -33 -131.5 -69.5t-44.5 -93.5zM551 1034q0 -51 32.5 -95.5t92.5 -98.5l65 22q91 31 127.5 65t36.5 97q0 62 -47.5 102.5t-132.5 40.5 q-87 0 -130.5 -37.5t-43.5 -95.5z" />
<glyph unicode="'" horiz-adv-x="503" d="M139 1393h226l-13 -521h-200z" />
<glyph unicode="(" horiz-adv-x="655" d="M94 537q0 169 33.5 328t86 275t105 196.5t103.5 129.5l162 -92q-42 -64 -80 -142.5t-75.5 -184.5t-60 -239t-22.5 -273q0 -138 22.5 -271t60 -239t75.5 -185t80 -143l-162 -92q-51 49 -103.5 130t-105 197.5t-86 276t-33.5 328.5z" />
<glyph unicode=")" horiz-adv-x="655" d="M72 -303q42 63 80.5 142.5t75.5 185.5t59 239t22 271q0 140 -22 273.5t-59 239t-75 184.5t-81 142l161 92q51 -49 103.5 -129.5t105 -196.5t86 -275t33.5 -328t-33.5 -328.5t-86 -276t-105 -197.5t-103.5 -130z" />
<glyph unicode="*" horiz-adv-x="1032" d="M90 981l60 217l270 -94l-17 289h226l-17 -291l271 96l59 -217l-268 -66l164 -229l-170 -121l-154 250l-149 -248l-172 117l159 234z" />
<glyph unicode="+" horiz-adv-x="1159" d="M90 508v225h377v377h225v-377h377v-225h-377v-377h-225v377h-377z" />
<glyph unicode="," horiz-adv-x="591" d="M119 139q0 86 45.5 133t128.5 47q84 0 131 -48.5t47 -131.5q0 -105 -52.5 -248t-111.5 -243l-162 63l91 266q-57 13 -87 56t-30 106z" />
<glyph unicode="-" horiz-adv-x="1101" d="M141 508v225h820v-225h-820z" />
<glyph unicode="." horiz-adv-x="591" d="M119 145q0 83 45.5 128.5t130.5 45.5t131.5 -45.5t46.5 -128.5t-46.5 -127.5t-131.5 -44.5t-130.5 44.5t-45.5 127.5z" />
<glyph unicode="/" horiz-adv-x="1071" d="M55 0v23l715 1370h246v-21l-713 -1372h-248z" />
<glyph unicode="0" horiz-adv-x="1449" d="M115 694q0 221 66 380.5t204 249t338 89.5q202 0 341 -89.5t205 -249t66 -380.5q0 -163 -38 -294t-113 -225t-192 -144.5t-269 -50.5q-200 0 -338 89t-204 247.5t-66 377.5zM393 694q0 -98 17 -176.5t54 -141.5t102.5 -97.5t156.5 -34.5q334 0 334 450q0 457 -334 457 q-91 0 -156.5 -35t-102.5 -99t-54 -143.5t-17 -179.5z" />
<glyph unicode="1" horiz-adv-x="1026" d="M23 1069l602 324h211v-1393h-287v1067l-418 -215z" />
<glyph unicode="2" horiz-adv-x="1320" d="M100 915q6 229 150.5 363.5t398.5 134.5q129 0 231.5 -38t165.5 -102.5t95.5 -145t32.5 -169.5q0 -144 -57 -256t-218 -227l-315 -225h626v-250h-1073v215l543 408q107 79 154 152.5t47 158.5q0 94 -61 155.5t-175 61.5q-140 0 -211.5 -77.5t-71.5 -207.5z" />
<glyph unicode="3" horiz-adv-x="1282" d="M98 1327q79 32 210.5 59t254.5 27q273 0 416 -98.5t143 -284.5q0 -109 -57 -193.5t-158 -109.5q139 -44 201.5 -126t62.5 -220q0 -186 -157.5 -293.5t-450.5 -107.5q-215 0 -463 86l70 239q69 -30 175.5 -56t217.5 -26q141 0 227.5 54t86.5 147q0 86 -69.5 126t-209.5 40 h-311v250h311q114 0 173.5 43.5t59.5 117.5q0 81 -72 123.5t-192 42.5q-114 0 -227.5 -28t-175.5 -56z" />
<glyph unicode="4" horiz-adv-x="1384" d="M61 268v195l646 930h360v-887h238v-238h-238v-268h-272v268h-734zM354 506h441v629z" />
<glyph unicode="5" horiz-adv-x="1275" d="M82 72l74 237q70 -33 174 -59.5t221 -26.5q143 0 233 57t90 171q0 190 -303 190h-399l-12 12l63 740h899v-250h-659l-23 -291h148q277 0 428 -97t151 -298q0 -120 -44.5 -212.5t-125.5 -149.5t-190 -86t-242 -29q-248 0 -483 92z" />
<glyph unicode="6" horiz-adv-x="1402" d="M113 698q0 214 73.5 374t220 250.5t349.5 90.5q148 0 278.5 -34t204.5 -74l-80 -234q-64 38 -164 68t-207 30q-340 0 -382 -368q164 127 387 127q244 0 377 -119.5t133 -331.5q0 -225 -154.5 -361t-396.5 -136q-303 0 -471 194.5t-168 523.5zM414 549q28 -143 112 -225 t226 -82q119 0 192.5 67.5t73.5 167.5q0 111 -72 164t-196 53q-174 0 -336 -145z" />
<glyph unicode="7" horiz-adv-x="1146" d="M61 1143v250h1041v-201l-567 -1192h-316v27l561 1116h-719z" />
<glyph unicode="8" horiz-adv-x="1409" d="M113 381q0 289 295 346q-118 22 -183 107t-65 196q0 186 140.5 284.5t404.5 98.5t404 -98.5t140 -284.5q0 -111 -65 -196t-183 -107q151 -29 224 -114.5t73 -231.5q0 -186 -155 -293.5t-438 -107.5t-437.5 107.5t-154.5 293.5zM401 412q0 -87 83.5 -139t220.5 -52t220 52 t83 139q0 82 -74.5 130t-226.5 48q-153 0 -229.5 -48t-76.5 -130zM444 1014q0 -73 64.5 -117.5t198.5 -44.5q132 0 195 44.5t63 117.5q0 81 -68.5 122.5t-191.5 41.5t-192 -41.5t-69 -122.5z" />
<glyph unicode="9" horiz-adv-x="1400" d="M98 915q0 224 155.5 361t397.5 137q202 0 346.5 -90t217.5 -251t73 -378q0 -214 -73 -374t-219 -250t-349 -90q-148 0 -280 34.5t-205 73.5l80 234q67 -39 166 -69t204 -30q341 0 383 371q-162 -129 -385 -129q-244 0 -378 119t-134 331zM385 915q0 -111 71.5 -164 t196.5 -53q183 0 334 146q-28 143 -111.5 225t-224.5 82q-120 0 -193 -67.5t-73 -168.5z" />
<glyph unicode=":" horiz-adv-x="628" d="M139 139q0 82 44.5 126t127.5 44t128.5 -44t45.5 -126q0 -80 -45.5 -124t-128.5 -44t-127.5 44t-44.5 124zM139 930q0 82 44.5 126t127.5 44t128.5 -44t45.5 -126q0 -80 -45.5 -124t-128.5 -44t-127.5 44t-44.5 124z" />
<glyph unicode=";" horiz-adv-x="641" d="M139 930q0 82 44.5 126t127.5 44t128.5 -44t45.5 -126q0 -80 -45.5 -124t-128.5 -44t-127.5 44t-44.5 124zM152 133q0 85 43.5 130.5t123.5 45.5q82 0 128.5 -47.5t46.5 -128.5q0 -102 -51 -241t-109 -236l-158 61l88 258q-112 27 -112 158z" />
<glyph unicode="&#x3c;" horiz-adv-x="1206" d="M86 504v221l956 389h23v-217l-752 -279l752 -274v-219h-23z" />
<glyph unicode="=" horiz-adv-x="1286" d="M154 221v225h979v-225h-979zM154 793v225h979v-225h-979z" />
<glyph unicode="&#x3e;" horiz-adv-x="1204" d="M141 125v219l750 274l-750 279v217h21l956 -389v-221l-956 -379h-21z" />
<glyph unicode="?" horiz-adv-x="993" d="M70 1270q163 143 417 143q189 0 300.5 -101t111.5 -263q0 -62 -13.5 -110.5t-40.5 -85t-52 -61t-64 -55.5q-5 -4 -8 -6l-111 -88q-37 -29 -49 -48.5t-12 -55.5q0 -37 14 -84h-241q-2 6 -12 29t-13.5 41t-3.5 44q0 110 131 215l96 78q46 36 68 74.5t22 93.5 q0 67 -46.5 106.5t-119.5 39.5q-85 0 -166.5 -38t-130.5 -91zM264 145q0 83 45.5 128.5t130.5 45.5t131.5 -45.5t46.5 -128.5t-46.5 -127.5t-131.5 -44.5t-130.5 44.5t-45.5 127.5z" />
<glyph unicode="@" horiz-adv-x="2011" d="M96 539q0 202 69.5 375.5t192 296t295.5 192.5t373 70q269 0 477 -103.5t322 -290.5t114 -428q0 -313 -135 -470.5t-366 -157.5q-87 0 -138 28.5t-83 89.5q-101 -116 -302 -116q-200 0 -324 138.5t-124 356.5q0 221 124 361.5t324 140.5q194 0 283 -102v86h277v-687 q0 -54 13.5 -79t61.5 -25q31 0 62.5 24.5t61 73.5t47.5 136.5t18 199.5q0 282 -193.5 456.5t-519.5 174.5q-329 0 -529 -203.5t-200 -537.5q0 -218 90 -387t256 -263t383 -94q195 0 354 78l72 -176q-196 -94 -426 -94q-200 0 -373 70.5t-295.5 194t-192 297.5t-69.5 374z M748 520q0 -117 66 -187.5t179 -70.5q116 0 205 82v356q-34 34 -90 58t-115 24q-113 0 -179 -71.5t-66 -190.5z" />
<glyph unicode="A" horiz-adv-x="1474" d="M18 0l555 1393h336l539 -1393h-291l-106 279h-633l-109 -279h-291zM492 492h487l-238 616z" />
<glyph unicode="B" horiz-adv-x="1456" d="M188 0v1393h582q233 0 358 -92t125 -279q0 -107 -56.5 -182.5t-158.5 -114.5q326 -63 326 -352q0 -174 -129.5 -273.5t-370.5 -99.5h-676zM475 246h348q119 0 176.5 40t57.5 124q0 92 -64.5 132t-193.5 40h-324v-336zM475 834h248q114 0 173.5 36t59.5 119 q0 87 -56 122.5t-171 35.5h-254v-313z" />
<glyph unicode="C" horiz-adv-x="1454" d="M100 696q0 201 95 365.5t262 258t372 93.5q326 0 545 -201l-135 -202q-174 137 -408 137q-191 0 -312.5 -129.5t-121.5 -321.5t121.5 -321t312.5 -129q234 0 408 137l135 -203q-218 -200 -545 -200q-205 0 -372 93.5t-262 257.5t-95 365z" />
<glyph unicode="D" horiz-adv-x="1613" d="M188 0v1393h600q155 -1 286 -47t227.5 -132.5t151 -220t54.5 -299.5q0 -165 -54.5 -297.5t-151 -218.5t-227.5 -132t-286 -46h-600zM475 250h301q197 0 315.5 116.5t118.5 327.5q0 214 -118.5 331.5t-315.5 117.5h-301v-893z" />
<glyph unicode="E" horiz-adv-x="1398" d="M188 0v1393h1102v-252h-827v-301h678v-252h-678v-336h827v-252h-1102z" />
<glyph unicode="F" horiz-adv-x="1323" d="M188 0v1393h1061v-252h-786v-400h676v-252h-676v-489h-275z" />
<glyph unicode="G" horiz-adv-x="1562" d="M102 694q0 166 58 303t158.5 227t235.5 139.5t290 49.5q309 0 540 -188l-133 -219q-171 141 -401 141q-197 0 -324 -121t-127 -332q0 -209 129 -328.5t334 -119.5q166 0 289 73v256h-367v248h654v-653q-100 -79 -269 -134.5t-325 -55.5q-155 0 -290 49t-235.5 139 t-158.5 226t-58 300z" />
<glyph unicode="H" horiz-adv-x="1697" d="M188 0v1393h287v-566h748v566h286v-1393h-286v578h-748v-578h-287z" />
<glyph unicode="I" horiz-adv-x="663" d="M188 0v1393h287v-1393h-287z" />
<glyph unicode="J" horiz-adv-x="1323" d="M41 535l285 26q11 -158 73.5 -237.5t198.5 -79.5q140 0 202 83.5t62 243.5v822h289v-840q0 -128 -35 -233t-102.5 -182t-174.5 -119t-245 -42q-137 0 -240.5 39.5t-169 114t-100.5 175t-43 229.5z" />
<glyph unicode="K" horiz-adv-x="1443" d="M188 0v1393h287v-580h152l440 580h297v-43l-498 -656l551 -653v-41h-336l-456 563h-150v-563h-287z" />
<glyph unicode="L" horiz-adv-x="1234" d="M188 0v1393h287v-1143h723v-250h-1010z" />
<glyph unicode="M" horiz-adv-x="1933" d="M188 0v1393h258l521 -621l520 621h258v-1393h-287v940l-467 -561h-51l-465 561v-940h-287z" />
<glyph unicode="N" horiz-adv-x="1695" d="M188 0v1393h250l783 -938v938h286v-1393h-250l-782 936v-936h-287z" />
<glyph unicode="O" horiz-adv-x="1638" d="M102 694q0 152 54.5 285.5t149.5 228.5t227.5 150t283.5 55q152 0 285.5 -55t228.5 -150t150 -228.5t55 -285.5q0 -201 -93 -364.5t-258 -256.5t-368 -93q-201 0 -365 93t-257 256.5t-93 364.5zM385 694q0 -190 123 -318t311 -128q190 0 312 127.5t122 318.5 q0 193 -121.5 320t-312.5 127q-188 0 -311 -127t-123 -320z" />
<glyph unicode="P" horiz-adv-x="1429" d="M188 0v1393h666q104 0 194 -31t160.5 -91.5t111 -159.5t40.5 -226q0 -114 -41 -209.5t-110.5 -158.5t-161 -97.5t-193.5 -34.5h-379v-385h-287zM475 635h334q109 0 181.5 69t72.5 183q0 120 -72 188t-182 68h-334v-508z" />
<glyph unicode="Q" horiz-adv-x="1636" d="M102 694q0 152 54.5 285.5t149.5 228.5t227.5 150t283.5 55q152 0 285.5 -55t228.5 -150t150 -228.5t55 -285.5q0 -223 -114.5 -397.5t-307.5 -257.5q58 -51 97.5 -81t105 -57.5t131.5 -27.5q127 0 205 29l30 -232q-115 -39 -256 -39q-92 0 -178 30t-150.5 77t-116.5 94 t-98 90.5t-71 57.5q-150 1 -282 55.5t-226 149t-148.5 226.5t-54.5 283zM383 694q0 -190 123 -317t311 -127q190 0 312 126.5t122 317.5q0 193 -121.5 320t-312.5 127q-188 0 -311 -127t-123 -320z" />
<glyph unicode="R" horiz-adv-x="1486" d="M188 0v1393h613q264 0 409.5 -112t145.5 -341q0 -162 -103 -278.5t-264 -149.5l445 -465v-47h-322l-465 502h-172v-502h-287zM475 727h356q100 0 163 56t63 151q0 100 -62.5 154.5t-163.5 54.5h-356v-416z" />
<glyph unicode="S" horiz-adv-x="1286" d="M111 100l67 277q86 -57 202 -96t241 -39q128 0 200 40t72 115q0 57 -44 92.5t-151 63.5l-229 57q-356 88 -356 383q0 88 33 163t98.5 132.5t171 90t241.5 32.5q141 0 276.5 -32.5t223.5 -78.5l-82 -262q-80 47 -199.5 79t-228.5 32q-237 0 -237 -131q0 -54 35 -81.5 t116 -51.5l256 -72q190 -53 282.5 -149t92.5 -244q0 -195 -162.5 -317.5t-415.5 -122.5q-140 0 -282 37.5t-221 82.5z" />
<glyph unicode="T" horiz-adv-x="1290" d="M51 1141v252h1188v-252h-442v-1141h-287v1141h-459z" />
<glyph unicode="U" horiz-adv-x="1605" d="M170 588v805h287v-787q0 -170 87.5 -266t256.5 -96q172 0 261 98.5t89 265.5v785h287v-805q0 -124 -42 -234t-120 -194.5t-200.5 -133.5t-274.5 -49q-151 0 -271.5 45.5t-199 127.5t-119.5 193.5t-41 244.5z" />
<glyph unicode="V" horiz-adv-x="1499" d="M27 1393h313l405 -1129l420 1129h314l-553 -1393h-361z" />
<glyph unicode="W" horiz-adv-x="2248" d="M27 1393h309l409 -1071l259 614l-173 457h312l373 -1024l401 1024h313l-555 -1393h-311l-236 596l-251 -596h-312z" />
<glyph unicode="X" horiz-adv-x="1486" d="M47 0v23l494 671l-494 678v21h330l366 -510l369 510h328v-21l-496 -678l496 -671v-23h-332l-365 506l-364 -506h-332z" />
<glyph unicode="Y" horiz-adv-x="1413" d="M18 1372v21h320l369 -578l368 578h320v-21l-545 -819v-553h-287v551z" />
<glyph unicode="Z" horiz-adv-x="1306" d="M111 0v201l716 942h-716v250h1085v-201l-713 -942h713v-250h-1085z" />
<glyph unicode="[" horiz-adv-x="729" d="M166 -385v1839h483v-225h-256v-1389h256v-225h-483z" />
<glyph unicode="\" horiz-adv-x="1071" d="M55 1372v21h246l715 -1370v-23h-248z" />
<glyph unicode="]" horiz-adv-x="727" d="M80 -160h256v1389h-256v225h481v-1839h-481v225z" />
<glyph unicode="^" horiz-adv-x="1187" d="M104 791v22l381 580h213l385 -580v-22h-262l-229 378l-227 -378h-261z" />
<glyph unicode="_" horiz-adv-x="1306" d="M141 -63h1024v-226h-1024v226z" />
<glyph unicode="`" horiz-adv-x="1228" d="M403 1518h285l166 -312h-242z" />
<glyph unicode="a" horiz-adv-x="1193" d="M86 299q0 182 131 279.5t356 97.5q107 0 181 -14q-3 97 -49 140.5t-140 43.5q-80 0 -174.5 -21t-163.5 -53l-49 246q81 32 192 52t218 20q96 0 173.5 -22.5t128.5 -61t85.5 -93t49.5 -115t15 -130.5v-668h-286v102q-129 -122 -316 -122q-167 0 -259.5 85.5t-92.5 233.5z M373 330q0 -125 159 -125q125 0 222 84v170q-58 14 -119 14q-117 0 -189.5 -37.5t-72.5 -105.5z" />
<glyph unicode="b" horiz-adv-x="1378" d="M166 0v1454h287v-489q128 125 321 125q225 0 364.5 -154.5t139.5 -398.5q0 -245 -140 -401t-364 -156q-197 0 -321 131v-111h-287zM453 328q41 -41 106 -70t135 -29q132 0 211.5 85t79.5 223q0 137 -79.5 220t-211.5 83q-69 0 -133 -28.5t-108 -72.5v-411z" />
<glyph unicode="c" horiz-adv-x="1161" d="M98 537q0 160 72.5 288t205 201.5t300.5 73.5q239 0 407 -148l-141 -211q-109 97 -254 97q-134 0 -215.5 -83.5t-81.5 -217.5q0 -135 81.5 -219.5t215.5 -84.5q145 0 254 97l141 -211q-168 -148 -407 -148q-126 0 -234 43.5t-183.5 118.5t-118 179.5t-42.5 224.5z" />
<glyph unicode="d" horiz-adv-x="1378" d="M100 537q0 244 139.5 398.5t364.5 154.5q97 0 180.5 -34t141.5 -91v489h286v-1454h-286v111q-124 -131 -322 -131q-224 0 -364 156t-140 401zM393 537q0 -138 79.5 -223t211.5 -85q69 0 135.5 29.5t106.5 69.5v411q-44 44 -109 72.5t-133 28.5q-132 0 -211.5 -83 t-79.5 -220z" />
<glyph unicode="e" horiz-adv-x="1249" d="M100 532q0 159 69 288t199 204.5t298 75.5q119 0 212 -34.5t150.5 -96t87 -141.5t29.5 -175q0 -50 -7 -114t-16 -95h-727q42 -233 297 -233q94 0 183 32.5t151 78.5l109 -205q-180 -146 -451 -146q-147 0 -260.5 43t-183.5 120t-105 177.5t-35 220.5zM403 666h465 q2 10 2 36q0 69 -54 114.5t-157 45.5q-109 0 -174.5 -55.5t-81.5 -140.5z" />
<glyph unicode="f" horiz-adv-x="944" d="M78 797v223h196v74q0 80 22 147.5t65.5 120.5t115.5 83t166 30q78 0 153 -18.5t124 -43.5l-64 -248q-86 58 -180 58q-115 0 -115 -131v-72h322v-223h-322v-797h-287v797h-196z" />
<glyph unicode="g" horiz-adv-x="1378" d="M102 573q0 142 62.5 259.5t178 187.5t261.5 70q197 0 322 -132v113h286v-938q0 -130 -44 -234.5t-120 -170t-174 -100t-210 -34.5q-71 0 -133.5 9t-119.5 28.5t-80.5 29.5t-69.5 33q-4 1 -5.5 2t-4.5 2.5l-5 2.5l61 244q177 -109 357 -109q115 0 188.5 57t73.5 181v125 q-134 -138 -322 -138q-146 0 -261.5 69.5t-178 186t-62.5 256.5zM395 573q0 -116 79 -189t210 -73q69 0 134 28t108 71v331q-41 41 -107 70t-135 29q-132 0 -210.5 -74t-78.5 -193z" />
<glyph unicode="h" d="M166 0v1454h287v-510q133 146 354 146q106 0 186.5 -36.5t129 -102t72.5 -149.5t24 -186v-616h-287v569q0 256 -221 256q-96 0 -161.5 -55.5t-96.5 -132.5v-637h-287z" />
<glyph unicode="i" horiz-adv-x="618" d="M143 1374q0 142 168 142q164 0 164 -142q0 -143 -164 -143q-168 0 -168 143zM166 0v1071h287v-1071h-287z" />
<glyph unicode="j" horiz-adv-x="618" d="M-14 -217q86 53 133 121.5t47 181.5v985h287v-973q0 -99 -23 -180.5t-66 -141.5t-93 -102t-115 -77zM143 1374q0 142 168 142q164 0 164 -142q0 -143 -164 -143q-168 0 -168 143z" />
<glyph unicode="k" horiz-adv-x="1265" d="M166 0v1454h287v-827l413 444h318v-47l-449 -461l484 -516v-47h-340l-426 477v-477h-287z" />
<glyph unicode="l" horiz-adv-x="700" d="M166 268v1186h287v-1116q0 -117 88 -117q46 0 114 33l15 -227q-115 -47 -242 -47q-126 0 -194 68t-68 220z" />
<glyph unicode="m" horiz-adv-x="2111" d="M166 0v1071h287v-119q133 140 350 140q138 0 223.5 -45.5t134.5 -133.5q63 76 163 126.5t228 50.5q106 0 185.5 -36.5t127 -102t70.5 -149.5t23 -186v-616h-287v569q0 256 -215 256q-98 0 -159 -46t-89 -117v-662h-286v571q0 254 -215 254q-99 0 -161.5 -47.5 t-92.5 -120.5v-657h-287z" />
<glyph unicode="n" d="M166 0v1071h287v-131q136 150 354 150q106 0 186.5 -36.5t129 -102t72.5 -149.5t24 -186v-616h-287v569q0 256 -219 256q-98 0 -163.5 -55.5t-96.5 -132.5v-637h-287z" />
<glyph unicode="o" horiz-adv-x="1347" d="M98 532q0 121 43.5 226t119 180.5t182 118.5t229.5 43q251 0 414 -161.5t163 -406.5q0 -242 -163 -401.5t-414 -159.5q-123 0 -229.5 42.5t-182 117t-119 178.5t-43.5 223zM375 532q0 -128 83.5 -213.5t213.5 -85.5q133 0 217 85.5t84 213.5q0 131 -84 218.5t-217 87.5 q-130 0 -213.5 -87.5t-83.5 -218.5z" />
<glyph unicode="p" horiz-adv-x="1374" d="M166 -385v1456h287v-110q122 129 319 129q223 0 362.5 -156t139.5 -402q0 -243 -139.5 -397.5t-362.5 -154.5q-192 0 -319 120v-485h-287zM453 326q44 -42 108 -69.5t131 -27.5q132 0 211.5 83t79.5 220q0 139 -79 223.5t-212 84.5q-70 0 -135.5 -29t-103.5 -70v-415z " />
<glyph unicode="q" horiz-adv-x="1376" d="M102 532q0 246 139.5 402t362.5 156q198 0 320 -129v110h286v-1456h-286v485q-130 -120 -320 -120q-223 0 -362.5 154.5t-139.5 397.5zM393 532q0 -137 79.5 -220t211.5 -83q67 0 131.5 27.5t108.5 69.5v415q-39 41 -105.5 70t-134.5 29q-133 0 -212 -84.5t-79 -223.5z " />
<glyph unicode="r" horiz-adv-x="985" d="M166 0v1071h287v-190q100 209 284 209q132 0 228 -74l-109 -238q-75 47 -166 47q-87 0 -149 -58t-88 -149v-618h-287z" />
<glyph unicode="s" horiz-adv-x="1087" d="M117 72l53 243q188 -98 350 -98q180 0 180 82q0 60 -131 92l-159 41q-154 38 -223.5 110.5t-69.5 196.5q0 159 119.5 255t334.5 96q99 0 208 -23.5t175 -54.5l-75 -246q-165 84 -330 84q-148 0 -148 -88q0 -37 20 -50t87 -30l172 -43q165 -40 237 -119t72 -201 q0 -156 -124.5 -247.5t-332.5 -91.5q-231 0 -415 92z" />
<glyph unicode="t" horiz-adv-x="1046" d="M72 848v223h190l35 272h252v-272h391v-223h-391v-436q0 -183 145 -183q55 0 114 23t103 55l90 -221q-172 -106 -397 -106q-161 0 -251.5 96t-90.5 278v494h-190z" />
<glyph unicode="u" d="M154 455v616h286v-569q0 -256 224 -256q95 0 160 55.5t96 132.5v637h286v-1071h-286v131q-135 -149 -355 -149q-106 0 -186.5 36.5t-128.5 101.5t-72 149t-24 186z" />
<glyph unicode="v" horiz-adv-x="1277" d="M45 1071h305l289 -807l289 807h305l-414 -1071h-360z" />
<glyph unicode="w" horiz-adv-x="2060" d="M51 1071h305l248 -807l258 807h344l238 -807l268 807h305l-387 -1071h-354l-246 766l-258 -766h-354z" />
<glyph unicode="x" horiz-adv-x="1243" d="M63 0v23l359 509l-359 519v20h310l250 -375l249 375h308v-20l-361 -519l361 -509v-23h-312l-245 369l-246 -369h-314z" />
<glyph unicode="y" horiz-adv-x="1265" d="M25 1071h317l295 -758l285 758h288l-444 -1081q-42 -106 -82.5 -176t-94 -121.5t-121.5 -75t-157 -23.5q-68 0 -134 21t-111 51l43 232q109 -62 202 -62q68 0 107 32t71 105l23 56z" />
<glyph unicode="z" horiz-adv-x="1101" d="M113 0v201l518 645h-518v225h876v-201l-514 -645h514v-225h-876z" />
<glyph unicode="{" horiz-adv-x="708" d="M74 444v170q113 0 164 35.5t51 110.5q0 76 -53.5 222t-53.5 222q0 119 80 184.5t242 65.5h106v-201h-78q-61 0 -92.5 -33t-31.5 -81q0 -46 26.5 -120t53 -155t26.5 -143q0 -81 -41.5 -128.5t-130.5 -64.5q90 -17 131 -64t41 -130q0 -77 -53 -220t-53 -196 q0 -50 31.5 -83.5t92.5 -33.5h78v-200h-106q-163 0 -242.5 67.5t-79.5 194.5q0 76 53.5 223.5t53.5 226.5q0 70 -50.5 100.5t-164.5 30.5z" />
<glyph unicode="|" horiz-adv-x="559" d="M166 -385v1839h227v-1839h-227z" />
<glyph unicode="}" horiz-adv-x="706" d="M98 -199h78q61 0 93 34t32 83q0 53 -53 196t-53 220q0 83 41 130t131 64q-89 17 -130.5 64.5t-41.5 128.5q0 62 26.5 143t53 155t26.5 120q0 48 -32 81t-93 33h-78v201h105q162 0 242.5 -65.5t80.5 -184.5q0 -76 -53 -222t-53 -222q0 -75 50.5 -110.5t162.5 -35.5v-170 q-114 0 -163.5 -30.5t-49.5 -100.5q0 -65 26.5 -146t53 -161t26.5 -143q0 -127 -80 -194.5t-243 -67.5h-105v200z" />
<glyph unicode="~" horiz-adv-x="1077" d="M111 602q23 78 88 132t151 54q55 0 110 -23t91.5 -50.5t81.5 -50.5t82 -23q103 0 157 121l97 -135q-28 -88 -95 -141.5t-151 -53.5q-52 0 -103 23t-86.5 51t-82.5 51t-91 23q-50 0 -93 -31.5t-64 -87.5z" />
<glyph unicode="&#xa1;" horiz-adv-x="573" d="M109 928q0 83 46.5 127.5t131.5 44.5t130.5 -44.5t45.5 -127.5t-45.5 -128.5t-130.5 -45.5t-131.5 45.5t-46.5 128.5zM143 -319l43 937h203l43 -937h-289z" />
<glyph unicode="&#xa2;" horiz-adv-x="1222" d="M98 537q0 160 72.5 288t205 201.5t300.5 73.5q9 0 26.5 -1t26.5 -1l64 229l170 -45l-62 -221q98 -38 182 -109l-141 -211q-63 51 -111 70l-159 -578h16q145 0 254 97l141 -211q-168 -148 -407 -148q-26 0 -76 4l-72 -256l-168 45l70 254q-154 65 -243 203t-89 316z M391 537q0 -80 30 -144t85 -104l151 547q-122 -9 -194 -90.5t-72 -208.5z" />
<glyph unicode="&#xa3;" horiz-adv-x="1302" d="M92 203q0 94 59.5 152.5t153.5 58.5q49 0 96 -19q0 68 -39 228h-200v174h157q-24 117 -24 213q0 86 26.5 158t78.5 127.5t136.5 86.5t194.5 31q124 0 244 -49.5t182 -103.5l-84 -246q-36 32 -52.5 45.5t-57 40.5t-83.5 39t-92 12q-102 0 -154 -57.5t-52 -153.5 q0 -67 12 -143h391v-174h-364q28 -180 18 -299q4 -2 56 -37t86 -50.5t65 -15.5q78 0 104 57.5t23 184.5h225q10 -108 -2 -194.5t-46.5 -152t-97.5 -101t-151 -35.5q-35 0 -69 9.5t-70 30.5t-59.5 37t-64.5 47t-58 43q-46 -84 -107.5 -125.5t-163.5 -41.5q-103 0 -160 62 t-57 161zM264 197q0 -56 49 -56q60 0 76 101q-24 16 -55 16t-50.5 -17.5t-19.5 -43.5z" />
<glyph unicode="&#xa4;" horiz-adv-x="1140" d="M127 336l104 104q-49 77 -49 178q0 102 49 179l-104 106l162 160l110 -113q71 41 162 41q102 0 176 -47l117 119l162 -160l-119 -117q45 -73 45 -168q0 -92 -43 -167l117 -115l-162 -160l-117 117q-76 -45 -176 -45q-92 0 -162 39l-110 -111zM381 618q0 -77 51.5 -129.5 t128.5 -52.5q80 0 130 52t50 130q0 77 -50 130t-130 53q-77 0 -128.5 -53.5t-51.5 -129.5z" />
<glyph unicode="&#xa5;" horiz-adv-x="1263" d="M76 1372v21h295l258 -613l270 613h295v-21l-352 -684h237v-174h-307v-104h307v-172h-307v-238h-287v238h-307v172h307v104h-307v174h238z" />
<glyph unicode="&#xa6;" horiz-adv-x="569" d="M172 326h225v-711h-225v711zM172 768v686h225v-686h-225z" />
<glyph unicode="&#xa7;" horiz-adv-x="1298" d="M123 586q0 162 149 260q-145 69 -145 225q0 151 131.5 246.5t384.5 95.5q155 0 288 -25.5t220 -62.5l-76 -242q-81 39 -216.5 70t-244.5 31q-211 0 -211 -84q0 -32 30 -48.5t85 -27.5l293 -55q179 -34 273 -124.5t94 -211.5q0 -168 -156 -266q156 -78 156 -220 q0 -155 -143.5 -249.5t-383.5 -94.5q-152 0 -288 29.5t-218 65.5l66 245q82 -41 216.5 -73.5t256.5 -32.5q203 0 203 84q0 32 -37.5 52.5t-132.5 39.5l-281 55q-313 64 -313 318zM389 621q0 -53 32 -82.5t114 -46.5l176 -37q86 4 137 44.5t51 100.5t-44 95t-134 50l-160 29 q-85 -8 -128.5 -54.5t-43.5 -98.5z" />
<glyph unicode="&#xa8;" horiz-adv-x="1228" d="M211 1370q0 135 158 135q155 0 155 -135t-155 -135q-158 0 -158 135zM733 1370q0 135 160 135q154 0 154 -135t-154 -135q-160 0 -160 135z" />
<glyph unicode="&#xa9;" horiz-adv-x="1646" d="M106 694q0 152 54.5 285.5t149.5 228.5t227.5 150t283.5 55q152 0 285.5 -55t228.5 -150t150 -228.5t55 -285.5q0 -201 -93 -364.5t-258 -256.5t-368 -93q-201 0 -365 93t-257 256.5t-93 364.5zM266 694q0 -242 157 -401.5t398 -159.5q242 0 399.5 159.5t157.5 401.5 q0 244 -157.5 405t-399.5 161q-159 0 -286 -73.5t-198 -203t-71 -289.5zM467 694q0 158 103.5 258.5t260.5 100.5q161 0 281 -95l-90 -161q-67 57 -164 57q-78 0 -125 -45t-47 -115t46.5 -113.5t125.5 -43.5q97 0 164 57l90 -164q-123 -94 -281 -94q-157 0 -260.5 100 t-103.5 258z" />
<glyph unicode="&#xaa;" horiz-adv-x="993" d="M135 883q0 116 96.5 177.5t270.5 61.5q9 0 26 -1t25 -1v25q0 56 -28 78t-91 22q-52 0 -110.5 -15.5t-94.5 -37.5l-34 168q94 34 235 45q20 2 53 2q147 0 206 -61.5t59 -182.5v-266q0 -68 47 -68q28 0 69 23l8 -152q-85 -32 -161 -32q-100 0 -138 84q-88 -84 -208 -84 q-107 0 -168.5 59t-61.5 156zM180 356v156h645v-156h-645zM319 901q0 -76 111 -76q68 0 123 41v133q-12 2 -45 2q-189 0 -189 -100z" />
<glyph unicode="&#xab;" horiz-adv-x="1134" d="M92 590v55l332 420h20l105 -55l-217 -392l217 -391l-105 -55h-20zM569 590v55l332 420h21l104 -55l-217 -392l217 -391l-104 -55h-21z" />
<glyph unicode="&#xac;" horiz-adv-x="1275" d="M133 631v225h981l-2 -602h-225v377h-754z" />
<glyph unicode="&#xad;" horiz-adv-x="1101" d="M141 508v225h820v-225h-820z" />
<glyph unicode="&#xae;" horiz-adv-x="1646" d="M106 694q0 152 54.5 285.5t149.5 228.5t227.5 150t283.5 55q152 0 285.5 -55t228.5 -150t150 -228.5t55 -285.5q0 -201 -93 -364.5t-258 -256.5t-368 -93q-201 0 -365 93t-257 256.5t-93 364.5zM266 694q0 -242 157 -401.5t398 -159.5q242 0 399.5 159.5t157.5 401.5 q0 244 -157.5 405t-399.5 161q-159 0 -286 -73.5t-198 -203t-71 -289.5zM526 346v696h332q116 0 191 -62t75 -177q0 -69 -38.5 -123.5t-102.5 -81.5l160 -209v-43h-221l-164 234h-19v-234h-213zM739 729h109q32 0 51 19.5t19 50.5q0 33 -18.5 51t-51.5 18h-109v-139z" />
<glyph unicode="&#xaf;" horiz-adv-x="1228" d="M367 1249v197h522v-197h-522z" />
<glyph unicode="&#xb0;" horiz-adv-x="952" d="M96 1038q0 160 107.5 267.5t271.5 107.5q165 0 273 -107t108 -268q0 -160 -108 -265t-273 -105q-164 0 -271.5 105t-107.5 265zM295 1038q0 -76 51.5 -129t128.5 -53q80 0 130 52.5t50 129.5q0 78 -50 131.5t-130 53.5q-77 0 -128.5 -54t-51.5 -131z" />
<glyph unicode="&#xb1;" horiz-adv-x="1277" d="M150 106v226h978v-226h-978zM150 737v226h376v376h226v-376h376v-226h-376v-248h-226v248h-376z" />
<glyph unicode="&#xb2;" horiz-adv-x="706" d="M70 1366q3 117 75.5 184.5t200.5 67.5q131 0 198.5 -65.5t67.5 -176.5q0 -59 -37 -122t-110 -115l-121 -86h287v-140h-541v119l264 199q95 68 95 145q0 42 -27.5 69.5t-77.5 27.5q-64 0 -96.5 -36.5t-32.5 -97.5z" />
<glyph unicode="&#xb3;" horiz-adv-x="681" d="M68 944l41 133q92 -39 192 -39q65 0 103 24.5t38 65.5q0 72 -129 72h-159v135h159q52 0 80.5 20t28.5 52q0 74 -121 74q-107 0 -199 -39l-34 135q40 15 106 28t127 13q138 0 210.5 -50.5t72.5 -144.5q0 -52 -34 -93t-91 -54q69 -15 108 -59t39 -113q0 -93 -78 -147 t-227 -54q-107 0 -233 41z" />
<glyph unicode="&#xb4;" horiz-adv-x="1228" d="M403 1206l166 312h285l-209 -312h-242z" />
<glyph unicode="&#xb5;" horiz-adv-x="1325" d="M168 -385v1456h287v-547q0 -156 46.5 -219t170.5 -63q86 0 145 41.5t92 101.5v686h287v-1071h-287v96q-119 -116 -344 -116q-61 0 -110 12v-377h-287z" />
<glyph unicode="&#xb6;" horiz-adv-x="1257" d="M61 786q0 134 82 208.5t213 76.5h344v-1456h-221v887h-123q-130 0 -212.5 75t-82.5 209zM856 -385v1456h221v-1456h-221z" />
<glyph unicode="&#xb7;" horiz-adv-x="612" d="M129 604q0 83 45.5 128.5t130.5 45.5t131.5 -45.5t46.5 -128.5t-46.5 -127.5t-131.5 -44.5t-130.5 44.5t-45.5 127.5z" />
<glyph unicode="&#xb8;" horiz-adv-x="1228" d="M418 -383l24 94q75 -22 127 -22q111 0 111 59q0 55 -107 55q-69 0 -127 -12l-8 10l60 199h116l-34 -117q21 6 53 6q84 0 131 -37.5t47 -99.5q0 -73 -65.5 -115.5t-167.5 -42.5q-84 0 -160 23z" />
<glyph unicode="&#xb9;" horiz-adv-x="561" d="M27 1440l301 166h116v-693h-159v512l-197 -104z" />
<glyph unicode="&#xba;" horiz-adv-x="1030" d="M135 1038q0 160 107.5 267.5t271.5 107.5q165 0 273 -107t108 -268q0 -160 -108 -265t-273 -105q-164 0 -271.5 105t-107.5 265zM193 356v156h645v-156h-645zM313 1038q0 -86 56.5 -144t144.5 -58t144.5 58t56.5 144q0 87 -56.5 146t-144.5 59t-144.5 -59t-56.5 -146z " />
<glyph unicode="&#xbb;" horiz-adv-x="1132" d="M106 1008l105 57h22l330 -420v-55l-330 -418h-22l-102 53l215 393zM584 1008l104 57h23l329 -420v-55l-329 -418h-23l-102 53l215 393z" />
<glyph unicode="&#xbc;" horiz-adv-x="1638" d="M59 1235l301 166h117v-692h-160v512l-196 -105zM297 0v23l756 1370h164v-21l-754 -1372h-166zM909 125v104l322 463h213v-448h117v-119h-117v-125h-160v125h-375zM1069 244h215v311z" />
<glyph unicode="&#xbd;" horiz-adv-x="1624" d="M59 1227l301 166h117v-693h-160v512l-196 -104zM297 0v23l756 1370h164v-21l-754 -1372h-166zM973 453q3 117 75.5 184.5t200.5 67.5q131 0 199 -65.5t68 -176.5q0 -59 -37.5 -122.5t-110.5 -115.5l-121 -86h287v-139h-541v119l264 198q95 68 95 146q0 42 -27.5 69 t-77.5 27q-64 0 -96.5 -36t-32.5 -97z" />
<glyph unicode="&#xbe;" horiz-adv-x="1726" d="M88 739l41 133q90 -38 193 -38q65 0 103 24.5t38 65.5q0 38 -31.5 54.5t-97.5 16.5h-160v135h160q52 0 80 20t28 52q0 74 -120 74q-107 0 -199 -39l-35 135q40 15 106.5 28t127.5 13q138 0 210 -50t72 -144q0 -52 -34 -93.5t-91 -54.5q69 -15 108.5 -59t39.5 -113 q0 -93 -78 -147t-227 -54q-108 0 -234 41zM393 0v23l756 1370h164v-21l-754 -1372h-166zM1006 125v104l321 463h213v-448h117v-119h-117v-125h-160v125h-374zM1165 244h215v311z" />
<glyph unicode="&#xbf;" horiz-adv-x="954" d="M86 25q0 37 6.5 71t12 56.5t24 50.5t25 39t35 38t32.5 30.5t37 31.5l109 88q35 29 47 49t12 56t-14 83h235q3 -9 11 -30t12 -39.5t4 -44.5q0 -111 -127 -215l-92 -78q-45 -36 -66.5 -74t-21.5 -94q0 -66 44.5 -105.5t114.5 -39.5q83 0 162 38t127 91l76 -224 q-159 -143 -406 -143q-183 0 -291 101.5t-108 263.5zM358 928q0 83 45 127.5t127 44.5q83 0 127.5 -44.5t44.5 -127.5t-44.5 -128.5t-127.5 -45.5q-82 0 -127 45.5t-45 128.5z" />
<glyph unicode="&#xc0;" horiz-adv-x="1474" d="M18 0l555 1393h336l539 -1393h-291l-106 279h-633l-109 -279h-291zM432 1839h285l166 -311h-242zM492 492h487l-238 616z" />
<glyph unicode="&#xc1;" horiz-adv-x="1474" d="M18 0l555 1393h336l539 -1393h-291l-106 279h-633l-109 -279h-291zM492 492h487l-238 616zM588 1528l166 311h284l-209 -311h-241z" />
<glyph unicode="&#xc2;" horiz-adv-x="1474" d="M18 0l555 1393h336l539 -1393h-291l-106 279h-633l-109 -279h-291zM387 1528l213 311h279l211 -311h-216l-135 172l-135 -172h-217zM492 492h487l-238 616z" />
<glyph unicode="&#xc3;" horiz-adv-x="1474" d="M18 0l555 1393h336l539 -1393h-291l-106 279h-633l-109 -279h-291zM354 1663q32 72 95.5 122t134.5 50q46 0 93.5 -19t80 -41.5t70 -41.5t67.5 -19q93 0 141 90l88 -110q-39 -82 -98 -128t-131 -46q-54 0 -113.5 30t-110.5 60t-85 30q-89 0 -146 -90zM492 492h487 l-238 616z" />
<glyph unicode="&#xc4;" horiz-adv-x="1474" d="M18 0l555 1393h336l539 -1393h-291l-106 279h-633l-109 -279h-291zM324 1692q0 135 157 135q156 0 156 -135q0 -70 -42 -103t-114 -33q-157 0 -157 136zM492 492h487l-238 616zM846 1692q0 135 160 135q153 0 153 -135q0 -136 -153 -136q-160 0 -160 136z" />
<glyph unicode="&#xc5;" horiz-adv-x="1474" d="M18 0l553 1391q-30 47 -30 108q0 83 58.5 142t141.5 59t142 -59t59 -142q0 -57 -33 -108l539 -1391h-291l-106 279h-633l-109 -279h-291zM492 492h487l-238 616zM657 1499q0 -35 24.5 -59.5t59.5 -24.5q34 0 58 24.5t24 59.5q0 34 -24 58t-58 24q-35 0 -59.5 -24 t-24.5 -58z" />
<glyph unicode="&#xc6;" horiz-adv-x="2170" d="M-18 0l804 1393h1276v-252h-827v-312h678v-231h-678v-348h827v-250h-1101v279h-512l-162 -279h-305zM557 492h404v714z" />
<glyph unicode="&#xc7;" horiz-adv-x="1456" d="M102 696q0 201 95 365.5t262 258t372 93.5q326 0 545 -201l-135 -202q-174 137 -407 137q-191 0 -313 -129.5t-122 -321.5t122 -321t313 -129q233 0 407 137l135 -203q-212 -194 -530 -200l-29 -97q21 6 53 6q84 0 131.5 -38t47.5 -99q0 -73 -65.5 -115.5t-168.5 -42.5 q-84 0 -160 23l25 94q75 -22 127 -22q111 0 111 59q0 55 -107 55q-69 0 -127 -12l-8 10l55 185q-275 34 -452 232t-177 478z" />
<glyph unicode="&#xc8;" horiz-adv-x="1398" d="M188 0v1393h1102v-252h-827v-301h678v-252h-678v-336h827v-252h-1102zM430 1839h285l166 -311h-242z" />
<glyph unicode="&#xc9;" horiz-adv-x="1398" d="M188 0v1393h1102v-252h-827v-301h678v-252h-678v-336h827v-252h-1102zM590 1528l166 311h284l-209 -311h-241z" />
<glyph unicode="&#xca;" horiz-adv-x="1398" d="M188 0v1393h1102v-252h-827v-301h678v-252h-678v-336h827v-252h-1102zM387 1528l213 311h279l211 -311h-216l-135 172l-135 -172h-217z" />
<glyph unicode="&#xcb;" horiz-adv-x="1398" d="M188 0v1393h1102v-252h-827v-301h678v-252h-678v-336h827v-252h-1102zM322 1692q0 135 157 135q156 0 156 -135q0 -70 -42 -103t-114 -33q-157 0 -157 136zM844 1692q0 135 160 135q153 0 153 -135q0 -136 -153 -136q-160 0 -160 136z" />
<glyph unicode="&#xcc;" horiz-adv-x="663" d="M16 1839h285l166 -311h-242zM188 0v1393h287v-1393h-287z" />
<glyph unicode="&#xcd;" horiz-adv-x="663" d="M188 0v1393h287v-1393h-287zM199 1528l166 311h284l-209 -311h-241z" />
<glyph unicode="&#xce;" horiz-adv-x="663" d="M-23 1528l213 311h279l211 -311h-215l-135 172l-135 -172h-218zM188 0v1393h287v-1393h-287z" />
<glyph unicode="&#xcf;" horiz-adv-x="663" d="M-88 1692q0 135 158 135q155 0 155 -135q0 -70 -41.5 -103t-113.5 -33q-73 0 -115.5 33t-42.5 103zM188 0v1393h287v-1393h-287zM434 1692q0 135 160 135q154 0 154 -135q0 -136 -154 -136q-160 0 -160 136z" />
<glyph unicode="&#xd0;" horiz-adv-x="1624" d="M70 623v143h129v627h600q155 -1 286 -47t227.5 -132.5t151 -220t54.5 -299.5q0 -165 -54.5 -297.5t-151 -218.5t-227.5 -132t-286 -46h-600v623h-129zM485 250h301q197 0 318 117t121 327q0 213 -121 331t-318 118h-301v-377h275v-143h-275v-373z" />
<glyph unicode="&#xd1;" horiz-adv-x="1695" d="M188 0v1393h250l783 -938v938h286v-1393h-250l-782 936v-936h-287zM469 1663q32 72 95 122t134 50q46 0 93.5 -19t80 -41.5t70.5 -41.5t68 -19q93 0 141 90l88 -110q-39 -82 -98 -128t-131 -46q-43 0 -90 19t-81 41t-72.5 41t-66.5 19q-88 0 -145 -90z" />
<glyph unicode="&#xd2;" horiz-adv-x="1638" d="M102 694q0 152 54.5 285.5t149.5 228.5t227.5 150t283.5 55q152 0 285.5 -55t228.5 -150t150 -228.5t55 -285.5q0 -201 -93 -364.5t-258 -256.5t-368 -93q-201 0 -365 93t-257 256.5t-93 364.5zM385 694q0 -190 123 -318t311 -128q190 0 312 127.5t122 318.5 q0 193 -121.5 320t-312.5 127q-188 0 -311 -127t-123 -320zM498 1839h284l166 -311h-241z" />
<glyph unicode="&#xd3;" horiz-adv-x="1638" d="M102 694q0 152 54.5 285.5t149.5 228.5t227.5 150t283.5 55q152 0 285.5 -55t228.5 -150t150 -228.5t55 -285.5q0 -201 -93 -364.5t-258 -256.5t-368 -93q-201 0 -365 93t-257 256.5t-93 364.5zM385 694q0 -190 123 -318t311 -128q190 0 312 127.5t122 318.5 q0 193 -121.5 320t-312.5 127q-188 0 -311 -127t-123 -320zM686 1528l166 311h285l-209 -311h-242z" />
<glyph unicode="&#xd4;" horiz-adv-x="1638" d="M102 694q0 152 54.5 285.5t149.5 228.5t227.5 150t283.5 55q152 0 285.5 -55t228.5 -150t150 -228.5t55 -285.5q0 -201 -93 -364.5t-258 -256.5t-368 -93q-201 0 -365 93t-257 256.5t-93 364.5zM385 694q0 -190 123 -318t311 -128q190 0 312 127.5t122 318.5 q0 193 -121.5 320t-312.5 127q-188 0 -311 -127t-123 -320zM465 1528l213 311h278l211 -311h-215l-135 172l-135 -172h-217z" />
<glyph unicode="&#xd5;" horiz-adv-x="1638" d="M102 694q0 152 54.5 285.5t149.5 228.5t227.5 150t283.5 55q152 0 285.5 -55t228.5 -150t150 -228.5t55 -285.5q0 -201 -93 -364.5t-258 -256.5t-368 -93q-201 0 -365 93t-257 256.5t-93 364.5zM385 694q0 -190 123 -318t311 -128q190 0 312 127.5t122 318.5 q0 193 -121.5 320t-312.5 127q-188 0 -311 -127t-123 -320zM432 1663q32 72 95.5 122t134.5 50q46 0 93.5 -19t80 -41.5t70 -41.5t67.5 -19q93 0 141 90l88 -110q-39 -82 -98 -128t-131 -46q-54 0 -113.5 30t-110.5 60t-85 30q-89 0 -146 -90z" />
<glyph unicode="&#xd6;" horiz-adv-x="1638" d="M102 694q0 152 54.5 285.5t149.5 228.5t227.5 150t283.5 55q152 0 285.5 -55t228.5 -150t150 -228.5t55 -285.5q0 -201 -93 -364.5t-258 -256.5t-368 -93q-201 0 -365 93t-257 256.5t-93 364.5zM385 694q0 -190 123 -318t311 -128q190 0 312 127.5t122 318.5 q0 193 -121.5 320t-312.5 127q-188 0 -311 -127t-123 -320zM399 1692q0 135 158 135q156 0 156 -135q0 -70 -42 -103t-114 -33q-73 0 -115.5 33t-42.5 103zM922 1692q0 135 159 135q154 0 154 -135q0 -136 -154 -136q-159 0 -159 136z" />
<glyph unicode="&#xd7;" horiz-adv-x="1105" d="M127 354l266 267l-266 264l160 162l266 -269l264 269l162 -162l-268 -264l268 -267l-162 -159l-264 266l-266 -266z" />
<glyph unicode="&#xd8;" horiz-adv-x="1636" d="M102 694q0 152 54.5 285.5t149.5 228.5t227.5 150t283.5 55q221 0 395 -113l76 93h205v-21l-147 -180q91 -97 140.5 -224.5t49.5 -273.5q0 -201 -93 -364.5t-258 -256.5t-368 -93q-205 0 -375 98l-63 -78h-207v23l133 163q-97 97 -150 227.5t-53 280.5zM379 694 q0 -169 100 -293l559 686q-99 58 -221 58q-188 0 -313 -129t-125 -322zM616 293q89 -47 201 -47q190 0 314 128.5t124 319.5q0 157 -88 279z" />
<glyph unicode="&#xd9;" horiz-adv-x="1605" d="M170 588v805h287v-787q0 -170 87.5 -266t256.5 -96q172 0 261 98.5t89 265.5v785h287v-805q0 -124 -42 -234t-120 -194.5t-200.5 -133.5t-274.5 -49q-151 0 -271.5 45.5t-199 127.5t-119.5 193.5t-41 244.5zM483 1839h285l166 -311h-242z" />
<glyph unicode="&#xda;" horiz-adv-x="1605" d="M170 588v805h287v-787q0 -170 87.5 -266t256.5 -96q172 0 261 98.5t89 265.5v785h287v-805q0 -124 -42 -234t-120 -194.5t-200.5 -133.5t-274.5 -49q-151 0 -271.5 45.5t-199 127.5t-119.5 193.5t-41 244.5zM672 1528l166 311h284l-209 -311h-241z" />
<glyph unicode="&#xdb;" horiz-adv-x="1605" d="M170 588v805h287v-787q0 -170 87.5 -266t256.5 -96q172 0 261 98.5t89 265.5v785h287v-805q0 -124 -42 -234t-120 -194.5t-200.5 -133.5t-274.5 -49q-151 0 -271.5 45.5t-199 127.5t-119.5 193.5t-41 244.5zM451 1528l213 311h278l211 -311h-215l-135 172l-135 -172h-217 z" />
<glyph unicode="&#xdc;" horiz-adv-x="1605" d="M170 588v805h287v-787q0 -170 87.5 -266t256.5 -96q172 0 261 98.5t89 265.5v785h287v-805q0 -124 -42 -234t-120 -194.5t-200.5 -133.5t-274.5 -49q-151 0 -271.5 45.5t-199 127.5t-119.5 193.5t-41 244.5zM385 1692q0 135 158 135q155 0 155 -135q0 -70 -41.5 -103 t-113.5 -33q-73 0 -115.5 33t-42.5 103zM907 1692q0 135 160 135q154 0 154 -135q0 -136 -154 -136q-160 0 -160 136z" />
<glyph unicode="&#xdd;" horiz-adv-x="1413" d="M18 1372v21h320l369 -578l368 578h320v-21l-545 -819v-553h-287v551zM573 1528l166 311h285l-209 -311h-242z" />
<glyph unicode="&#xde;" horiz-adv-x="1431" d="M188 0v1393h287v-193h379q105 0 194.5 -28.5t160 -86.5t111 -154t40.5 -222q0 -115 -40.5 -208.5t-110.5 -153.5t-161 -92t-194 -32h-379v-223h-287zM475 473h338q110 0 182 62.5t72 175.5q0 118 -71 178.5t-183 60.5h-338v-477z" />
<glyph unicode="&#xdf;" horiz-adv-x="1417" d="M166 0v885q0 150 45 266t123.5 185t176.5 104t212 35q120 0 215.5 -37.5t153.5 -99t88 -136t30 -153.5q0 -63 -21 -119.5t-45.5 -89t-45.5 -62t-21 -43.5q0 -13 25 -37.5t61 -59t72 -77t61 -103t25 -124.5q0 -174 -107.5 -264t-287.5 -90q-169 0 -310 57l43 231 q85 -47 181 -47q83 0 127.5 36.5t44.5 98.5q0 43 -26 85.5t-63.5 77t-75 65.5t-63.5 62t-26 56q0 28 16.5 57t40 56t47 57t40 71t16.5 87q0 86 -62 140.5t-158 54.5q-118 0 -181.5 -86t-63.5 -232v-907h-287z" />
<glyph unicode="&#xe0;" horiz-adv-x="1193" d="M86 299q0 182 131 279.5t356 97.5q107 0 181 -14q-3 97 -49 140.5t-140 43.5q-80 0 -174.5 -21t-163.5 -53l-49 246q81 32 192 52t218 20q96 0 173.5 -22.5t128.5 -61t85.5 -93t49.5 -115t15 -130.5v-668h-286v102q-129 -122 -316 -122q-167 0 -259.5 85.5t-92.5 233.5z M311 1518h285l166 -312h-242zM373 330q0 -125 159 -125q125 0 222 84v170q-58 14 -119 14q-117 0 -189.5 -37.5t-72.5 -105.5z" />
<glyph unicode="&#xe1;" horiz-adv-x="1193" d="M86 299q0 182 131 279.5t356 97.5q107 0 181 -14q-3 97 -49 140.5t-140 43.5q-80 0 -174.5 -21t-163.5 -53l-49 246q81 32 192 52t218 20q96 0 173.5 -22.5t128.5 -61t85.5 -93t49.5 -115t15 -130.5v-668h-286v102q-129 -122 -316 -122q-167 0 -259.5 85.5t-92.5 233.5z M373 330q0 -125 159 -125q125 0 222 84v170q-58 14 -119 14q-117 0 -189.5 -37.5t-72.5 -105.5zM479 1206l166 312h285l-209 -312h-242z" />
<glyph unicode="&#xe2;" horiz-adv-x="1193" d="M86 299q0 182 131 279.5t356 97.5q107 0 181 -14q-3 97 -49 140.5t-140 43.5q-80 0 -174.5 -21t-163.5 -53l-49 246q81 32 192 52t218 20q96 0 173.5 -22.5t128.5 -61t85.5 -93t49.5 -115t15 -130.5v-668h-286v102q-129 -122 -316 -122q-167 0 -259.5 85.5t-92.5 233.5z M258 1206l213 312h279l211 -312h-216l-135 172l-135 -172h-217zM373 330q0 -125 159 -125q125 0 222 84v170q-58 14 -119 14q-117 0 -189.5 -37.5t-72.5 -105.5z" />
<glyph unicode="&#xe3;" horiz-adv-x="1193" d="M86 299q0 182 131 279.5t356 97.5q107 0 181 -14q-3 97 -49 140.5t-140 43.5q-80 0 -174.5 -21t-163.5 -53l-49 246q81 32 192 52t218 20q96 0 173.5 -22.5t128.5 -61t85.5 -93t49.5 -115t15 -130.5v-668h-286v102q-129 -122 -316 -122q-167 0 -259.5 85.5t-92.5 233.5z M221 1341q32 72 95.5 122t134.5 50q46 0 93.5 -18.5t80 -41.5t70 -41.5t67.5 -18.5q93 0 141 90l88 -111q-39 -82 -98 -128t-131 -46q-43 0 -90 19t-81 41.5t-72 41.5t-66 19q-89 0 -146 -90zM373 330q0 -125 159 -125q125 0 222 84v170q-58 14 -119 14q-117 0 -189.5 -37.5 t-72.5 -105.5z" />
<glyph unicode="&#xe4;" horiz-adv-x="1193" d="M86 299q0 182 131 279.5t356 97.5q107 0 181 -14q-3 97 -49 140.5t-140 43.5q-80 0 -174.5 -21t-163.5 -53l-49 246q81 32 192 52t218 20q96 0 173.5 -22.5t128.5 -61t85.5 -93t49.5 -115t15 -130.5v-668h-286v102q-129 -122 -316 -122q-167 0 -259.5 85.5t-92.5 233.5z M197 1370q0 135 157 135q156 0 156 -135t-156 -135q-157 0 -157 135zM373 330q0 -125 159 -125q125 0 222 84v170q-58 14 -119 14q-117 0 -189.5 -37.5t-72.5 -105.5zM719 1370q0 135 160 135q153 0 153 -135t-153 -135q-160 0 -160 135z" />
<glyph unicode="&#xe5;" horiz-adv-x="1193" d="M86 299q0 182 131 279.5t356 97.5q107 0 181 -14q-3 97 -49 140.5t-140 43.5q-80 0 -174.5 -21t-163.5 -53l-49 246q81 32 192 52t218 20q96 0 173.5 -22.5t128.5 -61t85.5 -93t49.5 -115t15 -130.5v-668h-286v102q-129 -122 -316 -122q-167 0 -259.5 85.5t-92.5 233.5z M373 330q0 -125 159 -125q125 0 222 84v170q-58 14 -119 14q-117 0 -189.5 -37.5t-72.5 -105.5zM410 1372q0 83 58.5 142t141.5 59t142 -59t59 -142t-59 -142t-142 -59t-141.5 59t-58.5 142zM526 1372q0 -35 24.5 -59.5t59.5 -24.5q34 0 58 24.5t24 59.5q0 34 -24 58t-58 24 q-35 0 -59.5 -24t-24.5 -58z" />
<glyph unicode="&#xe6;" horiz-adv-x="1871" d="M84 299q0 171 140.5 271t381.5 100q80 0 148 -11q0 107 -40.5 147t-158.5 40q-75 0 -170 -23t-158 -53l-51 248q96 34 207.5 53t189.5 19q94 0 161 -14.5t107 -42.5t61.5 -57.5t39.5 -72.5q56 80 147 138.5t211 58.5q114 0 204.5 -36t147 -98t86 -142t29.5 -171 q0 -132 -20 -196h-703q6 -125 75.5 -190.5t221.5 -65.5q82 0 164.5 31t143.5 77l108 -192q-180 -146 -442 -146q-296 0 -408 189q-41 -36 -79.5 -63t-94 -56t-124 -45t-144.5 -16q-178 0 -279.5 86t-101.5 233zM373 330q0 -125 159 -125q66 0 125.5 25t96.5 59v194 q-61 9 -109 9q-29 0 -56.5 -2.5t-60 -8t-59 -17.5t-49 -29t-35 -44t-12.5 -61zM1055 653h473q2 10 2 27q0 98 -58 154.5t-169 56.5t-177 -66t-71 -172z" />
<glyph unicode="&#xe7;" horiz-adv-x="1165" d="M100 537q0 160 72.5 288t205 201.5t300.5 73.5q239 0 407 -148l-141 -211q-109 97 -254 97q-134 0 -215.5 -83.5t-81.5 -217.5q0 -135 81.5 -219.5t215.5 -84.5q145 0 254 97l141 -211q-164 -145 -401 -148l-27 -88q21 6 54 6q84 0 131 -37.5t47 -99.5 q0 -73 -65.5 -115.5t-168.5 -42.5q-83 0 -159 23l24 94q75 -22 127 -22q111 0 111 59q0 55 -107 55q-69 0 -127 -12l-8 10l53 181q-212 34 -340.5 186.5t-128.5 368.5z" />
<glyph unicode="&#xe8;" horiz-adv-x="1249" d="M100 532q0 159 69 288t199 204.5t298 75.5q119 0 212 -34.5t150.5 -96t87 -141.5t29.5 -175q0 -50 -7 -114t-16 -95h-727q42 -233 297 -233q94 0 183 32.5t151 78.5l109 -205q-180 -146 -451 -146q-147 0 -260.5 43t-183.5 120t-105 177.5t-35 220.5zM379 1518h285 l165 -312h-241zM403 666h465q2 10 2 36q0 69 -54 114.5t-157 45.5q-109 0 -174.5 -55.5t-81.5 -140.5z" />
<glyph unicode="&#xe9;" horiz-adv-x="1249" d="M100 532q0 159 69 288t199 204.5t298 75.5q119 0 212 -34.5t150.5 -96t87 -141.5t29.5 -175q0 -50 -7 -114t-16 -95h-727q42 -233 297 -233q94 0 183 32.5t151 78.5l109 -205q-180 -146 -451 -146q-147 0 -260.5 43t-183.5 120t-105 177.5t-35 220.5zM403 666h465 q2 10 2 36q0 69 -54 114.5t-157 45.5q-109 0 -174.5 -55.5t-81.5 -140.5zM528 1206l166 312h285l-209 -312h-242z" />
<glyph unicode="&#xea;" horiz-adv-x="1249" d="M100 532q0 159 69 288t199 204.5t298 75.5q119 0 212 -34.5t150.5 -96t87 -141.5t29.5 -175q0 -50 -7 -114t-16 -95h-727q42 -233 297 -233q94 0 183 32.5t151 78.5l109 -205q-180 -146 -451 -146q-147 0 -260.5 43t-183.5 120t-105 177.5t-35 220.5zM322 1206l213 312 h278l211 -312h-215l-135 172l-135 -172h-217zM403 666h465q2 10 2 36q0 69 -54 114.5t-157 45.5q-109 0 -174.5 -55.5t-81.5 -140.5z" />
<glyph unicode="&#xeb;" horiz-adv-x="1249" d="M100 532q0 159 69 288t199 204.5t298 75.5q119 0 212 -34.5t150.5 -96t87 -141.5t29.5 -175q0 -50 -7 -114t-16 -95h-727q42 -233 297 -233q94 0 183 32.5t151 78.5l109 -205q-180 -146 -451 -146q-147 0 -260.5 43t-183.5 120t-105 177.5t-35 220.5zM254 1370 q0 135 158 135q155 0 155 -135t-155 -135q-158 0 -158 135zM403 666h465q2 10 2 36q0 69 -54 114.5t-157 45.5q-109 0 -174.5 -55.5t-81.5 -140.5zM776 1370q0 135 160 135q154 0 154 -135t-154 -135q-160 0 -160 135z" />
<glyph unicode="&#xec;" horiz-adv-x="618" d="M2 1518h285l166 -312h-242zM166 0v1071h287v-1071h-287z" />
<glyph unicode="&#xed;" horiz-adv-x="618" d="M166 0v1071h287v-1071h-287zM172 1206l166 312h285l-209 -312h-242z" />
<glyph unicode="&#xee;" horiz-adv-x="618" d="M-43 1206l213 312h279l210 -312h-215l-135 172l-135 -172h-217zM166 0v1071h287v-1071h-287z" />
<glyph unicode="&#xef;" horiz-adv-x="618" d="M-106 1370q0 135 157 135q156 0 156 -135t-156 -135q-157 0 -157 135zM166 0v1071h287v-1071h-287zM416 1370q0 135 159 135q154 0 154 -135t-154 -135q-159 0 -159 135z" />
<glyph unicode="&#xf0;" horiz-adv-x="1290" d="M109 477q0 200 116.5 325.5t317.5 125.5q188 0 338 -135q-27 205 -183 354l-106 -113l-76 66l105 110q-77 56 -160 84l112 181q110 -24 218 -84l100 106l78 -63l-95 -101q137 -108 219.5 -272t82.5 -363q0 -217 -65.5 -377.5t-196 -250.5t-312.5 -90q-218 0 -355.5 136 t-137.5 361zM393 475q0 -99 59.5 -166t159.5 -67q115 0 181.5 83t87.5 230q-130 139 -271 139q-100 0 -158.5 -57t-58.5 -162z" />
<glyph unicode="&#xf1;" d="M166 0v1071h287v-131q136 150 354 150q106 0 186.5 -36.5t129 -102t72.5 -149.5t24 -186v-616h-287v569q0 256 -219 256q-98 0 -163.5 -55.5t-96.5 -132.5v-637h-287zM305 1341q32 72 95.5 122t134.5 50q46 0 93.5 -18.5t80 -41.5t70 -41.5t67.5 -18.5q93 0 141 90 l88 -111q-39 -82 -98 -128t-131 -46q-43 0 -90 19t-81 41.5t-72 41.5t-66 19q-89 0 -146 -90z" />
<glyph unicode="&#xf2;" horiz-adv-x="1347" d="M98 532q0 121 43.5 226t119 180.5t182 118.5t229.5 43q251 0 414 -161.5t163 -406.5q0 -242 -163 -401.5t-414 -159.5q-123 0 -229.5 42.5t-182 117t-119 178.5t-43.5 223zM352 1518h285l166 -312h-242zM375 532q0 -128 83.5 -213.5t213.5 -85.5q133 0 217 85.5t84 213.5 q0 131 -84 218.5t-217 87.5q-130 0 -213.5 -87.5t-83.5 -218.5z" />
<glyph unicode="&#xf3;" horiz-adv-x="1347" d="M98 532q0 121 43.5 226t119 180.5t182 118.5t229.5 43q251 0 414 -161.5t163 -406.5q0 -242 -163 -401.5t-414 -159.5q-123 0 -229.5 42.5t-182 117t-119 178.5t-43.5 223zM375 532q0 -128 83.5 -213.5t213.5 -85.5q133 0 217 85.5t84 213.5q0 131 -84 218.5t-217 87.5 q-130 0 -213.5 -87.5t-83.5 -218.5zM541 1206l166 312h284l-209 -312h-241z" />
<glyph unicode="&#xf4;" horiz-adv-x="1347" d="M98 532q0 121 43.5 226t119 180.5t182 118.5t229.5 43q251 0 414 -161.5t163 -406.5q0 -242 -163 -401.5t-414 -159.5q-123 0 -229.5 42.5t-182 117t-119 178.5t-43.5 223zM319 1206l213 312h279l211 -312h-215l-135 172l-135 -172h-218zM375 532q0 -128 83.5 -213.5 t213.5 -85.5q133 0 217 85.5t84 213.5q0 131 -84 218.5t-217 87.5q-130 0 -213.5 -87.5t-83.5 -218.5z" />
<glyph unicode="&#xf5;" horiz-adv-x="1347" d="M98 532q0 121 43.5 226t119 180.5t182 118.5t229.5 43q251 0 414 -161.5t163 -406.5q0 -242 -163 -401.5t-414 -159.5q-123 0 -229.5 42.5t-182 117t-119 178.5t-43.5 223zM287 1341q32 72 95 122t134 50q46 0 93.5 -18.5t80 -41.5t70 -41.5t67.5 -18.5q94 0 142 90 l88 -111q-39 -81 -98.5 -127.5t-131.5 -46.5q-43 0 -90 19t-81 41.5t-72 41.5t-66 19q-88 0 -145 -90zM375 532q0 -128 83.5 -213.5t213.5 -85.5q133 0 217 85.5t84 213.5q0 131 -84 218.5t-217 87.5q-130 0 -213.5 -87.5t-83.5 -218.5z" />
<glyph unicode="&#xf6;" horiz-adv-x="1347" d="M98 532q0 121 43.5 226t119 180.5t182 118.5t229.5 43q251 0 414 -161.5t163 -406.5q0 -242 -163 -401.5t-414 -159.5q-123 0 -229.5 42.5t-182 117t-119 178.5t-43.5 223zM254 1370q0 135 158 135q155 0 155 -135t-155 -135q-158 0 -158 135zM375 532 q0 -128 83.5 -213.5t213.5 -85.5q133 0 217 85.5t84 213.5q0 131 -84 218.5t-217 87.5q-130 0 -213.5 -87.5t-83.5 -218.5zM776 1370q0 135 160 135q154 0 154 -135t-154 -135q-160 0 -160 135z" />
<glyph unicode="&#xf7;" horiz-adv-x="1187" d="M104 508v225h979v-225h-979zM432 221q0 74 41.5 115t116.5 41t117.5 -41.5t42.5 -114.5q0 -74 -42 -114.5t-118 -40.5q-75 0 -116.5 40t-41.5 115zM432 1016q0 74 41.5 114.5t116.5 40.5t117.5 -41t42.5 -114q0 -75 -42.5 -115.5t-117.5 -40.5t-116.5 40.5t-41.5 115.5z " />
<glyph unicode="&#xf8;" horiz-adv-x="1347" d="M98 532q0 121 43.5 226t119 180.5t182 118.5t229.5 43q186 0 329 -92l54 63h141v-22l-100 -121q153 -159 153 -396q0 -242 -163 -401.5t-414 -159.5q-164 0 -303 76l-39 -47h-146v23l84 100q-81 76 -125.5 181t-44.5 228zM375 532q0 -115 67 -198l385 463q-68 41 -155 41 q-130 0 -213.5 -87.5t-83.5 -218.5zM543 258q55 -27 129 -27q133 0 217 86.5t84 214.5q0 107 -53 181z" />
<glyph unicode="&#xf9;" d="M154 455v616h286v-569q0 -256 224 -256q95 0 160 55.5t96 132.5v637h286v-1071h-286v131q-135 -149 -355 -149q-106 0 -186.5 36.5t-128.5 101.5t-72 149t-24 186zM354 1518h285l166 -312h-242z" />
<glyph unicode="&#xfa;" d="M154 455v616h286v-569q0 -256 224 -256q95 0 160 55.5t96 132.5v637h286v-1071h-286v131q-135 -149 -355 -149q-106 0 -186.5 36.5t-128.5 101.5t-72 149t-24 186zM573 1206l166 312h285l-209 -312h-242z" />
<glyph unicode="&#xfb;" d="M154 455v616h286v-569q0 -256 224 -256q95 0 160 55.5t96 132.5v637h286v-1071h-286v131q-135 -149 -355 -149q-106 0 -186.5 36.5t-128.5 101.5t-72 149t-24 186zM322 1206l213 312h278l211 -312h-215l-135 172l-135 -172h-217z" />
<glyph unicode="&#xfc;" d="M154 455v616h286v-569q0 -256 224 -256q95 0 160 55.5t96 132.5v637h286v-1071h-286v131q-135 -149 -355 -149q-106 0 -186.5 36.5t-128.5 101.5t-72 149t-24 186zM258 1370q0 135 158 135q155 0 155 -135t-155 -135q-158 0 -158 135zM780 1370q0 135 160 135 q154 0 154 -135t-154 -135q-160 0 -160 135z" />
<glyph unicode="&#xfd;" horiz-adv-x="1265" d="M25 1071h317l295 -758l285 758h288l-444 -1081q-42 -106 -82.5 -176t-94 -121.5t-121.5 -75t-157 -23.5q-68 0 -134 21t-111 51l43 232q109 -62 202 -62q68 0 107 32t71 105l23 56zM496 1206l166 312h284l-209 -312h-241z" />
<glyph unicode="&#xfe;" horiz-adv-x="1374" d="M166 -385v1839h287v-493q122 129 319 129q223 0 362.5 -156t139.5 -402q0 -243 -139.5 -397.5t-362.5 -154.5q-192 0 -319 120v-485h-287zM453 326q44 -42 108 -69.5t131 -27.5q132 0 211.5 83t79.5 220q0 139 -79 223.5t-212 84.5q-70 0 -135.5 -29t-103.5 -70v-415z " />
<glyph unicode="&#xff;" horiz-adv-x="1265" d="M25 1071h317l295 -758l285 758h288l-444 -1081q-42 -106 -82.5 -176t-94 -121.5t-121.5 -75t-157 -23.5q-68 0 -134 21t-111 51l43 232q109 -62 202 -62q68 0 107 32t71 105l23 56zM217 1370q0 135 158 135q155 0 155 -135t-155 -135q-158 0 -158 135zM739 1370 q0 135 160 135q154 0 154 -135t-154 -135q-160 0 -160 135z" />
<glyph unicode="&#x100;" horiz-adv-x="1474" d="M18 0l555 1393h336l539 -1393h-291l-106 279h-633l-109 -279h-291zM479 1571v196h522v-196h-522zM492 492h487l-238 616z" />
<glyph unicode="&#x101;" horiz-adv-x="1193" d="M86 299q0 182 131 279.5t356 97.5q107 0 181 -14q-3 97 -49 140.5t-140 43.5q-80 0 -174.5 -21t-163.5 -53l-49 246q81 32 192 52t218 20q96 0 173.5 -22.5t128.5 -61t85.5 -93t49.5 -115t15 -130.5v-668h-286v102q-129 -122 -316 -122q-167 0 -259.5 85.5t-92.5 233.5z M356 1249v197h523v-197h-523zM373 330q0 -125 159 -125q125 0 222 84v170q-58 14 -119 14q-117 0 -189.5 -37.5t-72.5 -105.5z" />
<glyph unicode="&#x102;" horiz-adv-x="1474" d="M18 0l555 1393h336l539 -1393h-291l-106 279h-633l-109 -279h-291zM438 1700l72 112q33 -39 91.5 -65.5t137.5 -26.5q77 0 136.5 26t91.5 66l73 -112q-42 -73 -117 -121.5t-182 -48.5t-184.5 48.5t-118.5 121.5zM492 492h487l-238 616z" />
<glyph unicode="&#x103;" horiz-adv-x="1193" d="M86 299q0 182 131 279.5t356 97.5q107 0 181 -14q-3 97 -49 140.5t-140 43.5q-80 0 -174.5 -21t-163.5 -53l-49 246q81 32 192 52t218 20q96 0 173.5 -22.5t128.5 -61t85.5 -93t49.5 -115t15 -130.5v-668h-286v102q-129 -122 -316 -122q-167 0 -259.5 85.5t-92.5 233.5z M297 1378l72 113q33 -39 91.5 -65.5t137.5 -26.5q77 0 136 26t91 66l74 -113q-42 -73 -117 -121.5t-182 -48.5t-184.5 48.5t-118.5 121.5zM373 330q0 -125 159 -125q125 0 222 84v170q-58 14 -119 14q-117 0 -189.5 -37.5t-72.5 -105.5z" />
<glyph unicode="&#x104;" horiz-adv-x="1474" d="M18 0l555 1393h336l539 -1393h-92q-79 -2 -128.5 -40.5t-49.5 -100.5q0 -50 27.5 -77.5t78.5 -27.5q55 0 111 37l28 -123q-75 -47 -178 -47q-92 0 -147.5 54t-55.5 145q0 61 33.5 108t83.5 72h-2l-106 279h-633l-109 -279h-291zM492 492h487l-238 616z" />
<glyph unicode="&#x105;" horiz-adv-x="1193" d="M86 299q0 182 131 279.5t356 97.5q107 0 181 -14q-3 97 -49 140.5t-140 43.5q-80 0 -174.5 -21t-163.5 -53l-49 246q81 32 192 52t218 20q96 0 173.5 -22.5t128.5 -61t85.5 -93t49.5 -115t15 -130.5v-668h-61q-76 -3 -123 -41.5t-47 -99.5q0 -50 27.5 -77.5t78.5 -27.5 q55 0 111 37l29 -123q-75 -47 -178 -47q-92 0 -147.5 54t-55.5 145q0 61 33.5 108t83.5 72h-37v102q-129 -122 -316 -122q-167 0 -259.5 85.5t-92.5 233.5zM373 330q0 -125 159 -125q125 0 222 84v170q-58 14 -119 14q-117 0 -189.5 -37.5t-72.5 -105.5z" />
<glyph unicode="&#x106;" horiz-adv-x="1454" d="M100 696q0 201 95 365.5t262 258t372 93.5q326 0 545 -201l-135 -202q-174 137 -408 137q-191 0 -312.5 -129.5t-121.5 -321.5t121.5 -321t312.5 -129q234 0 408 137l135 -203q-218 -200 -545 -200q-205 0 -372 93.5t-262 257.5t-95 365zM709 1528l165 311h285l-209 -311 h-241z" />
<glyph unicode="&#x107;" horiz-adv-x="1161" d="M98 537q0 160 72.5 288t205 201.5t300.5 73.5q239 0 407 -148l-141 -211q-109 97 -254 97q-134 0 -215.5 -83.5t-81.5 -217.5q0 -135 81.5 -219.5t215.5 -84.5q145 0 254 97l141 -211q-168 -148 -407 -148q-126 0 -234 43.5t-183.5 118.5t-118 179.5t-42.5 224.5z M539 1206l166 312h284l-209 -312h-241z" />
<glyph unicode="&#x108;" horiz-adv-x="1454" d="M100 696q0 201 95 365.5t262 258t372 93.5q326 0 545 -201l-135 -202q-174 137 -408 137q-191 0 -312.5 -129.5t-121.5 -321.5t121.5 -321t312.5 -129q234 0 408 137l135 -203q-218 -200 -545 -200q-205 0 -372 93.5t-262 257.5t-95 365zM479 1528l213 311h279l211 -311 h-215l-136 172l-135 -172h-217z" />
<glyph unicode="&#x109;" horiz-adv-x="1161" d="M98 537q0 160 72.5 288t205 201.5t300.5 73.5q239 0 407 -148l-141 -211q-109 97 -254 97q-134 0 -215.5 -83.5t-81.5 -217.5q0 -135 81.5 -219.5t215.5 -84.5q145 0 254 97l141 -211q-168 -148 -407 -148q-126 0 -234 43.5t-183.5 118.5t-118 179.5t-42.5 224.5z M328 1206l213 312h278l211 -312h-215l-135 172l-135 -172h-217z" />
<glyph unicode="&#x10a;" horiz-adv-x="1454" d="M100 696q0 201 95 365.5t262 258t372 93.5q326 0 545 -201l-135 -202q-174 137 -408 137q-191 0 -312.5 -129.5t-121.5 -321.5t121.5 -321t312.5 -129q234 0 408 137l135 -203q-218 -200 -545 -200q-205 0 -372 93.5t-262 257.5t-95 365zM668 1696q0 141 168 141 q163 0 163 -141q0 -144 -163 -144q-168 0 -168 144z" />
<glyph unicode="&#x10b;" horiz-adv-x="1161" d="M98 537q0 160 72.5 288t205 201.5t300.5 73.5q239 0 407 -148l-141 -211q-109 97 -254 97q-134 0 -215.5 -83.5t-81.5 -217.5q0 -135 81.5 -219.5t215.5 -84.5q145 0 254 97l141 -211q-168 -148 -407 -148q-126 0 -234 43.5t-183.5 118.5t-118 179.5t-42.5 224.5z M514 1374q0 142 168 142q164 0 164 -142q0 -143 -164 -143q-168 0 -168 143z" />
<glyph unicode="&#x10c;" horiz-adv-x="1454" d="M100 696q0 201 95 365.5t262 258t372 93.5q326 0 545 -201l-135 -202q-174 137 -408 137q-191 0 -312.5 -129.5t-121.5 -321.5t121.5 -321t312.5 -129q234 0 408 137l135 -203q-218 -200 -545 -200q-205 0 -372 93.5t-262 257.5t-95 365zM483 1839h217l136 -170l135 170 h215l-211 -311h-279z" />
<glyph unicode="&#x10d;" horiz-adv-x="1161" d="M98 537q0 160 72.5 288t205 201.5t300.5 73.5q239 0 407 -148l-141 -211q-109 97 -254 97q-134 0 -215.5 -83.5t-81.5 -217.5q0 -135 81.5 -219.5t215.5 -84.5q145 0 254 97l141 -211q-168 -148 -407 -148q-126 0 -234 43.5t-183.5 118.5t-118 179.5t-42.5 224.5z M332 1518h217l135 -170l135 170h215l-211 -312h-278z" />
<glyph unicode="&#x10e;" horiz-adv-x="1613" d="M188 0v1393h600q155 -1 286 -47t227.5 -132.5t151 -220t54.5 -299.5q0 -165 -54.5 -297.5t-151 -218.5t-227.5 -132t-286 -46h-600zM354 1839h217l136 -170l135 170h215l-211 -311h-279zM475 250h301q197 0 315.5 116.5t118.5 327.5q0 214 -118.5 331.5t-315.5 117.5 h-301v-893z" />
<glyph unicode="&#x10f;" horiz-adv-x="1527" d="M100 537q0 244 139.5 398.5t364.5 154.5q97 0 180.5 -34t141.5 -91v489h286v-1454h-286v111q-124 -131 -322 -131q-224 0 -364 156t-140 401zM393 537q0 -138 79.5 -223t211.5 -85q69 0 135.5 29.5t106.5 69.5v411q-44 44 -109 72.5t-133 28.5q-132 0 -211.5 -83 t-79.5 -220zM1325 1272q0 64 41.5 101.5t106.5 37.5q84 0 129 -41.5t45 -120.5q0 -134 -119 -288l-137 49l49 133q-56 10 -85.5 44.5t-29.5 84.5z" />
<glyph unicode="&#x110;" horiz-adv-x="1624" d="M70 623v143h129v627h600q155 -1 286 -47t227.5 -132.5t151 -220t54.5 -299.5q0 -165 -54.5 -297.5t-151 -218.5t-227.5 -132t-286 -46h-600v623h-129zM485 250h301q197 0 318 117t121 327q0 213 -121 331t-318 118h-301v-377h275v-143h-275v-373z" />
<glyph unicode="&#x111;" horiz-adv-x="1378" d="M100 537q0 244 139.5 398.5t364.5 154.5q97 0 180.5 -34t141.5 -91v225h-224v143h224v121h286v-121h181v-143h-181v-1190h-286v111q-124 -131 -322 -131q-224 0 -364 156t-140 401zM393 537q0 -138 79.5 -223t211.5 -85q69 0 135.5 29.5t106.5 69.5v411q-44 44 -109 72.5 t-133 28.5q-132 0 -211.5 -83t-79.5 -220z" />
<glyph unicode="&#x112;" horiz-adv-x="1398" d="M188 0v1393h1102v-252h-827v-301h678v-252h-678v-336h827v-252h-1102zM477 1571v196h522v-196h-522z" />
<glyph unicode="&#x113;" horiz-adv-x="1249" d="M100 532q0 159 69 288t199 204.5t298 75.5q119 0 212 -34.5t150.5 -96t87 -141.5t29.5 -175q0 -50 -7 -114t-16 -95h-727q42 -233 297 -233q94 0 183 32.5t151 78.5l109 -205q-180 -146 -451 -146q-147 0 -260.5 43t-183.5 120t-105 177.5t-35 220.5zM403 666h465 q2 10 2 36q0 69 -54 114.5t-157 45.5q-109 0 -174.5 -55.5t-81.5 -140.5zM406 1249v197h522v-197h-522z" />
<glyph unicode="&#x114;" horiz-adv-x="1398" d="M188 0v1393h1102v-252h-827v-301h678v-252h-678v-336h827v-252h-1102zM436 1700l72 112q33 -39 91.5 -65.5t137.5 -26.5q77 0 136.5 26t91.5 66l73 -112q-42 -73 -117 -121.5t-182 -48.5t-184.5 48.5t-118.5 121.5z" />
<glyph unicode="&#x115;" horiz-adv-x="1249" d="M100 532q0 159 69 288t199 204.5t298 75.5q119 0 212 -34.5t150.5 -96t87 -141.5t29.5 -175q0 -50 -7 -114t-16 -95h-727q42 -233 297 -233q94 0 183 32.5t151 78.5l109 -205q-180 -146 -451 -146q-147 0 -260.5 43t-183.5 120t-105 177.5t-35 220.5zM373 1378l71 113 q33 -39 92 -65.5t138 -26.5q77 0 136 26t91 66l74 -113q-42 -73 -117 -121.5t-182 -48.5t-184.5 48.5t-118.5 121.5zM403 666h465q2 10 2 36q0 69 -54 114.5t-157 45.5q-109 0 -174.5 -55.5t-81.5 -140.5z" />
<glyph unicode="&#x116;" horiz-adv-x="1398" d="M188 0v1393h1102v-252h-827v-301h678v-252h-678v-336h827v-252h-1102zM569 1696q0 141 168 141q164 0 164 -141q0 -144 -164 -144q-168 0 -168 144z" />
<glyph unicode="&#x117;" horiz-adv-x="1249" d="M100 532q0 159 69 288t199 204.5t298 75.5q119 0 212 -34.5t150.5 -96t87 -141.5t29.5 -175q0 -50 -7 -114t-16 -95h-727q42 -233 297 -233q94 0 183 32.5t151 78.5l109 -205q-180 -146 -451 -146q-147 0 -260.5 43t-183.5 120t-105 177.5t-35 220.5zM403 666h465 q2 10 2 36q0 69 -54 114.5t-157 45.5q-109 0 -174.5 -55.5t-81.5 -140.5zM508 1374q0 142 168 142q164 0 164 -142q0 -143 -164 -143q-168 0 -168 143z" />
<glyph unicode="&#x118;" horiz-adv-x="1398" d="M188 0v1393h1102v-252h-827v-301h678v-252h-678v-336h827v-252h-37q-79 -2 -128.5 -40.5t-49.5 -100.5q0 -50 28 -77.5t79 -27.5q54 0 110 37l29 -123q-75 -47 -178 -47q-92 0 -147.5 54t-55.5 145q0 61 33.5 108t83.5 72h-869z" />
<glyph unicode="&#x119;" horiz-adv-x="1249" d="M100 532q0 159 69 288t199 204.5t298 75.5q119 0 212 -34.5t150.5 -96t87 -141.5t29.5 -175q0 -50 -7 -114t-16 -95h-727q42 -233 297 -233q94 0 183 32.5t151 78.5l109 -205q-138 -113 -338 -137q-80 -41 -80 -121q0 -50 27.5 -77.5t78.5 -27.5q55 0 111 37l29 -123 q-75 -47 -179 -47q-92 0 -147 54t-55 145q0 92 73 151q-275 9 -415 163t-140 398zM403 666h465q2 10 2 36q0 69 -54 114.5t-157 45.5q-109 0 -174.5 -55.5t-81.5 -140.5z" />
<glyph unicode="&#x11a;" horiz-adv-x="1398" d="M188 0v1393h1102v-252h-827v-301h678v-252h-678v-336h827v-252h-1102zM387 1839h217l135 -170l135 170h216l-211 -311h-279z" />
<glyph unicode="&#x11b;" horiz-adv-x="1249" d="M100 532q0 159 69 288t199 204.5t298 75.5q119 0 212 -34.5t150.5 -96t87 -141.5t29.5 -175q0 -50 -7 -114t-16 -95h-727q42 -233 297 -233q94 0 183 32.5t151 78.5l109 -205q-180 -146 -451 -146q-147 0 -260.5 43t-183.5 120t-105 177.5t-35 220.5zM315 1518h217 l136 -170l135 170h215l-211 -312h-279zM403 666h465q2 10 2 36q0 69 -54 114.5t-157 45.5q-109 0 -174.5 -55.5t-81.5 -140.5z" />
<glyph unicode="&#x11c;" horiz-adv-x="1562" d="M102 694q0 166 58 303t158.5 227t235.5 139.5t290 49.5q309 0 540 -188l-133 -219q-171 141 -401 141q-197 0 -324 -121t-127 -332q0 -209 129 -328.5t334 -119.5q166 0 289 73v256h-367v248h654v-653q-100 -79 -269 -134.5t-325 -55.5q-155 0 -290 49t-235.5 139 t-158.5 226t-58 300zM494 1528l213 311h278l211 -311h-215l-135 172l-135 -172h-217z" />
<glyph unicode="&#x11d;" horiz-adv-x="1378" d="M102 573q0 142 62.5 259.5t178 187.5t261.5 70q197 0 322 -132v113h286v-938q0 -130 -44 -234.5t-120 -170t-174 -100t-210 -34.5q-71 0 -133.5 9t-119.5 28.5t-80.5 29.5t-69.5 33q-4 1 -5.5 2t-4.5 2.5l-5 2.5l61 244q177 -109 357 -109q115 0 188.5 57t73.5 181v125 q-134 -138 -322 -138q-146 0 -261.5 69.5t-178 186t-62.5 256.5zM350 1206l213 312h279l211 -312h-215l-136 172l-135 -172h-217zM395 573q0 -116 79 -189t210 -73q69 0 134 28t108 71v331q-41 41 -107 70t-135 29q-132 0 -210.5 -74t-78.5 -193z" />
<glyph unicode="&#x11e;" horiz-adv-x="1562" d="M102 694q0 166 58 303t158.5 227t235.5 139.5t290 49.5q309 0 540 -188l-133 -219q-171 141 -401 141q-197 0 -324 -121t-127 -332q0 -209 129 -328.5t334 -119.5q166 0 289 73v256h-367v248h654v-653q-100 -79 -269 -134.5t-325 -55.5q-155 0 -290 49t-235.5 139 t-158.5 226t-58 300zM547 1700l71 112q33 -39 92 -65.5t138 -26.5q77 0 136 26t91 66l74 -112q-42 -73 -117 -121.5t-182 -48.5t-184.5 48.5t-118.5 121.5z" />
<glyph unicode="&#x11f;" horiz-adv-x="1378" d="M102 573q0 142 62.5 259.5t178 187.5t261.5 70q197 0 322 -132v113h286v-938q0 -130 -44 -234.5t-120 -170t-174 -100t-210 -34.5q-71 0 -133.5 9t-119.5 28.5t-80.5 29.5t-69.5 33q-4 1 -5.5 2t-4.5 2.5l-5 2.5l61 244q177 -109 357 -109q115 0 188.5 57t73.5 181v125 q-134 -138 -322 -138q-146 0 -261.5 69.5t-178 186t-62.5 256.5zM395 573q0 -116 79 -189t210 -73q69 0 134 28t108 71v331q-41 41 -107 70t-135 29q-132 0 -210.5 -74t-78.5 -193zM408 1378l71 113q33 -39 92 -65.5t138 -26.5q77 0 136 26t91 66l74 -113 q-42 -73 -117 -121.5t-182 -48.5t-184.5 48.5t-118.5 121.5z" />
<glyph unicode="&#x120;" horiz-adv-x="1562" d="M102 694q0 166 58 303t158.5 227t235.5 139.5t290 49.5q309 0 540 -188l-133 -219q-171 141 -401 141q-197 0 -324 -121t-127 -332q0 -209 129 -328.5t334 -119.5q166 0 289 73v256h-367v248h654v-653q-100 -79 -269 -134.5t-325 -55.5q-155 0 -290 49t-235.5 139 t-158.5 226t-58 300zM676 1696q0 141 168 141q164 0 164 -141q0 -144 -164 -144q-168 0 -168 144z" />
<glyph unicode="&#x121;" horiz-adv-x="1378" d="M102 573q0 142 62.5 259.5t178 187.5t261.5 70q197 0 322 -132v113h286v-938q0 -130 -44 -234.5t-120 -170t-174 -100t-210 -34.5q-71 0 -133.5 9t-119.5 28.5t-80.5 29.5t-69.5 33q-4 1 -5.5 2t-4.5 2.5l-5 2.5l61 244q177 -109 357 -109q115 0 188.5 57t73.5 181v125 q-134 -138 -322 -138q-146 0 -261.5 69.5t-178 186t-62.5 256.5zM395 573q0 -116 79 -189t210 -73q69 0 134 28t108 71v331q-41 41 -107 70t-135 29q-132 0 -210.5 -74t-78.5 -193zM557 1374q0 142 168 142q164 0 164 -142q0 -143 -164 -143q-168 0 -168 143z" />
<glyph unicode="&#x122;" horiz-adv-x="1562" d="M102 694q0 166 58 303t158.5 227t235.5 139.5t290 49.5q309 0 540 -188l-133 -219q-171 141 -401 141q-197 0 -324 -121t-127 -332q0 -209 129 -328.5t334 -119.5q166 0 289 73v256h-367v248h654v-653q-100 -79 -269 -134.5t-325 -55.5q-155 0 -290 49t-235.5 139 t-158.5 226t-58 300zM655 -260q0 64 41.5 101.5t106.5 37.5q84 0 129 -41.5t45 -120.5q0 -134 -119 -288l-137 49l49 133q-56 10 -85.5 44.5t-29.5 84.5z" />
<glyph unicode="&#x123;" horiz-adv-x="1378" d="M102 573q0 142 62.5 259.5t178 187.5t261.5 70q197 0 322 -132v113h286v-938q0 -130 -44 -234.5t-120 -170t-174 -100t-210 -34.5q-71 0 -133.5 9t-119.5 28.5t-80.5 29.5t-69.5 33q-4 1 -5.5 2t-4.5 2.5l-5 2.5l61 244q177 -109 357 -109q115 0 188.5 57t73.5 181v125 q-134 -138 -322 -138q-146 0 -261.5 69.5t-178 186t-62.5 256.5zM395 573q0 -116 79 -189t210 -73q69 0 134 28t108 71v331q-41 41 -107 70t-135 29q-132 0 -210.5 -74t-78.5 -193zM539 1356q0 68 32.5 145t85.5 144l138 -50l-50 -133q57 -10 87 -44t30 -85 q0 -65 -41.5 -102t-107.5 -37q-84 0 -129 41.5t-45 120.5z" />
<glyph unicode="&#x124;" horiz-adv-x="1697" d="M188 0v1393h287v-566h748v566h286v-1393h-286v578h-748v-578h-287zM494 1528l213 311h278l211 -311h-215l-135 172l-135 -172h-217z" />
<glyph unicode="&#x125;" d="M166 0v1454h287v-510q133 146 354 146q106 0 186.5 -36.5t129 -102t72.5 -149.5t24 -186v-616h-287v569q0 256 -221 256q-96 0 -161.5 -55.5t-96.5 -132.5v-637h-287zM336 1540l213 311h278l211 -311h-215l-135 172l-135 -172h-217z" />
<glyph unicode="&#x126;" horiz-adv-x="1714" d="M102 1034v144h95v215h286v-215h748v215h287v-215h100v-144h-100v-1034h-287v578h-748v-578h-286v1034h-95zM483 827h748v207h-748v-207z" />
<glyph unicode="&#x127;" d="M20 1190v143h146v121h287v-121h258v-143h-258v-246q133 146 354 146q106 0 186.5 -36.5t129 -102t72.5 -149.5t24 -186v-616h-287v569q0 256 -221 256q-96 0 -161.5 -55.5t-96.5 -132.5v-637h-287v1190h-146z" />
<glyph unicode="&#x128;" horiz-adv-x="663" d="M-53 1663q32 72 95 122t134 50q46 0 93.5 -19t80 -41.5t70 -41.5t67.5 -19q94 0 142 90l88 -110q-39 -81 -98.5 -127.5t-131.5 -46.5q-54 0 -113.5 30t-110.5 60t-85 30q-88 0 -145 -90zM188 0v1393h287v-1393h-287z" />
<glyph unicode="&#x129;" horiz-adv-x="618" d="M-80 1341q32 72 95.5 122t134.5 50q46 0 93.5 -18.5t80 -41.5t70 -41.5t67.5 -18.5q93 0 141 90l88 -111q-39 -82 -98 -128t-131 -46q-43 0 -90 19t-81 41.5t-72 41.5t-66 19q-89 0 -146 -90zM166 0v1071h287v-1071h-287z" />
<glyph unicode="&#x12a;" horiz-adv-x="663" d="M70 1571v196h522v-196h-522zM188 0v1393h287v-1393h-287z" />
<glyph unicode="&#x12b;" horiz-adv-x="618" d="M45 1249v197h522v-197h-522zM166 0v1071h287v-1071h-287z" />
<glyph unicode="&#x12c;" horiz-adv-x="663" d="M29 1700l71 112q33 -39 92 -65.5t138 -26.5q77 0 136 26t91 66l74 -112q-42 -73 -117 -121.5t-182 -48.5t-184.5 48.5t-118.5 121.5zM188 0v1393h287v-1393h-287z" />
<glyph unicode="&#x12d;" horiz-adv-x="618" d="M4 1378l72 113q33 -39 91.5 -65.5t137.5 -26.5q77 0 136 26t91 66l74 -113q-42 -73 -117 -121.5t-182 -48.5t-184.5 48.5t-118.5 121.5zM166 0v1071h287v-1071h-287z" />
<glyph unicode="&#x12e;" horiz-adv-x="663" d="M90 -180q0 61 33.5 108t83.5 72h-19v1393h287v-1393h-80q-76 -3 -123 -41.5t-47 -99.5q0 -50 28 -77.5t79 -27.5q54 0 110 37l29 -123q-75 -47 -178 -47q-92 0 -147.5 54t-55.5 145z" />
<glyph unicode="&#x12f;" horiz-adv-x="618" d="M102 -180q0 61 33.5 108t83.5 72h-53v1071h287v-1071h-45q-76 -3 -123 -41.5t-47 -99.5q0 -50 27.5 -77.5t78.5 -27.5q55 0 111 37l28 -123q-75 -47 -178 -47q-92 0 -147.5 54t-55.5 145zM143 1374q0 142 168 142q164 0 164 -142q0 -143 -164 -143q-168 0 -168 143z" />
<glyph unicode="&#x130;" horiz-adv-x="663" d="M164 1696q0 141 168 141q164 0 164 -141q0 -144 -164 -144q-168 0 -168 144zM188 0v1393h287v-1393h-287z" />
<glyph unicode="&#x131;" horiz-adv-x="618" d="M166 0v1071h287v-1071h-287z" />
<glyph unicode="&#x132;" horiz-adv-x="2009" d="M188 0v1393h287v-1393h-287zM727 535l285 26q11 -158 73.5 -237.5t198.5 -79.5q140 0 202 83.5t62 243.5v822h289v-840q0 -128 -35 -233t-102.5 -182t-174.5 -119t-245 -42q-137 0 -240.5 39.5t-169 114t-100.5 175t-43 229.5z" />
<glyph unicode="&#x133;" horiz-adv-x="1325" d="M143 1374q0 142 168 142q164 0 164 -142q0 -143 -164 -143q-168 0 -168 143zM166 0v1071h287v-1071h-287zM692 -217q86 53 133 121.5t47 181.5v985h287v-973q0 -99 -23 -180.5t-66 -141.5t-93 -102t-115 -77zM850 1374q0 142 168 142q164 0 164 -142q0 -143 -164 -143 q-168 0 -168 143z" />
<glyph unicode="&#x134;" horiz-adv-x="1323" d="M41 535l285 26q11 -158 73.5 -237.5t198.5 -79.5q140 0 202 83.5t62 243.5v822h289v-840q0 -128 -35 -233t-102.5 -182t-174.5 -119t-245 -42q-137 0 -240.5 39.5t-169 114t-100.5 175t-43 229.5zM645 1528l213 311h279l211 -311h-215l-136 172l-135 -172h-217z" />
<glyph unicode="&#x135;" horiz-adv-x="618" d="M-45 1206l213 312h278l211 -312h-215l-135 172l-135 -172h-217zM-14 -238q180 112 180 314v995h287v-973q0 -99 -23 -180.5t-66 -141.5t-93 -102t-115 -77z" />
<glyph unicode="&#x136;" horiz-adv-x="1443" d="M188 0v1393h287v-580h152l440 580h297v-43l-498 -656l551 -653v-41h-336l-456 563h-150v-563h-287zM571 -260q0 64 41.5 101.5t106.5 37.5q84 0 129 -41.5t45 -120.5q0 -134 -119 -288l-137 49l49 133q-56 10 -85.5 44.5t-29.5 84.5z" />
<glyph unicode="&#x137;" horiz-adv-x="1265" d="M166 0v1454h287v-827l413 444h318v-47l-449 -461l484 -516v-47h-340l-426 477v-477h-287zM471 -260q0 64 41 101.5t106 37.5q84 0 129.5 -41.5t45.5 -120.5q0 -134 -119 -288l-137 49l49 133q-56 10 -85.5 44.5t-29.5 84.5z" />
<glyph unicode="&#x138;" horiz-adv-x="1263" d="M166 0v1071h287v-473l413 473h318v-47l-451 -487l486 -490v-47h-340l-426 451v-451h-287z" />
<glyph unicode="&#x139;" horiz-adv-x="1234" d="M188 0v1393h287v-1143h723v-250h-1010zM201 1528l166 311h284l-209 -311h-241z" />
<glyph unicode="&#x13a;" horiz-adv-x="700" d="M162 1540l166 311h284l-209 -311h-241zM166 268v1186h287v-1116q0 -117 88 -117q46 0 114 33l15 -227q-115 -47 -242 -47q-126 0 -194 68t-68 220z" />
<glyph unicode="&#x13b;" horiz-adv-x="1234" d="M188 0v1393h287v-1143h723v-250h-1010zM514 -260q0 64 41.5 101.5t106.5 37.5q84 0 129 -41.5t45 -120.5q0 -134 -119 -288l-137 49l49 133q-56 10 -85.5 44.5t-29.5 84.5z" />
<glyph unicode="&#x13c;" horiz-adv-x="700" d="M166 268v1186h287v-1116q0 -117 88 -117q46 0 114 33l15 -227q-115 -47 -242 -47q-126 0 -194 68t-68 220zM225 -260q0 64 41.5 101.5t106.5 37.5q84 0 129 -41.5t45 -120.5q0 -134 -119 -288l-137 49l49 133q-56 10 -85.5 44.5t-29.5 84.5z" />
<glyph unicode="&#x13d;" horiz-adv-x="1243" d="M188 0v1393h287v-1143h723v-250h-1010zM782 1272q0 64 41.5 101.5t106.5 37.5q84 0 129 -41.5t45 -120.5q0 -134 -119 -288l-137 49l49 133q-56 10 -85.5 44.5t-29.5 84.5z" />
<glyph unicode="&#x13e;" horiz-adv-x="786" d="M166 268v1186h287v-1116q0 -117 88 -117q46 0 114 33l15 -227q-115 -47 -242 -47q-126 0 -194 68t-68 220zM565 1272q0 64 41.5 101.5t106.5 37.5q84 0 129 -41.5t45 -120.5q0 -134 -119 -288l-137 49l49 133q-56 10 -85.5 44.5t-29.5 84.5z" />
<glyph unicode="&#x13f;" horiz-adv-x="1255" d="M188 0v1393h287v-1143h723v-250h-1010zM717 782q0 75 42 116.5t118 41.5t118.5 -41.5t42.5 -116.5t-42 -115t-119 -40t-118.5 40t-41.5 115z" />
<glyph unicode="&#x140;" horiz-adv-x="911" d="M166 268v1186h287v-1116q0 -117 88 -117q46 0 114 33l15 -227q-115 -47 -242 -47q-126 0 -194 68t-68 220zM590 782q0 75 42 116.5t118 41.5t118.5 -41.5t42.5 -116.5t-42 -115t-119 -40t-118.5 40t-41.5 115z" />
<glyph unicode="&#x141;" horiz-adv-x="1243" d="M100 475v227l97 48v643h286v-498l236 119v-228l-236 -118v-418h723v-250h-1009v522z" />
<glyph unicode="&#x142;" horiz-adv-x="712" d="M82 524v230l94 47v653h287v-508l151 78v-227l-151 -78v-381q0 -117 88 -117q47 0 115 33l14 -227q-115 -47 -242 -47q-126 0 -194 68t-68 220v303z" />
<glyph unicode="&#x143;" horiz-adv-x="1695" d="M188 0v1393h250l783 -938v938h286v-1393h-250l-782 936v-936h-287zM721 1528l166 311h284l-208 -311h-242z" />
<glyph unicode="&#x144;" d="M166 0v1071h287v-131q136 150 354 150q106 0 186.5 -36.5t129 -102t72.5 -149.5t24 -186v-616h-287v569q0 256 -219 256q-98 0 -163.5 -55.5t-96.5 -132.5v-637h-287zM569 1206l166 312h285l-209 -312h-242z" />
<glyph unicode="&#x145;" horiz-adv-x="1695" d="M188 0v1393h250l783 -938v938h286v-1393h-250l-782 936v-936h-287zM662 -260q0 64 41 101.5t106 37.5q84 0 129 -41.5t45 -120.5q0 -134 -119 -288l-137 49l49 133q-56 10 -85 44t-29 85z" />
<glyph unicode="&#x146;" d="M166 0v1071h287v-131q136 150 354 150q106 0 186.5 -36.5t129 -102t72.5 -149.5t24 -186v-616h-287v569q0 256 -219 256q-98 0 -163.5 -55.5t-96.5 -132.5v-637h-287zM526 -260q0 64 41.5 101.5t106.5 37.5q84 0 129 -41.5t45 -120.5q0 -134 -119 -288l-137 49l49 133 q-56 10 -85.5 44.5t-29.5 84.5z" />
<glyph unicode="&#x147;" horiz-adv-x="1695" d="M188 0v1393h250l783 -938v938h286v-1393h-250l-782 936v-936h-287zM506 1839h217l135 -170l135 170h215l-211 -311h-278z" />
<glyph unicode="&#x148;" d="M166 0v1071h287v-131q136 150 354 150q106 0 186.5 -36.5t129 -102t72.5 -149.5t24 -186v-616h-287v569q0 256 -219 256q-98 0 -163.5 -55.5t-96.5 -132.5v-637h-287zM330 1518h217l135 -170l135 170h215l-211 -312h-278z" />
<glyph unicode="&#x149;" horiz-adv-x="1601" d="M20 1276q0 64 41.5 101.5t106.5 37.5q84 0 129 -41.5t45 -120.5q0 -134 -119 -288l-137 49l49 133q-56 10 -85.5 44.5t-29.5 84.5zM395 0v1071h287v-131q136 150 354 150q106 0 186.5 -36.5t129 -102t72.5 -149.5t24 -186v-616h-287v569q0 256 -219 256 q-98 0 -163.5 -55.5t-96.5 -132.5v-637h-287z" />
<glyph unicode="&#x14a;" horiz-adv-x="1695" d="M188 0v1393h250l783 -926v926h286v-1291q0 -99 -23 -180.5t-66 -141.5t-93 -102t-115 -77l-170 166q181 113 181 311l-746 858v-936h-287z" />
<glyph unicode="&#x14b;" d="M166 0v1071h287v-131q136 150 354 150q106 0 186.5 -36.5t129 -102t72.5 -149.5t24 -186v-514q0 -99 -23 -180.5t-66 -141.5t-93 -102t-115 -77l-170 166q180 112 180 313v489q0 256 -219 256q-98 0 -163.5 -55.5t-96.5 -132.5v-637h-287z" />
<glyph unicode="&#x14c;" horiz-adv-x="1638" d="M102 694q0 152 54.5 285.5t149.5 228.5t227.5 150t283.5 55q152 0 285.5 -55t228.5 -150t150 -228.5t55 -285.5q0 -201 -93 -364.5t-258 -256.5t-368 -93q-201 0 -365 93t-257 256.5t-93 364.5zM385 694q0 -190 123 -318t311 -128q190 0 312 127.5t122 318.5 q0 193 -121.5 320t-312.5 127q-188 0 -311 -127t-123 -320zM555 1571v196h522v-196h-522z" />
<glyph unicode="&#x14d;" horiz-adv-x="1347" d="M98 532q0 121 43.5 226t119 180.5t182 118.5t229.5 43q251 0 414 -161.5t163 -406.5q0 -242 -163 -401.5t-414 -159.5q-123 0 -229.5 42.5t-182 117t-119 178.5t-43.5 223zM375 532q0 -128 83.5 -213.5t213.5 -85.5q133 0 217 85.5t84 213.5q0 131 -84 218.5t-217 87.5 q-130 0 -213.5 -87.5t-83.5 -218.5zM410 1249v197h522v-197h-522z" />
<glyph unicode="&#x14e;" horiz-adv-x="1638" d="M102 694q0 152 54.5 285.5t149.5 228.5t227.5 150t283.5 55q152 0 285.5 -55t228.5 -150t150 -228.5t55 -285.5q0 -201 -93 -364.5t-258 -256.5t-368 -93q-201 0 -365 93t-257 256.5t-93 364.5zM385 694q0 -190 123 -318t311 -128q190 0 312 127.5t122 318.5 q0 193 -121.5 320t-312.5 127q-188 0 -311 -127t-123 -320zM516 1700l72 112q33 -39 91.5 -65.5t137.5 -26.5q77 0 136 26t91 66l74 -112q-42 -73 -117 -121.5t-182 -48.5t-184.5 48.5t-118.5 121.5z" />
<glyph unicode="&#x14f;" horiz-adv-x="1347" d="M98 532q0 121 43.5 226t119 180.5t182 118.5t229.5 43q251 0 414 -161.5t163 -406.5q0 -242 -163 -401.5t-414 -159.5q-123 0 -229.5 42.5t-182 117t-119 178.5t-43.5 223zM371 1378l71 113q33 -39 92 -65.5t138 -26.5q77 0 136 26t91 66l74 -113q-42 -73 -117 -121.5 t-182 -48.5t-184.5 48.5t-118.5 121.5zM375 532q0 -128 83.5 -213.5t213.5 -85.5q133 0 217 85.5t84 213.5q0 131 -84 218.5t-217 87.5q-130 0 -213.5 -87.5t-83.5 -218.5z" />
<glyph unicode="&#x150;" horiz-adv-x="1638" d="M102 694q0 152 54.5 285.5t149.5 228.5t227.5 150t283.5 55q152 0 285.5 -55t228.5 -150t150 -228.5t55 -285.5q0 -201 -93 -364.5t-258 -256.5t-368 -93q-201 0 -365 93t-257 256.5t-93 364.5zM385 694q0 -190 123 -318t311 -128q190 0 312 127.5t122 318.5 q0 193 -121.5 320t-312.5 127q-188 0 -311 -127t-123 -320zM508 1528l166 311h284l-210 -311h-240zM930 1528l166 311h282l-209 -311h-239z" />
<glyph unicode="&#x151;" horiz-adv-x="1347" d="M98 532q0 121 43.5 226t119 180.5t182 118.5t229.5 43q251 0 414 -161.5t163 -406.5q0 -242 -163 -401.5t-414 -159.5q-123 0 -229.5 42.5t-182 117t-119 178.5t-43.5 223zM336 1206l166 312h284l-211 -312h-239zM375 532q0 -128 83.5 -213.5t213.5 -85.5q133 0 217 85.5 t84 213.5q0 131 -84 218.5t-217 87.5q-130 0 -213.5 -87.5t-83.5 -218.5zM758 1206l166 312h282l-209 -312h-239z" />
<glyph unicode="&#x152;" horiz-adv-x="2371" d="M102 692q0 152 54 285.5t147.5 228.5t225 150t282.5 55q196 0 350 -104v86h1102v-252h-827v-312h678v-231h-678v-348h827v-250h-1102v84q-165 -107 -350 -107q-151 0 -282.5 54.5t-225 149.5t-147.5 227.5t-54 283.5zM379 692q0 -191 127 -318.5t323 -127.5 q98 0 185 34.5t147 94.5v639q-61 59 -148 94t-188 35q-194 0 -320 -129t-126 -322z" />
<glyph unicode="&#x153;" horiz-adv-x="2183" d="M98 532q0 121 43.5 226t119 180.5t182 118.5t229.5 43q156 0 278.5 -70t188.5 -190q63 119 183 189.5t277 70.5q119 0 212.5 -36t151 -98t87 -141.5t29.5 -171.5q0 -137 -19 -196h-749q16 -254 334 -254q83 0 169 31.5t146 76.5l108 -194q-180 -146 -450 -146 q-180 0 -301 65t-182 181q-67 -115 -188 -180.5t-275 -65.5q-123 0 -229.5 42.5t-182 117t-119 178.5t-43.5 223zM375 532q0 -128 83.5 -214.5t213.5 -86.5q133 0 217 86.5t84 214.5q0 131 -84 218.5t-217 87.5q-130 0 -213.5 -87.5t-83.5 -218.5zM1313 653h532q2 14 2 41 q0 93 -72.5 143t-175.5 50q-116 0 -192.5 -60t-93.5 -174z" />
<glyph unicode="&#x154;" horiz-adv-x="1486" d="M188 0v1393h613q264 0 409.5 -112t145.5 -341q0 -162 -103 -278.5t-264 -149.5l445 -465v-47h-322l-465 502h-172v-502h-287zM475 727h356q100 0 163 56t63 151q0 100 -62.5 154.5t-163.5 54.5h-356v-416zM578 1528l165 311h285l-209 -311h-241z" />
<glyph unicode="&#x155;" horiz-adv-x="985" d="M166 0v1071h287v-190q100 209 284 209q132 0 228 -74l-109 -238q-75 47 -166 47q-87 0 -149 -58t-88 -149v-618h-287zM387 1206l166 312h285l-209 -312h-242z" />
<glyph unicode="&#x156;" horiz-adv-x="1486" d="M188 0v1393h613q264 0 409.5 -112t145.5 -341q0 -162 -103 -278.5t-264 -149.5l445 -465v-47h-322l-465 502h-172v-502h-287zM475 727h356q100 0 163 56t63 151q0 100 -62.5 154.5t-163.5 54.5h-356v-416zM588 -260q0 64 41 101.5t106 37.5q84 0 129 -41.5t45 -120.5 q0 -135 -118 -288l-138 49l49 133q-56 10 -85 44t-29 85z" />
<glyph unicode="&#x157;" horiz-adv-x="985" d="M143 -260q0 64 41.5 101.5t106.5 37.5q84 0 129 -41.5t45 -120.5q0 -134 -119 -288l-137 49l49 133q-56 10 -85.5 44.5t-29.5 84.5zM166 0v1071h287v-190q100 209 284 209q132 0 228 -74l-109 -238q-75 47 -166 47q-87 0 -149 -58t-88 -149v-618h-287z" />
<glyph unicode="&#x158;" horiz-adv-x="1486" d="M188 0v1393h613q264 0 409.5 -112t145.5 -341q0 -162 -103 -278.5t-264 -149.5l445 -465v-47h-322l-465 502h-172v-502h-287zM348 1839h217l135 -170l136 170h215l-211 -311h-279zM475 727h356q100 0 163 56t63 151q0 100 -62.5 154.5t-163.5 54.5h-356v-416z" />
<glyph unicode="&#x159;" horiz-adv-x="985" d="M166 0v1071h287v-190q100 209 284 209q132 0 228 -74l-109 -238q-75 47 -166 47q-87 0 -149 -58t-88 -149v-618h-287zM176 1518h217l135 -170l136 170h215l-211 -312h-279z" />
<glyph unicode="&#x15a;" horiz-adv-x="1286" d="M111 100l67 277q86 -57 202 -96t241 -39q128 0 200 40t72 115q0 57 -44 92.5t-151 63.5l-229 57q-356 88 -356 383q0 88 33 163t98.5 132.5t171 90t241.5 32.5q141 0 276.5 -32.5t223.5 -78.5l-82 -262q-80 47 -199.5 79t-228.5 32q-237 0 -237 -131q0 -54 35 -81.5 t116 -51.5l256 -72q190 -53 282.5 -149t92.5 -244q0 -195 -162.5 -317.5t-415.5 -122.5q-140 0 -282 37.5t-221 82.5zM528 1528l166 311h285l-209 -311h-242z" />
<glyph unicode="&#x15b;" horiz-adv-x="1087" d="M117 72l53 243q188 -98 350 -98q180 0 180 82q0 60 -131 92l-159 41q-154 38 -223.5 110.5t-69.5 196.5q0 159 119.5 255t334.5 96q99 0 208 -23.5t175 -54.5l-75 -246q-165 84 -330 84q-148 0 -148 -88q0 -37 20 -50t87 -30l172 -43q165 -40 237 -119t72 -201 q0 -156 -124.5 -247.5t-332.5 -91.5q-231 0 -415 92zM391 1206l166 312h285l-209 -312h-242z" />
<glyph unicode="&#x15c;" horiz-adv-x="1286" d="M111 100l67 277q86 -57 202 -96t241 -39q128 0 200 40t72 115q0 57 -44 92.5t-151 63.5l-229 57q-356 88 -356 383q0 88 33 163t98.5 132.5t171 90t241.5 32.5q141 0 276.5 -32.5t223.5 -78.5l-82 -262q-80 47 -199.5 79t-228.5 32q-237 0 -237 -131q0 -54 35 -81.5 t116 -51.5l256 -72q190 -53 282.5 -149t92.5 -244q0 -195 -162.5 -317.5t-415.5 -122.5q-140 0 -282 37.5t-221 82.5zM293 1528l213 311h278l211 -311h-215l-135 172l-135 -172h-217z" />
<glyph unicode="&#x15d;" horiz-adv-x="1087" d="M117 72l53 243q188 -98 350 -98q180 0 180 82q0 60 -131 92l-159 41q-154 38 -223.5 110.5t-69.5 196.5q0 159 119.5 255t334.5 96q99 0 208 -23.5t175 -54.5l-75 -246q-165 84 -330 84q-148 0 -148 -88q0 -37 20 -50t87 -30l172 -43q165 -40 237 -119t72 -201 q0 -156 -124.5 -247.5t-332.5 -91.5q-231 0 -415 92zM195 1206l213 312h278l211 -312h-215l-135 172l-135 -172h-217z" />
<glyph unicode="&#x15e;" horiz-adv-x="1286" d="M111 100l67 277q86 -57 202 -96t241 -39q128 0 200 40t72 115q0 57 -44 92.5t-151 63.5l-229 57q-356 88 -356 383q0 88 33 163t98.5 132.5t171 90t241.5 32.5q141 0 276.5 -32.5t223.5 -78.5l-82 -262q-80 47 -199.5 79t-228.5 32q-237 0 -237 -131q0 -54 35 -81.5 t116 -51.5l256 -72q190 -53 282.5 -149t92.5 -244q0 -190 -153.5 -311t-395.5 -129l-29 -97q21 6 54 6q84 0 131 -37.5t47 -99.5q0 -73 -65.5 -115.5t-168.5 -42.5q-83 0 -159 23l24 94q75 -22 127 -22q111 0 111 59q0 55 -107 55q-69 0 -127 -12l-8 10l53 183 q-122 11 -237.5 45t-177.5 71z" />
<glyph unicode="&#x15f;" horiz-adv-x="1089" d="M119 72l53 243q188 -98 350 -98q180 0 180 82q0 60 -131 92l-159 41q-154 38 -223.5 110.5t-69.5 196.5q0 159 119.5 255t334.5 96q99 0 208 -23.5t175 -54.5l-75 -246q-165 84 -330 84q-148 0 -148 -88q0 -37 20 -50t87 -30l172 -43q165 -40 237 -119t72 -201 q0 -153 -119.5 -243.5t-320.5 -95.5l-29 -97q21 6 53 6q84 0 131.5 -38t47.5 -99q0 -73 -65.5 -115.5t-168.5 -42.5q-84 0 -160 23l25 94q75 -22 127 -22q111 0 111 59q0 55 -107 55q-69 0 -127 -12l-8 10l53 185q-183 16 -315 86z" />
<glyph unicode="&#x160;" horiz-adv-x="1286" d="M111 100l67 277q86 -57 202 -96t241 -39q128 0 200 40t72 115q0 57 -44 92.5t-151 63.5l-229 57q-356 88 -356 383q0 88 33 163t98.5 132.5t171 90t241.5 32.5q141 0 276.5 -32.5t223.5 -78.5l-82 -262q-80 47 -199.5 79t-228.5 32q-237 0 -237 -131q0 -54 35 -81.5 t116 -51.5l256 -72q190 -53 282.5 -149t92.5 -244q0 -195 -162.5 -317.5t-415.5 -122.5q-140 0 -282 37.5t-221 82.5zM281 1839h217l135 -170l135 170h215l-211 -311h-278z" />
<glyph unicode="&#x161;" horiz-adv-x="1087" d="M117 72l53 243q188 -98 350 -98q180 0 180 82q0 60 -131 92l-159 41q-154 38 -223.5 110.5t-69.5 196.5q0 159 119.5 255t334.5 96q99 0 208 -23.5t175 -54.5l-75 -246q-165 84 -330 84q-148 0 -148 -88q0 -37 20 -50t87 -30l172 -43q165 -40 237 -119t72 -201 q0 -156 -124.5 -247.5t-332.5 -91.5q-231 0 -415 92zM193 1518h217l135 -170l135 170h215l-211 -312h-278z" />
<glyph unicode="&#x162;" horiz-adv-x="1290" d="M51 1141v252h1188v-252h-442v-1141h-101l-37 -117q21 6 54 6q84 0 131 -37.5t47 -99.5q0 -73 -65.5 -115.5t-168.5 -42.5q-83 0 -159 23l24 94q75 -22 127 -22q111 0 111 59q0 55 -107 55q-69 0 -127 -12l-8 10l62 199h-70v1141h-459z" />
<glyph unicode="&#x163;" horiz-adv-x="1048" d="M74 848v223h190l35 272h252v-272h391v-223h-391v-436q0 -183 145 -183q55 0 114 23t103 55l91 -221q-169 -103 -386 -106l-28 -97q21 6 53 6q84 0 131 -37.5t47 -99.5q0 -73 -65.5 -115.5t-167.5 -42.5q-84 0 -160 23l25 94q75 -22 127 -22q110 0 110 59q0 55 -106 55 q-69 0 -127 -12l-8 10l55 191q-115 27 -177.5 119t-62.5 243v494h-190z" />
<glyph unicode="&#x164;" horiz-adv-x="1290" d="M51 1141v252h1188v-252h-442v-1141h-287v1141h-459zM299 1839h217l135 -170l135 170h215l-210 -311h-279z" />
<glyph unicode="&#x165;" horiz-adv-x="1130" d="M72 848v223h190l35 272h252v-272h391v-223h-391v-436q0 -183 145 -183q55 0 114 23t103 55l90 -221q-172 -106 -397 -106q-161 0 -251.5 96t-90.5 278v494h-190zM934 1272q0 64 41 101.5t106 37.5q84 0 129 -41.5t45 -120.5q0 -135 -118 -288l-138 49l50 133 q-56 10 -85.5 44.5t-29.5 84.5z" />
<glyph unicode="&#x166;" horiz-adv-x="1290" d="M51 1141v252h1188v-252h-442v-430h207v-144h-207v-567h-287v567h-197v144h197v430h-459z" />
<glyph unicode="&#x167;" horiz-adv-x="1052" d="M78 848v223h211l30 272h236v-272h391v-223h-391v-217h246v-144h-246v-75q0 -185 145 -185q55 0 114.5 23t103.5 55l90 -219q-172 -106 -398 -106q-161 0 -251.5 96t-90.5 278v133h-157v144h157v217h-190z" />
<glyph unicode="&#x168;" horiz-adv-x="1605" d="M170 588v805h287v-787q0 -170 87.5 -266t256.5 -96q172 0 261 98.5t89 265.5v785h287v-805q0 -124 -42 -234t-120 -194.5t-200.5 -133.5t-274.5 -49q-151 0 -271.5 45.5t-199 127.5t-119.5 193.5t-41 244.5zM418 1663q32 72 95 122t134 50q46 0 93.5 -19t80 -41.5 t70 -41.5t67.5 -19q94 0 142 90l88 -110q-39 -81 -98.5 -127.5t-131.5 -46.5q-54 0 -113.5 30t-110.5 60t-85 30q-88 0 -145 -90z" />
<glyph unicode="&#x169;" d="M154 455v616h286v-569q0 -256 224 -256q95 0 160 55.5t96 132.5v637h286v-1071h-286v131q-135 -149 -355 -149q-106 0 -186.5 36.5t-128.5 101.5t-72 149t-24 186zM303 1341q32 72 95 122t134 50q46 0 93.5 -18.5t80 -41.5t70.5 -41.5t68 -18.5q93 0 141 90l88 -111 q-39 -82 -98 -128t-131 -46q-43 0 -90 19t-81 41.5t-72 41.5t-66 19q-89 0 -146 -90z" />
<glyph unicode="&#x16a;" horiz-adv-x="1605" d="M170 588v805h287v-787q0 -170 87.5 -266t256.5 -96q172 0 261 98.5t89 265.5v785h287v-805q0 -124 -42 -234t-120 -194.5t-200.5 -133.5t-274.5 -49q-151 0 -271.5 45.5t-199 127.5t-119.5 193.5t-41 244.5zM541 1571v196h522v-196h-522z" />
<glyph unicode="&#x16b;" d="M154 455v616h286v-569q0 -256 224 -256q95 0 160 55.5t96 132.5v637h286v-1071h-286v131q-135 -149 -355 -149q-106 0 -186.5 36.5t-128.5 101.5t-72 149t-24 186zM418 1249v197h522v-197h-522z" />
<glyph unicode="&#x16c;" horiz-adv-x="1605" d="M170 588v805h287v-787q0 -170 87.5 -266t256.5 -96q172 0 261 98.5t89 265.5v785h287v-805q0 -124 -42 -234t-120 -194.5t-200.5 -133.5t-274.5 -49q-151 0 -271.5 45.5t-199 127.5t-119.5 193.5t-41 244.5zM502 1700l71 112q33 -39 92 -65.5t138 -26.5q77 0 136 26 t91 66l74 -112q-42 -73 -117 -121.5t-182 -48.5t-184.5 48.5t-118.5 121.5z" />
<glyph unicode="&#x16d;" d="M154 455v616h286v-569q0 -256 224 -256q95 0 160 55.5t96 132.5v637h286v-1071h-286v131q-135 -149 -355 -149q-106 0 -186.5 36.5t-128.5 101.5t-72 149t-24 186zM383 1378l72 113q33 -39 91.5 -65.5t137.5 -26.5q77 0 136 26t91 66l74 -113q-42 -73 -117 -121.5 t-182 -48.5t-184.5 48.5t-118.5 121.5z" />
<glyph unicode="&#x16e;" horiz-adv-x="1605" d="M170 588v805h287v-787q0 -170 87.5 -266t256.5 -96q172 0 261 98.5t89 265.5v785h287v-805q0 -124 -42 -234t-120 -194.5t-200.5 -133.5t-274.5 -49q-151 0 -271.5 45.5t-199 127.5t-119.5 193.5t-41 244.5zM602 1612q0 83 59 141.5t142 58.5t142 -58.5t59 -141.5 t-59 -142t-142 -59t-142 59t-59 142zM719 1612q0 -35 24.5 -59.5t59.5 -24.5q34 0 58 24.5t24 59.5q0 34 -24 58t-58 24q-35 0 -59.5 -24t-24.5 -58z" />
<glyph unicode="&#x16f;" d="M154 455v616h286v-569q0 -256 224 -256q95 0 160 55.5t96 132.5v637h286v-1071h-286v131q-135 -149 -355 -149q-106 0 -186.5 36.5t-128.5 101.5t-72 149t-24 186zM473 1372q0 83 59 142t142 59t141.5 -59t58.5 -142t-58.5 -142t-141.5 -59t-142 59t-59 142zM590 1372 q0 -35 24.5 -59.5t59.5 -24.5q34 0 58 24.5t24 59.5q0 34 -24 58t-58 24q-35 0 -59.5 -24t-24.5 -58z" />
<glyph unicode="&#x170;" horiz-adv-x="1605" d="M170 588v805h287v-787q0 -170 87.5 -266t256.5 -96q172 0 261 98.5t89 265.5v785h287v-805q0 -124 -42 -234t-120 -194.5t-200.5 -133.5t-274.5 -49q-151 0 -271.5 45.5t-199 127.5t-119.5 193.5t-41 244.5zM461 1528l166 311h284l-211 -311h-239zM883 1528l166 311h282 l-209 -311h-239z" />
<glyph unicode="&#x171;" d="M154 455v616h286v-569q0 -256 224 -256q95 0 160 55.5t96 132.5v637h286v-1071h-286v131q-135 -149 -355 -149q-106 0 -186.5 36.5t-128.5 101.5t-72 149t-24 186zM340 1206l166 312h285l-211 -312h-240zM762 1206l166 312h282l-209 -312h-239z" />
<glyph unicode="&#x172;" horiz-adv-x="1607" d="M170 588v805h287v-787q0 -170 87.5 -268t256.5 -98q171 0 260.5 100.5t89.5 267.5v785h287v-805q0 -147 -55.5 -271t-170 -212t-272.5 -115q-117 -42 -117 -131q0 -50 28.5 -77.5t80.5 -27.5q50 0 110 37l27 -123q-71 -47 -178 -47q-91 0 -147 54.5t-56 144.5 q0 94 84 157q-287 9 -444.5 176.5t-157.5 434.5z" />
<glyph unicode="&#x173;" d="M154 455v616h286v-569q0 -256 224 -256q95 0 160 55.5t96 132.5v637h286v-1071h-53q-76 -3 -123 -41.5t-47 -99.5q0 -50 28 -77.5t79 -27.5q54 0 110 37l29 -123q-75 -47 -178 -47q-92 0 -147.5 54t-55.5 145q0 61 33.5 108t83.5 72h-45v131q-135 -149 -355 -149 q-106 0 -186.5 36.5t-128.5 101.5t-72 149t-24 186z" />
<glyph unicode="&#x174;" horiz-adv-x="2248" d="M27 1393h309l409 -1071l259 614l-173 457h312l373 -1024l401 1024h313l-555 -1393h-311l-236 596l-251 -596h-312zM772 1528l213 311h279l211 -311h-215l-136 172l-135 -172h-217z" />
<glyph unicode="&#x175;" horiz-adv-x="2060" d="M51 1071h305l248 -807l258 807h344l238 -807l268 807h305l-387 -1071h-354l-246 766l-258 -766h-354zM680 1206l213 312h278l211 -312h-215l-135 172l-135 -172h-217z" />
<glyph unicode="&#x176;" horiz-adv-x="1413" d="M18 1372v21h320l369 -578l368 578h320v-21l-545 -819v-553h-287v551zM352 1528l213 311h279l211 -311h-215l-135 172l-136 -172h-217z" />
<glyph unicode="&#x177;" horiz-adv-x="1265" d="M25 1071h317l295 -758l285 758h288l-444 -1081q-42 -106 -82.5 -176t-94 -121.5t-121.5 -75t-157 -23.5q-68 0 -134 21t-111 51l43 232q109 -62 202 -62q68 0 107 32t71 105l23 56zM281 1206l213 312h278l211 -312h-215l-135 172l-135 -172h-217z" />
<glyph unicode="&#x178;" horiz-adv-x="1413" d="M18 1372v21h320l369 -578l368 578h320v-21l-545 -819v-553h-287v551zM287 1692q0 135 157 135q156 0 156 -135q0 -70 -42 -103t-114 -33q-157 0 -157 136zM809 1692q0 135 160 135q153 0 153 -135q0 -136 -153 -136q-160 0 -160 136z" />
<glyph unicode="&#x179;" horiz-adv-x="1306" d="M111 0v201l716 942h-716v250h1085v-201l-713 -942h713v-250h-1085zM520 1528l166 311h285l-209 -311h-242z" />
<glyph unicode="&#x17a;" horiz-adv-x="1101" d="M113 0v201l518 645h-518v225h876v-201l-514 -645h514v-225h-876zM416 1206l166 312h284l-209 -312h-241z" />
<glyph unicode="&#x17b;" horiz-adv-x="1306" d="M111 0v201l716 942h-716v250h1085v-201l-713 -942h713v-250h-1085zM502 1696q0 141 168 141q164 0 164 -141q0 -144 -164 -144q-168 0 -168 144z" />
<glyph unicode="&#x17c;" horiz-adv-x="1101" d="M113 0v201l518 645h-518v225h876v-201l-514 -645h514v-225h-876zM406 1374q0 142 167 142q164 0 164 -142q0 -143 -164 -143q-167 0 -167 143z" />
<glyph unicode="&#x17d;" horiz-adv-x="1306" d="M111 0v201l716 942h-716v250h1085v-201l-713 -942h713v-250h-1085zM311 1839h217l136 -170l135 170h215l-211 -311h-279z" />
<glyph unicode="&#x17e;" horiz-adv-x="1101" d="M113 0v201l518 645h-518v225h876v-201l-514 -645h514v-225h-876zM203 1518h217l135 -170l135 170h215l-211 -312h-278z" />
<glyph unicode="&#x192;" horiz-adv-x="1064" d="M74 -342l45 242q80 -54 153 -54q63 0 91 27t28 86v664h-268v174h268v319q0 156 86.5 257.5t249.5 101.5q147 0 268 -64l-43 -250q-92 62 -155 62q-119 0 -119 -123v-303h268v-174h-268v-668q0 -101 -35.5 -181t-113 -130t-187.5 -50q-67 0 -145.5 19t-122.5 45z" />
<glyph unicode="&#x1fa;" horiz-adv-x="1474" d="M18 0l551 1382q-28 39 -28 97q0 81 56.5 126.5t143.5 45.5t144 -46t57 -126q0 -57 -29 -97l535 -1382h-291l-106 279h-633l-109 -279h-291zM492 492h487l-238 616zM649 1688l105 170h207l-136 -170h-176zM657 1479q0 -64 84 -64q82 0 82 64q0 61 -82 61q-84 0 -84 -61z " />
<glyph unicode="&#x1fb;" horiz-adv-x="1193" d="M86 299q0 182 131 279.5t356 97.5q107 0 181 -14q-3 97 -49 140.5t-140 43.5q-80 0 -174.5 -21t-163.5 -53l-49 246q81 32 192 52t218 20q96 0 173.5 -22.5t128.5 -61t85.5 -93t49.5 -115t15 -130.5v-668h-286v102q-129 -122 -316 -122q-167 0 -259.5 85.5t-92.5 233.5z M373 330q0 -125 159 -125q125 0 222 84v170q-58 14 -119 14q-117 0 -189.5 -37.5t-72.5 -105.5zM412 1339q0 81 56.5 126.5t143.5 45.5t144 -46t57 -126t-57 -126t-144 -46t-143.5 45.5t-56.5 126.5zM520 1548l107 170h207l-138 -170h-176zM530 1339q0 -63 82 -63 q84 0 84 63q0 62 -84 62q-82 0 -82 -62z" />
<glyph unicode="&#x1fc;" horiz-adv-x="2170" d="M-18 0l804 1393h1276v-252h-827v-312h678v-231h-678v-348h827v-250h-1101v279h-512l-162 -279h-305zM557 492h404v714zM1249 1528l166 311h285l-209 -311h-242z" />
<glyph unicode="&#x1fd;" horiz-adv-x="1871" d="M84 299q0 171 140.5 271t381.5 100q80 0 148 -11q0 107 -40.5 147t-158.5 40q-75 0 -170 -23t-158 -53l-51 248q96 34 207.5 53t189.5 19q94 0 161 -14.5t107 -42.5t61.5 -57.5t39.5 -72.5q56 80 147 138.5t211 58.5q114 0 204.5 -36t147 -98t86 -142t29.5 -171 q0 -132 -20 -196h-703q6 -125 75.5 -190.5t221.5 -65.5q82 0 164.5 31t143.5 77l108 -192q-180 -146 -442 -146q-296 0 -408 189q-41 -36 -79.5 -63t-94 -56t-124 -45t-144.5 -16q-178 0 -279.5 86t-101.5 233zM373 330q0 -125 159 -125q66 0 125.5 25t96.5 59v194 q-61 9 -109 9q-29 0 -56.5 -2.5t-60 -8t-59 -17.5t-49 -29t-35 -44t-12.5 -61zM823 1206l166 312h285l-209 -312h-242zM1055 653h473q2 10 2 27q0 98 -58 154.5t-169 56.5t-177 -66t-71 -172z" />
<glyph unicode="&#x1fe;" horiz-adv-x="1636" d="M102 694q0 152 54.5 285.5t149.5 228.5t227.5 150t283.5 55q221 0 395 -113l76 93h205v-21l-147 -180q91 -97 140.5 -224.5t49.5 -273.5q0 -201 -93 -364.5t-258 -256.5t-368 -93q-205 0 -375 98l-63 -78h-207v23l133 163q-97 97 -150 227.5t-53 280.5zM379 694 q0 -169 100 -293l559 686q-99 58 -221 58q-188 0 -313 -129t-125 -322zM616 293q89 -47 201 -47q190 0 314 128.5t124 319.5q0 157 -88 279zM686 1528l166 311h285l-209 -311h-242z" />
<glyph unicode="&#x1ff;" horiz-adv-x="1347" d="M98 532q0 121 43.5 226t119 180.5t182 118.5t229.5 43q186 0 329 -92l54 63h141v-22l-100 -121q153 -159 153 -396q0 -242 -163 -401.5t-414 -159.5q-164 0 -303 76l-39 -47h-146v23l84 100q-81 76 -125.5 181t-44.5 228zM375 532q0 -115 67 -198l385 463q-68 41 -155 41 q-130 0 -213.5 -87.5t-83.5 -218.5zM541 1206l166 312h284l-209 -312h-241zM543 258q55 -27 129 -27q133 0 217 86.5t84 214.5q0 107 -53 181z" />
<glyph unicode="&#x218;" horiz-adv-x="1286" d="M111 100l67 277q86 -57 202 -96t241 -39q128 0 200 40t72 115q0 57 -44 92.5t-151 63.5l-229 57q-356 88 -356 383q0 88 33 163t98.5 132.5t171 90t241.5 32.5q141 0 276.5 -32.5t223.5 -78.5l-82 -262q-80 47 -199.5 79t-228.5 32q-237 0 -237 -131q0 -54 35 -81.5 t116 -51.5l256 -72q190 -53 282.5 -149t92.5 -244q0 -195 -162.5 -317.5t-415.5 -122.5q-140 0 -282 37.5t-221 82.5zM459 -260q0 64 41 101.5t106 37.5q84 0 129 -41.5t45 -120.5q0 -135 -118 -288l-138 49l49 133q-56 10 -85 44t-29 85z" />
<glyph unicode="&#x219;" horiz-adv-x="1087" d="M117 72l53 243q188 -98 350 -98q180 0 180 82q0 60 -131 92l-159 41q-154 38 -223.5 110.5t-69.5 196.5q0 159 119.5 255t334.5 96q99 0 208 -23.5t175 -54.5l-75 -246q-165 84 -330 84q-148 0 -148 -88q0 -37 20 -50t87 -30l172 -43q165 -40 237 -119t72 -201 q0 -156 -124.5 -247.5t-332.5 -91.5q-231 0 -415 92zM373 -260q0 64 41 101.5t106 37.5q84 0 129 -41.5t45 -120.5q0 -134 -119 -288l-137 49l49 133q-56 10 -85 44t-29 85z" />
<glyph unicode="&#x21a;" horiz-adv-x="1290" d="M51 1141v252h1188v-252h-442v-1141h-287v1141h-459zM475 -260q0 64 41.5 101.5t106.5 37.5q84 0 129 -41.5t45 -120.5q0 -134 -119 -288l-137 49l49 133q-56 10 -85.5 44.5t-29.5 84.5z" />
<glyph unicode="&#x21b;" horiz-adv-x="1046" d="M72 848v223h190l35 272h252v-272h391v-223h-391v-436q0 -183 145 -183q55 0 114 23t103 55l90 -221q-172 -106 -397 -106q-161 0 -251.5 96t-90.5 278v494h-190zM410 -260q0 64 41 101.5t106 37.5q84 0 129 -41.5t45 -120.5q0 -134 -119 -288l-137 49l49 133 q-56 10 -85 44t-29 85z" />
<glyph unicode="&#x2c6;" horiz-adv-x="1228" d="M276 1206l213 312h279l211 -312h-215l-135 172l-135 -172h-218z" />
<glyph unicode="&#x2da;" horiz-adv-x="1228" d="M428 1290q0 83 59 142t142 59t141.5 -59t58.5 -142t-58.5 -141.5t-141.5 -58.5t-142 58.5t-59 141.5zM545 1290q0 -35 24.5 -59.5t59.5 -24.5q34 0 58 24.5t24 59.5q0 34 -24 58t-58 24q-35 0 -59.5 -24t-24.5 -58z" />
<glyph unicode="&#x2dc;" horiz-adv-x="1228" d="M244 1341q32 72 95 122t134 50q46 0 93.5 -18.5t80 -41.5t70 -41.5t67.5 -18.5q94 0 142 90l88 -111q-39 -81 -98.5 -127.5t-131.5 -46.5q-43 0 -90 19t-81 41.5t-72 41.5t-66 19q-88 0 -145 -90z" />
<glyph unicode="&#x1e80;" horiz-adv-x="2248" d="M27 1393h309l409 -1071l259 614l-173 457h312l373 -1024l401 1024h313l-555 -1393h-311l-236 596l-251 -596h-312zM817 1839h285l166 -311h-242z" />
<glyph unicode="&#x1e81;" horiz-adv-x="2060" d="M51 1071h305l248 -807l258 807h344l238 -807l268 807h305l-387 -1071h-354l-246 766l-258 -766h-354zM711 1518h284l166 -312h-241z" />
<glyph unicode="&#x1e82;" horiz-adv-x="2248" d="M27 1393h309l409 -1071l259 614l-173 457h312l373 -1024l401 1024h313l-555 -1393h-311l-236 596l-251 -596h-312zM985 1528l166 311h285l-209 -311h-242z" />
<glyph unicode="&#x1e83;" horiz-adv-x="2060" d="M51 1071h305l248 -807l258 807h344l238 -807l268 807h305l-387 -1071h-354l-246 766l-258 -766h-354zM907 1206l166 312h285l-209 -312h-242z" />
<glyph unicode="&#x1e84;" horiz-adv-x="2248" d="M27 1393h309l409 -1071l259 614l-173 457h312l373 -1024l401 1024h313l-555 -1393h-311l-236 596l-251 -596h-312zM707 1692q0 135 157 135q156 0 156 -135q0 -70 -42 -103t-114 -33q-157 0 -157 136zM1229 1692q0 135 160 135q153 0 153 -135q0 -136 -153 -136 q-160 0 -160 136z" />
<glyph unicode="&#x1e85;" horiz-adv-x="2060" d="M51 1071h305l248 -807l258 807h344l238 -807l268 807h305l-387 -1071h-354l-246 766l-258 -766h-354zM612 1370q0 135 158 135q156 0 156 -135t-156 -135q-158 0 -158 135zM1135 1370q0 135 159 135q154 0 154 -135t-154 -135q-159 0 -159 135z" />
<glyph unicode="&#x1ef2;" horiz-adv-x="1413" d="M18 1372v21h320l369 -578l368 578h320v-21l-545 -819v-553h-287v551zM385 1839h285l166 -311h-242z" />
<glyph unicode="&#x1ef3;" horiz-adv-x="1265" d="M25 1071h317l295 -758l285 758h288l-444 -1081q-42 -106 -82.5 -176t-94 -121.5t-121.5 -75t-157 -23.5q-68 0 -134 21t-111 51l43 232q109 -62 202 -62q68 0 107 32t71 105l23 56zM317 1518h285l166 -312h-242z" />
<glyph unicode="&#x2000;" horiz-adv-x="929" />
<glyph unicode="&#x2001;" horiz-adv-x="1858" />
<glyph unicode="&#x2002;" horiz-adv-x="929" />
<glyph unicode="&#x2003;" horiz-adv-x="1858" />
<glyph unicode="&#x2004;" horiz-adv-x="619" />
<glyph unicode="&#x2005;" horiz-adv-x="464" />
<glyph unicode="&#x2006;" horiz-adv-x="309" />
<glyph unicode="&#x2007;" horiz-adv-x="309" />
<glyph unicode="&#x2008;" horiz-adv-x="232" />
<glyph unicode="&#x2009;" horiz-adv-x="371" />
<glyph unicode="&#x200a;" horiz-adv-x="103" />
<glyph unicode="&#x2010;" horiz-adv-x="1101" d="M141 508v225h820v-225h-820z" />
<glyph unicode="&#x2011;" horiz-adv-x="1101" d="M141 508v225h820v-225h-820z" />
<glyph unicode="&#x2012;" horiz-adv-x="1101" d="M141 508v225h820v-225h-820z" />
<glyph unicode="&#x2013;" horiz-adv-x="1298" d="M141 508v225h1016v-225h-1016z" />
<glyph unicode="&#x2014;" horiz-adv-x="1806" d="M141 508v225h1524v-225h-1524z" />
<glyph unicode="&#x2018;" horiz-adv-x="573" d="M109 920q0 107 51.5 252.5t109.5 240.5l160 -65l-88 -265q119 -31 119 -163q0 -85 -46 -132t-130 -47q-83 0 -129.5 48.5t-46.5 130.5z" />
<glyph unicode="&#x2019;" horiz-adv-x="569" d="M117 1231q0 86 45.5 133t128.5 47q84 0 131 -48.5t47 -131.5q0 -105 -52.5 -248.5t-111.5 -243.5l-162 64l90 266q-57 13 -86.5 56t-29.5 106z" />
<glyph unicode="&#x201a;" horiz-adv-x="591" d="M119 139q0 86 45.5 133t128.5 47q84 0 131 -48.5t47 -131.5q0 -105 -52.5 -248t-111.5 -243l-162 63l91 266q-57 13 -87 56t-30 106z" />
<glyph unicode="&#x201c;" horiz-adv-x="978" d="M109 967q0 94 47.5 227t99.5 219l139 -55l-82 -248q107 -24 107 -143q0 -75 -40.5 -117.5t-115.5 -42.5q-73 0 -114 43.5t-41 116.5zM553 967q0 94 47.5 227t99.5 219l140 -55l-82 -248q106 -24 106 -143q0 -75 -40 -117.5t-113 -42.5q-74 0 -116 43.5t-42 116.5z" />
<glyph unicode="&#x201d;" horiz-adv-x="976" d="M117 1253q0 75 40 116.5t115 41.5q73 0 114.5 -43.5t41.5 -114.5q0 -96 -47 -229.5t-98 -218.5l-142 57l82 246q-106 24 -106 145zM561 1253q0 75 41 116.5t115 41.5t115.5 -43t41.5 -115q0 -95 -47.5 -228.5t-99.5 -219.5l-139 57l80 246q-52 12 -79.5 50.5t-27.5 94.5z " />
<glyph unicode="&#x201e;" horiz-adv-x="997" d="M121 94q0 75 40 117.5t113 42.5q74 0 116 -43.5t42 -116.5q0 -95 -47.5 -227t-99.5 -219l-140 55l82 248q-53 10 -79.5 48t-26.5 95zM565 94q0 75 40.5 117.5t115.5 42.5q73 0 114.5 -43.5t41.5 -116.5q0 -95 -47.5 -227t-100.5 -219l-139 55l82 248q-53 10 -80 48 t-27 95z" />
<glyph unicode="&#x2020;" horiz-adv-x="1228" d="M63 715v225h439v514h225v-514h438v-225h-438v-1100h-225v1100h-439z" />
<glyph unicode="&#x2021;" horiz-adv-x="1302" d="M100 100v226h439v389h-439v225h439v514h225v-514h438v-225h-438v-389h438v-226h-438v-485h-225v485h-439z" />
<glyph unicode="&#x2022;" horiz-adv-x="849" d="M176 618q0 121 64.5 187.5t183.5 66.5t184.5 -66.5t65.5 -187.5q0 -122 -65.5 -187.5t-184.5 -65.5t-183.5 65.5t-64.5 187.5z" />
<glyph unicode="&#x2026;" horiz-adv-x="1634" d="M121 129q0 77 43 119.5t121 42.5q77 0 121.5 -43t44.5 -119q0 -77 -44 -118.5t-122 -41.5t-121 41t-43 119zM653 129q0 77 43 119.5t121 42.5q77 0 121.5 -43t44.5 -119q0 -77 -44 -118.5t-122 -41.5t-121 41t-43 119zM1186 129q0 77 43 119.5t121 42.5q77 0 121.5 -43 t44.5 -119q0 -77 -44 -118.5t-122 -41.5t-121 41t-43 119z" />
<glyph unicode="&#x202f;" horiz-adv-x="371" />
<glyph unicode="&#x2030;" horiz-adv-x="2660" d="M72 1038q0 160 107.5 267.5t271.5 107.5q165 0 272.5 -107t107.5 -268q0 -160 -107.5 -265t-272.5 -105q-164 0 -271.5 105t-107.5 265zM291 1038q0 -68 45 -114.5t115 -46.5t114.5 46.5t44.5 114.5q0 70 -44.5 117t-114.5 47t-115 -47t-45 -117zM430 0v23l715 1370h246 v-21l-713 -1372h-248zM995 350q0 160 107.5 267.5t271.5 107.5q165 0 273 -107t108 -268q0 -160 -108 -265t-273 -105q-164 0 -271.5 105t-107.5 265zM1214 350q0 -68 45 -115t115 -47t115 47t45 115q0 70 -45 117t-115 47t-115 -47t-45 -117zM1831 350q0 161 108 268 t273 107q164 0 271.5 -107.5t107.5 -267.5t-107.5 -265t-271.5 -105q-165 0 -273 105t-108 265zM2050 350q0 -69 45.5 -115.5t116.5 -46.5q69 0 113.5 46.5t44.5 115.5q0 70 -44 117t-114 47q-71 0 -116.5 -47t-45.5 -117z" />
<glyph unicode="&#x2039;" horiz-adv-x="657" d="M92 590v55l332 420h20l105 -55l-217 -392l217 -391l-105 -55h-20z" />
<glyph unicode="&#x203a;" horiz-adv-x="655" d="M106 1008l105 57h22l330 -420v-55l-330 -418h-22l-102 53l215 393z" />
<glyph unicode="&#x2044;" horiz-adv-x="262" d="M-328 0v23l756 1370h164v-21l-754 -1372h-166z" />
<glyph unicode="&#x205f;" horiz-adv-x="464" />
<glyph unicode="&#x20ac;" horiz-adv-x="1284" d="M111 459v172h98q-2 20 -2 63v37h-96v172h112q44 245 190 377.5t371 132.5q126 0 219.5 -44t180.5 -126l-103 -213q-57 57 -128.5 89t-143.5 32q-108 0 -182 -61t-105 -187h502l-78 -172h-446v-37q0 -43 2 -63h403l-67 -172h-310q68 -217 273 -217q152 0 289 104l106 -235 q-182 -131 -418 -131q-215 0 -358.5 124t-190.5 355h-118z" />
<glyph unicode="&#x2122;" horiz-adv-x="1708" d="M137 1202v156h535v-156h-189v-471h-155v471h-191zM823 731v627h131l228 -268l227 268h131v-627h-156v383l-188 -229h-29l-188 229v-383h-156z" />
<glyph unicode="&#x25ca;" horiz-adv-x="1185" d="M74 680l428 713h180l430 -713l-430 -680h-180zM315 678l277 -436l278 436l-278 463z" />
<glyph unicode="&#x25fc;" horiz-adv-x="1075" d="M0 0v1075h1075v-1075h-1075z" />
<glyph unicode="&#xf8ff;" horiz-adv-x="1392" d="M172 0v1475h1049v-1475h-1049zM436 948h96q0 82 44 136.5t133 54.5q83 0 130.5 -44.5t47.5 -111.5q0 -29 -15 -55.5t-39 -48t-53.5 -43.5t-58.5 -47t-53 -54t-39 -69t-15 -86h99q0 45 20.5 83.5t51.5 63.5t67 53t67 53.5t51.5 64.5t20.5 85q0 105 -74.5 174.5 t-207.5 69.5q-65 0 -115.5 -20.5t-79 -51t-47.5 -70t-25 -73t-6 -64.5zM592 252h139v145h-139v-145z" />
<glyph unicode="&#xfb01;" horiz-adv-x="1570" d="M78 797v223h196v74q0 80 22 147.5t65.5 120.5t115.5 83t166 30q78 0 153 -18.5t124 -43.5l-64 -248q-86 58 -180 58q-115 0 -115 -131v-72h322v-223h-322v-797h-287v797h-196zM1098 1374q0 142 168 142q164 0 164 -142q0 -143 -164 -143q-168 0 -168 143zM1120 0v1071 h287v-1071h-287z" />
<glyph unicode="&#xfb02;" horiz-adv-x="1644" d="M78 797v223h196v74q0 80 22 147.5t65.5 120.5t115.5 83t166 30q78 0 153 -18.5t124 -43.5l-64 -248q-86 58 -180 58q-115 0 -115 -131v-72h322v-223h-322v-797h-287v797h-196zM1110 268v1186h287v-1116q0 -117 88 -117q46 0 114 33l15 -227q-115 -47 -242 -47 q-126 0 -194 68t-68 220z" />
</font>
</defs>
</svg>
