<?xml version="1.0" standalone="no"?>
<!DOCTYPE svg PUBLIC "-//W3C//DTD SVG 1.1//EN" "http://www.w3.org/Graphics/SVG/1.1/DTD/svg11.dtd" >
<svg xmlns="http://www.w3.org/2000/svg" xmlns:xlink="http://www.w3.org/1999/xlink" version="1.1">
<metadata></metadata>
<defs>
<font id="pluto_sansextralight" horiz-adv-x="1359" >
<font-face units-per-em="2048" ascent="1536" descent="-512" />
<missing-glyph horiz-adv-x="491" />
<glyph horiz-adv-x="0" />
<glyph horiz-adv-x="0" />
<glyph horiz-adv-x="682" />
<glyph unicode=" "  horiz-adv-x="491" />
<glyph unicode="&#x09;" horiz-adv-x="491" />
<glyph unicode="&#xa0;" horiz-adv-x="491" />
<glyph unicode="!" horiz-adv-x="557" d="M190 74q0 46 23 70t66 24t66.5 -24.5t23.5 -69.5q0 -47 -23.5 -72t-66.5 -25t-66 25t-23 72zM233 1391h93l-11 -988h-73z" />
<glyph unicode="&#x22;" horiz-adv-x="860" d="M186 1393h78l-2 -484h-74zM596 1393h78l-2 -484h-74z" />
<glyph unicode="#" horiz-adv-x="1421" d="M90 334v78h223l146 581h-191v78h209l82 322h78v-9l-78 -313h477l80 322h80v-9l-78 -313h213v-78h-233l-144 -581h199v-78h-219l-82 -334h-80v10l80 324h-477l-82 -334h-80v10l80 324h-203zM395 412h477l144 581h-477z" />
<glyph unicode="$" horiz-adv-x="1273" d="M125 1032q0 71 29.5 135t87.5 116.5t152 86t214 39.5v168h66v-166q125 -3 249 -35.5t205 -77.5l-30 -86q-71 43 -191.5 76.5t-232.5 36.5v-580l100 -24q189 -46 284 -124t95 -216q0 -171 -131.5 -278t-347.5 -121v-244h-66v242q-133 1 -259.5 38.5t-201.5 83.5l27 86 q75 -46 193 -84t241 -38v604l-172 41q-147 35 -229 115.5t-82 205.5zM217 1036q0 -182 250 -241l141 -35v563q-190 -10 -290.5 -92t-100.5 -195zM674 68q175 12 281 94.5t106 214.5q0 101 -79 163.5t-241 98.5l-67 16v-587z" />
<glyph unicode="%" horiz-adv-x="1703" d="M90 1065q0 150 98 248t250 98q153 0 250.5 -98t97.5 -248q0 -149 -97.5 -246.5t-250.5 -97.5q-152 0 -250 98t-98 246zM168 1065q0 -117 75.5 -193.5t194.5 -76.5q120 0 196.5 76.5t76.5 193.5q0 118 -76 195t-197 77q-119 0 -194.5 -77t-75.5 -195zM422 0v10l745 1383 h86v-9l-745 -1384h-86zM915 322q0 150 98.5 249t250.5 99q153 0 250.5 -99t97.5 -249q0 -149 -97.5 -245.5t-250.5 -96.5q-152 0 -250.5 97t-98.5 245zM993 322q0 -116 76 -192.5t195 -76.5q120 0 196 76t76 193q0 119 -75.5 196.5t-196.5 77.5q-119 0 -195 -77.5 t-76 -196.5z" />
<glyph unicode="&#x26;" horiz-adv-x="1456" d="M147 344q0 60 21.5 113.5t54.5 92t82 73.5t93.5 57.5t99.5 44.5v2q-103 101 -136 142q-88 110 -88 218q0 148 105 237t285 89q168 0 281.5 -91.5t113.5 -229.5q0 -130 -70.5 -210.5t-195.5 -127.5l-144 -58l416 -395q153 189 209 469l80 -37q-71 -300 -228 -491l242 -228 v-14h-117l-184 176q-194 -194 -459 -194q-213 0 -337 97t-124 265zM238 346q0 -128 101.5 -205.5t274.5 -77.5q218 0 394 173l-445 428q-52 -20 -92.5 -39t-86.5 -48.5t-76 -61t-50 -75.5t-20 -94zM362 1085q0 -26 6.5 -52t24 -54t29.5 -47.5t40.5 -50t39.5 -42t44.5 -43.5 t37.5 -36v-2l172 63q213 80 213 264q0 103 -89 174.5t-216 71.5q-145 0 -223.5 -67.5t-78.5 -178.5z" />
<glyph unicode="'" horiz-adv-x="450" d="M186 1393h78l-2 -484h-74z" />
<glyph unicode="(" horiz-adv-x="589" d="M139 535q0 142 22.5 278t54.5 235t74.5 187t77 140t66.5 89l62 -39q-41 -54 -81.5 -126t-86.5 -183.5t-74.5 -263.5t-28.5 -317q0 -164 28.5 -315.5t74.5 -263.5t86.5 -184.5t81.5 -127.5l-62 -39q-32 37 -66.5 89.5t-77 140.5t-75 187.5t-54.5 235t-22 277.5z" />
<glyph unicode=")" horiz-adv-x="589" d="M94 -356q41 55 81.5 127.5t86.5 184.5t74.5 263.5t28.5 315.5q0 165 -28.5 317t-74.5 263.5t-86.5 183.5t-81.5 126l62 39q32 -37 66.5 -89t77 -140t74.5 -187t54.5 -235t22.5 -278t-22 -277.5t-54.5 -235t-75 -187.5t-77 -140.5t-66.5 -89.5z" />
<glyph unicode="*" horiz-adv-x="995" d="M129 1081l23 76l309 -86l-4 322h80l-2 -322l311 86l20 -76l-313 -80l170 -278l-64 -41l-165 276l-158 -276l-66 39l166 283z" />
<glyph unicode="+" horiz-adv-x="1169" d="M125 580v77h420v422h78v-422h421v-77h-421v-420h-78v420h-420z" />
<glyph unicode="," horiz-adv-x="538" d="M174 -322l100 295q-47 3 -72.5 27.5t-25.5 60.5q0 49 24.5 75t67.5 26q44 0 69 -29t25 -72q0 -74 -47.5 -211t-81.5 -196z" />
<glyph unicode="-" horiz-adv-x="1107" d="M184 580v79h740v-79h-740z" />
<glyph unicode="." horiz-adv-x="538" d="M180 74q0 46 22.5 70t63.5 24q44 0 68 -24t24 -70q0 -47 -24 -72t-68 -25q-41 0 -63.5 25t-22.5 72z" />
<glyph unicode="/" horiz-adv-x="991" d="M80 0v10l745 1383h86v-9l-745 -1384h-86z" />
<glyph unicode="0" horiz-adv-x="1462" d="M152 694q0 127 20.5 234.5t65.5 198t111.5 153.5t163 98t216.5 35q151 0 264.5 -53.5t182.5 -151t103 -226t34 -288.5q0 -158 -34 -286t-103 -225t-182.5 -150t-264.5 -53q-149 0 -261.5 53t-180.5 150t-101.5 225t-33.5 286zM240 694q0 -137 27 -248t83.5 -198 t152.5 -134.5t226 -47.5q131 0 228.5 47.5t155 134.5t85 198t27.5 248q0 139 -27.5 251t-85 199t-155 135t-228.5 48q-130 0 -226 -48t-152.5 -135t-83.5 -199t-27 -251z" />
<glyph unicode="1" horiz-adv-x="956" d="M55 1126l590 267h76v-1393h-90v1290l-543 -237z" />
<glyph unicode="2" horiz-adv-x="1284" d="M131 948q5 210 137 337.5t369 127.5q119 0 212.5 -34.5t150.5 -94.5t86.5 -138t29.5 -169q0 -143 -69.5 -262t-225.5 -236l-528 -397h870v-82h-1013v76l606 461q139 105 203.5 207t64.5 227q0 158 -98 257t-289 99q-199 0 -308.5 -108t-111.5 -281z" />
<glyph unicode="3" horiz-adv-x="1314" d="M147 78l29 80q200 -97 438 -97q199 0 331 87.5t132 236.5q0 135 -101 215t-288 80h-379v82h379q81 0 147.5 24.5t108 65t64 90.5t22.5 105q0 134 -116.5 209t-299.5 75q-127 0 -240.5 -32t-189.5 -72l-28 78q211 108 458 108q230 0 368 -95t138 -265q0 -121 -77 -215 t-205 -111q158 -27 244.5 -116t86.5 -234q0 -123 -71 -213.5t-196 -137t-288 -46.5q-224 0 -467 98z" />
<glyph unicode="4" horiz-adv-x="1435" d="M68 322v69l850 1002h110v-990h324v-81h-324v-322h-90v322h-870zM176 403h762v885z" />
<glyph unicode="5" horiz-adv-x="1304" d="M119 84l31 78q196 -101 446 -101q75 0 143 12t130.5 40.5t108.5 70.5t73.5 106t27.5 144q0 85 -36 146.5t-102.5 96.5t-149.5 51.5t-187 16.5h-395l-6 9l53 639h870v-82h-792l-39 -490h313q124 0 224.5 -22t177.5 -67t119 -120t42 -176q0 -118 -48 -208.5t-130 -143 t-181 -78.5t-212 -26q-91 0 -170.5 10.5t-142 29.5t-95.5 32t-73 32z" />
<glyph unicode="6" horiz-adv-x="1421" d="M147 698q0 212 72 372.5t213.5 251.5t335.5 91q150 0 272.5 -42.5t192.5 -96.5l-41 -76q-65 53 -174.5 93t-243.5 40q-253 0 -394.5 -173.5t-141.5 -459.5q0 -46 2 -69q24 37 53 71t79 78t105.5 76t133.5 54t163 22q237 0 375.5 -123t138.5 -342q0 -213 -149 -349 t-375 -136q-290 0 -453.5 195t-163.5 523zM250 532q38 -217 171 -341.5t343 -124.5q186 0 310 113.5t124 285.5q0 184 -119 284.5t-313 100.5q-85 0 -164.5 -26t-133 -61.5t-102 -84t-73 -81t-43.5 -65.5z" />
<glyph unicode="7" horiz-adv-x="1087" d="M61 1311v82h981v-74l-645 -1319h-102v10l645 1301h-879z" />
<glyph unicode="8" horiz-adv-x="1396" d="M145 377q0 146 99 236t272 114q-144 17 -232.5 111t-88.5 215q0 170 136.5 265t366.5 95q229 0 366.5 -95t137.5 -265q0 -121 -88.5 -215t-232.5 -111q173 -24 271.5 -114t98.5 -236q0 -184 -153.5 -290.5t-399.5 -106.5q-247 0 -400 106.5t-153 290.5zM236 383 q0 -148 131 -235t331 -87q199 0 330 87t131 235q0 137 -112 215t-345 78q-235 0 -350.5 -78.5t-115.5 -214.5zM285 1051q0 -118 103 -200.5t314 -82.5q106 0 187.5 24t128.5 65t70.5 90t23.5 104q0 136 -114 209t-300 73q-187 0 -300 -72.5t-113 -209.5z" />
<glyph unicode="9" horiz-adv-x="1421" d="M133 928q0 213 149 349t375 136q290 0 453.5 -195.5t163.5 -523.5q0 -322 -165 -518t-456 -196q-150 0 -272.5 42.5t-192.5 96.5l41 76q65 -53 174.5 -93.5t243.5 -40.5q252 0 394.5 174t142.5 459q0 49 -2 72q-25 -37 -53.5 -71t-79 -78.5t-105.5 -76.5t-133.5 -54.5 t-163.5 -22.5q-237 0 -375.5 123t-138.5 342zM223 928q0 -184 119 -284.5t313 -100.5q85 0 163.5 25.5t132.5 61t102 83t72.5 80.5t43.5 65q-37 217 -171 343t-341 126q-186 0 -310 -113.5t-124 -285.5z" />
<glyph unicode=":" horiz-adv-x="544" d="M184 74q0 45 22 69.5t62 24.5q44 0 68 -24t24 -70q0 -47 -24 -72t-68 -25q-40 0 -62 25t-22 72zM184 1006q0 45 22 69.5t62 24.5q44 0 68 -24t24 -70q0 -47 -24 -72t-68 -25q-40 0 -62 25t-22 72z" />
<glyph unicode=";" horiz-adv-x="569" d="M193 -319l98 292q-47 3 -71.5 27.5t-24.5 60.5q0 49 23.5 75t66.5 26q44 0 69 -29t25 -72q0 -74 -47 -210t-82 -195zM195 1006q0 45 22 69.5t62 24.5q44 0 68 -24t24 -70q0 -47 -24 -72t-68 -25q-40 0 -62 25t-22 72z" />
<glyph unicode="&#x3c;" horiz-adv-x="1181" d="M100 582v75l910 437h10v-80l-840 -393l840 -394v-80h-10z" />
<glyph unicode="=" horiz-adv-x="1296" d="M188 291v78h920v-78h-920zM188 870v78h920v-78h-920z" />
<glyph unicode="&#x3e;" horiz-adv-x="1181" d="M162 147v80l839 394l-839 393v80h10l909 -437v-75l-909 -435h-10z" />
<glyph unicode="?" horiz-adv-x="966" d="M90 1219q115 194 377 194q164 0 269.5 -96t105.5 -250q0 -50 -11.5 -95.5t-25 -74.5t-43 -65t-45.5 -51.5t-53 -49.5l-3 -3l-3 -3l-3.5 -3.5t-3.5 -2.5l-141 -129q-39 -36 -51.5 -59.5t-12.5 -63.5q0 -22 11 -64h-82q-13 50 -13 70q0 53 20 88.5t71 79.5l139 131 q38 35 60 58.5t48.5 61t39 79.5t12.5 92q0 123 -84 196.5t-211 73.5q-219 0 -322 -178zM330 74q0 94 88 94q43 0 66.5 -24.5t23.5 -69.5q0 -47 -23.5 -72t-66.5 -25q-88 0 -88 97z" />
<glyph unicode="@" horiz-adv-x="2066" d="M125 539q0 198 71 372t194 297t295.5 194t369.5 71q198 0 368.5 -62.5t290 -171t187 -259t67.5 -321.5q0 -155 -36.5 -279t-98.5 -200.5t-138 -116.5t-159 -40q-85 0 -125.5 35.5t-50.5 105.5q-61 -62 -150.5 -101.5t-191.5 -39.5q-215 0 -345 138t-130 357 q0 222 130.5 363t344.5 141q101 0 189 -37.5t147 -97.5v119h88v-783q0 -66 25.5 -97.5t91.5 -31.5q60 0 118 35t108 102t80.5 178.5t30.5 249.5q0 157 -61.5 294t-171 235.5t-267 155.5t-341.5 57q-183 0 -342.5 -65t-272 -178t-177 -273.5t-64.5 -345.5q0 -183 64.5 -343.5 t177 -275t272 -180.5t342.5 -66q216 0 397 88l29 -65q-196 -94 -426 -94q-196 0 -369 72t-296 196t-194 297.5t-71 370.5zM631 518q0 -184 110.5 -300t292.5 -116q97 0 182 41.5t138 100.5v553q-52 61 -137 103t-183 42q-182 0 -292.5 -118.5t-110.5 -305.5z" />
<glyph unicode="A" horiz-adv-x="1435" d="M63 0l613 1393h100l578 -1393h-92l-150 356h-799l-157 -356h-93zM342 432h743l-360 866z" />
<glyph unicode="B" horiz-adv-x="1394" d="M233 0v1393h465q215 0 335 -89.5t120 -267.5q0 -119 -69.5 -198.5t-192.5 -114.5q178 -24 275.5 -114t97.5 -249q0 -168 -120 -264t-351 -96h-560zM324 82h462q186 0 284.5 75t98.5 210q0 155 -114 231t-320 76h-411v-592zM324 756h350q175 0 281 70t106 204 q0 144 -97.5 212.5t-273.5 68.5h-366v-555z" />
<glyph unicode="C" horiz-adv-x="1531" d="M137 696q0 151 55 284t150.5 228t229 150t284.5 55q168 0 308 -60t239 -173l-47 -66q-91 100 -219 156.5t-281 56.5q-133 0 -249.5 -48.5t-199.5 -132t-130.5 -200.5t-47.5 -250q0 -178 81 -322t225 -226t321 -82q153 0 281 56.5t219 156.5l47 -66q-99 -113 -239 -173 t-308 -60q-202 0 -367 93.5t-258.5 257.5t-93.5 365z" />
<glyph unicode="D" horiz-adv-x="1607" d="M233 0v1393h512q155 -1 286 -47t227.5 -132.5t151 -220t54.5 -299.5q0 -165 -54.5 -297.5t-151 -218.5t-227.5 -132t-286 -46h-512zM324 82h419q137 0 252 40.5t199 116.5t131 192.5t47 262.5q0 147 -47 264.5t-131 194t-198.5 117t-252.5 41.5h-419v-1229z" />
<glyph unicode="E" horiz-adv-x="1411" d="M233 0v1393h1045v-84h-956v-539h806v-82h-806v-604h956v-84h-1045z" />
<glyph unicode="F" horiz-adv-x="1335" d="M233 0v1393h1004v-84h-915v-619h804v-82h-804v-608h-89z" />
<glyph unicode="G" horiz-adv-x="1611" d="M139 694q0 166 58 303t158.5 227t235.5 139.5t290 49.5q161 0 285 -50.5t235 -148.5l-49 -69q-101 90 -213.5 136t-257.5 46q-135 0 -253.5 -43.5t-206.5 -123t-139 -200t-51 -266.5q0 -192 88 -336.5t235 -218t329 -73.5q134 0 264 38.5t217 100.5v422h-543v82h633v-553 q-100 -76 -258.5 -126t-314.5 -50q-155 0 -290 49t-235.5 139t-158.5 226t-58 300z" />
<glyph unicode="H" horiz-adv-x="1705" d="M233 0v1393h91v-652h1058v652h91v-1393h-91v657h-1058v-657h-91z" />
<glyph unicode="I" horiz-adv-x="559" d="M233 0v1393h91v-1393h-91z" />
<glyph unicode="J" horiz-adv-x="1343" d="M76 504l88 10q14 -216 122 -334.5t314 -118.5q210 0 324 125.5t114 339.5v867h90v-871q0 -244 -141.5 -395.5t-388.5 -151.5q-242 0 -374 141.5t-148 387.5z" />
<glyph unicode="K" horiz-adv-x="1368" d="M233 0v1393h91v-668h208l637 668h99v-15l-656 -698l717 -668v-12h-117l-682 641h-206v-641h-91z" />
<glyph unicode="L" horiz-adv-x="1198" d="M233 0v1393h91v-1311h827v-82h-918z" />
<glyph unicode="M" horiz-adv-x="1927" d="M233 0v1393h86l644 -785l645 785h84v-1393h-90v1247l-625 -760h-27l-626 760v-1247h-91z" />
<glyph unicode="N" horiz-adv-x="1699" d="M233 0v1393h84l1057 -1254v1254h90v-1393h-82l-1058 1247v-1247h-91z" />
<glyph unicode="O" horiz-adv-x="1710" d="M139 694q0 152 54.5 285.5t149.5 228.5t227.5 150t283.5 55q152 0 285.5 -55t228.5 -150t150 -228.5t55 -285.5q0 -201 -93 -364.5t-258 -256.5t-368 -93q-201 0 -365 93t-257 256.5t-93 364.5zM227 694q0 -178 81 -321.5t224.5 -225t321.5 -81.5q180 0 324 81.5 t224.5 225t80.5 321.5q0 135 -47.5 252.5t-130 200.5t-199.5 130.5t-252 47.5q-270 0 -448.5 -179t-178.5 -452z" />
<glyph unicode="P" horiz-adv-x="1392" d="M233 0v1393h576q99 0 184 -29.5t152 -87t105 -151.5t38 -214q0 -144 -66.5 -253.5t-174.5 -164.5t-238 -55h-485v-438h-91zM324 520h475q169 0 283 105.5t114 285.5q0 99 -31.5 176.5t-86 126t-125.5 73t-154 24.5h-475v-791z" />
<glyph unicode="Q" horiz-adv-x="1710" d="M139 694q0 152 54.5 285.5t149.5 228.5t227.5 150t283.5 55q152 0 285.5 -55t228.5 -150t150 -228.5t55 -285.5q0 -270 -166.5 -465t-427.5 -235q23 -17 70 -60t87.5 -75t96.5 -67.5t122.5 -55t139.5 -19.5q137 0 236 35l16 -82q-115 -39 -256 -39q-82 0 -161 24 t-138.5 60.5t-116 80t-95 82t-73.5 67.5t-55 35q-201 0 -364.5 93t-256 256.5t-92.5 364.5zM227 694q0 -178 81 -321.5t224.5 -225t321.5 -81.5q134 0 251 48t200 131t130.5 199.5t47.5 249.5q0 180 -81.5 324.5t-225 225.5t-322.5 81q-270 0 -448.5 -179t-178.5 -452z" />
<glyph unicode="R" horiz-adv-x="1464" d="M233 0v1393h596q97 0 180.5 -26.5t149 -78.5t102.5 -136.5t37 -193.5q0 -133 -62.5 -231.5t-164.5 -147.5t-227 -49h-15l576 -518v-12h-117l-581 530h-383v-530h-91zM324 608h512q102 0 185 39t134 119.5t51 189.5q0 89 -30 158t-81.5 111.5t-117 64t-141.5 21.5h-512 v-703z" />
<glyph unicode="S" horiz-adv-x="1292" d="M137 1038q0 76 32 142t94 118t165 82.5t234 30.5q130 0 258 -33t210 -80l-28 -84q-72 45 -199.5 78t-243.5 33q-108 0 -192.5 -23t-135 -62.5t-76.5 -89t-26 -106.5q0 -186 263 -249l294 -70q189 -46 283 -123.5t94 -216.5q0 -184 -153.5 -294.5t-395.5 -110.5 q-133 0 -261 37.5t-206 84.5l27 86q77 -46 197 -84t245 -38q199 0 327 85.5t128 229.5q0 101 -76.5 162.5t-240.5 97.5l-285 66q-161 37 -246.5 120.5t-85.5 210.5z" />
<glyph unicode="T" horiz-adv-x="1273" d="M43 1309v84h1188v-84h-531v-1309h-90v1309h-567z" />
<glyph unicode="U" horiz-adv-x="1599" d="M215 557v836h90v-832q0 -231 123 -365.5t369 -134.5q125 0 222 39t156 108.5t89 159t30 195.5v830h90v-836q0 -119 -37 -222.5t-107.5 -184.5t-184.5 -128t-258 -47t-255.5 43t-182.5 121.5t-107.5 184t-36.5 233.5z" />
<glyph unicode="V" horiz-adv-x="1439" d="M82 1393h96l535 -1309l567 1309h96l-612 -1393h-105z" />
<glyph unicode="W" horiz-adv-x="2217" d="M82 1393h94l535 -1291l360 805l-201 486h97l526 -1282l565 1282h94l-612 -1393h-94l-336 803l-356 -803h-95z" />
<glyph unicode="X" horiz-adv-x="1400" d="M72 0v10l563 686l-563 688v9h104l524 -633l527 633h102v-9l-565 -688l565 -686v-10h-102l-527 633l-524 -633h-104z" />
<glyph unicode="Y" horiz-adv-x="1413" d="M68 1384v9h100l539 -709l538 709h101v-9l-594 -782v-602h-90v600z" />
<glyph unicode="Z" horiz-adv-x="1224" d="M109 0v74l892 1237h-892v82h1007v-74l-891 -1237h891v-82h-1007z" />
<glyph unicode="[" horiz-adv-x="694" d="M215 -385v1839h381v-78h-303v-1681h303v-80h-381z" />
<glyph unicode="\" horiz-adv-x="991" d="M80 1384v9h86l745 -1383v-10h-86z" />
<glyph unicode="]" horiz-adv-x="694" d="M100 -305h301v1681h-301v78h379v-1839h-379v80z" />
<glyph unicode="^" horiz-adv-x="1114" d="M147 846v10l367 537h76l377 -537v-10h-88l-326 473l-317 -473h-89z" />
<glyph unicode="_" horiz-adv-x="1392" d="M184 -92h1024v-80h-1024v80z" />
<glyph unicode="`" horiz-adv-x="1228" d="M496 1518h98l168 -271h-88z" />
<glyph unicode="a" horiz-adv-x="1181" d="M117 307q0 130 71.5 216.5t188.5 124.5t274 38q131 0 240 -33v52q0 148 -79 225.5t-234 77.5q-182 0 -334 -76l-21 82q71 35 170.5 55.5t190.5 20.5q194 0 295.5 -101t101.5 -282v-707h-90v135q-163 -155 -387 -155q-178 0 -282.5 88t-104.5 239zM207 313 q0 -119 85 -187.5t230 -68.5q206 0 369 154v373q-86 28 -227 28q-99 0 -180 -17t-144 -51.5t-98 -93.5t-35 -137z" />
<glyph unicode="b" horiz-adv-x="1349" d="M211 0v1454h90v-526q69 71 167.5 116.5t211.5 45.5q239 0 384.5 -154t145.5 -399q0 -246 -145.5 -401.5t-384.5 -155.5q-116 0 -214 45t-165 116v-141h-90zM301 225q59 -68 155.5 -116t209.5 -48q204 0 329 132.5t125 343.5q0 208 -125 339.5t-329 131.5 q-110 0 -208 -50.5t-157 -119.5v-613z" />
<glyph unicode="c" horiz-adv-x="1228" d="M137 537q0 160 71.5 288t202 201.5t294.5 73.5q236 0 395 -146l-47 -69q-139 129 -346 129q-210 0 -344 -135.5t-134 -341.5t134 -343t344 -137q207 0 346 129l47 -69q-159 -146 -395 -146q-123 0 -229 43.5t-180.5 118.5t-116.5 180t-42 224z" />
<glyph unicode="d" horiz-adv-x="1349" d="M139 537q0 245 145.5 399t385.5 154q113 0 211.5 -45.5t167.5 -116.5v526h90v-1454h-90v141q-69 -71 -167 -116t-212 -45q-239 0 -385 156t-146 401zM231 537q0 -211 125.5 -343.5t329.5 -132.5q112 0 208 47.5t155 114.5v617q-61 69 -157.5 118.5t-205.5 49.5 q-204 0 -329.5 -131.5t-125.5 -339.5z" />
<glyph unicode="e" horiz-adv-x="1304" d="M139 532q0 156 66 284t194 206t295 78q119 0 210.5 -35.5t147.5 -97.5t84.5 -141.5t28.5 -172.5q0 -85 -18 -155h-918q4 -96 34 -175t87.5 -141t150 -96.5t212.5 -34.5q212 0 391 135l43 -69q-184 -146 -434 -146q-118 0 -214 29t-162.5 80.5t-111.5 122.5t-65.5 153.5 t-20.5 175.5zM231 575h838q8 54 8 89q0 72 -22.5 134.5t-67.5 113t-120.5 79.5t-172.5 29q-205 0 -331 -129t-132 -316z" />
<glyph unicode="f" horiz-adv-x="942" d="M102 924v77h234v117q0 162 79.5 259.5t243.5 97.5q91 0 159.5 -36t111.5 -85l-37 -70q-93 107 -227 107q-125 0 -182.5 -73t-57.5 -200v-117h430v-77h-430v-924h-90v924h-234z" />
<glyph unicode="g" horiz-adv-x="1349" d="M141 573q0 143 64.5 260t187 187t279.5 70q112 0 209.5 -46t167.5 -116v143h90v-989q0 -114 -37.5 -207.5t-102 -154t-149 -93.5t-178.5 -33q-33 0 -65 2.5t-61 8.5t-52.5 11.5t-49 15.5t-41 16t-38.5 18t-31 16.5t-28.5 17t-22.5 13.5l26 82q174 -119 363 -119 q102 0 186 43.5t137.5 135t53.5 215.5v151q-70 -70 -167.5 -115t-209.5 -45q-118 0 -218.5 40.5t-168.5 110t-106 163t-38 198.5zM233 573q0 -183 126 -306.5t329 -123.5q109 0 206 47.5t155 114.5v537q-59 69 -155 117.5t-206 48.5q-203 0 -329 -125.5t-126 -309.5z" />
<glyph unicode="h" d="M211 0v1454h90v-604q61 114 171 177t257 63q106 0 189.5 -36t136 -100.5t79.5 -150t27 -187.5v-616h-90v606q0 178 -92 288t-270 110q-156 0 -265.5 -84t-142.5 -215v-705h-90z" />
<glyph unicode="i" horiz-adv-x="514" d="M188 1378q0 70 70 70q66 0 66 -70q0 -71 -66 -71q-70 0 -70 71zM211 0v1071h90v-1071h-90z" />
<glyph unicode="j" horiz-adv-x="514" d="M-23 -338q114 60 174 143t60 220v1046h90v-1046q0 -303 -276 -428zM190 1378q0 70 68 70q66 0 66 -70q0 -71 -66 -71q-68 0 -68 71z" />
<glyph unicode="k" horiz-adv-x="1126" d="M211 0v1454h90v-862l610 479h109v-14l-623 -488l658 -555v-14h-115l-639 549v-549h-90z" />
<glyph unicode="l" horiz-adv-x="632" d="M219 207v1247h90v-1233q0 -83 38.5 -121.5t103.5 -38.5q68 0 139 48l18 -74q-73 -55 -180 -55q-97 0 -153 55.5t-56 171.5z" />
<glyph unicode="m" horiz-adv-x="2146" d="M211 0v1071h90v-233q60 117 164 184.5t248 67.5q304 0 391 -279q55 125 164.5 202t265.5 77q106 0 186.5 -36t129.5 -101t73.5 -149.5t24.5 -187.5v-616h-90v606q0 180 -85 289t-262 109q-153 0 -252.5 -89t-132.5 -225v-690h-90v608q0 181 -84 288.5t-260 107.5 q-153 0 -254.5 -88.5t-136.5 -223.5v-692h-90z" />
<glyph unicode="n" d="M211 0v1071h90v-223q61 116 171 179t257 63q106 0 189.5 -36t136 -100.5t79.5 -150t27 -187.5v-616h-90v606q0 178 -92 288t-270 110q-156 0 -265.5 -84t-142.5 -215v-705h-90z" />
<glyph unicode="o" horiz-adv-x="1409" d="M137 532q0 161 71.5 291t201 203.5t292.5 73.5q250 0 410 -161t160 -407q0 -243 -160 -402t-410 -159q-163 0 -292.5 73t-201 201t-71.5 287zM225 532q0 -204 134 -339.5t343 -135.5q212 0 347 135.5t135 339.5q0 207 -135 344.5t-347 137.5q-209 0 -343 -137.5 t-134 -344.5z" />
<glyph unicode="p" horiz-adv-x="1347" d="M211 -385v1456h90v-143q68 70 166 116t211 46q239 0 384.5 -155.5t145.5 -402.5q0 -244 -145.5 -398t-384.5 -154q-113 0 -210.5 44t-166.5 113v-522h-90zM301 223q59 -67 156 -114.5t207 -47.5q204 0 329 131.5t125 339.5q0 211 -124.5 343.5t-329.5 132.5 q-113 0 -209.5 -49.5t-153.5 -118.5v-617z" />
<glyph unicode="q" horiz-adv-x="1347" d="M139 532q0 246 146.5 402t384.5 156q112 0 209.5 -46t167.5 -116v143h90v-1456h-90v522q-69 -69 -166.5 -113t-210.5 -44q-238 0 -384.5 154.5t-146.5 397.5zM231 532q0 -209 125 -340t330 -131q108 0 204 47t157 113v623q-61 68 -157 116t-204 48q-205 0 -330 -132.5 t-125 -343.5z" />
<glyph unicode="r" horiz-adv-x="925" d="M211 0v1071h90v-244q113 263 344 263q126 0 225 -86l-43 -74q-84 74 -190 74q-122 0 -206.5 -84.5t-129.5 -221.5v-698h-90z" />
<glyph unicode="s" horiz-adv-x="1093" d="M154 72l20 84q176 -97 369 -97q152 0 243 65t91 163q0 76 -60 120t-184 72l-180 43q-160 35 -229.5 91t-69.5 167q0 142 106 226t299 84q94 0 199 -24t168 -56l-27 -82q-66 34 -160.5 58t-183.5 24q-150 0 -231.5 -60t-81.5 -166q0 -77 53 -114t188 -68l179 -43 q155 -35 230 -98t75 -170q0 -136 -115 -223.5t-307 -87.5q-216 0 -391 92z" />
<glyph unicode="t" horiz-adv-x="970" d="M86 993v78h221l8 272h82v-272h463v-78h-463v-692q0 -116 56 -178t161 -62q64 0 139.5 25.5t129.5 63.5l35 -74q-147 -96 -324 -96q-136 0 -211.5 80t-75.5 229v704h-221z" />
<glyph unicode="u" d="M199 455v616h90v-606q0 -116 38 -203.5t121 -140.5t203 -53q155 0 264 84t142 215v704h90v-1071h-90v223q-59 -115 -168.5 -178t-257.5 -63q-141 0 -240 63t-145.5 168t-46.5 242z" />
<glyph unicode="v" horiz-adv-x="1232" d="M88 1071h98l430 -987l431 987h98l-473 -1071h-111z" />
<glyph unicode="w" horiz-adv-x="2045" d="M92 1071h98l390 -987l391 987h106l387 -987l391 987h101l-436 -1071h-109l-389 985l-389 -985h-111z" />
<glyph unicode="x" horiz-adv-x="1173" d="M90 0v10l432 522l-432 531v8h103l393 -477l397 477h100v-8l-434 -531l434 -522v-10h-104l-393 473l-389 -473h-107z" />
<glyph unicode="y" horiz-adv-x="1253" d="M37 -330l22 78q107 -72 224 -72q102 0 162 56.5t112 177.5l39 94l-526 1067h100l469 -971l418 971h94l-506 -1167q-33 -76 -64 -128t-73.5 -96t-98 -65t-126.5 -21q-131 0 -246 76z" />
<glyph unicode="z" horiz-adv-x="1085" d="M119 0v74l733 919h-733v78h848v-74l-734 -919h734v-78h-848z" />
<glyph unicode="{" horiz-adv-x="612" d="M123 498v65q194 0 194 156q0 60 -21.5 136t-47 135.5t-47 129t-21.5 119.5q0 89 59.5 152t182.5 63h67v-74h-59q-78 0 -125 -43.5t-47 -111.5q0 -54 34 -146t68.5 -192.5t34.5 -175.5q0 -79 -33.5 -121.5t-113.5 -59.5q81 -17 114 -60t33 -128q0 -73 -34.5 -172.5 t-68.5 -191.5t-34 -146q0 -69 47 -113.5t125 -44.5h59v-71h-67q-123 0 -182.5 62.5t-59.5 154.5q0 50 21.5 119.5t47 129.5t47 136t21.5 137q0 78 -46.5 117t-147.5 39z" />
<glyph unicode="|" horiz-adv-x="507" d="M215 -385v1839h78v-1839h-78z" />
<glyph unicode="}" horiz-adv-x="612" d="M123 -326h59q78 0 125 44.5t47 113.5q0 54 -34 146t-68.5 191.5t-34.5 172.5q0 85 33.5 128t114.5 60q-81 17 -114.5 59.5t-33.5 121.5q0 75 34.5 175.5t68.5 192.5t34 146q0 68 -47 111.5t-125 43.5h-59v74h67q123 0 182.5 -63t59.5 -152q0 -50 -21.5 -119.5t-47 -129 t-47 -135.5t-21.5 -136q0 -156 194 -156v-65q-101 0 -147.5 -39t-46.5 -117q0 -61 21.5 -137t47 -136t47 -129.5t21.5 -119.5q0 -92 -59.5 -154.5t-182.5 -62.5h-67v71z" />
<glyph unicode="~" horiz-adv-x="1077" d="M178 567q10 77 59 131t125 54q38 0 78 -19.5t73 -47t65.5 -55.5t67 -47.5t65.5 -19.5q114 0 141 146l47 -35q-14 -82 -63 -133.5t-123 -51.5q-38 0 -76.5 19.5t-70.5 46.5t-63 54.5t-67 47t-71 19.5q-50 0 -91 -37.5t-49 -106.5z" />
<glyph unicode="&#xa1;" horiz-adv-x="522" d="M170 1006q0 46 24 70t68 24q88 0 88 -94q0 -46 -23 -71.5t-65 -25.5q-44 0 -68 25.5t-24 71.5zM215 -313l8 987h76l8 -987h-92z" />
<glyph unicode="&#xa2;" horiz-adv-x="1267" d="M137 537q0 160 71.5 288t202 201.5t294.5 73.5q52 0 114 -10l60 210l63 -16l-59 -211q126 -38 217 -119l-47 -69q-83 77 -193 106l-256 -925q50 -9 103 -9q207 0 346 129l47 -69q-159 -146 -395 -146q-39 0 -123 13l-72 -258l-64 18l70 256q-173 54 -276 199t-103 338z M229 537q0 -161 84.5 -283.5t227.5 -169.5l256 922q-58 8 -90 8q-210 0 -344 -135.5t-134 -341.5z" />
<glyph unicode="&#xa3;" horiz-adv-x="1292" d="M113 158q0 82 54.5 135t143.5 53q31 0 66 -9t51 -20q-1 27 1 35t-1.5 37t-4 38.5t-5.5 39.5t-7 40.5t-8 41.5t-8.5 42.5t-9.5 44t-10 44.5h-211v68h194q-28 150 -28 268q0 176 100 286.5t289 110.5q74 0 142.5 -22t117.5 -57t78.5 -62t50.5 -53l-43 -74q-61 69 -93 96 q-104 86 -241 86q-152 0 -231.5 -90t-79.5 -236q0 -97 26 -253h510v-68h-495q2 -12 10 -51t10.5 -53t8.5 -48.5t8.5 -51.5t6 -46.5t4.5 -49.5t1 -44.5t-2 -46.5q33 -18 106.5 -79.5t141.5 -105t121 -43.5q209 0 206 363h78q3 -209 -64.5 -326.5t-207.5 -117.5 q-53 0 -113 29.5t-104 65t-97 79.5t-81 61q-10 -51 -25 -90t-40 -73.5t-63 -53t-87 -18.5q-80 0 -123 49t-43 129zM178 158q0 -49 24 -81t77 -32q68 0 100.5 55t42.5 150q-52 33 -107 33q-59 0 -98 -34t-39 -91z" />
<glyph unicode="&#xa4;" horiz-adv-x="1130" d="M174 283l117 114q-78 91 -78 219q0 131 78 222l-117 116l57 56l117 -119q88 72 213 72q134 0 219 -76l121 123l57 -56l-122 -123q73 -89 73 -215q0 -119 -71 -213l120 -120l-57 -56l-121 121q-87 -74 -219 -74q-126 0 -215 70l-115 -117zM287 616q0 -118 76.5 -195 t197.5 -77q122 0 198.5 77t76.5 195q0 120 -76.5 198.5t-198.5 78.5q-121 0 -197.5 -78.5t-76.5 -198.5z" />
<glyph unicode="&#xa5;" horiz-adv-x="1216" d="M94 1384v9h94l420 -713l418 713h98v-9l-446 -739h348v-67h-373v-166h373v-68h-373v-344h-90v344h-373v68h373v166h-373v67h347z" />
<glyph unicode="&#xa6;" horiz-adv-x="518" d="M219 326h80v-711h-80v711zM219 768v686h80v-686h-80z" />
<glyph unicode="&#xa7;" horiz-adv-x="1327" d="M152 600q0 97 66 178t196 119l-27 4q-96 15 -161.5 68t-65.5 147q0 124 130.5 210.5t364.5 86.5q268 0 492 -90l-27 -80q-80 36 -209.5 64t-259.5 28q-190 0 -296.5 -63.5t-106.5 -149.5q0 -121 170 -145l379 -59q177 -28 277 -111t100 -207q0 -101 -69.5 -176 t-195.5 -109q129 -31 197 -81.5t68 -141.5q0 -136 -144.5 -214.5t-370.5 -78.5q-259 0 -485 95l25 79q82 -35 207.5 -64.5t259.5 -29.5q118 0 211 22.5t149.5 70.5t56.5 114q0 38 -17.5 65.5t-56 46.5t-83 31t-115.5 25l-350 63q-162 31 -235.5 98t-73.5 185zM238 608 q0 -91 55.5 -141t191.5 -74l228 -41q171 2 271.5 67t100.5 175q0 99 -78.5 162t-234.5 86l-172 26q-180 -6 -271 -83.5t-91 -176.5z" />
<glyph unicode="&#xa8;" horiz-adv-x="1228" d="M309 1376q0 70 68 70q63 0 63 -70q0 -69 -63 -69q-68 0 -68 69zM817 1376q0 70 68 70q63 0 63 -70q0 -69 -63 -69q-68 0 -68 69z" />
<glyph unicode="&#xa9;" horiz-adv-x="1712" d="M139 694q0 152 54.5 285.5t149.5 228.5t227.5 150t283.5 55q152 0 285.5 -55t228.5 -150t150 -228.5t55 -285.5q0 -201 -93 -364.5t-258 -256.5t-368 -93q-201 0 -365 93t-257 256.5t-93 364.5zM205 694q0 -183 84.5 -332t233 -234t331.5 -85q185 0 334.5 85t234 234 t84.5 332q0 185 -84.5 335t-234 235.5t-334.5 85.5q-183 0 -331.5 -85t-233 -235.5t-84.5 -335.5zM502 696q0 154 101.5 255.5t256.5 101.5q172 0 275 -115l-39 -53q-40 46 -100.5 71t-131.5 25q-125 0 -205.5 -80.5t-80.5 -204.5q0 -125 80 -204.5t206 -79.5q70 0 131 25 t101 69l39 -53q-105 -115 -275 -115q-155 0 -256.5 101.5t-101.5 256.5z" />
<glyph unicode="&#xaa;" horiz-adv-x="1026" d="M188 934q0 114 90.5 172.5t243.5 58.5q51 0 121 -16v39q0 83 -40 119t-130 36q-118 0 -207 -47l-14 68q39 19 103 31t118 14q7 0 20 -1t19 -1q108 -12 155.5 -61t47.5 -154v-324q0 -41 13.5 -61.5t47.5 -20.5q30 0 74 29l10 -59q-60 -33 -106 -33q-91 0 -107 90 q-94 -90 -221 -90q-107 0 -172.5 56.5t-65.5 154.5zM211 469v63h612v-63h-612zM258 938q0 -69 49 -109.5t131 -40.5q117 0 205 84v222q-44 14 -121 14q-123 0 -193.5 -41t-70.5 -129z" />
<glyph unicode="&#xab;" horiz-adv-x="1058" d="M137 608v25l324 401h10l33 -37l-283 -376l283 -377l-33 -37h-10zM541 608v25l323 401h10l33 -37l-282 -376l282 -377l-33 -37h-10z" />
<glyph unicode="&#xac;" horiz-adv-x="1310" d="M199 702v78h921v-497h-78v419h-843z" />
<glyph unicode="&#xad;" horiz-adv-x="1107" d="M184 580v79h740v-79h-740z" />
<glyph unicode="&#xae;" horiz-adv-x="1712" d="M139 694q0 152 54.5 285.5t149.5 228.5t227.5 150t283.5 55q152 0 285.5 -55t228.5 -150t150 -228.5t55 -285.5q0 -201 -93 -364.5t-258 -256.5t-368 -93q-201 0 -365 93t-257 256.5t-93 364.5zM205 694q0 -183 84.5 -332t233 -234t331.5 -85q185 0 334.5 85t234 234 t84.5 332q0 185 -84.5 335t-234 235.5t-334.5 85.5q-183 0 -331.5 -85t-233 -235.5t-84.5 -335.5zM596 346v696h307q100 0 168 -56.5t68 -164.5q0 -48 -16 -87t-40.5 -63t-56.5 -40t-61.5 -22.5t-57.5 -6.5h-6l270 -244v-12h-90l-282 256h-129v-256h-74zM670 664h231 q70 0 117 42t47 113q0 77 -47.5 118.5t-116.5 41.5h-231v-315z" />
<glyph unicode="&#xaf;" horiz-adv-x="1228" d="M387 1319v74h481v-74h-481z" />
<glyph unicode="&#xb0;" horiz-adv-x="978" d="M141 1065q0 150 97 248t249 98q153 0 251 -98t98 -248q0 -149 -98 -246.5t-251 -97.5q-151 0 -248.5 97.5t-97.5 246.5zM213 1065q0 -118 76.5 -195t197.5 -77q123 0 200 77t77 195q0 120 -77 198t-200 78q-121 0 -197.5 -78.5t-76.5 -197.5z" />
<glyph unicode="&#xb1;" horiz-adv-x="1337" d="M209 186v78h919v-78h-919zM209 805v78h420v420h78v-420h421v-78h-421v-346h-78v346h-420z" />
<glyph unicode="&#xb2;" horiz-adv-x="669" d="M94 1399q2 99 64 159t174 60q111 0 168 -57t57 -148q0 -124 -137 -229l-215 -160h373v-57h-474v53l271 205q62 46 90.5 88.5t28.5 95.5q0 65 -42 107.5t-120 42.5q-85 0 -130.5 -46.5t-47.5 -121.5z" />
<glyph unicode="&#xb3;" horiz-adv-x="669" d="M96 1001l17 56q97 -41 198 -41q85 0 141 36t56 97q0 56 -43.5 88.5t-124.5 32.5h-170v55h170q67 0 106 35.5t39 83.5q0 115 -174 115q-62 0 -104.5 -11t-91.5 -35l-17 58q107 47 213 47q110 0 174 -44.5t64 -125.5q0 -55 -32 -97t-89 -51q143 -25 143 -159 q0 -84 -71 -134.5t-189 -50.5q-91 0 -215 45z" />
<glyph unicode="&#xb4;" horiz-adv-x="1228" d="M496 1247l168 271h98l-178 -271h-88z" />
<glyph unicode="&#xb5;" horiz-adv-x="1284" d="M211 -385v1456h90v-606q0 -185 85 -292t257 -107q147 0 250 82t137 206v717h90v-1071h-90v205q-58 -105 -163.5 -165t-243.5 -60q-213 0 -322 147v-512h-90z" />
<glyph unicode="&#xb6;" horiz-adv-x="1024" d="M82 852q0 103 62.5 160t162.5 59h195v-1456h-78v1020h-117q-100 0 -162.5 57.5t-62.5 159.5zM729 -385v1456h78v-1456h-78z" />
<glyph unicode="&#xb7;" horiz-adv-x="542" d="M182 612q0 46 22.5 70.5t63.5 24.5q44 0 68 -24.5t24 -70.5q0 -96 -92 -96q-86 0 -86 96z" />
<glyph unicode="&#xb8;" horiz-adv-x="1228" d="M442 -379l15 49q67 -24 131 -24q63 0 101 23.5t38 68.5q0 78 -123 78q-60 0 -123 -19l-6 8l51 195h58l-37 -143q36 8 71 8q77 0 122.5 -34.5t45.5 -90.5q0 -69 -56 -107.5t-140 -38.5q-74 0 -148 27z" />
<glyph unicode="&#xb9;" horiz-adv-x="512" d="M49 1477l270 129h56v-639h-64v569l-235 -111z" />
<glyph unicode="&#xba;" horiz-adv-x="1067" d="M186 1065q0 150 98.5 248t250.5 98q153 0 250.5 -98t97.5 -248q0 -149 -97.5 -246.5t-250.5 -97.5q-152 0 -250.5 98t-98.5 246zM229 469v63h613v-63h-613zM254 1065q0 -121 78.5 -199t202.5 -78t201 78t77 199t-77.5 201t-200.5 80t-202 -80t-79 -201z" />
<glyph unicode="&#xbb;" horiz-adv-x="1058" d="M152 995l32 39h11l323 -401v-25l-323 -401h-11l-30 37l280 377zM555 995l33 39h10l324 -401v-25l-324 -401h-10l-31 37l281 377z" />
<glyph unicode="&#xbc;" horiz-adv-x="1517" d="M72 1272l270 129h55v-639h-63v569l-236 -110zM256 0v10l754 1383h65v-9l-753 -1384h-66zM831 141v52l371 446h84v-444h144v-54h-144v-141h-63v141h-392zM903 195h320v387z" />
<glyph unicode="&#xbd;" horiz-adv-x="1449" d="M74 1262l270 129h55v-639h-63v569l-236 -111zM258 0v10l754 1383h65v-9l-753 -1384h-66zM862 432q2 99 64 159t174 60q111 0 168 -57.5t57 -149.5q0 -126 -139 -227l-213 -160h373v-57h-474v53l271 203q61 45 89 89t28 97q0 65 -41 106.5t-121 41.5q-83 0 -128.5 -46.5 t-47.5 -121.5z" />
<glyph unicode="&#xbe;" horiz-adv-x="1658" d="M119 797l16 55q97 -41 199 -41q84 0 140 36t56 97q0 56 -43.5 88.5t-124.5 32.5h-169v55h169q67 0 106.5 36t39.5 83q0 115 -174 115q-105 0 -197 -45l-16 57q107 47 213 47q110 0 173.5 -44.5t63.5 -125.5q0 -55 -31.5 -96.5t-88.5 -50.5q143 -25 143 -160 q0 -84 -71 -134t-189 -50q-91 0 -215 45zM401 0v10l754 1383h66v-9l-754 -1384h-66zM977 141v52l371 446h84v-444h143v-54h-143v-141h-64v141h-391zM1049 195h319v387z" />
<glyph unicode="&#xbf;" horiz-adv-x="946" d="M115 12q0 38 7 73t13.5 59.5t26 55t28.5 44.5t37.5 42.5t35.5 35t40 36.5l141 131q39 36 50.5 58.5t11.5 64.5q0 31 -8 62h80q10 -33 10 -68q0 -54 -18.5 -89t-67.5 -79l-142 -133q-39 -37 -59 -59t-47 -59.5t-39 -80t-12 -92.5q0 -122 83.5 -195t209.5 -73 q222 0 319 178l47 -65q-116 -195 -375 -195q-164 0 -268 96.5t-104 251.5zM444 1006q0 45 24 69.5t67 24.5q88 0 88 -94q0 -46 -23 -71.5t-65 -25.5q-43 0 -67 25.5t-24 71.5z" />
<glyph unicode="&#xc0;" horiz-adv-x="1435" d="M63 0l613 1393h100l578 -1393h-92l-150 356h-799l-157 -356h-93zM342 432h743l-360 866zM510 1839h98l168 -270h-88z" />
<glyph unicode="&#xc1;" horiz-adv-x="1435" d="M63 0l613 1393h100l578 -1393h-92l-150 356h-799l-157 -356h-93zM342 432h743l-360 866zM655 1569l168 270h99l-179 -270h-88z" />
<glyph unicode="&#xc2;" horiz-adv-x="1435" d="M63 0l613 1393h100l578 -1393h-92l-150 356h-799l-157 -356h-93zM342 432h743l-360 866zM451 1569l227 270h96l227 -270h-86l-190 215l-186 -215h-88z" />
<glyph unicode="&#xc3;" horiz-adv-x="1435" d="M63 0l613 1393h100l578 -1393h-92l-150 356h-799l-157 -356h-93zM342 432h743l-360 866zM395 1667q29 53 78 92t109 39q35 0 77.5 -22.5t75 -50t70 -50t63.5 -22.5q90 0 144 106l41 -45q-30 -56 -78.5 -94.5t-106.5 -38.5q-34 0 -76.5 22.5t-75 50t-70.5 50t-64 22.5 q-89 0 -146 -104z" />
<glyph unicode="&#xc4;" horiz-adv-x="1435" d="M63 0l613 1393h100l578 -1393h-92l-150 356h-799l-157 -356h-93zM342 432h743l-360 866zM406 1698q0 69 67 69q64 0 64 -69q0 -35 -17.5 -52.5t-46.5 -17.5q-31 0 -49 17.5t-18 52.5zM913 1698q0 69 68 69q63 0 63 -69q0 -70 -63 -70q-68 0 -68 70z" />
<glyph unicode="&#xc5;" horiz-adv-x="1435" d="M63 0l594 1354q-59 21 -97 73t-38 117q0 83 59 142t142 59t142 -59t59 -142q0 -64 -37 -116t-96 -72l563 -1356h-92l-150 356h-799l-157 -356h-93zM342 432h743l-360 866zM578 1544q0 -60 42.5 -102.5t102.5 -42.5t101.5 42.5t41.5 102.5t-41.5 102t-101.5 42t-102.5 -42 t-42.5 -102z" />
<glyph unicode="&#xc6;" horiz-adv-x="2154" d="M31 0l911 1393h1077v-84h-954v-541h805v-78h-805v-608h954v-82h-1042v356h-608l-236 -356h-102zM414 432h563v862z" />
<glyph unicode="&#xc7;" horiz-adv-x="1533" d="M137 696q0 151 55 284t150.5 228t229 150t284.5 55q168 0 308 -60t239 -173l-47 -66q-91 100 -219 156.5t-281 56.5q-133 0 -249.5 -48.5t-199.5 -132t-130.5 -200.5t-47.5 -250q0 -178 81 -322t225 -226t321 -82q153 0 281 56.5t219 156.5l47 -66q-99 -113 -239 -173 t-308 -60q-4 0 -12.5 1t-12.5 1l-30 -125q36 8 71 8q77 0 122.5 -34.5t45.5 -90.5q0 -69 -56 -107.5t-140 -38.5q-74 0 -148 27l15 49q67 -24 131 -24q63 0 101 23.5t38 68.5q0 78 -123 78q-60 0 -123 -19l-6 8l47 179q-137 14 -255.5 74t-203 153t-132.5 218.5t-48 266.5z " />
<glyph unicode="&#xc8;" horiz-adv-x="1411" d="M233 0v1393h1045v-84h-956v-539h806v-82h-806v-604h956v-84h-1045zM539 1839h98l168 -270h-88z" />
<glyph unicode="&#xc9;" horiz-adv-x="1411" d="M233 0v1393h1045v-84h-956v-539h806v-82h-806v-604h956v-84h-1045zM692 1569l168 270h98l-178 -270h-88z" />
<glyph unicode="&#xca;" horiz-adv-x="1411" d="M233 0v1393h1045v-84h-956v-539h806v-82h-806v-604h956v-84h-1045zM479 1569l228 270h96l227 -270h-86l-190 215l-187 -215h-88z" />
<glyph unicode="&#xcb;" horiz-adv-x="1411" d="M233 0v1393h1045v-84h-956v-539h806v-82h-806v-604h956v-84h-1045zM434 1698q0 69 68 69q63 0 63 -69q0 -70 -63 -70q-31 0 -49.5 17.5t-18.5 52.5zM942 1698q0 69 68 69q63 0 63 -69q0 -70 -63 -70q-68 0 -68 70z" />
<glyph unicode="&#xcc;" horiz-adv-x="559" d="M76 1839h98l168 -270h-88zM233 0v1393h91v-1393h-91z" />
<glyph unicode="&#xcd;" horiz-adv-x="559" d="M229 1569l168 270h99l-179 -270h-88zM233 0v1393h91v-1393h-91z" />
<glyph unicode="&#xce;" horiz-adv-x="559" d="M2 1569l227 270h97l227 -270h-86l-191 215l-186 -215h-88zM233 0v1393h91v-1393h-91z" />
<glyph unicode="&#xcf;" horiz-adv-x="559" d="M-43 1698q0 69 68 69q63 0 63 -69q0 -70 -63 -70q-31 0 -49.5 17.5t-18.5 52.5zM233 0v1393h91v-1393h-91zM465 1698q0 69 67 69q64 0 64 -69q0 -35 -17.5 -52.5t-46.5 -17.5q-67 0 -67 70z" />
<glyph unicode="&#xd0;" horiz-adv-x="1619" d="M113 670v61h133v662h512q155 -1 286 -47t227.5 -132.5t151 -220t54.5 -299.5q0 -165 -54.5 -297.5t-151 -218.5t-227.5 -132t-286 -46h-512v670h-133zM336 82h420q184 0 324.5 69t222 209t81.5 334q0 196 -81.5 336.5t-221.5 210t-325 70.5h-420v-580h387v-61h-387v-588z " />
<glyph unicode="&#xd1;" horiz-adv-x="1699" d="M233 0v1393h84l1057 -1254v1254h90v-1393h-82l-1058 1247v-1247h-91zM537 1667q29 54 77.5 92.5t108.5 38.5q35 0 77.5 -22.5t75 -50t70.5 -50t64 -22.5q89 0 143 106l41 -45q-30 -56 -78 -94.5t-106 -38.5q-34 0 -76.5 22.5t-75.5 50t-71 50t-64 22.5q-88 0 -145 -104z " />
<glyph unicode="&#xd2;" horiz-adv-x="1710" d="M139 694q0 152 54.5 285.5t149.5 228.5t227.5 150t283.5 55q152 0 285.5 -55t228.5 -150t150 -228.5t55 -285.5q0 -201 -93 -364.5t-258 -256.5t-368 -93q-201 0 -365 93t-257 256.5t-93 364.5zM227 694q0 -178 81 -321.5t224.5 -225t321.5 -81.5q180 0 324 81.5 t224.5 225t80.5 321.5q0 135 -47.5 252.5t-130 200.5t-199.5 130.5t-252 47.5q-270 0 -448.5 -179t-178.5 -452zM635 1839h98l168 -270h-88z" />
<glyph unicode="&#xd3;" horiz-adv-x="1710" d="M139 694q0 152 54.5 285.5t149.5 228.5t227.5 150t283.5 55q152 0 285.5 -55t228.5 -150t150 -228.5t55 -285.5q0 -201 -93 -364.5t-258 -256.5t-368 -93q-201 0 -365 93t-257 256.5t-93 364.5zM227 694q0 -178 81 -321.5t224.5 -225t321.5 -81.5q180 0 324 81.5 t224.5 225t80.5 321.5q0 135 -47.5 252.5t-130 200.5t-199.5 130.5t-252 47.5q-270 0 -448.5 -179t-178.5 -452zM805 1569l168 270h98l-178 -270h-88z" />
<glyph unicode="&#xd4;" horiz-adv-x="1710" d="M139 694q0 152 54.5 285.5t149.5 228.5t227.5 150t283.5 55q152 0 285.5 -55t228.5 -150t150 -228.5t55 -285.5q0 -201 -93 -364.5t-258 -256.5t-368 -93q-201 0 -365 93t-257 256.5t-93 364.5zM227 694q0 -178 81 -321.5t224.5 -225t321.5 -81.5q180 0 324 81.5 t224.5 225t80.5 321.5q0 135 -47.5 252.5t-130 200.5t-199.5 130.5t-252 47.5q-270 0 -448.5 -179t-178.5 -452zM578 1569l227 270h96l227 -270h-86l-190 215l-186 -215h-88z" />
<glyph unicode="&#xd5;" horiz-adv-x="1710" d="M139 694q0 152 54.5 285.5t149.5 228.5t227.5 150t283.5 55q152 0 285.5 -55t228.5 -150t150 -228.5t55 -285.5q0 -201 -93 -364.5t-258 -256.5t-368 -93q-201 0 -365 93t-257 256.5t-93 364.5zM227 694q0 -178 81 -321.5t224.5 -225t321.5 -81.5q180 0 324 81.5 t224.5 225t80.5 321.5q0 135 -47.5 252.5t-130 200.5t-199.5 130.5t-252 47.5q-270 0 -448.5 -179t-178.5 -452zM524 1667q29 53 78 92t109 39q35 0 77.5 -22.5t75 -50t70 -50t63.5 -22.5q90 0 144 106l41 -45q-30 -56 -78.5 -94.5t-106.5 -38.5q-34 0 -76.5 22.5t-75 50 t-70.5 50t-64 22.5q-89 0 -146 -104z" />
<glyph unicode="&#xd6;" horiz-adv-x="1710" d="M139 694q0 152 54.5 285.5t149.5 228.5t227.5 150t283.5 55q152 0 285.5 -55t228.5 -150t150 -228.5t55 -285.5q0 -201 -93 -364.5t-258 -256.5t-368 -93q-201 0 -365 93t-257 256.5t-93 364.5zM227 694q0 -178 81 -321.5t224.5 -225t321.5 -81.5q180 0 324 81.5 t224.5 225t80.5 321.5q0 135 -47.5 252.5t-130 200.5t-199.5 130.5t-252 47.5q-270 0 -448.5 -179t-178.5 -452zM535 1698q0 69 67 69q64 0 64 -69q0 -35 -17.5 -52.5t-46.5 -17.5q-31 0 -49 17.5t-18 52.5zM1042 1698q0 69 68 69q64 0 64 -69q0 -35 -17.5 -52.5 t-46.5 -17.5q-68 0 -68 70z" />
<glyph unicode="&#xd7;" horiz-adv-x="1060" d="M178 322l297 296l-297 297l55 56l297 -297l297 297l56 -56l-299 -297l299 -296l-56 -56l-297 297l-297 -297z" />
<glyph unicode="&#xd8;" horiz-adv-x="1710" d="M139 694q0 152 54.5 285.5t149.5 228.5t227.5 150t283.5 55q245 0 432 -135l94 115h76v-9l-119 -147q111 -99 173.5 -239.5t62.5 -303.5q0 -201 -93 -364.5t-258 -256.5t-368 -93q-244 0 -428 133l-90 -113h-78v10l117 144q-111 99 -173.5 238.5t-62.5 301.5zM227 694 q0 -144 53 -265.5t150 -207.5l801 987q-160 119 -377 119q-270 0 -448.5 -180t-178.5 -453zM481 180q157 -114 373 -114q134 0 251 48t200 131t130.5 199.5t47.5 249.5q0 144 -52.5 265.5t-148.5 209.5z" />
<glyph unicode="&#xd9;" horiz-adv-x="1599" d="M215 557v836h90v-832q0 -231 123 -365.5t369 -134.5q125 0 222 39t156 108.5t89 159t30 195.5v830h90v-836q0 -119 -37 -222.5t-107.5 -184.5t-184.5 -128t-258 -47t-255.5 43t-182.5 121.5t-107.5 184t-36.5 233.5zM580 1839h98l168 -270h-88z" />
<glyph unicode="&#xda;" horiz-adv-x="1599" d="M215 557v836h90v-832q0 -231 123 -365.5t369 -134.5q125 0 222 39t156 108.5t89 159t30 195.5v830h90v-836q0 -119 -37 -222.5t-107.5 -184.5t-184.5 -128t-258 -47t-255.5 43t-182.5 121.5t-107.5 184t-36.5 233.5zM750 1569l168 270h98l-178 -270h-88z" />
<glyph unicode="&#xdb;" horiz-adv-x="1599" d="M215 557v836h90v-832q0 -231 123 -365.5t369 -134.5q125 0 222 39t156 108.5t89 159t30 195.5v830h90v-836q0 -119 -37 -222.5t-107.5 -184.5t-184.5 -128t-258 -47t-255.5 43t-182.5 121.5t-107.5 184t-36.5 233.5zM522 1569l228 270h96l227 -270h-86l-190 215 l-187 -215h-88z" />
<glyph unicode="&#xdc;" horiz-adv-x="1599" d="M215 557v836h90v-832q0 -231 123 -365.5t369 -134.5q125 0 222 39t156 108.5t89 159t30 195.5v830h90v-836q0 -119 -37 -222.5t-107.5 -184.5t-184.5 -128t-258 -47t-255.5 43t-182.5 121.5t-107.5 184t-36.5 233.5zM479 1698q0 69 68 69q63 0 63 -69q0 -70 -63 -70 q-31 0 -49.5 17.5t-18.5 52.5zM987 1698q0 69 68 69q63 0 63 -69q0 -70 -63 -70q-68 0 -68 70z" />
<glyph unicode="&#xdd;" horiz-adv-x="1413" d="M68 1384v9h100l539 -709l538 709h101v-9l-594 -782v-602h-90v600zM655 1569l168 270h99l-179 -270h-88z" />
<glyph unicode="&#xde;" horiz-adv-x="1390" d="M233 0v1393h91v-236h485q101 0 184.5 -23.5t151 -74t105.5 -138.5t38 -208q0 -87 -25 -160t-69 -124t-105 -86.5t-131.5 -52t-148.5 -16.5h-485v-274h-91zM324 356h477q83 0 153 21.5t125 63.5t86 112t31 160q0 99 -31 171t-86.5 112.5t-124.5 59.5t-153 19h-477v-719z " />
<glyph unicode="&#xdf;" horiz-adv-x="1355" d="M211 0v946q0 242 130 385.5t343 143.5q186 0 307 -110t121 -271q0 -48 -15.5 -94t-39 -79t-51 -64.5t-51 -53t-39 -41t-15.5 -31.5q0 -11 24 -30.5t60.5 -43t78.5 -59t78.5 -74.5t60.5 -94.5t24 -114.5q0 -158 -110 -246.5t-283 -88.5q-187 0 -306 69l21 78 q107 -66 268 -66q136 0 226 70t90 188q0 63 -34 120t-82 96t-96 72t-82 62.5t-34 53.5t22 53t53.5 59.5t63.5 66t54 85t22 103.5q0 134 -99.5 218.5t-242.5 84.5q-174 0 -275.5 -120t-101.5 -323v-950h-90z" />
<glyph unicode="&#xe0;" horiz-adv-x="1181" d="M117 307q0 130 71.5 216.5t188.5 124.5t274 38q131 0 240 -33v52q0 148 -79 225.5t-234 77.5q-182 0 -334 -76l-21 82q71 35 170.5 55.5t190.5 20.5q194 0 295.5 -101t101.5 -282v-707h-90v135q-163 -155 -387 -155q-178 0 -282.5 88t-104.5 239zM207 313 q0 -119 85 -187.5t230 -68.5q206 0 369 154v373q-86 28 -227 28q-99 0 -180 -17t-144 -51.5t-98 -93.5t-35 -137zM399 1518h99l168 -271h-88z" />
<glyph unicode="&#xe1;" horiz-adv-x="1181" d="M117 307q0 130 71.5 216.5t188.5 124.5t274 38q131 0 240 -33v52q0 148 -79 225.5t-234 77.5q-182 0 -334 -76l-21 82q71 35 170.5 55.5t190.5 20.5q194 0 295.5 -101t101.5 -282v-707h-90v135q-163 -155 -387 -155q-178 0 -282.5 88t-104.5 239zM207 313 q0 -119 85 -187.5t230 -68.5q206 0 369 154v373q-86 28 -227 28q-99 0 -180 -17t-144 -51.5t-98 -93.5t-35 -137zM551 1247l168 271h98l-178 -271h-88z" />
<glyph unicode="&#xe2;" horiz-adv-x="1181" d="M117 307q0 130 71.5 216.5t188.5 124.5t274 38q131 0 240 -33v52q0 148 -79 225.5t-234 77.5q-182 0 -334 -76l-21 82q71 35 170.5 55.5t190.5 20.5q194 0 295.5 -101t101.5 -282v-707h-90v135q-163 -155 -387 -155q-178 0 -282.5 88t-104.5 239zM207 313 q0 -119 85 -187.5t230 -68.5q206 0 369 154v373q-86 28 -227 28q-99 0 -180 -17t-144 -51.5t-98 -93.5t-35 -137zM324 1247l227 271h96l227 -271h-86l-190 215l-186 -215h-88z" />
<glyph unicode="&#xe3;" horiz-adv-x="1181" d="M117 307q0 130 71.5 216.5t188.5 124.5t274 38q131 0 240 -33v52q0 148 -79 225.5t-234 77.5q-182 0 -334 -76l-21 82q71 35 170.5 55.5t190.5 20.5q194 0 295.5 -101t101.5 -282v-707h-90v135q-163 -155 -387 -155q-178 0 -282.5 88t-104.5 239zM207 313 q0 -119 85 -187.5t230 -68.5q206 0 369 154v373q-86 28 -227 28q-99 0 -180 -17t-144 -51.5t-98 -93.5t-35 -137zM281 1346q29 54 77.5 92.5t108.5 38.5q35 0 77.5 -23t75 -50t70.5 -50t64 -23q89 0 143 107l41 -45q-30 -56 -78 -94.5t-106 -38.5q-34 0 -76.5 22.5t-75.5 50 t-71 50t-64 22.5q-88 0 -145 -105z" />
<glyph unicode="&#xe4;" horiz-adv-x="1181" d="M117 307q0 130 71.5 216.5t188.5 124.5t274 38q131 0 240 -33v52q0 148 -79 225.5t-234 77.5q-182 0 -334 -76l-21 82q71 35 170.5 55.5t190.5 20.5q194 0 295.5 -101t101.5 -282v-707h-90v135q-163 -155 -387 -155q-178 0 -282.5 88t-104.5 239zM207 313 q0 -119 85 -187.5t230 -68.5q206 0 369 154v373q-86 28 -227 28q-99 0 -180 -17t-144 -51.5t-98 -93.5t-35 -137zM276 1376q0 70 68 70q64 0 64 -70q0 -69 -64 -69q-68 0 -68 69zM784 1376q0 70 68 70q63 0 63 -70q0 -69 -63 -69q-68 0 -68 69z" />
<glyph unicode="&#xe5;" horiz-adv-x="1181" d="M117 307q0 130 71.5 216.5t188.5 124.5t274 38q131 0 240 -33v52q0 148 -79 225.5t-234 77.5q-182 0 -334 -76l-21 82q71 35 170.5 55.5t190.5 20.5q194 0 295.5 -101t101.5 -282v-707h-90v135q-163 -155 -387 -155q-178 0 -282.5 88t-104.5 239zM207 313 q0 -119 85 -187.5t230 -68.5q206 0 369 154v373q-86 28 -227 28q-99 0 -180 -17t-144 -51.5t-98 -93.5t-35 -137zM399 1372q0 83 59 142t142 59t142 -59t59 -142t-59 -142t-142 -59t-142 59t-59 142zM455 1372q0 -60 42.5 -102.5t102.5 -42.5t101.5 42.5t41.5 102.5 t-41.5 102t-101.5 42t-102.5 -42t-42.5 -102z" />
<glyph unicode="&#xe6;" horiz-adv-x="1953" d="M117 307q0 128 72 214.5t190.5 124.5t277.5 38q150 0 234 -20q0 97 -11.5 157t-44 104.5t-91.5 63.5t-152 19q-199 0 -348 -76l-21 82q150 73 379 73q83 0 144.5 -15.5t98.5 -39t61.5 -63t35.5 -77t19 -91.5q19 52 52 100.5t82 95t120.5 75t154.5 28.5q109 0 195 -36 t139 -98t80.5 -141.5t27.5 -171.5t-16 -151h-813q2 -80 14 -144.5t40.5 -123.5t72.5 -98.5t113.5 -63t160.5 -23.5q112 0 198 35.5t169 99.5l43 -67q-90 -71 -189 -108.5t-227 -37.5q-162 0 -273.5 70t-154.5 195q-189 -256 -440 -256q-180 0 -286.5 88t-106.5 239zM207 313 q0 -120 85.5 -188t229.5 -68q122 0 217.5 68.5t151.5 159.5v309q-103 22 -229 22q-135 -1 -233.5 -30t-160 -98t-61.5 -175zM987 573h739q7 47 7 86q0 74 -22.5 139.5t-66 117t-113 81t-157.5 29.5q-97 0 -173.5 -41t-121.5 -108t-68 -144.5t-24 -159.5z" />
<glyph unicode="&#xe7;" horiz-adv-x="1230" d="M139 537q0 160 71.5 288t202 201.5t294.5 73.5q236 0 395 -146l-47 -69q-139 129 -346 129q-210 0 -344 -135.5t-134 -341.5t134 -343t344 -137q207 0 346 129l47 -69q-159 -146 -395 -146h-31l-29 -114q36 8 72 8q77 0 122.5 -34.5t45.5 -90.5q0 -69 -56.5 -107.5 t-140.5 -38.5q-74 0 -147 27l14 49q67 -24 131 -24q63 0 101 23.5t38 68.5q0 78 -122 78q-60 0 -123 -19l-7 8l46 172q-216 28 -349 183.5t-133 376.5z" />
<glyph unicode="&#xe8;" horiz-adv-x="1304" d="M139 532q0 156 66 284t194 206t295 78q119 0 210.5 -35.5t147.5 -97.5t84.5 -141.5t28.5 -172.5q0 -85 -18 -155h-918q4 -96 34 -175t87.5 -141t150 -96.5t212.5 -34.5q212 0 391 135l43 -69q-184 -146 -434 -146q-118 0 -214 29t-162.5 80.5t-111.5 122.5t-65.5 153.5 t-20.5 175.5zM231 575h838q8 54 8 89q0 72 -22.5 134.5t-67.5 113t-120.5 79.5t-172.5 29q-205 0 -331 -129t-132 -316zM508 1518h98l168 -271h-88z" />
<glyph unicode="&#xe9;" horiz-adv-x="1304" d="M139 532q0 156 66 284t194 206t295 78q119 0 210.5 -35.5t147.5 -97.5t84.5 -141.5t28.5 -172.5q0 -85 -18 -155h-918q4 -96 34 -175t87.5 -141t150 -96.5t212.5 -34.5q212 0 391 135l43 -69q-184 -146 -434 -146q-118 0 -214 29t-162.5 80.5t-111.5 122.5t-65.5 153.5 t-20.5 175.5zM231 575h838q8 54 8 89q0 72 -22.5 134.5t-67.5 113t-120.5 79.5t-172.5 29q-205 0 -331 -129t-132 -316zM637 1247l168 271h98l-178 -271h-88z" />
<glyph unicode="&#xea;" horiz-adv-x="1304" d="M139 532q0 156 66 284t194 206t295 78q119 0 210.5 -35.5t147.5 -97.5t84.5 -141.5t28.5 -172.5q0 -85 -18 -155h-918q4 -96 34 -175t87.5 -141t150 -96.5t212.5 -34.5q212 0 391 135l43 -69q-184 -146 -434 -146q-118 0 -214 29t-162.5 80.5t-111.5 122.5t-65.5 153.5 t-20.5 175.5zM231 575h838q8 54 8 89q0 72 -22.5 134.5t-67.5 113t-120.5 79.5t-172.5 29q-205 0 -331 -129t-132 -316zM430 1247l227 271h97l227 -271h-86l-190 215l-187 -215h-88z" />
<glyph unicode="&#xeb;" horiz-adv-x="1304" d="M139 532q0 156 66 284t194 206t295 78q119 0 210.5 -35.5t147.5 -97.5t84.5 -141.5t28.5 -172.5q0 -85 -18 -155h-918q4 -96 34 -175t87.5 -141t150 -96.5t212.5 -34.5q212 0 391 135l43 -69q-184 -146 -434 -146q-118 0 -214 29t-162.5 80.5t-111.5 122.5t-65.5 153.5 t-20.5 175.5zM231 575h838q8 54 8 89q0 72 -22.5 134.5t-67.5 113t-120.5 79.5t-172.5 29q-205 0 -331 -129t-132 -316zM385 1376q0 70 68 70q63 0 63 -70q0 -69 -63 -69q-68 0 -68 69zM893 1376q0 70 68 70q63 0 63 -70q0 -69 -63 -69q-68 0 -68 69z" />
<glyph unicode="&#xec;" horiz-adv-x="514" d="M51 1518h99l167 -271h-88zM211 0v1071h90v-1071h-90z" />
<glyph unicode="&#xed;" horiz-adv-x="514" d="M211 0v1071h90v-1071h-90zM211 1247l168 271h98l-178 -271h-88z" />
<glyph unicode="&#xee;" horiz-adv-x="514" d="M-20 1247l227 271h96l227 -271h-86l-190 215l-186 -215h-88zM211 0v1071h90v-1071h-90z" />
<glyph unicode="&#xef;" horiz-adv-x="514" d="M-61 1376q0 70 67 70q64 0 64 -70q0 -69 -64 -69q-67 0 -67 69zM211 0v1071h90v-1071h-90zM446 1376q0 70 68 70q64 0 64 -70q0 -69 -64 -69q-68 0 -68 69z" />
<glyph unicode="&#xf0;" horiz-adv-x="1312" d="M147 465q0 217 121 341t328 124q73 0 140.5 -21.5t115.5 -52.5t92.5 -74.5t70.5 -78.5t48 -72q0 11 1 33t1 34q0 328 -231 549l-148 -151l-35 34l146 150q-113 90 -234 131l39 64q126 -37 252 -136l139 144l37 -37l-137 -139q119 -111 190.5 -267t71.5 -342 q0 -328 -144.5 -523t-400.5 -195q-200 0 -331.5 136t-131.5 349zM238 465q0 -171 106.5 -285t267.5 -114q181 0 295.5 127t145.5 346q-18 33 -40 66.5t-64 80t-89 81t-113.5 59t-138.5 24.5q-166 0 -268 -101t-102 -284z" />
<glyph unicode="&#xf1;" d="M211 0v1071h90v-223q61 116 171 179t257 63q106 0 189.5 -36t136 -100.5t79.5 -150t27 -187.5v-616h-90v606q0 178 -92 288t-270 110q-156 0 -265.5 -84t-142.5 -215v-705h-90zM367 1346q29 54 77.5 92.5t108.5 38.5q35 0 77.5 -23t75 -50t70.5 -50t64 -23q89 0 143 107 l41 -45q-30 -56 -78 -94.5t-106 -38.5q-34 0 -76.5 22.5t-75.5 50t-71 50t-64 22.5q-88 0 -145 -105z" />
<glyph unicode="&#xf2;" horiz-adv-x="1409" d="M137 532q0 161 71.5 291t201 203.5t292.5 73.5q250 0 410 -161t160 -407q0 -243 -160 -402t-410 -159q-163 0 -292.5 73t-201 201t-71.5 287zM225 532q0 -204 134 -339.5t343 -135.5q212 0 347 135.5t135 339.5q0 207 -135 344.5t-347 137.5q-209 0 -343 -137.5 t-134 -344.5zM485 1518h99l168 -271h-88z" />
<glyph unicode="&#xf3;" horiz-adv-x="1409" d="M137 532q0 161 71.5 291t201 203.5t292.5 73.5q250 0 410 -161t160 -407q0 -243 -160 -402t-410 -159q-163 0 -292.5 73t-201 201t-71.5 287zM225 532q0 -204 134 -339.5t343 -135.5q212 0 347 135.5t135 339.5q0 207 -135 344.5t-347 137.5q-209 0 -343 -137.5 t-134 -344.5zM653 1247l168 271h99l-179 -271h-88z" />
<glyph unicode="&#xf4;" horiz-adv-x="1409" d="M137 532q0 161 71.5 291t201 203.5t292.5 73.5q250 0 410 -161t160 -407q0 -243 -160 -402t-410 -159q-163 0 -292.5 73t-201 201t-71.5 287zM225 532q0 -204 134 -339.5t343 -135.5q212 0 347 135.5t135 339.5q0 207 -135 344.5t-347 137.5q-209 0 -343 -137.5 t-134 -344.5zM426 1247l227 271h97l227 -271h-86l-191 215l-186 -215h-88z" />
<glyph unicode="&#xf5;" horiz-adv-x="1409" d="M137 532q0 161 71.5 291t201 203.5t292.5 73.5q250 0 410 -161t160 -407q0 -243 -160 -402t-410 -159q-163 0 -292.5 73t-201 201t-71.5 287zM225 532q0 -204 134 -339.5t343 -135.5q212 0 347 135.5t135 339.5q0 207 -135 344.5t-347 137.5q-209 0 -343 -137.5 t-134 -344.5zM373 1346q29 54 77.5 92.5t108.5 38.5q35 0 77.5 -23t75 -50t70.5 -50t64 -23q89 0 143 107l41 -45q-30 -56 -78 -94.5t-106 -38.5q-34 0 -76.5 22.5t-75.5 50t-71 50t-64 22.5q-88 0 -145 -105z" />
<glyph unicode="&#xf6;" horiz-adv-x="1409" d="M137 532q0 161 71.5 291t201 203.5t292.5 73.5q250 0 410 -161t160 -407q0 -243 -160 -402t-410 -159q-163 0 -292.5 73t-201 201t-71.5 287zM225 532q0 -204 134 -339.5t343 -135.5q212 0 347 135.5t135 339.5q0 207 -135 344.5t-347 137.5q-209 0 -343 -137.5 t-134 -344.5zM383 1376q0 70 68 70q63 0 63 -70q0 -69 -63 -69q-68 0 -68 69zM891 1376q0 70 67 70q64 0 64 -70q0 -69 -64 -69q-67 0 -67 69z" />
<glyph unicode="&#xf7;" horiz-adv-x="1280" d="M178 580v77h920v-77h-920zM530 272q0 45 23 70t65 25q43 0 67 -25.5t24 -69.5q0 -47 -24 -71.5t-67 -24.5q-88 0 -88 96zM530 967q0 94 88 94q43 0 67 -24.5t24 -69.5q0 -47 -24 -71t-67 -24q-88 0 -88 95z" />
<glyph unicode="&#xf8;" horiz-adv-x="1409" d="M137 532q0 161 71.5 291t201 203.5t292.5 73.5q214 0 361 -119l72 88h65v-8l-94 -117q79 -76 122.5 -182.5t43.5 -229.5q0 -243 -160 -402t-410 -159q-181 0 -317 88l-47 -59h-66v10l66 82q-95 76 -148 190t-53 250zM225 532q0 -114 44.5 -210t123.5 -162l615 753 q-131 101 -306 101q-209 0 -343 -137.5t-134 -344.5zM440 127q113 -72 262 -72q140 0 250.5 63t171 171.5t60.5 242.5q0 210 -135 345z" />
<glyph unicode="&#xf9;" d="M199 455v616h90v-606q0 -116 38 -203.5t121 -140.5t203 -53q155 0 264 84t142 215v704h90v-1071h-90v223q-59 -115 -168.5 -178t-257.5 -63q-141 0 -240 63t-145.5 168t-46.5 242zM459 1518h98l168 -271h-88z" />
<glyph unicode="&#xfa;" d="M199 455v616h90v-606q0 -116 38 -203.5t121 -140.5t203 -53q155 0 264 84t142 215v704h90v-1071h-90v223q-59 -115 -168.5 -178t-257.5 -63q-141 0 -240 63t-145.5 168t-46.5 242zM643 1247l168 271h98l-178 -271h-88z" />
<glyph unicode="&#xfb;" d="M199 455v616h90v-606q0 -116 38 -203.5t121 -140.5t203 -53q155 0 264 84t142 215v704h90v-1071h-90v223q-59 -115 -168.5 -178t-257.5 -63q-141 0 -240 63t-145.5 168t-46.5 242zM401 1247l228 271h96l227 -271h-86l-190 215l-187 -215h-88z" />
<glyph unicode="&#xfc;" d="M199 455v616h90v-606q0 -116 38 -203.5t121 -140.5t203 -53q155 0 264 84t142 215v704h90v-1071h-90v223q-59 -115 -168.5 -178t-257.5 -63q-141 0 -240 63t-145.5 168t-46.5 242zM352 1376q0 70 68 70q63 0 63 -70q0 -69 -63 -69q-68 0 -68 69zM860 1376q0 70 68 70 q63 0 63 -70q0 -69 -63 -69q-68 0 -68 69z" />
<glyph unicode="&#xfd;" horiz-adv-x="1253" d="M37 -330l22 78q107 -72 224 -72q102 0 162 56.5t112 177.5l39 94l-526 1067h100l469 -971l418 971h94l-506 -1167q-33 -76 -64 -128t-73.5 -96t-98 -65t-126.5 -21q-131 0 -246 76zM571 1247l168 271h99l-179 -271h-88z" />
<glyph unicode="&#xfe;" horiz-adv-x="1347" d="M211 -385v1839h90v-526q68 70 166 116t211 46q239 0 384.5 -155.5t145.5 -402.5q0 -244 -145.5 -398t-384.5 -154q-113 0 -210.5 44t-166.5 113v-522h-90zM301 223q59 -67 156 -114.5t207 -47.5q204 0 329 131.5t125 339.5q0 211 -124.5 343.5t-329.5 132.5 q-112 0 -208 -48.5t-155 -117.5v-619z" />
<glyph unicode="&#xff;" horiz-adv-x="1253" d="M37 -330l22 78q107 -72 224 -72q102 0 162 56.5t112 177.5l39 94l-526 1067h100l469 -971l418 971h94l-506 -1167q-33 -76 -64 -128t-73.5 -96t-98 -65t-126.5 -21q-131 0 -246 76zM309 1376q0 70 68 70q63 0 63 -70q0 -69 -63 -69q-68 0 -68 69zM817 1376q0 70 68 70 q63 0 63 -70q0 -69 -63 -69q-68 0 -68 69z" />
<glyph unicode="&#x100;" horiz-adv-x="1435" d="M63 0l613 1393h100l578 -1393h-92l-150 356h-799l-157 -356h-93zM342 432h743l-360 866zM485 1640v74h482v-74h-482z" />
<glyph unicode="&#x101;" horiz-adv-x="1181" d="M117 307q0 130 71.5 216.5t188.5 124.5t274 38q131 0 240 -33v52q0 148 -79 225.5t-234 77.5q-182 0 -334 -76l-21 82q71 35 170.5 55.5t190.5 20.5q194 0 295.5 -101t101.5 -282v-707h-90v135q-163 -155 -387 -155q-178 0 -282.5 88t-104.5 239zM207 313 q0 -119 85 -187.5t230 -68.5q206 0 369 154v373q-86 28 -227 28q-99 0 -180 -17t-144 -51.5t-98 -93.5t-35 -137zM348 1319v74h481v-74h-481z" />
<glyph unicode="&#x102;" horiz-adv-x="1435" d="M63 0l613 1393h100l578 -1393h-92l-150 356h-799l-157 -356h-93zM342 432h743l-360 866zM467 1741l39 41q83 -119 221 -119q80 0 133.5 34.5t83.5 84.5l41 -41q-36 -62 -100 -106t-158 -44q-93 0 -158.5 44.5t-101.5 105.5z" />
<glyph unicode="&#x103;" horiz-adv-x="1181" d="M117 307q0 130 71.5 216.5t188.5 124.5t274 38q131 0 240 -33v52q0 148 -79 225.5t-234 77.5q-182 0 -334 -76l-21 82q71 35 170.5 55.5t190.5 20.5q194 0 295.5 -101t101.5 -282v-707h-90v135q-163 -155 -387 -155q-178 0 -282.5 88t-104.5 239zM207 313 q0 -119 85 -187.5t230 -68.5q206 0 369 154v373q-86 28 -227 28q-99 0 -180 -17t-144 -51.5t-98 -93.5t-35 -137zM338 1419l39 41q83 -119 221 -119q80 0 133.5 34.5t83.5 84.5l41 -41q-35 -62 -99.5 -105.5t-158.5 -43.5q-93 0 -158.5 44.5t-101.5 104.5z" />
<glyph unicode="&#x104;" horiz-adv-x="1435" d="M63 0l613 1393h100l578 -1393h-31q-91 -5 -152 -47t-61 -115q0 -60 36 -92.5t95 -32.5q65 0 121 33l12 -59q-76 -33 -141 -33q-81 0 -131.5 46t-50.5 130t62 135t138 58l-139 333h-799l-157 -356h-93zM342 432h743l-360 866z" />
<glyph unicode="&#x105;" horiz-adv-x="1181" d="M117 307q0 130 71.5 216.5t188.5 124.5t274 38q131 0 240 -33v52q0 148 -79 225.5t-234 77.5q-182 0 -334 -76l-21 82q71 35 170.5 55.5t190.5 20.5q194 0 295.5 -101t101.5 -282v-707h-10q-91 -5 -152 -47t-61 -115q0 -60 36 -92.5t95 -32.5q65 0 121 33l12 -59 q-76 -33 -141 -33q-81 0 -132 46t-51 130q0 81 59.5 132t133.5 61v112q-163 -155 -387 -155q-178 0 -282.5 88t-104.5 239zM207 313q0 -119 85 -187.5t230 -68.5q206 0 369 154v373q-86 28 -227 28q-99 0 -180 -17t-144 -51.5t-98 -93.5t-35 -137z" />
<glyph unicode="&#x106;" horiz-adv-x="1531" d="M137 696q0 151 55 284t150.5 228t229 150t284.5 55q168 0 308 -60t239 -173l-47 -66q-91 100 -219 156.5t-281 56.5q-133 0 -249.5 -48.5t-199.5 -132t-130.5 -200.5t-47.5 -250q0 -178 81 -322t225 -226t321 -82q153 0 281 56.5t219 156.5l47 -66q-99 -113 -239 -173 t-308 -60q-202 0 -367 93.5t-258.5 257.5t-93.5 365zM821 1569l168 270h98l-178 -270h-88z" />
<glyph unicode="&#x107;" horiz-adv-x="1228" d="M137 537q0 160 71.5 288t202 201.5t294.5 73.5q236 0 395 -146l-47 -69q-139 129 -346 129q-210 0 -344 -135.5t-134 -341.5t134 -343t344 -137q207 0 346 129l47 -69q-159 -146 -395 -146q-123 0 -229 43.5t-180.5 118.5t-116.5 180t-42 224zM645 1247l168 271h98 l-178 -271h-88z" />
<glyph unicode="&#x108;" horiz-adv-x="1531" d="M137 696q0 151 55 284t150.5 228t229 150t284.5 55q168 0 308 -60t239 -173l-47 -66q-91 100 -219 156.5t-281 56.5q-133 0 -249.5 -48.5t-199.5 -132t-130.5 -200.5t-47.5 -250q0 -178 81 -322t225 -226t321 -82q153 0 281 56.5t219 156.5l47 -66q-99 -113 -239 -173 t-308 -60q-202 0 -367 93.5t-258.5 257.5t-93.5 365zM580 1569l227 270h96l227 -270h-86l-190 215l-186 -215h-88z" />
<glyph unicode="&#x109;" horiz-adv-x="1228" d="M137 537q0 160 71.5 288t202 201.5t294.5 73.5q236 0 395 -146l-47 -69q-139 129 -346 129q-210 0 -344 -135.5t-134 -341.5t134 -343t344 -137q207 0 346 129l47 -69q-159 -146 -395 -146q-123 0 -229 43.5t-180.5 118.5t-116.5 180t-42 224zM430 1247l227 271h97 l227 -271h-86l-190 215l-187 -215h-88z" />
<glyph unicode="&#x10a;" horiz-adv-x="1531" d="M137 696q0 151 55 284t150.5 228t229 150t284.5 55q168 0 308 -60t239 -173l-47 -66q-91 100 -219 156.5t-281 56.5q-133 0 -249.5 -48.5t-199.5 -132t-130.5 -200.5t-47.5 -250q0 -178 81 -322t225 -226t321 -82q153 0 281 56.5t219 156.5l47 -66q-99 -113 -239 -173 t-308 -60q-202 0 -367 93.5t-258.5 257.5t-93.5 365zM795 1700q0 69 69 69q66 0 66 -69q0 -36 -18 -54t-48 -18q-69 0 -69 72z" />
<glyph unicode="&#x10b;" horiz-adv-x="1228" d="M137 537q0 160 71.5 288t202 201.5t294.5 73.5q236 0 395 -146l-47 -69q-139 129 -346 129q-210 0 -344 -135.5t-134 -341.5t134 -343t344 -137q207 0 346 129l47 -69q-159 -146 -395 -146q-123 0 -229 43.5t-180.5 118.5t-116.5 180t-42 224zM637 1378q0 70 70 70 q65 0 65 -70q0 -71 -65 -71q-70 0 -70 71z" />
<glyph unicode="&#x10c;" horiz-adv-x="1531" d="M137 696q0 151 55 284t150.5 228t229 150t284.5 55q168 0 308 -60t239 -173l-47 -66q-91 100 -219 156.5t-281 56.5q-133 0 -249.5 -48.5t-199.5 -132t-130.5 -200.5t-47.5 -250q0 -178 81 -322t225 -226t321 -82q153 0 281 56.5t219 156.5l47 -66q-99 -113 -239 -173 t-308 -60q-202 0 -367 93.5t-258.5 257.5t-93.5 365zM584 1839h88l188 -215l189 215h86l-228 -270h-96z" />
<glyph unicode="&#x10d;" horiz-adv-x="1228" d="M137 537q0 160 71.5 288t202 201.5t294.5 73.5q236 0 395 -146l-47 -69q-139 129 -346 129q-210 0 -344 -135.5t-134 -341.5t134 -343t344 -137q207 0 346 129l47 -69q-159 -146 -395 -146q-123 0 -229 43.5t-180.5 118.5t-116.5 180t-42 224zM434 1518h88l189 -215 l188 215h86l-227 -271h-96z" />
<glyph unicode="&#x10e;" horiz-adv-x="1607" d="M233 0v1393h512q155 -1 286 -47t227.5 -132.5t151 -220t54.5 -299.5q0 -165 -54.5 -297.5t-151 -218.5t-227.5 -132t-286 -46h-512zM324 82h419q137 0 252 40.5t199 116.5t131 192.5t47 262.5q0 147 -47 264.5t-131 194t-198.5 117t-252.5 41.5h-419v-1229zM412 1839h88 l188 -215l189 215h86l-228 -270h-96z" />
<glyph unicode="&#x10f;" horiz-adv-x="1380" d="M139 537q0 245 145.5 399t385.5 154q113 0 211.5 -45.5t167.5 -116.5v526h90v-1454h-90v141q-69 -71 -167 -116t-212 -45q-239 0 -385 156t-146 401zM231 537q0 -211 125.5 -343.5t329.5 -132.5q112 0 208 47.5t155 114.5v617q-61 69 -157.5 118.5t-205.5 49.5 q-204 0 -329.5 -131.5t-125.5 -339.5zM1284 1321q0 43 22.5 65.5t61.5 22.5q43 0 67.5 -25.5t24.5 -66.5q0 -59 -21 -126t-50 -114l-56 21l47 145q-47 1 -71.5 23t-24.5 55z" />
<glyph unicode="&#x110;" horiz-adv-x="1619" d="M113 670v61h133v662h512q155 -1 286 -47t227.5 -132.5t151 -220t54.5 -299.5q0 -165 -54.5 -297.5t-151 -218.5t-227.5 -132t-286 -46h-512v670h-133zM336 82h420q184 0 324.5 69t222 209t81.5 334q0 196 -81.5 336.5t-221.5 210t-325 70.5h-420v-580h387v-61h-387v-588z " />
<glyph unicode="&#x111;" horiz-adv-x="1349" d="M139 537q0 245 145.5 399t385.5 154q113 0 211.5 -45.5t167.5 -116.5v299h-295v61h295v166h90v-166h225v-61h-225v-1227h-90v141q-69 -71 -167 -116t-212 -45q-239 0 -385 156t-146 401zM231 537q0 -211 125.5 -343.5t329.5 -132.5q112 0 208 47.5t155 114.5v617 q-61 69 -157.5 118.5t-205.5 49.5q-204 0 -329.5 -131.5t-125.5 -339.5z" />
<glyph unicode="&#x112;" horiz-adv-x="1411" d="M233 0v1393h1045v-84h-956v-539h806v-82h-806v-604h956v-84h-1045zM512 1640v74h481v-74h-481z" />
<glyph unicode="&#x113;" horiz-adv-x="1304" d="M139 532q0 156 66 284t194 206t295 78q119 0 210.5 -35.5t147.5 -97.5t84.5 -141.5t28.5 -172.5q0 -85 -18 -155h-918q4 -96 34 -175t87.5 -141t150 -96.5t212.5 -34.5q212 0 391 135l43 -69q-184 -146 -434 -146q-118 0 -214 29t-162.5 80.5t-111.5 122.5t-65.5 153.5 t-20.5 175.5zM231 575h838q8 54 8 89q0 72 -22.5 134.5t-67.5 113t-120.5 79.5t-172.5 29q-205 0 -331 -129t-132 -316zM453 1319v74h481v-74h-481z" />
<glyph unicode="&#x114;" horiz-adv-x="1411" d="M233 0v1393h1045v-84h-956v-539h806v-82h-806v-604h956v-84h-1045zM494 1741l38 41q83 -119 222 -119q80 0 133.5 34.5t83.5 84.5l41 -41q-36 -62 -100 -106t-158 -44q-93 0 -158.5 44.5t-101.5 105.5z" />
<glyph unicode="&#x115;" horiz-adv-x="1304" d="M139 532q0 156 66 284t194 206t295 78q119 0 210.5 -35.5t147.5 -97.5t84.5 -141.5t28.5 -172.5q0 -85 -18 -155h-918q4 -96 34 -175t87.5 -141t150 -96.5t212.5 -34.5q212 0 391 135l43 -69q-184 -146 -434 -146q-118 0 -214 29t-162.5 80.5t-111.5 122.5t-65.5 153.5 t-20.5 175.5zM231 575h838q8 54 8 89q0 72 -22.5 134.5t-67.5 113t-120.5 79.5t-172.5 29q-205 0 -331 -129t-132 -316zM442 1419l39 41q83 -119 221 -119q80 0 134 34.5t84 84.5l41 -41q-35 -62 -99.5 -105.5t-159.5 -43.5q-93 0 -158.5 44.5t-101.5 104.5z" />
<glyph unicode="&#x116;" horiz-adv-x="1411" d="M233 0v1393h1045v-84h-956v-539h806v-82h-806v-604h956v-84h-1045zM682 1700q0 69 70 69q65 0 65 -69q0 -36 -17.5 -54t-47.5 -18q-70 0 -70 72z" />
<glyph unicode="&#x117;" horiz-adv-x="1304" d="M139 532q0 156 66 284t194 206t295 78q119 0 210.5 -35.5t147.5 -97.5t84.5 -141.5t28.5 -172.5q0 -85 -18 -155h-918q4 -96 34 -175t87.5 -141t150 -96.5t212.5 -34.5q212 0 391 135l43 -69q-184 -146 -434 -146q-118 0 -214 29t-162.5 80.5t-111.5 122.5t-65.5 153.5 t-20.5 175.5zM231 575h838q8 54 8 89q0 72 -22.5 134.5t-67.5 113t-120.5 79.5t-172.5 29q-205 0 -331 -129t-132 -316zM635 1378q0 70 70 70q65 0 65 -70q0 -71 -65 -71q-70 0 -70 71z" />
<glyph unicode="&#x118;" horiz-adv-x="1411" d="M233 0v1393h1045v-84h-956v-539h806v-82h-806v-604h956v-84h-21q-91 -5 -152 -47t-61 -115q0 -60 36.5 -92.5t95.5 -32.5q64 0 120 33l13 -59q-76 -33 -142 -33q-81 0 -131.5 46t-50.5 130q0 59 33 102.5t84 67.5h-869z" />
<glyph unicode="&#x119;" horiz-adv-x="1306" d="M139 532q0 156 66 284t194 206t295 78q119 0 210.5 -35.5t147.5 -97.5t84.5 -141.5t28.5 -172.5q0 -85 -18 -155h-918q4 -96 34 -175t87.5 -141t150 -96.5t212.5 -34.5q212 0 391 135l43 -69q-142 -114 -332 -140q-106 -42 -106 -139q0 -60 36 -92.5t95 -32.5 q65 0 121 33l12 -59q-76 -33 -142 -33q-81 0 -131.5 46t-50.5 130q0 83 72 141h-8q-118 0 -214 29t-162.5 80.5t-111.5 122.5t-65.5 153.5t-20.5 175.5zM231 575h838q8 54 8 89q0 72 -22.5 134.5t-67.5 113t-120.5 79.5t-172.5 29q-205 0 -331 -129t-132 -316z" />
<glyph unicode="&#x11a;" horiz-adv-x="1411" d="M233 0v1393h1045v-84h-956v-539h806v-82h-806v-604h956v-84h-1045zM477 1839h88l189 -215l188 215h86l-227 -270h-96z" />
<glyph unicode="&#x11b;" horiz-adv-x="1304" d="M139 532q0 156 66 284t194 206t295 78q119 0 210.5 -35.5t147.5 -97.5t84.5 -141.5t28.5 -172.5q0 -85 -18 -155h-918q4 -96 34 -175t87.5 -141t150 -96.5t212.5 -34.5q212 0 391 135l43 -69q-184 -146 -434 -146q-118 0 -214 29t-162.5 80.5t-111.5 122.5t-65.5 153.5 t-20.5 175.5zM231 575h838q8 54 8 89q0 72 -22.5 134.5t-67.5 113t-120.5 79.5t-172.5 29q-205 0 -331 -129t-132 -316zM420 1518h88l188 -215l189 215h86l-228 -271h-96z" />
<glyph unicode="&#x11c;" horiz-adv-x="1611" d="M139 694q0 166 58 303t158.5 227t235.5 139.5t290 49.5q161 0 285 -50.5t235 -148.5l-49 -69q-101 90 -213.5 136t-257.5 46q-135 0 -253.5 -43.5t-206.5 -123t-139 -200t-51 -266.5q0 -192 88 -336.5t235 -218t329 -73.5q134 0 264 38.5t217 100.5v422h-543v82h633v-553 q-100 -76 -258.5 -126t-314.5 -50q-155 0 -290 49t-235.5 139t-158.5 226t-58 300zM602 1569l227 270h97l227 -270h-86l-190 215l-187 -215h-88z" />
<glyph unicode="&#x11d;" horiz-adv-x="1349" d="M141 573q0 143 64.5 260t187 187t279.5 70q112 0 209.5 -46t167.5 -116v143h90v-989q0 -114 -37.5 -207.5t-102 -154t-149 -93.5t-178.5 -33q-33 0 -65 2.5t-61 8.5t-52.5 11.5t-49 15.5t-41 16t-38.5 18t-31 16.5t-28.5 17t-22.5 13.5l26 82q174 -119 363 -119 q102 0 186 43.5t137.5 135t53.5 215.5v151q-70 -70 -167.5 -115t-209.5 -45q-118 0 -218.5 40.5t-168.5 110t-106 163t-38 198.5zM233 573q0 -183 126 -306.5t329 -123.5q109 0 206 47.5t155 114.5v537q-59 69 -155 117.5t-206 48.5q-203 0 -329 -125.5t-126 -309.5z M412 1247l227 271h96l228 -271h-86l-191 215l-186 -215h-88z" />
<glyph unicode="&#x11e;" horiz-adv-x="1611" d="M139 694q0 166 58 303t158.5 227t235.5 139.5t290 49.5q161 0 285 -50.5t235 -148.5l-49 -69q-101 90 -213.5 136t-257.5 46q-135 0 -253.5 -43.5t-206.5 -123t-139 -200t-51 -266.5q0 -192 88 -336.5t235 -218t329 -73.5q134 0 264 38.5t217 100.5v422h-543v82h633v-553 q-100 -76 -258.5 -126t-314.5 -50q-155 0 -290 49t-235.5 139t-158.5 226t-58 300zM625 1741l39 41q83 -119 221 -119q80 0 133.5 34.5t83.5 84.5l41 -41q-36 -62 -100 -106t-158 -44q-93 0 -158.5 44.5t-101.5 105.5z" />
<glyph unicode="&#x11f;" horiz-adv-x="1349" d="M141 573q0 143 64.5 260t187 187t279.5 70q112 0 209.5 -46t167.5 -116v143h90v-989q0 -114 -37.5 -207.5t-102 -154t-149 -93.5t-178.5 -33q-33 0 -65 2.5t-61 8.5t-52.5 11.5t-49 15.5t-41 16t-38.5 18t-31 16.5t-28.5 17t-22.5 13.5l26 82q174 -119 363 -119 q102 0 186 43.5t137.5 135t53.5 215.5v151q-70 -70 -167.5 -115t-209.5 -45q-118 0 -218.5 40.5t-168.5 110t-106 163t-38 198.5zM233 573q0 -183 126 -306.5t329 -123.5q109 0 206 47.5t155 114.5v537q-59 69 -155 117.5t-206 48.5q-203 0 -329 -125.5t-126 -309.5z M438 1419l39 41q83 -119 221 -119q80 0 133.5 34.5t83.5 84.5l41 -41q-35 -62 -99.5 -105.5t-158.5 -43.5q-93 0 -158.5 44.5t-101.5 104.5z" />
<glyph unicode="&#x120;" horiz-adv-x="1611" d="M139 694q0 166 58 303t158.5 227t235.5 139.5t290 49.5q161 0 285 -50.5t235 -148.5l-49 -69q-101 90 -213.5 136t-257.5 46q-135 0 -253.5 -43.5t-206.5 -123t-139 -200t-51 -266.5q0 -192 88 -336.5t235 -218t329 -73.5q134 0 264 38.5t217 100.5v422h-543v82h633v-553 q-100 -76 -258.5 -126t-314.5 -50q-155 0 -290 49t-235.5 139t-158.5 226t-58 300zM803 1700q0 69 69 69q66 0 66 -69q0 -36 -18 -54t-48 -18q-69 0 -69 72z" />
<glyph unicode="&#x121;" horiz-adv-x="1349" d="M141 573q0 143 64.5 260t187 187t279.5 70q112 0 209.5 -46t167.5 -116v143h90v-989q0 -114 -37.5 -207.5t-102 -154t-149 -93.5t-178.5 -33q-33 0 -65 2.5t-61 8.5t-52.5 11.5t-49 15.5t-41 16t-38.5 18t-31 16.5t-28.5 17t-22.5 13.5l26 82q174 -119 363 -119 q102 0 186 43.5t137.5 135t53.5 215.5v151q-70 -70 -167.5 -115t-209.5 -45q-118 0 -218.5 40.5t-168.5 110t-106 163t-38 198.5zM233 573q0 -183 126 -306.5t329 -123.5q109 0 206 47.5t155 114.5v537q-59 69 -155 117.5t-206 48.5q-203 0 -329 -125.5t-126 -309.5z M639 1378q0 70 70 70q65 0 65 -70q0 -71 -65 -71q-70 0 -70 71z" />
<glyph unicode="&#x122;" horiz-adv-x="1611" d="M139 694q0 166 58 303t158.5 227t235.5 139.5t290 49.5q161 0 285 -50.5t235 -148.5l-49 -69q-101 90 -213.5 136t-257.5 46q-135 0 -253.5 -43.5t-206.5 -123t-139 -200t-51 -266.5q0 -192 88 -336.5t235 -218t329 -73.5q134 0 264 38.5t217 100.5v422h-543v82h633v-553 q-100 -76 -258.5 -126t-314.5 -50q-155 0 -290 49t-235.5 139t-158.5 226t-58 300zM768 -238q0 43 22.5 65.5t61.5 22.5q43 0 67.5 -25.5t24.5 -66.5q0 -58 -21 -125t-51 -114l-55 20l47 146q-47 1 -71.5 22.5t-24.5 54.5z" />
<glyph unicode="&#x123;" horiz-adv-x="1349" d="M141 573q0 143 64.5 260t187 187t279.5 70q112 0 209.5 -46t167.5 -116v143h90v-989q0 -114 -37.5 -207.5t-102 -154t-149 -93.5t-178.5 -33q-33 0 -65 2.5t-61 8.5t-52.5 11.5t-49 15.5t-41 16t-38.5 18t-31 16.5t-28.5 17t-22.5 13.5l26 82q174 -119 363 -119 q102 0 186 43.5t137.5 135t53.5 215.5v151q-70 -70 -167.5 -115t-209.5 -45q-118 0 -218.5 40.5t-168.5 110t-106 163t-38 198.5zM233 573q0 -183 126 -306.5t329 -123.5q109 0 206 47.5t155 114.5v537q-59 69 -155 117.5t-206 48.5q-203 0 -329 -125.5t-126 -309.5z M612 1341q0 59 20.5 127.5t49.5 114.5l55 -20l-45 -148q47 -1 71.5 -23t24.5 -55q0 -43 -22 -65.5t-61 -22.5q-44 0 -68.5 26t-24.5 66z" />
<glyph unicode="&#x124;" horiz-adv-x="1705" d="M233 0v1393h91v-652h1058v652h91v-1393h-91v657h-1058v-657h-91zM573 1569l228 270h96l227 -270h-86l-190 215l-186 -215h-89z" />
<glyph unicode="&#x125;" d="M211 0v1454h90v-604q61 114 171 177t257 63q106 0 189.5 -36t136 -100.5t79.5 -150t27 -187.5v-616h-90v606q0 178 -92 288t-270 110q-156 0 -265.5 -84t-142.5 -215v-705h-90zM416 1544l227 271h96l228 -271h-86l-191 215l-186 -215h-88z" />
<glyph unicode="&#x126;" horiz-adv-x="1724" d="M147 1032v62h95v299h90v-299h1059v299h90v-299h108v-62h-108v-1032h-90v657h-1059v-657h-90v1032h-95zM332 741h1059v291h-1059v-291z" />
<glyph unicode="&#x127;" d="M37 1227v61h174v166h90v-166h348v-61h-348v-377q61 114 171 177t257 63q106 0 189.5 -36t136 -100.5t79.5 -150t27 -187.5v-616h-90v606q0 178 -92 288t-270 110q-156 0 -265.5 -84t-142.5 -215v-705h-90v1227h-174z" />
<glyph unicode="&#x128;" horiz-adv-x="559" d="M-51 1667q29 54 77.5 92.5t108.5 38.5q35 0 77.5 -22.5t75 -50t70.5 -50t64 -22.5q89 0 143 106l41 -45q-30 -56 -78 -94.5t-106 -38.5q-34 0 -76.5 22.5t-75.5 50t-71 50t-64 22.5q-88 0 -145 -104zM233 0v1393h91v-1393h-91z" />
<glyph unicode="&#x129;" horiz-adv-x="514" d="M-74 1346q29 53 78 92t109 39q35 0 77.5 -23t75 -50t70 -50t63.5 -23q90 0 144 107l41 -45q-30 -56 -78.5 -94.5t-106.5 -38.5q-34 0 -76.5 22.5t-75 50t-70.5 50t-64 22.5q-89 0 -146 -105zM211 0v1071h90v-1071h-90z" />
<glyph unicode="&#x12a;" horiz-adv-x="559" d="M37 1640v74h481v-74h-481zM233 0v1393h91v-1393h-91z" />
<glyph unicode="&#x12b;" horiz-adv-x="514" d="M16 1319v74h482v-74h-482zM211 0v1071h90v-1071h-90z" />
<glyph unicode="&#x12c;" horiz-adv-x="559" d="M18 1741l39 41q83 -119 222 -119q80 0 133.5 34.5t83.5 84.5l41 -41q-36 -62 -100 -106t-158 -44q-93 0 -159 44.5t-102 105.5zM233 0v1393h91v-1393h-91z" />
<glyph unicode="&#x12d;" horiz-adv-x="514" d="M-2 1419l39 41q83 -119 221 -119q80 0 133.5 34.5t83.5 84.5l41 -41q-35 -62 -99.5 -105.5t-158.5 -43.5q-93 0 -158.5 44.5t-101.5 104.5zM211 0v1071h90v-1071h-90z" />
<glyph unicode="&#x12e;" horiz-adv-x="563" d="M31 -170q0 85 65.5 137.5t141.5 57.5v1368h90v-1393h-25q-91 -5 -152 -47t-61 -115q0 -60 36 -92.5t95 -32.5q65 0 121 33l12 -59q-76 -33 -141 -33q-81 0 -131.5 46t-50.5 130z" />
<glyph unicode="&#x12f;" horiz-adv-x="518" d="M29 -170q0 80 57 130.5t131 62.5v1048h90v-1071h-6q-91 -5 -152 -47t-61 -115q0 -60 36 -92.5t95 -32.5q65 0 121 33l12 -59q-76 -33 -141 -33q-81 0 -131.5 46t-50.5 130zM193 1378q0 70 69 70q66 0 66 -70q0 -36 -18 -53.5t-48 -17.5q-69 0 -69 71z" />
<glyph unicode="&#x130;" horiz-adv-x="559" d="M209 1700q0 69 70 69q65 0 65 -69q0 -36 -18 -54t-47 -18q-70 0 -70 72zM233 0v1393h91v-1393h-91z" />
<glyph unicode="&#x131;" horiz-adv-x="514" d="M211 0v1071h90v-1071h-90z" />
<glyph unicode="&#x132;" horiz-adv-x="1902" d="M233 0v1393h91v-1393h-91zM635 504l88 10q14 -216 122 -334.5t314 -118.5q210 0 324 125.5t114 339.5v867h91v-871q0 -244 -142 -395.5t-389 -151.5q-242 0 -374 141.5t-148 387.5z" />
<glyph unicode="&#x133;" horiz-adv-x="1091" d="M188 1378q0 70 70 70q66 0 66 -70q0 -71 -66 -71q-70 0 -70 71zM211 0v1071h90v-1071h-90zM555 -338q114 60 173.5 143t59.5 220v1046h91v-1046q0 -303 -277 -428zM768 1378q0 70 68 70q65 0 65 -70q0 -71 -65 -71q-68 0 -68 71z" />
<glyph unicode="&#x134;" horiz-adv-x="1343" d="M76 504l88 10q14 -216 122 -334.5t314 -118.5q210 0 324 125.5t114 339.5v867h90v-871q0 -244 -141.5 -395.5t-388.5 -151.5q-242 0 -374 141.5t-148 387.5zM805 1569l227 270h96l228 -270h-86l-191 215l-186 -215h-88z" />
<glyph unicode="&#x135;" horiz-adv-x="514" d="M-23 -342q113 59 173.5 144t60.5 221v1048h90v-1046q0 -303 -276 -428zM-23 1247l228 271h96l227 -271h-86l-190 215l-186 -215h-89z" />
<glyph unicode="&#x136;" horiz-adv-x="1368" d="M233 0v1393h91v-668h208l637 668h99v-15l-656 -698l717 -668v-12h-117l-682 641h-206v-641h-91zM590 -238q0 43 22.5 65.5t61.5 22.5q43 0 67.5 -25.5t24.5 -66.5q0 -58 -21 -125t-51 -114l-55 20l47 146q-47 1 -71.5 22.5t-24.5 54.5z" />
<glyph unicode="&#x137;" horiz-adv-x="1126" d="M211 0v1454h90v-862l610 479h109v-14l-623 -488l658 -555v-14h-115l-639 549v-549h-90zM494 -238q0 43 22.5 65.5t61.5 22.5q43 0 67.5 -25.5t24.5 -66.5q0 -58 -21 -125t-51 -114l-55 20l47 146q-47 1 -71.5 22.5t-24.5 54.5z" />
<glyph unicode="&#x138;" horiz-adv-x="1124" d="M211 0v1071h90v-534l610 534h109v-14l-623 -541l658 -502v-14h-117l-637 494v-494h-90z" />
<glyph unicode="&#x139;" horiz-adv-x="1198" d="M229 1569l168 270h99l-179 -270h-88zM233 0v1393h91v-1311h827v-82h-918z" />
<glyph unicode="&#x13a;" horiz-adv-x="632" d="M201 1544l168 271h98l-178 -271h-88zM219 207v1247h90v-1233q0 -83 38.5 -121.5t103.5 -38.5q68 0 139 48l18 -74q-73 -55 -180 -55q-97 0 -153 55.5t-56 171.5z" />
<glyph unicode="&#x13b;" horiz-adv-x="1198" d="M233 0v1393h91v-1311h827v-82h-918zM588 -238q0 43 22.5 65.5t61.5 22.5q43 0 67.5 -25.5t24.5 -66.5q0 -58 -21 -125t-51 -114l-55 20l47 146q-47 1 -71.5 22.5t-24.5 54.5z" />
<glyph unicode="&#x13c;" horiz-adv-x="632" d="M219 207v1247h90v-1233q0 -83 38.5 -121.5t103.5 -38.5q68 0 139 48l18 -74q-73 -55 -180 -55q-97 0 -153 55.5t-56 171.5zM289 -238q0 43 22.5 65.5t61.5 22.5q43 0 67.5 -25.5t24.5 -66.5q0 -58 -21 -125t-51 -114l-55 20l47 146q-47 1 -71.5 22.5t-24.5 54.5z" />
<glyph unicode="&#x13d;" horiz-adv-x="1204" d="M233 0v1393h91v-1311h827v-82h-918zM823 1323q0 43 22.5 65.5t61.5 22.5q43 0 67.5 -25.5t24.5 -66.5q0 -59 -21 -126t-50 -114l-56 21l48 145q-47 1 -72 23t-25 55z" />
<glyph unicode="&#x13e;" horiz-adv-x="651" d="M219 207v1247h90v-1233q0 -83 38.5 -121.5t103.5 -38.5q68 0 139 48l18 -74q-73 -55 -180 -55q-97 0 -153 55.5t-56 171.5zM457 1321q0 43 22.5 65.5t61.5 22.5q43 0 67.5 -25.5t24.5 -66.5q0 -59 -21 -126t-51 -114l-55 21l47 145q-47 1 -71.5 23t-24.5 55z" />
<glyph unicode="&#x13f;" horiz-adv-x="1214" d="M233 0v1393h91v-1311h827v-82h-918zM694 735q0 92 86 92q90 0 90 -92q0 -45 -23.5 -69.5t-66.5 -24.5q-41 0 -63.5 24t-22.5 70z" />
<glyph unicode="&#x140;" horiz-adv-x="735" d="M219 207v1247h90v-1233q0 -83 38.5 -121.5t103.5 -38.5q68 0 139 48l18 -74q-73 -55 -180 -55q-97 0 -153 55.5t-56 171.5zM524 735q0 92 86 92q90 0 90 -92q0 -45 -23.5 -69.5t-66.5 -24.5q-41 0 -63.5 24t-22.5 70z" />
<glyph unicode="&#x141;" horiz-adv-x="1208" d="M125 535v81l121 62v715h90v-668l309 160v-84l-309 -160v-559h825v-82h-915v596z" />
<glyph unicode="&#x142;" horiz-adv-x="645" d="M119 643v84l110 55v672h90v-625l199 103v-82l-199 -102v-527q0 -83 38 -121.5t102 -38.5q68 0 139 48l20 -74q-76 -55 -182 -55q-96 0 -151.5 55.5t-55.5 171.5v493z" />
<glyph unicode="&#x143;" horiz-adv-x="1699" d="M233 0v1393h84l1057 -1254v1254h90v-1393h-82l-1058 1247v-1247h-91zM795 1569l168 270h98l-178 -270h-88z" />
<glyph unicode="&#x144;" d="M211 0v1071h90v-223q61 116 171 179t257 63q106 0 189.5 -36t136 -100.5t79.5 -150t27 -187.5v-616h-90v606q0 178 -92 288t-270 110q-156 0 -265.5 -84t-142.5 -215v-705h-90zM643 1247l168 271h98l-178 -271h-88z" />
<glyph unicode="&#x145;" horiz-adv-x="1699" d="M233 0v1393h84l1057 -1254v1254h90v-1393h-82l-1058 1247v-1247h-91zM727 -238q0 43 22.5 65.5t61.5 22.5q43 0 67.5 -25.5t24.5 -66.5q0 -58 -21 -125t-51 -114l-55 20l47 146q-47 1 -71.5 22.5t-24.5 54.5z" />
<glyph unicode="&#x146;" d="M211 0v1071h90v-223q61 116 171 179t257 63q106 0 189.5 -36t136 -100.5t79.5 -150t27 -187.5v-616h-90v606q0 178 -92 288t-270 110q-156 0 -265.5 -84t-142.5 -215v-705h-90zM594 -238q0 43 22.5 65.5t61.5 22.5q43 0 67.5 -25.5t24.5 -66.5q0 -58 -21 -125t-51 -114 l-55 20l47 146q-47 1 -71.5 22.5t-24.5 54.5z" />
<glyph unicode="&#x147;" horiz-adv-x="1699" d="M233 0v1393h84l1057 -1254v1254h90v-1393h-82l-1058 1247v-1247h-91zM600 1839h88l189 -215l188 215h86l-227 -270h-97z" />
<glyph unicode="&#x148;" d="M211 0v1071h90v-223q61 116 171 179t257 63q106 0 189.5 -36t136 -100.5t79.5 -150t27 -187.5v-616h-90v606q0 178 -92 288t-270 110q-156 0 -265.5 -84t-142.5 -215v-705h-90zM414 1518h88l188 -215l189 215h86l-228 -271h-96z" />
<glyph unicode="&#x149;" horiz-adv-x="1456" d="M76 1327q0 43 22.5 65.5t61.5 22.5q43 0 67.5 -25.5t24.5 -66.5q0 -59 -21 -126t-51 -114l-55 21l47 145q-47 1 -71.5 23t-24.5 55zM307 0v1071h90v-223q61 116 171 179t257 63q106 0 189.5 -36t136 -100.5t79.5 -150t27 -187.5v-616h-90v606q0 178 -92 288t-270 110 q-156 0 -265.5 -84t-142.5 -215v-705h-90z" />
<glyph unicode="&#x14a;" horiz-adv-x="1699" d="M233 0v1393h84l1057 -1250v1250h90v-1368q0 -299 -276 -428l-47 61q113 61 173 144.5t60 213.5l-1050 1231v-1247h-91z" />
<glyph unicode="&#x14b;" d="M213 8v1071h90v-223q59 115 169.5 178.5t256.5 63.5q210 0 322 -131.5t112 -341.5v-600q0 -299 -278 -428l-47 61q114 61 174.5 146t60.5 219v591q0 178 -92 288t-270 110q-156 0 -265.5 -84t-142.5 -215v-705h-90z" />
<glyph unicode="&#x14c;" horiz-adv-x="1710" d="M139 694q0 152 54.5 285.5t149.5 228.5t227.5 150t283.5 55q152 0 285.5 -55t228.5 -150t150 -228.5t55 -285.5q0 -201 -93 -364.5t-258 -256.5t-368 -93q-201 0 -365 93t-257 256.5t-93 364.5zM227 694q0 -178 81 -321.5t224.5 -225t321.5 -81.5q180 0 324 81.5 t224.5 225t80.5 321.5q0 135 -47.5 252.5t-130 200.5t-199.5 130.5t-252 47.5q-270 0 -448.5 -179t-178.5 -452zM612 1640v74h482v-74h-482z" />
<glyph unicode="&#x14d;" horiz-adv-x="1409" d="M137 532q0 161 71.5 291t201 203.5t292.5 73.5q250 0 410 -161t160 -407q0 -243 -160 -402t-410 -159q-163 0 -292.5 73t-201 201t-71.5 287zM225 532q0 -204 134 -339.5t343 -135.5q212 0 347 135.5t135 339.5q0 207 -135 344.5t-347 137.5q-209 0 -343 -137.5 t-134 -344.5zM461 1319v74h481v-74h-481z" />
<glyph unicode="&#x14e;" horiz-adv-x="1710" d="M139 694q0 152 54.5 285.5t149.5 228.5t227.5 150t283.5 55q152 0 285.5 -55t228.5 -150t150 -228.5t55 -285.5q0 -201 -93 -364.5t-258 -256.5t-368 -93q-201 0 -365 93t-257 256.5t-93 364.5zM227 694q0 -178 81 -321.5t224.5 -225t321.5 -81.5q180 0 324 81.5 t224.5 225t80.5 321.5q0 135 -47.5 252.5t-130 200.5t-199.5 130.5t-252 47.5q-270 0 -448.5 -179t-178.5 -452zM594 1741l39 41q83 -119 221 -119q80 0 133.5 34.5t83.5 84.5l41 -41q-36 -62 -100 -106t-158 -44q-93 0 -158.5 44.5t-101.5 105.5z" />
<glyph unicode="&#x14f;" horiz-adv-x="1409" d="M137 532q0 161 71.5 291t201 203.5t292.5 73.5q250 0 410 -161t160 -407q0 -243 -160 -402t-410 -159q-163 0 -292.5 73t-201 201t-71.5 287zM225 532q0 -204 134 -339.5t343 -135.5q212 0 347 135.5t135 339.5q0 207 -135 344.5t-347 137.5q-209 0 -343 -137.5 t-134 -344.5zM442 1419l39 41q83 -119 221 -119q80 0 134 34.5t84 84.5l41 -41q-35 -62 -99.5 -105.5t-159.5 -43.5q-93 0 -158.5 44.5t-101.5 104.5z" />
<glyph unicode="&#x150;" horiz-adv-x="1710" d="M139 694q0 152 54.5 285.5t149.5 228.5t227.5 150t283.5 55q152 0 285.5 -55t228.5 -150t150 -228.5t55 -285.5q0 -201 -93 -364.5t-258 -256.5t-368 -93q-201 0 -365 93t-257 256.5t-93 364.5zM227 694q0 -178 81 -321.5t224.5 -225t321.5 -81.5q180 0 324 81.5 t224.5 225t80.5 321.5q0 135 -47.5 252.5t-130 200.5t-199.5 130.5t-252 47.5q-270 0 -448.5 -179t-178.5 -452zM678 1569l168 270h98l-178 -270h-88zM997 1569l170 270h97l-179 -270h-88z" />
<glyph unicode="&#x151;" horiz-adv-x="1409" d="M137 532q0 161 71.5 291t201 203.5t292.5 73.5q250 0 410 -161t160 -407q0 -243 -160 -402t-410 -159q-163 0 -292.5 73t-201 201t-71.5 287zM225 532q0 -204 134 -339.5t343 -135.5q212 0 347 135.5t135 339.5q0 207 -135 344.5t-347 137.5q-209 0 -343 -137.5 t-134 -344.5zM504 1247l168 271h98l-178 -271h-88zM823 1247l170 271h97l-179 -271h-88z" />
<glyph unicode="&#x152;" horiz-adv-x="2486" d="M139 694q0 152 54.5 285.5t148.5 228.5t226.5 150t283.5 55q258 0 457 -168v148h1042v-84h-954v-541h805v-78h-805v-608h954v-82h-1042v143q-200 -163 -457 -163q-201 0 -364.5 93t-256 256.5t-92.5 364.5zM227 694q0 -133 47.5 -249.5t130.5 -199.5t200 -131t251 -48 q133 0 250 47.5t203 132.5v897q-88 86 -204.5 135t-250.5 49q-270 0 -448.5 -180t-178.5 -453z" />
<glyph unicode="&#x153;" horiz-adv-x="2365" d="M137 532q0 161 71.5 291t201 203.5t292.5 73.5q197 0 340 -105t193 -278q49 170 186.5 276.5t333.5 106.5q118 0 210 -35.5t147.5 -98t83.5 -142t28 -171.5t-16 -151h-922q2 -96 32 -176.5t88 -143.5t153 -98t219 -35q210 0 385 135l43 -67q-184 -146 -434 -146 q-224 0 -359 100.5t-180 270.5q-52 -169 -194 -270t-337 -101q-163 0 -292.5 73t-201 201t-71.5 287zM225 532q0 -204 134 -340.5t343 -136.5q140 0 250.5 63t171 171.5t60.5 242.5q0 207 -135 344.5t-347 137.5q-209 0 -343 -137.5t-134 -344.5zM1286 573h852q8 54 8 89 q0 157 -101 259.5t-290 102.5q-138 0 -244 -61t-163 -162.5t-62 -227.5z" />
<glyph unicode="&#x154;" horiz-adv-x="1464" d="M233 0v1393h596q97 0 180.5 -26.5t149 -78.5t102.5 -136.5t37 -193.5q0 -133 -62.5 -231.5t-164.5 -147.5t-227 -49h-15l576 -518v-12h-117l-581 530h-383v-530h-91zM324 608h512q102 0 185 39t134 119.5t51 189.5q0 89 -30 158t-81.5 111.5t-117 64t-141.5 21.5h-512 v-703zM639 1569l168 270h98l-178 -270h-88z" />
<glyph unicode="&#x155;" horiz-adv-x="925" d="M211 0v1071h90v-244q113 263 344 263q126 0 225 -86l-43 -74q-84 74 -190 74q-122 0 -206.5 -84.5t-129.5 -221.5v-698h-90zM410 1247l168 271h98l-178 -271h-88z" />
<glyph unicode="&#x156;" horiz-adv-x="1464" d="M233 0v1393h596q97 0 180.5 -26.5t149 -78.5t102.5 -136.5t37 -193.5q0 -133 -62.5 -231.5t-164.5 -147.5t-227 -49h-15l576 -518v-12h-117l-581 530h-383v-530h-91zM324 608h512q102 0 185 39t134 119.5t51 189.5q0 89 -30 158t-81.5 111.5t-117 64t-141.5 21.5h-512 v-703zM612 -238q0 43 22.5 65.5t61.5 22.5q43 0 67.5 -25.5t24.5 -66.5q0 -59 -21 -125.5t-50 -113.5l-55 20l47 146q-47 1 -72 22.5t-25 54.5z" />
<glyph unicode="&#x157;" horiz-adv-x="925" d="M166 -238q0 43 22.5 65.5t61.5 22.5q43 0 67.5 -25.5t24.5 -66.5q0 -58 -21 -125t-51 -114l-55 20l47 146q-47 1 -71.5 22.5t-24.5 54.5zM211 0v1071h90v-244q113 263 344 263q126 0 225 -86l-43 -74q-84 74 -190 74q-122 0 -206.5 -84.5t-129.5 -221.5v-698h-90z" />
<glyph unicode="&#x158;" horiz-adv-x="1464" d="M233 0v1393h596q97 0 180.5 -26.5t149 -78.5t102.5 -136.5t37 -193.5q0 -133 -62.5 -231.5t-164.5 -147.5t-227 -49h-15l576 -518v-12h-117l-581 530h-383v-530h-91zM324 608h512q102 0 185 39t134 119.5t51 189.5q0 89 -30 158t-81.5 111.5t-117 64t-141.5 21.5h-512 v-703zM395 1839h88l189 -215l188 215h86l-227 -270h-96z" />
<glyph unicode="&#x159;" horiz-adv-x="925" d="M211 0v1071h90v-244q113 263 344 263q126 0 225 -86l-43 -74q-84 74 -190 74q-122 0 -206.5 -84.5t-129.5 -221.5v-698h-90zM227 1518h88l189 -215l188 215h86l-227 -271h-96z" />
<glyph unicode="&#x15a;" horiz-adv-x="1292" d="M137 1038q0 76 32 142t94 118t165 82.5t234 30.5q130 0 258 -33t210 -80l-28 -84q-72 45 -199.5 78t-243.5 33q-108 0 -192.5 -23t-135 -62.5t-76.5 -89t-26 -106.5q0 -186 263 -249l294 -70q189 -46 283 -123.5t94 -216.5q0 -184 -153.5 -294.5t-395.5 -110.5 q-133 0 -261 37.5t-206 84.5l27 86q77 -46 197 -84t245 -38q199 0 327 85.5t128 229.5q0 101 -76.5 162.5t-240.5 97.5l-285 66q-161 37 -246.5 120.5t-85.5 210.5zM604 1569l168 270h98l-178 -270h-88z" />
<glyph unicode="&#x15b;" horiz-adv-x="1093" d="M154 72l20 84q176 -97 369 -97q152 0 243 65t91 163q0 76 -60 120t-184 72l-180 43q-160 35 -229.5 91t-69.5 167q0 142 106 226t299 84q94 0 199 -24t168 -56l-27 -82q-66 34 -160.5 58t-183.5 24q-150 0 -231.5 -60t-81.5 -166q0 -77 53 -114t188 -68l179 -43 q155 -35 230 -98t75 -170q0 -136 -115 -223.5t-307 -87.5q-216 0 -391 92zM485 1247l168 271h99l-179 -271h-88z" />
<glyph unicode="&#x15c;" horiz-adv-x="1292" d="M137 1038q0 76 32 142t94 118t165 82.5t234 30.5q130 0 258 -33t210 -80l-28 -84q-72 45 -199.5 78t-243.5 33q-108 0 -192.5 -23t-135 -62.5t-76.5 -89t-26 -106.5q0 -186 263 -249l294 -70q189 -46 283 -123.5t94 -216.5q0 -184 -153.5 -294.5t-395.5 -110.5 q-133 0 -261 37.5t-206 84.5l27 86q77 -46 197 -84t245 -38q199 0 327 85.5t128 229.5q0 101 -76.5 162.5t-240.5 97.5l-285 66q-161 37 -246.5 120.5t-85.5 210.5zM371 1569l227 270h96l228 -270h-86l-191 215l-186 -215h-88z" />
<glyph unicode="&#x15d;" horiz-adv-x="1093" d="M154 72l20 84q176 -97 369 -97q152 0 243 65t91 163q0 76 -60 120t-184 72l-180 43q-160 35 -229.5 91t-69.5 167q0 142 106 226t299 84q94 0 199 -24t168 -56l-27 -82q-66 34 -160.5 58t-183.5 24q-150 0 -231.5 -60t-81.5 -166q0 -77 53 -114t188 -68l179 -43 q155 -35 230 -98t75 -170q0 -136 -115 -223.5t-307 -87.5q-216 0 -391 92zM276 1247l228 271h96l227 -271h-86l-190 215l-186 -215h-89z" />
<glyph unicode="&#x15e;" horiz-adv-x="1292" d="M137 1038q0 76 32 142t94 118t165 82.5t234 30.5q130 0 258 -33t210 -80l-28 -84q-72 45 -199.5 78t-243.5 33q-108 0 -192.5 -23t-135 -62.5t-76.5 -89t-26 -106.5q0 -186 263 -249l294 -70q189 -46 283 -123.5t94 -216.5q0 -184 -153.5 -294.5t-395.5 -110.5h-2 l-30 -123q36 8 71 8q77 0 122.5 -34.5t45.5 -90.5q0 -69 -56 -107.5t-140 -38.5q-75 0 -148 27l15 49q67 -24 131 -24q63 0 101 23.5t38 68.5q0 78 -123 78q-60 0 -123 -19l-6 8l45 177q-120 8 -231 43.5t-177 76.5l27 86q77 -46 197 -84t245 -38q199 0 327 85.5t128 229.5 q0 101 -76.5 162.5t-240.5 97.5l-285 66q-161 37 -246.5 120.5t-85.5 210.5z" />
<glyph unicode="&#x15f;" horiz-adv-x="1093" d="M154 72l20 84q176 -97 369 -97q152 0 243 65t91 163q0 76 -60 120t-184 72l-180 43q-160 35 -229.5 91t-69.5 167q0 142 106 226t299 84q94 0 199 -24t168 -56l-27 -82q-66 34 -160.5 58t-183.5 24q-150 0 -231.5 -60t-81.5 -166q0 -77 53 -114t188 -68l179 -43 q155 -35 230 -98t75 -170q0 -136 -115 -223.5t-307 -87.5h-21l-30 -123q36 8 71 8q77 0 122.5 -34.5t45.5 -90.5q0 -69 -56 -107.5t-140 -38.5q-75 0 -148 27l14 49q67 -24 132 -24q63 0 101 23.5t38 68.5q0 78 -123 78q-60 0 -123 -19l-6 8l47 179q-172 12 -315 88z" />
<glyph unicode="&#x160;" horiz-adv-x="1292" d="M137 1038q0 76 32 142t94 118t165 82.5t234 30.5q130 0 258 -33t210 -80l-28 -84q-72 45 -199.5 78t-243.5 33q-108 0 -192.5 -23t-135 -62.5t-76.5 -89t-26 -106.5q0 -186 263 -249l294 -70q189 -46 283 -123.5t94 -216.5q0 -184 -153.5 -294.5t-395.5 -110.5 q-133 0 -261 37.5t-206 84.5l27 86q77 -46 197 -84t245 -38q199 0 327 85.5t128 229.5q0 101 -76.5 162.5t-240.5 97.5l-285 66q-161 37 -246.5 120.5t-85.5 210.5zM354 1839h88l189 -215l188 215h86l-227 -270h-96z" />
<glyph unicode="&#x161;" horiz-adv-x="1093" d="M154 72l20 84q176 -97 369 -97q152 0 243 65t91 163q0 76 -60 120t-184 72l-180 43q-160 35 -229.5 91t-69.5 167q0 142 106 226t299 84q94 0 199 -24t168 -56l-27 -82q-66 34 -160.5 58t-183.5 24q-150 0 -231.5 -60t-81.5 -166q0 -77 53 -114t188 -68l179 -43 q155 -35 230 -98t75 -170q0 -136 -115 -223.5t-307 -87.5q-216 0 -391 92zM276 1518h89l188 -215l188 215h86l-227 -271h-96z" />
<glyph unicode="&#x162;" horiz-adv-x="1273" d="M43 1309v84h1188v-84h-531v-1309h-22l-35 -143q36 8 72 8q77 0 122.5 -34.5t45.5 -90.5q0 -69 -56.5 -107.5t-140.5 -38.5q-74 0 -147 27l14 49q67 -24 131 -24q63 0 101 23.5t38 68.5q0 78 -123 78q-59 0 -122 -19l-7 8l52 195h-13v1309h-567z" />
<glyph unicode="&#x163;" horiz-adv-x="970" d="M86 993v78h221l8 272h82v-272h463v-78h-463v-692q0 -116 56 -178t161 -62q64 0 139.5 25.5t129.5 63.5l35 -74q-147 -96 -324 -96q-23 0 -33 2l-31 -125q36 8 72 8q77 0 122.5 -34.5t45.5 -90.5q0 -69 -56.5 -107.5t-140.5 -38.5q-73 0 -147 27l14 49q67 -24 131 -24 q63 0 101.5 23.5t38.5 68.5q0 78 -123 78q-60 0 -123 -19l-6 8l47 185q-96 23 -147.5 99.5t-51.5 199.5v704h-221z" />
<glyph unicode="&#x164;" horiz-adv-x="1273" d="M43 1309v84h1188v-84h-531v-1309h-90v1309h-567zM379 1839h88l188 -215l189 215h86l-228 -270h-96z" />
<glyph unicode="&#x165;" horiz-adv-x="966" d="M86 993v78h221l8 272h82v-272h463v-78h-463v-692q0 -116 56 -178t161 -62q64 0 139.5 25.5t129.5 63.5l35 -74q-147 -96 -324 -96q-136 0 -211.5 80t-75.5 229v704h-221zM854 1321q0 43 22.5 65.5t61.5 22.5q43 0 67.5 -25.5t24.5 -66.5q0 -59 -21 -126t-51 -114l-55 21 l47 145q-47 1 -71.5 23t-24.5 55z" />
<glyph unicode="&#x166;" horiz-adv-x="1273" d="M43 1309v84h1188v-84h-531v-588h263v-62h-263v-659h-90v659h-260v62h260v588h-567z" />
<glyph unicode="&#x167;" horiz-adv-x="978" d="M94 993v78h225l7 272h77v-272h465v-78h-465v-399h336v-62h-336v-231q0 -116 56.5 -178t163.5 -62q64 0 139 26t127 65l37 -76q-147 -96 -324 -96q-138 0 -213.5 79.5t-75.5 229.5v243h-184v62h184v399h-219z" />
<glyph unicode="&#x168;" horiz-adv-x="1599" d="M215 557v836h90v-832q0 -231 123 -365.5t369 -134.5q125 0 222 39t156 108.5t89 159t30 195.5v830h90v-836q0 -119 -37 -222.5t-107.5 -184.5t-184.5 -128t-258 -47t-255.5 43t-182.5 121.5t-107.5 184t-36.5 233.5zM469 1667q29 54 77.5 92.5t108.5 38.5 q35 0 77.5 -22.5t75 -50t70.5 -50t64 -22.5q89 0 143 106l41 -45q-30 -56 -78 -94.5t-106 -38.5q-34 0 -76.5 22.5t-75.5 50t-71 50t-64 22.5q-88 0 -145 -104z" />
<glyph unicode="&#x169;" d="M199 455v616h90v-606q0 -116 38 -203.5t121 -140.5t203 -53q155 0 264 84t142 215v704h90v-1071h-90v223q-59 -115 -168.5 -178t-257.5 -63q-141 0 -240 63t-145.5 168t-46.5 242zM356 1346q29 53 78 92t109 39q35 0 77.5 -23t75 -50t70 -50t63.5 -23q90 0 144 107 l41 -45q-30 -56 -78.5 -94.5t-106.5 -38.5q-34 0 -76.5 22.5t-75 50t-70.5 50t-64 22.5q-89 0 -146 -105z" />
<glyph unicode="&#x16a;" horiz-adv-x="1599" d="M215 557v836h90v-832q0 -231 123 -365.5t369 -134.5q125 0 222 39t156 108.5t89 159t30 195.5v830h90v-836q0 -119 -37 -222.5t-107.5 -184.5t-184.5 -128t-258 -47t-255.5 43t-182.5 121.5t-107.5 184t-36.5 233.5zM557 1640v74h481v-74h-481z" />
<glyph unicode="&#x16b;" d="M199 455v616h90v-606q0 -116 38 -203.5t121 -140.5t203 -53q155 0 264 84t142 215v704h90v-1071h-90v223q-59 -115 -168.5 -178t-257.5 -63q-141 0 -240 63t-145.5 168t-46.5 242zM440 1319v74h482v-74h-482z" />
<glyph unicode="&#x16c;" horiz-adv-x="1599" d="M215 557v836h90v-832q0 -231 123 -365.5t369 -134.5q125 0 222 39t156 108.5t89 159t30 195.5v830h90v-836q0 -119 -37 -222.5t-107.5 -184.5t-184.5 -128t-258 -47t-255.5 43t-182.5 121.5t-107.5 184t-36.5 233.5zM539 1741l39 41q83 -119 221 -119q80 0 133.5 34.5 t83.5 84.5l41 -41q-36 -62 -100 -106t-158 -44q-93 0 -158.5 44.5t-101.5 105.5z" />
<glyph unicode="&#x16d;" d="M199 455v616h90v-606q0 -116 38 -203.5t121 -140.5t203 -53q155 0 264 84t142 215v704h90v-1071h-90v223q-59 -115 -168.5 -178t-257.5 -63q-141 0 -240 63t-145.5 168t-46.5 242zM430 1419l39 41q83 -119 221 -119q80 0 133.5 34.5t83.5 84.5l41 -41 q-35 -62 -99.5 -105.5t-158.5 -43.5q-93 0 -158.5 44.5t-101.5 104.5z" />
<glyph unicode="&#x16e;" horiz-adv-x="1599" d="M215 557v836h90v-832q0 -231 123 -365.5t369 -134.5q125 0 222 39t156 108.5t89 159t30 195.5v830h90v-836q0 -119 -37 -222.5t-107.5 -184.5t-184.5 -128t-258 -47t-255.5 43t-182.5 121.5t-107.5 184t-36.5 233.5zM598 1612q0 83 59 141.5t142 58.5t141.5 -58.5 t58.5 -141.5t-58.5 -142t-141.5 -59t-142 59t-59 142zM653 1612q0 -60 43 -103t103 -43t101.5 43t41.5 103t-41.5 101.5t-101.5 41.5t-103 -41.5t-43 -101.5z" />
<glyph unicode="&#x16f;" d="M199 455v616h90v-606q0 -116 38 -203.5t121 -140.5t203 -53q155 0 264 84t142 215v704h90v-1071h-90v223q-59 -115 -168.5 -178t-257.5 -63q-141 0 -240 63t-145.5 168t-46.5 242zM469 1372q0 83 59 142t142 59t141.5 -59t58.5 -142t-58.5 -142t-141.5 -59t-142 59 t-59 142zM524 1372q0 -60 43 -102.5t103 -42.5t101.5 42.5t41.5 102.5t-41.5 102t-101.5 42t-103 -42t-43 -102z" />
<glyph unicode="&#x170;" horiz-adv-x="1599" d="M215 557v836h90v-832q0 -231 123 -365.5t369 -134.5q125 0 222 39t156 108.5t89 159t30 195.5v830h90v-836q0 -119 -37 -222.5t-107.5 -184.5t-184.5 -128t-258 -47t-255.5 43t-182.5 121.5t-107.5 184t-36.5 233.5zM590 1569l168 270h98l-178 -270h-88zM909 1569 l170 270h97l-179 -270h-88z" />
<glyph unicode="&#x171;" d="M199 455v616h90v-606q0 -116 38 -203.5t121 -140.5t203 -53q155 0 264 84t142 215v704h90v-1071h-90v223q-59 -115 -168.5 -178t-257.5 -63q-141 0 -240 63t-145.5 168t-46.5 242zM459 1247l168 271h98l-178 -271h-88zM778 1247l170 271h96l-178 -271h-88z" />
<glyph unicode="&#x172;" horiz-adv-x="1599" d="M215 557v836h90v-832q0 -231 123 -365.5t369 -134.5q125 0 222 39t156 108.5t89 159t30 195.5v830h90v-836q0 -119 -37 -222.5t-107.5 -184t-183.5 -127.5t-255 -48q57 39 135 50l53 -23q-90 -12 -150.5 -52.5t-60.5 -111.5q0 -60 36 -92.5t95 -32.5q65 0 121 33l10 -59 q-72 -33 -139 -33q-81 0 -132.5 46t-51.5 130q0 90 84 145h-4q-144 0 -255.5 43t-182.5 121.5t-107.5 184t-36.5 233.5z" />
<glyph unicode="&#x173;" d="M199 455v616h90v-606q0 -116 38 -203.5t121 -140.5t203 -53q155 0 264 84t142 215v704h90v-1071h-8q-91 -5 -152 -47t-61 -115q0 -60 36 -92.5t95 -32.5q65 0 121 33l12 -59q-76 -33 -141 -33q-81 0 -132 46t-51 130q0 79 58.5 130t132.5 63v200q-59 -115 -168.5 -178 t-257.5 -63q-141 0 -240 63t-145.5 168t-46.5 242z" />
<glyph unicode="&#x174;" horiz-adv-x="2217" d="M82 1393h94l535 -1291l360 805l-201 486h97l526 -1282l565 1282h94l-612 -1393h-94l-336 803l-356 -803h-95zM836 1569l227 270h96l227 -270h-86l-190 215l-186 -215h-88z" />
<glyph unicode="&#x175;" horiz-adv-x="2045" d="M92 1071h98l390 -987l391 987h106l387 -987l391 987h101l-436 -1071h-109l-389 985l-389 -985h-111zM752 1247l227 271h96l228 -271h-86l-191 215l-186 -215h-88z" />
<glyph unicode="&#x176;" horiz-adv-x="1413" d="M68 1384v9h100l539 -709l538 709h101v-9l-594 -782v-602h-90v600zM430 1569l227 270h97l227 -270h-86l-190 215l-187 -215h-88z" />
<glyph unicode="&#x177;" horiz-adv-x="1253" d="M37 -330l22 78q107 -72 224 -72q102 0 162 56.5t112 177.5l39 94l-526 1067h100l469 -971l418 971h94l-506 -1167q-33 -76 -64 -128t-73.5 -96t-98 -65t-126.5 -21q-131 0 -246 76zM350 1247l228 271h96l227 -271h-86l-190 215l-187 -215h-88z" />
<glyph unicode="&#x178;" horiz-adv-x="1413" d="M68 1384v9h100l539 -709l538 709h101v-9l-594 -782v-602h-90v600zM385 1698q0 69 68 69q63 0 63 -69q0 -70 -63 -70q-31 0 -49.5 17.5t-18.5 52.5zM893 1698q0 69 68 69q63 0 63 -69q0 -70 -63 -70q-68 0 -68 70z" />
<glyph unicode="&#x179;" horiz-adv-x="1224" d="M109 0v74l892 1237h-892v82h1007v-74l-891 -1237h891v-82h-1007zM561 1569l168 270h98l-178 -270h-88z" />
<glyph unicode="&#x17a;" horiz-adv-x="1085" d="M119 0v74l733 919h-733v78h848v-74l-734 -919h734v-78h-848zM487 1247l168 271h99l-179 -271h-88z" />
<glyph unicode="&#x17b;" horiz-adv-x="1224" d="M109 0v74l892 1237h-892v82h1007v-74l-891 -1237h891v-82h-1007zM555 1700q0 69 70 69q65 0 65 -69q0 -36 -18 -54t-47 -18q-70 0 -70 72z" />
<glyph unicode="&#x17c;" horiz-adv-x="1085" d="M119 0v74l733 919h-733v78h848v-74l-734 -919h734v-78h-848zM494 1378q0 70 69 70q66 0 66 -70q0 -36 -18 -53.5t-48 -17.5q-69 0 -69 71z" />
<glyph unicode="&#x17d;" horiz-adv-x="1224" d="M109 0v74l892 1237h-892v82h1007v-74l-891 -1237h891v-82h-1007zM346 1839h88l189 -215l188 215h86l-227 -270h-97z" />
<glyph unicode="&#x17e;" horiz-adv-x="1085" d="M119 0v74l733 919h-733v78h848v-74l-734 -919h734v-78h-848zM279 1518h88l188 -215l188 215h86l-227 -271h-96z" />
<glyph unicode="&#x192;" horiz-adv-x="1062" d="M78 -305l33 72q22 -25 40.5 -41t56.5 -32t81 -16q103 0 150.5 62.5t47.5 167.5v772h-348v68h348v419q0 140 69.5 224t205.5 84q138 0 225 -101l-31 -74q-81 91 -180 91q-104 0 -151 -61.5t-47 -166.5v-415h354v-68h-354v-772q0 -142 -69.5 -228t-205.5 -86 q-74 0 -133 30.5t-92 70.5z" />
<glyph unicode="&#x1fa;" horiz-adv-x="1435" d="M63 0l596 1354q-61 13 -96 51t-35 102q0 79 55 118.5t144 39.5t143 -39.5t54 -118.5q0 -64 -35 -102t-96 -51l561 -1354h-92l-150 356h-799l-157 -356h-93zM342 432h743l-360 866zM582 1507q0 -56 40 -82t105 -26q143 0 143 108q0 55 -39 81t-104 26t-105 -26t-40 -81z M682 1714l90 144h82l-96 -144h-76z" />
<glyph unicode="&#x1fb;" horiz-adv-x="1181" d="M117 307q0 130 71.5 216.5t188.5 124.5t274 38q131 0 240 -33v52q0 148 -79 225.5t-234 77.5q-182 0 -334 -76l-21 82q71 35 170.5 55.5t190.5 20.5q194 0 295.5 -101t101.5 -282v-707h-90v135q-163 -155 -387 -155q-178 0 -282.5 88t-104.5 239zM207 313 q0 -119 85 -187.5t230 -68.5q206 0 369 154v373q-86 28 -227 28q-99 0 -180 -17t-144 -51.5t-98 -93.5t-35 -137zM408 1348q0 80 56 120.5t144 40.5q89 0 145 -41t56 -120q0 -80 -56.5 -121t-144.5 -41t-144 41t-56 121zM463 1348q0 -57 40 -83t105 -26t104.5 26t39.5 83 q0 106 -144 106q-145 0 -145 -106zM563 1554l90 144h82l-96 -144h-76z" />
<glyph unicode="&#x1fc;" horiz-adv-x="2154" d="M31 0l911 1393h1077v-84h-954v-541h805v-78h-805v-608h954v-82h-1042v356h-608l-236 -356h-102zM414 432h563v862zM1370 1569l168 270h98l-178 -270h-88z" />
<glyph unicode="&#x1fd;" horiz-adv-x="1953" d="M117 307q0 128 72 214.5t190.5 124.5t277.5 38q150 0 234 -20q0 97 -11.5 157t-44 104.5t-91.5 63.5t-152 19q-199 0 -348 -76l-21 82q150 73 379 73q83 0 144.5 -15.5t98.5 -39t61.5 -63t35.5 -77t19 -91.5q19 52 52 100.5t82 95t120.5 75t154.5 28.5q109 0 195 -36 t139 -98t80.5 -141.5t27.5 -171.5t-16 -151h-813q2 -80 14 -144.5t40.5 -123.5t72.5 -98.5t113.5 -63t160.5 -23.5q112 0 198 35.5t169 99.5l43 -67q-90 -71 -189 -108.5t-227 -37.5q-162 0 -273.5 70t-154.5 195q-189 -256 -440 -256q-180 0 -286.5 88t-106.5 239zM207 313 q0 -120 85.5 -188t229.5 -68q122 0 217.5 68.5t151.5 159.5v309q-103 22 -229 22q-135 -1 -233.5 -30t-160 -98t-61.5 -175zM928 1247l168 271h98l-178 -271h-88zM987 573h739q7 47 7 86q0 74 -22.5 139.5t-66 117t-113 81t-157.5 29.5q-97 0 -173.5 -41t-121.5 -108 t-68 -144.5t-24 -159.5z" />
<glyph unicode="&#x1fe;" horiz-adv-x="1710" d="M139 694q0 152 54.5 285.5t149.5 228.5t227.5 150t283.5 55q245 0 432 -135l94 115h76v-9l-119 -147q111 -99 173.5 -239.5t62.5 -303.5q0 -201 -93 -364.5t-258 -256.5t-368 -93q-244 0 -428 133l-90 -113h-78v10l117 144q-111 99 -173.5 238.5t-62.5 301.5zM227 694 q0 -144 53 -265.5t150 -207.5l801 987q-160 119 -377 119q-270 0 -448.5 -180t-178.5 -453zM481 180q157 -114 373 -114q134 0 251 48t200 131t130.5 199.5t47.5 249.5q0 144 -52.5 265.5t-148.5 209.5zM805 1569l168 270h98l-178 -270h-88z" />
<glyph unicode="&#x1ff;" horiz-adv-x="1409" d="M137 532q0 161 71.5 291t201 203.5t292.5 73.5q214 0 361 -119l72 88h65v-8l-94 -117q79 -76 122.5 -182.5t43.5 -229.5q0 -243 -160 -402t-410 -159q-181 0 -317 88l-47 -59h-66v10l66 82q-95 76 -148 190t-53 250zM225 532q0 -114 44.5 -210t123.5 -162l615 753 q-131 101 -306 101q-209 0 -343 -137.5t-134 -344.5zM440 127q113 -72 262 -72q140 0 250.5 63t171 171.5t60.5 242.5q0 210 -135 345zM653 1247l168 271h99l-179 -271h-88z" />
<glyph unicode="&#x218;" horiz-adv-x="1292" d="M137 1038q0 76 32 142t94 118t165 82.5t234 30.5q130 0 258 -33t210 -80l-28 -84q-72 45 -199.5 78t-243.5 33q-108 0 -192.5 -23t-135 -62.5t-76.5 -89t-26 -106.5q0 -186 263 -249l294 -70q189 -46 283 -123.5t94 -216.5q0 -184 -153.5 -294.5t-395.5 -110.5 q-133 0 -261 37.5t-206 84.5l27 86q77 -46 197 -84t245 -38q199 0 327 85.5t128 229.5q0 101 -76.5 162.5t-240.5 97.5l-285 66q-161 37 -246.5 120.5t-85.5 210.5zM524 -238q0 43 22.5 65.5t61.5 22.5q43 0 67.5 -25.5t24.5 -66.5q0 -59 -21 -125.5t-50 -113.5l-56 20 l48 146q-47 1 -72 22.5t-25 54.5z" />
<glyph unicode="&#x219;" horiz-adv-x="1093" d="M154 72l20 84q176 -97 369 -97q152 0 243 65t91 163q0 76 -60 120t-184 72l-180 43q-160 35 -229.5 91t-69.5 167q0 142 106 226t299 84q94 0 199 -24t168 -56l-27 -82q-66 34 -160.5 58t-183.5 24q-150 0 -231.5 -60t-81.5 -166q0 -77 53 -114t188 -68l179 -43 q155 -35 230 -98t75 -170q0 -136 -115 -223.5t-307 -87.5q-216 0 -391 92zM444 -238q0 43 22.5 65.5t61.5 22.5q43 0 68 -25.5t25 -66.5q0 -58 -21 -125t-51 -114l-55 20l47 146q-47 1 -72 22.5t-25 54.5z" />
<glyph unicode="&#x21a;" horiz-adv-x="1273" d="M43 1309v84h1188v-84h-531v-1309h-90v1309h-567zM549 -238q0 43 22.5 65.5t61.5 22.5q43 0 67.5 -25.5t24.5 -66.5q0 -58 -21 -125t-51 -114l-55 20l47 146q-47 1 -71.5 22.5t-24.5 54.5z" />
<glyph unicode="&#x21b;" horiz-adv-x="970" d="M86 993v78h221l8 272h82v-272h463v-78h-463v-692q0 -116 56 -178t161 -62q64 0 139.5 25.5t129.5 63.5l35 -74q-147 -96 -324 -96q-136 0 -211.5 80t-75.5 229v704h-221zM461 -238q0 43 22.5 65.5t61.5 22.5q43 0 67.5 -25.5t24.5 -66.5q0 -58 -21 -125t-51 -114l-55 20 l47 146q-47 1 -71.5 22.5t-24.5 54.5z" />
<glyph unicode="&#x2c6;" horiz-adv-x="1228" d="M352 1247l228 271h96l227 -271h-86l-190 215l-187 -215h-88z" />
<glyph unicode="&#x2da;" horiz-adv-x="1228" d="M428 1290q0 83 59 142t142 59t141.5 -59t58.5 -142t-58.5 -141.5t-141.5 -58.5t-142 58.5t-59 141.5zM483 1290q0 -60 43 -102.5t103 -42.5t101.5 42.5t41.5 102.5t-41.5 102t-101.5 42t-103 -42t-43 -102z" />
<glyph unicode="&#x2dc;" horiz-adv-x="1228" d="M299 1346q29 54 77.5 92.5t108.5 38.5q35 0 77.5 -23t75 -50t70.5 -50t64 -23q89 0 143 107l41 -45q-30 -56 -78 -94.5t-106 -38.5q-34 0 -76.5 22.5t-75.5 50t-71 50t-64 22.5q-88 0 -145 -105z" />
<glyph unicode="&#x1e80;" horiz-adv-x="2217" d="M82 1393h94l535 -1291l360 805l-201 486h97l526 -1282l565 1282h94l-612 -1393h-94l-336 803l-356 -803h-95zM897 1839h98l168 -270h-88z" />
<glyph unicode="&#x1e81;" horiz-adv-x="2045" d="M92 1071h98l390 -987l391 987h106l387 -987l391 987h101l-436 -1071h-109l-389 985l-389 -985h-111zM823 1518h99l168 -271h-89z" />
<glyph unicode="&#x1e82;" horiz-adv-x="2217" d="M82 1393h94l535 -1291l360 805l-201 486h97l526 -1282l565 1282h94l-612 -1393h-94l-336 803l-356 -803h-95zM1044 1569l168 270h99l-178 -270h-89z" />
<glyph unicode="&#x1e83;" horiz-adv-x="2045" d="M92 1071h98l390 -987l391 987h106l387 -987l391 987h101l-436 -1071h-109l-389 985l-389 -985h-111zM954 1247l168 271h99l-179 -271h-88z" />
<glyph unicode="&#x1e84;" horiz-adv-x="2217" d="M82 1393h94l535 -1291l360 805l-201 486h97l526 -1282l565 1282h94l-612 -1393h-94l-336 803l-356 -803h-95zM793 1698q0 69 67 69q64 0 64 -69q0 -35 -17.5 -52.5t-46.5 -17.5q-31 0 -49 17.5t-18 52.5zM1300 1698q0 69 68 69q64 0 64 -69q0 -35 -17.5 -52.5 t-46.5 -17.5q-68 0 -68 70z" />
<glyph unicode="&#x1e85;" horiz-adv-x="2045" d="M92 1071h98l390 -987l391 987h106l387 -987l391 987h101l-436 -1071h-109l-389 985l-389 -985h-111zM707 1376q0 70 67 70q64 0 64 -70q0 -69 -64 -69q-67 0 -67 69zM1214 1376q0 70 68 70q64 0 64 -70q0 -69 -64 -69q-68 0 -68 69z" />
<glyph unicode="&#x1ef2;" horiz-adv-x="1413" d="M68 1384v9h100l539 -709l538 709h101v-9l-594 -782v-602h-90v600zM487 1839h99l168 -270h-88z" />
<glyph unicode="&#x1ef3;" horiz-adv-x="1253" d="M37 -330l22 78q107 -72 224 -72q102 0 162 56.5t112 177.5l39 94l-526 1067h100l469 -971l418 971h94l-506 -1167q-33 -76 -64 -128t-73.5 -96t-98 -65t-126.5 -21q-131 0 -246 76zM430 1518h98l168 -271h-88z" />
<glyph unicode="&#x2000;" horiz-adv-x="929" />
<glyph unicode="&#x2001;" horiz-adv-x="1858" />
<glyph unicode="&#x2002;" horiz-adv-x="929" />
<glyph unicode="&#x2003;" horiz-adv-x="1858" />
<glyph unicode="&#x2004;" horiz-adv-x="619" />
<glyph unicode="&#x2005;" horiz-adv-x="464" />
<glyph unicode="&#x2006;" horiz-adv-x="309" />
<glyph unicode="&#x2007;" horiz-adv-x="309" />
<glyph unicode="&#x2008;" horiz-adv-x="232" />
<glyph unicode="&#x2009;" horiz-adv-x="371" />
<glyph unicode="&#x200a;" horiz-adv-x="103" />
<glyph unicode="&#x2010;" horiz-adv-x="1107" d="M184 580v79h740v-79h-740z" />
<glyph unicode="&#x2011;" horiz-adv-x="1107" d="M184 580v79h740v-79h-740z" />
<glyph unicode="&#x2012;" horiz-adv-x="1107" d="M184 580v79h740v-79h-740z" />
<glyph unicode="&#x2013;" horiz-adv-x="1294" d="M184 580v79h928v-79h-928z" />
<glyph unicode="&#x2014;" horiz-adv-x="1759" d="M184 580v79h1391v-79h-1391z" />
<glyph unicode="&#x2018;" horiz-adv-x="512" d="M158 1006q0 76 45.5 211t79.5 196l59 -24l-96 -295q47 -3 72.5 -27.5t25.5 -60.5q0 -49 -24 -75t-68 -26t-69 29t-25 72z" />
<glyph unicode="&#x2019;" horiz-adv-x="505" d="M172 926l100 295q-47 3 -72.5 27.5t-25.5 60.5q0 49 24.5 74.5t67.5 25.5q44 0 69 -28.5t25 -71.5q0 -74 -47.5 -211.5t-81.5 -196.5z" />
<glyph unicode="&#x201a;" horiz-adv-x="538" d="M174 -322l100 295q-47 3 -72.5 27.5t-25.5 60.5q0 49 24.5 75t67.5 26q44 0 69 -29t25 -72q0 -74 -47.5 -211t-81.5 -196z" />
<glyph unicode="&#x201c;" horiz-adv-x="854" d="M158 1014q0 75 45 208t78 191l53 -22l-94 -293q47 -1 71.5 -24.5t24.5 -59.5q0 -46 -23.5 -71t-64.5 -25q-42 0 -66 28t-24 68zM508 1014q0 75 45 208t78 191l53 -22l-94 -293q46 -1 71 -25t25 -59q0 -46 -23.5 -71t-64.5 -25q-42 0 -66 28t-24 68z" />
<glyph unicode="&#x201d;" horiz-adv-x="847" d="M172 1315q0 45 23 69.5t65 24.5q43 0 66.5 -27t23.5 -67q0 -72 -45 -209.5t-76 -190.5l-55 23l94 291q-46 3 -71 27t-25 59zM522 1315q0 45 23 69.5t65 24.5q43 0 66.5 -27t23.5 -67q0 -72 -45 -209.5t-77 -190.5l-54 23l94 291q-47 3 -71.5 26.5t-24.5 59.5z" />
<glyph unicode="&#x201e;" horiz-adv-x="880" d="M176 53q0 47 23 72t65 25t66 -28t24 -69q0 -72 -45.5 -207t-77.5 -192l-53 22l94 293q-46 1 -71 25t-25 59zM526 53q0 47 23 72t65 25t66.5 -28.5t24.5 -68.5q0 -72 -45.5 -207t-77.5 -192l-54 22l95 293q-47 1 -72 24.5t-25 59.5z" />
<glyph unicode="&#x2020;" horiz-adv-x="1245" d="M72 786v80h512v588h80v-588h510v-80h-510v-1171h-80v1171h-512z" />
<glyph unicode="&#x2021;" horiz-adv-x="1361" d="M129 172v80h512v534h-512v80h512v588h80v-588h510v-80h-510v-534h510v-80h-510v-557h-80v557h-512z" />
<glyph unicode="&#x2022;" horiz-adv-x="741" d="M225 618q0 75 38 115.5t106 40.5q71 0 109 -40.5t38 -115.5q0 -77 -38 -117t-109 -40q-69 0 -106.5 40t-37.5 117z" />
<glyph unicode="&#x2026;" horiz-adv-x="1406" d="M180 66q0 46 22.5 71t65.5 25t67.5 -25.5t24.5 -70.5q0 -47 -24.5 -72t-67.5 -25q-88 0 -88 97zM614 66q0 46 22.5 71t65.5 25t68 -25.5t25 -70.5q0 -47 -25 -72t-68 -25q-88 0 -88 97zM1049 66q0 46 22.5 71t65.5 25t67.5 -25.5t24.5 -70.5q0 -47 -24.5 -72t-67.5 -25 q-88 0 -88 97z" />
<glyph unicode="&#x202f;" horiz-adv-x="371" />
<glyph unicode="&#x2030;" horiz-adv-x="2490" d="M92 1065q0 150 97 248t249 98q153 0 250.5 -98t97.5 -248q0 -149 -97.5 -246.5t-250.5 -97.5q-151 0 -248.5 97.5t-97.5 246.5zM168 1065q0 -117 75.5 -193.5t194.5 -76.5q121 0 198 77t77 193q0 118 -77 195t-198 77q-119 0 -194.5 -77t-75.5 -195zM422 0v10l745 1383 h86v-9l-745 -1384h-86zM918 322q0 150 97.5 249t248.5 99q153 0 250.5 -99t97.5 -249q0 -149 -97.5 -245.5t-250.5 -96.5q-152 0 -249 97t-97 245zM993 322q0 -116 76 -192.5t195 -76.5q121 0 197.5 76.5t76.5 192.5q0 119 -76.5 196.5t-197.5 77.5q-119 0 -195 -77.5 t-76 -196.5zM1708 322q0 150 98 249t250 99q153 0 250.5 -99t97.5 -249q0 -149 -97.5 -245.5t-250.5 -96.5q-152 0 -250 97t-98 245zM1784 322q0 -116 76.5 -192.5t195.5 -76.5q120 0 196.5 76.5t76.5 192.5q0 119 -76 196.5t-197 77.5q-119 0 -195.5 -77.5t-76.5 -196.5z " />
<glyph unicode="&#x2039;" horiz-adv-x="655" d="M137 608v25l324 401h10l33 -37l-283 -376l283 -377l-33 -37h-10z" />
<glyph unicode="&#x203a;" horiz-adv-x="655" d="M152 995l32 39h11l323 -401v-25l-323 -401h-11l-30 37l280 377z" />
<glyph unicode="&#x2044;" horiz-adv-x="233" d="M-293 0v10l754 1383h65v-9l-753 -1384h-66z" />
<glyph unicode="&#x205f;" horiz-adv-x="464" />
<glyph unicode="&#x20ac;" horiz-adv-x="1304" d="M127 537v67h106q-2 29 -2 90q0 14 1 39t1 39h-106v68h111q30 276 171 424.5t357 148.5q217 0 393 -158l-35 -73q-160 145 -352 145q-181 0 -297 -123t-143 -364h631l-31 -68h-606q-2 -25 -2 -78q0 -61 2 -90h530l-31 -67h-493q30 -231 145 -351t293 -120q200 0 363 129 l36 -76q-174 -139 -403 -139q-214 0 -353.5 143.5t-172.5 413.5h-113z" />
<glyph unicode="&#x2122;" horiz-adv-x="1728" d="M147 1294v64h535v-64h-229v-563h-64v563h-242zM852 731v627h57l279 -340l278 340h60v-627h-64v529l-266 -328h-16l-265 328v-529h-63z" />
<glyph unicode="&#x25ca;" horiz-adv-x="1165" d="M106 674l441 717h67l445 -717l-445 -674h-67zM190 672l392 -594l391 594l-391 637z" />
<glyph unicode="&#x25fc;" horiz-adv-x="1075" d="M0 0v1075h1075v-1075h-1075z" />
<glyph unicode="&#xf8ff;" horiz-adv-x="1490" d="M221 0v1475h1049v-1475h-1049zM485 948h97q0 82 43.5 136.5t132.5 54.5q83 0 130.5 -44.5t47.5 -111.5q0 -39 -28 -74.5t-68 -65t-80 -63.5t-68 -85.5t-28 -114.5h98q0 45 20.5 83.5t51.5 63.5t67 53t67 53.5t51.5 64.5t20.5 85q0 105 -74.5 174.5t-207.5 69.5 q-65 0 -115.5 -20.5t-79 -51t-47.5 -70t-25 -73t-6 -64.5zM641 252h139v145h-139v-145z" />
<glyph unicode="&#xfb01;" horiz-adv-x="1470" d="M102 924v77h234v117q0 162 79.5 259.5t243.5 97.5q91 0 159.5 -36t111.5 -85l-37 -70q-93 107 -227 107q-125 0 -182.5 -73t-57.5 -200v-117h430v-77h-430v-924h-90v924h-234zM1149 1378q0 70 70 70q65 0 65 -70q0 -71 -65 -71q-70 0 -70 71zM1171 0v1071h91v-1071h-91z " />
<glyph unicode="&#xfb02;" horiz-adv-x="1566" d="M102 924v77h234v117q0 162 79.5 259.5t243.5 97.5q91 0 159.5 -36t111.5 -85l-37 -70q-93 107 -227 107q-125 0 -182.5 -73t-57.5 -200v-117h430v-77h-430v-924h-90v924h-234zM1151 207v1247h90v-1233q0 -83 38 -121.5t103 -38.5q69 0 140 48l18 -74q-73 -55 -180 -55 q-97 0 -153 55.5t-56 171.5z" />
</font>
</defs>
</svg>
