<?xml version="1.0" standalone="no"?>
<!DOCTYPE svg PUBLIC "-//W3C//DTD SVG 1.1//EN" "http://www.w3.org/Graphics/SVG/1.1/DTD/svg11.dtd" >
<svg xmlns="http://www.w3.org/2000/svg" xmlns:xlink="http://www.w3.org/1999/xlink" version="1.1">
<metadata></metadata>
<defs>
<font id="pluto_sansheavy" horiz-adv-x="1384" >
<font-face units-per-em="2048" ascent="1536" descent="-512" />
<missing-glyph horiz-adv-x="491" />
<glyph horiz-adv-x="0" />
<glyph horiz-adv-x="0" />
<glyph horiz-adv-x="682" />
<glyph unicode=" "  horiz-adv-x="491" />
<glyph unicode="&#x09;" horiz-adv-x="491" />
<glyph unicode="&#xa0;" horiz-adv-x="491" />
<glyph unicode="!" horiz-adv-x="649" d="M100 184q0 103 59.5 160t166.5 57q106 0 165.5 -57t59.5 -160q0 -102 -59.5 -157.5t-165.5 -55.5q-108 0 -167 55.5t-59 157.5zM127 1393h393l-76 -881h-243z" />
<glyph unicode="&#x22;" horiz-adv-x="1015" d="M121 1393h305l-18 -541h-271zM590 1393h305l-16 -541h-271z" />
<glyph unicode="#" horiz-adv-x="1431" d="M76 301v221h209l84 328h-166v221h223l82 322h217v-27l-76 -295h312l81 322h215v-27l-75 -295h178v-221h-234l-82 -328h189v-221h-244l-76 -301h-219v29l70 272h-307l-76 -301h-221v29l69 272h-153zM512 522h307l84 328h-309z" />
<glyph unicode="$" horiz-adv-x="1265" d="M76 965q0 179 129 300t364 142v170h125v-166q132 -4 259 -35.5t208 -75.5l-108 -337q-71 45 -169.5 78t-189.5 42v-221l119 -35q195 -60 284 -153t89 -234q0 -187 -132 -310.5t-360 -145.5v-248h-125v244q-135 6 -266.5 42t-206.5 78l92 342q80 -53 181.5 -90.5 t199.5 -44.5v234l-168 47q-167 47 -246 138.5t-79 238.5zM473 989q0 -34 21.5 -53.5t74.5 -34.5v178q-96 -20 -96 -90zM694 315q43 12 66.5 39t23.5 62q0 56 -90 88v-189z" />
<glyph unicode="%" horiz-adv-x="1900" d="M66 1024q0 166 112.5 277.5t282.5 111.5q171 0 285 -111.5t114 -277.5t-113.5 -275.5t-285.5 -109.5q-170 0 -282.5 109.5t-112.5 275.5zM317 1024q0 -61 41 -104t103 -43q63 0 103 42.5t40 104.5q0 63 -40 106.5t-103 43.5q-62 0 -103 -44t-41 -106zM461 0v29l743 1364 h221v-27l-739 -1366h-225zM1042 365q0 167 113 278t283 111q172 0 285.5 -111t113.5 -278q0 -166 -113.5 -275.5t-285.5 -109.5q-170 0 -283 109.5t-113 275.5zM1294 365q0 -61 41 -104.5t103 -43.5q63 0 103 43t40 105q0 63 -40 106t-103 43q-62 0 -103 -43.5t-41 -105.5z " />
<glyph unicode="&#x26;" horiz-adv-x="1640" d="M100 387q0 129 76 215.5t227 145.5q-72 75 -107.5 144t-35.5 159q0 159 122.5 260.5t369.5 101.5q233 0 364 -95.5t131 -258.5q0 -142 -91.5 -238.5t-242.5 -152.5l185 -164q148 142 237 309l279 -213q-126 -196 -264 -321l262 -236v-57h-428l-107 102 q-221 -108 -473 -108q-233 0 -368.5 110.5t-135.5 296.5zM502 440q0 -62 46 -102.5t130 -40.5q74 0 153 31l-235 229q-94 -52 -94 -117zM631 987q0 -37 21.5 -69.5t64.5 -73.5l10 4q78 26 115 59t37 82q0 40 -32 66t-95 26q-60 0 -90.5 -26.5t-30.5 -67.5z" />
<glyph unicode="'" horiz-adv-x="546" d="M121 1393h305l-18 -541h-271z" />
<glyph unicode="(" horiz-adv-x="692" d="M76 537q0 166 34 323.5t88 274t110.5 200t111.5 133.5l219 -120q-94 -148 -157.5 -358.5t-63.5 -454.5q0 -241 64 -452.5t157 -356.5l-219 -121q-55 50 -111.5 133.5t-110.5 200.5t-88 274.5t-34 323.5z" />
<glyph unicode=")" horiz-adv-x="692" d="M55 -274q93 144 156 355.5t63 453.5q0 244 -63 455t-156 358l217 120q55 -50 111.5 -133.5t110.5 -200t88 -274t34 -323.5t-34 -323.5t-88 -274.5t-110.5 -200.5t-111.5 -133.5z" />
<glyph unicode="*" horiz-adv-x="1120" d="M102 926l80 295l248 -101l-22 273h305l-23 -275l248 103l78 -295l-244 -58l162 -202l-229 -164l-146 235l-145 -233l-230 160l158 208z" />
<glyph unicode="+" horiz-adv-x="1169" d="M80 467v305h352v354h305v-354h353v-305h-353v-352h-305v352h-352z" />
<glyph unicode="," horiz-adv-x="638" d="M98 182q0 105 57 164.5t162 59.5q104 0 163 -60.5t59 -163.5q0 -122 -55 -270t-128 -268l-217 86l86 250q-127 41 -127 202z" />
<glyph unicode="-" horiz-adv-x="1110" d="M125 467v305h860v-305h-860z" />
<glyph unicode="." horiz-adv-x="645" d="M98 184q0 103 58.5 160t165.5 57q106 0 165.5 -57t59.5 -160q0 -102 -59.5 -157.5t-165.5 -55.5q-107 0 -165.5 55t-58.5 158z" />
<glyph unicode="/" horiz-adv-x="1064" d="M49 0v29l744 1364h221v-27l-740 -1366h-225z" />
<glyph unicode="0" horiz-adv-x="1441" d="M94 694q0 339 161.5 529t463.5 190q305 0 467 -190t162 -529q0 -336 -162 -525t-467 -189q-302 0 -463.5 189t-161.5 525zM475 694q0 -356 244 -356q71 0 121 27.5t76.5 79t37.5 111.5t11 138q0 79 -11 140.5t-37.5 113t-76.5 79.5t-121 28q-244 0 -244 -361z" />
<glyph unicode="1" horiz-adv-x="1064" d="M6 1036l608 357h285v-1393h-393v946l-350 -203z" />
<glyph unicode="2" horiz-adv-x="1333" d="M80 897q6 240 157 378t414 138q136 0 243 -36.5t173 -100.5t100.5 -147t34.5 -181q0 -132 -65.5 -243t-225.5 -218l-217 -147h539v-340h-1106v291l510 379q87 64 124.5 122t37.5 121q0 60 -41 101t-113 41q-106 0 -157.5 -61t-51.5 -167z" />
<glyph unicode="3" horiz-adv-x="1273" d="M78 1339q75 27 213 50.5t256 23.5q586 0 586 -397q0 -102 -59 -180.5t-163 -108.5q135 -39 203 -123t68 -221q0 -187 -159.5 -295t-475.5 -108q-127 0 -256 26t-207 53l94 324q64 -26 168 -49t201 -23q109 0 170 36t61 97q0 62 -54 89.5t-165 27.5h-297v299h297 q87 0 131.5 31.5t44.5 85.5q0 102 -205 102q-74 0 -175 -20t-191 -53z" />
<glyph unicode="4" horiz-adv-x="1421" d="M51 229v254l576 910h516v-865h200v-299h-200v-229h-393v229h-699zM453 528h297v473z" />
<glyph unicode="5" horiz-adv-x="1267" d="M68 66l98 321q65 -29 165 -52.5t201 -23.5q110 0 174 38.5t64 109.5q0 125 -211 125h-401l-15 14l68 795h915v-340h-585l-15 -185h58q587 0 587 -401q0 -241 -162 -364t-456 -123q-249 0 -485 86z" />
<glyph unicode="6" horiz-adv-x="1396" d="M94 698q0 327 172 521t484 194q146 0 279 -29.5t214 -62.5l-100 -320q-66 31 -160.5 55.5t-185.5 24.5q-142 0 -211.5 -65.5t-87.5 -190.5q134 90 305 90q248 0 378 -113t130 -319q0 -230 -157.5 -366.5t-408.5 -136.5q-310 0 -480.5 194t-170.5 524zM502 551 q46 -213 243 -213q83 0 129 41.5t46 103.5q0 138 -181 138q-112 0 -237 -70z" />
<glyph unicode="7" horiz-adv-x="1177" d="M61 1053v340h1074v-271l-527 -1122h-430v37l516 1016h-633z" />
<glyph unicode="8" horiz-adv-x="1415" d="M92 383q0 141 69 225.5t210 118.5q-108 27 -170 107t-62 182q0 195 143 296t425 101q283 0 425 -101t142 -296q0 -102 -61.5 -182t-168.5 -107q141 -34 210 -118.5t69 -225.5q0 -186 -156 -294.5t-460 -108.5q-303 0 -459 108.5t-156 294.5zM492 440q0 -61 56.5 -102 t158.5 -41t159.5 41t57.5 102q0 60 -54.5 100t-160.5 40q-108 0 -162.5 -40t-54.5 -100zM530 981q0 -54 44 -86.5t135 -32.5q89 0 131.5 32.5t42.5 86.5q0 57 -45 89t-131 32t-131.5 -32t-45.5 -89z" />
<glyph unicode="9" horiz-adv-x="1394" d="M84 909q0 230 158 367t409 137q206 0 353.5 -90t221.5 -251t74 -378q0 -328 -170.5 -521t-482.5 -193q-146 0 -280.5 29.5t-214.5 62.5l102 319q66 -31 160 -55.5t184 -24.5q142 0 211.5 65t89.5 189q-135 -88 -305 -88q-249 0 -379.5 113t-130.5 319zM477 909 q0 -137 178 -137q116 0 238 68q-46 215 -242 215q-84 0 -129 -42t-45 -104z" />
<glyph unicode=":" horiz-adv-x="679" d="M121 176q0 100 56.5 154.5t160.5 54.5q103 0 161 -55t58 -154t-58 -153t-161 -54q-104 0 -160.5 53.5t-56.5 153.5zM121 889q0 100 56.5 154.5t160.5 54.5q103 0 161 -55t58 -154t-58 -153t-161 -54q-104 0 -160.5 53.5t-56.5 153.5z" />
<glyph unicode=";" horiz-adv-x="679" d="M115 889q0 100 56.5 154.5t160.5 54.5q103 0 161 -55t58 -154t-58 -153t-161 -54q-104 0 -160.5 53.5t-56.5 153.5zM131 174q0 100 55 156.5t156 56.5t158 -57t57 -156q0 -118 -53 -260.5t-123 -257.5l-209 82l82 239q-123 42 -123 197z" />
<glyph unicode="&#x3c;" horiz-adv-x="1212" d="M76 463v299l983 364h26v-292l-702 -216l702 -210v-297h-26z" />
<glyph unicode="=" horiz-adv-x="1277" d="M133 184v305h1012v-305h-1012zM133 750v305h1012v-305h-1012z" />
<glyph unicode="&#x3e;" horiz-adv-x="1210" d="M125 111v297l702 210l-702 216v292h27l983 -364v-299l-983 -352h-27z" />
<glyph unicode="?" horiz-adv-x="1017" d="M70 1298q197 115 438 115q202 0 317 -104t115 -271q0 -62 -13.5 -111.5t-41.5 -86.5t-52.5 -59.5t-64.5 -51.5l-121 -82q-24 -19 -32.5 -27t-16.5 -23.5t-8 -37.5q0 -18 10 -53h-321q-2 5 -9 23.5t-9.5 26.5t-7 23t-6 29.5t-1.5 30.5q0 104 127 190l106 74q64 43 64 107 q0 36 -25 58t-69 22q-66 0 -149.5 -31.5t-135.5 -71.5zM217 184q0 103 58 160t165 57q106 0 166 -57.5t60 -159.5t-59.5 -157.5t-166.5 -55.5t-165 55t-58 158z" />
<glyph unicode="@" horiz-adv-x="1996" d="M86 539q0 199 70.5 373t193.5 297t295.5 193.5t370.5 70.5q199 0 369.5 -62.5t289.5 -171.5t186.5 -260.5t67.5 -325.5q0 -315 -140 -472.5t-398 -157.5q-184 0 -244 129q-99 -127 -281 -127q-193 0 -314.5 139t-121.5 356q0 220 121.5 361t314.5 141q162 0 254 -102v86 h377v-697q0 -53 15 -74.5t59 -21.5q79 0 142 112.5t63 323.5q0 146 -54 271t-152 214t-240.5 139t-313.5 50q-228 0 -404.5 -98.5t-274 -277t-97.5 -408.5q0 -171 57 -317t158 -249.5t246 -162t315 -58.5q204 0 373 82l53 -137q-196 -94 -426 -94q-198 0 -370.5 71.5 t-295.5 195.5t-193.5 297.5t-70.5 371.5zM815 520q0 -79 44 -125.5t118 -46.5q83 0 143 49v250q-25 22 -65 35.5t-78 13.5q-75 0 -118.5 -46.5t-43.5 -129.5z" />
<glyph unicode="A" horiz-adv-x="1501" d="M-2 0l522 1393h463l518 -1393h-397l-84 236h-543l-82 -236h-397zM575 524h349l-172 482z" />
<glyph unicode="B" horiz-adv-x="1488" d="M162 0v1393h645q243 0 371.5 -94t128.5 -285q0 -100 -49 -172.5t-140 -114.5q299 -72 299 -346q0 -179 -134.5 -280t-381.5 -101h-739zM555 301h287q78 0 117.5 32.5t39.5 92.5q0 127 -165 127h-279v-252zM555 856h193q155 0 155 119q0 121 -153 121h-195v-240z" />
<glyph unicode="C" horiz-adv-x="1439" d="M80 696q0 151 57 284t155 228t236 150t295 55q322 0 555 -213l-178 -285q-82 63 -165.5 99.5t-196.5 36.5q-157 0 -254 -103t-97 -252t97 -251.5t254 -102.5q113 0 197 36.5t165 98.5l178 -284q-233 -213 -555 -213q-209 0 -379.5 93.5t-267 257.5t-96.5 365z" />
<glyph unicode="D" horiz-adv-x="1615" d="M162 0v1393h647q155 -1 286 -47t227.5 -132.5t151 -220t54.5 -299.5q0 -165 -54.5 -297.5t-151 -218.5t-227.5 -132t-286 -46h-647zM555 340h238q150 0 239.5 94t89.5 260q0 169 -89.5 264t-239.5 95h-238v-713z" />
<glyph unicode="E" horiz-adv-x="1398" d="M162 0v1393h1134v-342h-759v-185h610v-321h-610v-203h759v-342h-1134z" />
<glyph unicode="F" horiz-adv-x="1316" d="M162 0v1393h1093v-342h-718v-283h608v-342h-608v-426h-375z" />
<glyph unicode="G" horiz-adv-x="1533" d="M82 694q0 166 58 303t158 227t235 139.5t290 49.5q312 0 551 -182l-178 -299q-150 119 -362 119q-153 0 -249 -94.5t-96 -262.5q0 -166 98.5 -259t262.5 -93q108 0 221 47v158h-307v276h663v-645q-100 -80 -274 -139t-330 -59q-155 0 -290 49t-235 139t-158 226t-58 300z " />
<glyph unicode="H" horiz-adv-x="1691" d="M162 0v1393h393v-519h582v519h393v-1393h-393v535h-582v-535h-393z" />
<glyph unicode="I" horiz-adv-x="716" d="M162 0v1393h393v-1393h-393z" />
<glyph unicode="J" horiz-adv-x="1310" d="M25 551l387 35q8 -131 46 -194.5t136 -63.5q101 0 138.5 67t37.5 201v797h393v-824q0 -132 -34 -238.5t-102 -185.5t-178.5 -122t-256.5 -43q-144 0 -251 40t-173 117t-100.5 179t-42.5 235z" />
<glyph unicode="K" horiz-adv-x="1517" d="M162 0v1393h393v-529h139l371 529h403v-60l-464 -641l483 -651v-41h-438l-363 524h-131v-524h-393z" />
<glyph unicode="L" horiz-adv-x="1253" d="M162 0v1393h393v-1053h668v-340h-1061z" />
<glyph unicode="M" horiz-adv-x="1933" d="M162 0v1393h330l475 -551l475 551h330v-1393h-394v774l-379 -455h-65l-379 455v-774h-393z" />
<glyph unicode="N" horiz-adv-x="1689" d="M162 0v1393h340l633 -768v768h393v-1393h-340l-633 766v-766h-393z" />
<glyph unicode="O" horiz-adv-x="1597" d="M82 694q0 152 54.5 285.5t149.5 228.5t227.5 150t283.5 55q152 0 285.5 -55t228.5 -150t150 -228.5t55 -285.5q0 -201 -93 -364.5t-258 -256.5t-368 -93q-201 0 -365 93t-257 256.5t-93 364.5zM467 694q0 -147 93.5 -246.5t238.5 -99.5q146 0 238.5 99.5t92.5 246.5 q0 150 -92.5 249t-238.5 99q-145 0 -238.5 -99.5t-93.5 -248.5z" />
<glyph unicode="P" horiz-adv-x="1447" d="M162 0v1393h717q107 0 199.5 -32.5t164.5 -95t113 -164t41 -231.5q0 -157 -71.5 -275.5t-188 -178.5t-258.5 -60h-324v-356h-393zM555 696h260q76 0 126 49.5t50 126.5q0 81 -50 131t-126 50h-260v-357z" />
<glyph unicode="Q" horiz-adv-x="1622" d="M82 694q0 152 54.5 285.5t149.5 228.5t227.5 150t283.5 55q152 0 285.5 -55t228.5 -150t150 -228.5t55 -285.5q0 -200 -93 -362t-254 -254q66 -56 126 -87.5t128 -31.5q122 0 189 23l37 -312q-115 -39 -256 -39q-89 0 -173 29t-148.5 75t-115.5 92t-98 91.5t-72 61.5 q-199 2 -360 95t-252.5 256t-91.5 363zM467 694q0 -146 93.5 -246t236.5 -100q147 0 239 99.5t92 246.5q0 150 -92 249t-239 99q-144 0 -237 -99.5t-93 -248.5z" />
<glyph unicode="R" horiz-adv-x="1517" d="M162 0v1393h704q237 0 377.5 -119.5t140.5 -347.5q0 -144 -81.5 -252.5t-217.5 -155.5l377 -434v-84h-405l-393 487h-109v-487h-393zM555 768h274q70 0 110 40t40 101q0 62 -40 103t-110 41h-274v-285z" />
<glyph unicode="S" horiz-adv-x="1282" d="M92 100l92 344q90 -61 203 -100t231 -39q183 0 183 111q0 36 -30.5 60.5t-96.5 43.5l-221 64q-180 52 -267.5 145.5t-87.5 243.5q0 192 148 315t418 123q138 0 275 -33t230 -78l-110 -325q-87 48 -200 79t-212 31q-151 0 -151 -92q0 -33 23 -52.5t79 -37.5l240 -69 q191 -57 277.5 -153.5t86.5 -240.5q0 -204 -162 -332t-428 -128q-144 0 -292 38t-228 82z" />
<glyph unicode="T" horiz-adv-x="1290" d="M51 1051v342h1188v-342h-395v-1051h-393v1051h-400z" />
<glyph unicode="U" horiz-adv-x="1607" d="M143 604v789h394v-762q0 -138 68.5 -214.5t197.5 -76.5q130 0 200 78t70 215v760h393v-789q0 -127 -44.5 -239.5t-126.5 -198.5t-209.5 -136t-282.5 -50q-156 0 -281.5 46.5t-208 130t-126.5 197.5t-44 250z" />
<glyph unicode="V" horiz-adv-x="1536" d="M0 1393h432l336 -1006l338 1006h432l-522 -1393h-498z" />
<glyph unicode="W" horiz-adv-x="2273" d="M0 1393h426l340 -953l205 510l-156 443h428l289 -885l313 885h430l-522 -1393h-430l-182 483l-195 -483h-428z" />
<glyph unicode="X" horiz-adv-x="1531" d="M33 0v29l456 665l-456 672v27h448l285 -445l285 445h448v-27l-459 -672l459 -665v-29h-452l-281 438l-281 -438h-452z" />
<glyph unicode="Y" horiz-adv-x="1421" d="M-4 1366v27h438l277 -508l276 508h438v-27l-518 -840v-526h-393v524z" />
<glyph unicode="Z" horiz-adv-x="1339" d="M104 0v270l623 783h-623v340h1129v-271l-615 -782h615v-340h-1129z" />
<glyph unicode="[" horiz-adv-x="761" d="M145 -385v1839h539v-305h-231v-1229h231v-305h-539z" />
<glyph unicode="\" horiz-adv-x="1064" d="M49 1366v27h223l742 -1364v-29h-226z" />
<glyph unicode="]" horiz-adv-x="761" d="M78 -80h233v1229h-233v305h538v-1839h-538v305z" />
<glyph unicode="^" horiz-adv-x="1230" d="M84 762v26l387 605h287l389 -605v-26h-311l-222 371l-223 -371h-307z" />
<glyph unicode="_" horiz-adv-x="1269" d="M123 -63h1024v-252h-1024v252z" />
<glyph unicode="`" horiz-adv-x="1228" d="M354 1518h385l164 -332h-323z" />
<glyph unicode="a" horiz-adv-x="1196" d="M68 295q0 176 131 272.5t356 96.5q43 0 135 -9v2q0 64 -33.5 91.5t-107.5 27.5q-78 0 -171 -20t-161 -45l-65 301q90 33 207.5 55.5t228.5 22.5q136 0 231.5 -31t150.5 -92.5t79 -141.5t24 -188v-637h-383v96q-125 -116 -293 -116q-158 0 -243.5 85t-85.5 230zM444 340 q0 -100 113 -100q64 0 133 43v166q-34 6 -67 6q-76 0 -127.5 -29.5t-51.5 -85.5z" />
<glyph unicode="b" d="M137 0v1454h393v-481q120 117 291 117q216 0 352 -154.5t136 -398.5t-136 -400.5t-352 -156.5q-181 0 -291 120v-100h-393zM530 379q31 -24 81.5 -42t95.5 -18q92 0 146 59t54 159q0 98 -54.5 155.5t-145.5 57.5q-99 0 -177 -62v-309z" />
<glyph unicode="c" horiz-adv-x="1146" d="M74 537q0 121 40 224t114 178.5t186 118t250 42.5q122 0 234 -40t196 -106l-170 -290q-102 79 -230 79q-106 0 -163.5 -58t-57.5 -148q0 -91 57.5 -151t163.5 -60q125 0 230 82l170 -291q-84 -66 -196 -106t-234 -40q-274 0 -432 159t-158 407z" />
<glyph unicode="d" d="M76 537q0 244 135.5 398.5t351.5 154.5q171 0 293 -119v483h393v-1454h-393v102q-112 -122 -293 -122q-216 0 -351.5 156.5t-135.5 400.5zM477 537q0 -100 54.5 -159t146.5 -59q46 0 96 18t82 44v307q-78 62 -178 62q-91 0 -146 -57.5t-55 -155.5z" />
<glyph unicode="e" horiz-adv-x="1212" d="M76 532q0 162 70 291t200 203t299 74q119 0 213 -35.5t152.5 -97.5t89 -142t30.5 -172q0 -127 -22 -202h-653q14 -79 75.5 -128t165.5 -49q70 0 152.5 29.5t130.5 65.5l145 -252q-85 -69 -204.5 -107.5t-255.5 -38.5q-148 0 -261.5 42t-184 118t-106.5 177t-36 224z M461 664h350v18q0 65 -41 101t-121 36q-78 0 -127.5 -43t-60.5 -112z" />
<glyph unicode="f" horiz-adv-x="952" d="M68 727v303h178v49q0 81 23.5 151t70 125.5t123 87.5t174.5 32q68 0 149.5 -13.5t133.5 -31.5l-58 -295q-74 34 -139 34q-42 0 -63 -25t-21 -67v-47h262v-303h-262v-727h-393v727h-178z" />
<glyph unicode="g" horiz-adv-x="1382" d="M78 573q0 106 36 201t98.5 164.5t154 110.5t196.5 41q180 0 291 -121v102h393v-911q0 -138 -47 -248t-127.5 -178.5t-182.5 -104t-218 -35.5q-109 0 -209.5 20.5t-140.5 36.5t-101 44l80 287q56 -26 89 -40t105 -31t144 -17q97 0 156 43.5t59 138.5v88 q-118 -103 -291 -103q-140 0 -252 69.5t-172.5 186t-60.5 256.5zM477 573q0 -81 54 -126.5t147 -45.5q100 0 176 64v223q-30 26 -80 44t-96 18q-94 0 -147.5 -47t-53.5 -130z" />
<glyph unicode="h" d="M137 0v1454h393v-500q124 136 324 136q105 0 184.5 -36.5t127 -102.5t71 -150t23.5 -185v-616h-394v549q0 180 -157 180q-117 0 -179 -88v-641h-393z" />
<glyph unicode="i" horiz-adv-x="665" d="M121 1358q0 174 215 174q209 0 209 -174t-209 -174q-215 0 -215 174zM137 0v1071h393v-1071h-393z" />
<glyph unicode="j" horiz-adv-x="665" d="M-12 -174q149 108 149 283v962h393v-934q0 -88 -17 -163.5t-45 -131t-69 -103t-82.5 -80t-93.5 -62.5zM123 1358q0 174 213 174q102 0 156.5 -40.5t54.5 -133.5t-54.5 -133.5t-156.5 -40.5q-213 0 -213 174z" />
<glyph unicode="k" horiz-adv-x="1335" d="M137 0v1454h393v-821l326 438h418v-63l-375 -451l393 -491v-66h-424l-338 461v-461h-393z" />
<glyph unicode="l" horiz-adv-x="737" d="M133 303v1151h393v-1053q0 -92 60 -92q39 0 102 25l10 -311q-137 -43 -274 -43q-142 0 -216.5 75t-74.5 248z" />
<glyph unicode="m" horiz-adv-x="2101" d="M137 0v1071h393v-113q59 62 143 98t181 36q234 0 336 -172q65 77 163.5 123.5t217.5 46.5q106 0 185.5 -36.5t126.5 -102.5t70 -150t23 -185v-616h-393v549q0 89 -40.5 134.5t-115.5 45.5q-108 0 -174 -74v-655h-393v551q0 178 -153 178q-122 0 -177 -82v-647h-393z" />
<glyph unicode="n" d="M137 0v1071h393v-119q123 138 324 138q105 0 184.5 -36.5t127 -102.5t71 -150t23.5 -185v-616h-394v549q0 180 -161 180q-60 0 -104.5 -26t-70.5 -62v-641h-393z" />
<glyph unicode="o" horiz-adv-x="1302" d="M72 532q0 161 74.5 291t206.5 203.5t296 73.5q166 0 299 -73.5t208 -203.5t75 -291q0 -159 -75 -287.5t-208 -201t-299 -72.5q-164 0 -296 72.5t-206.5 201t-74.5 287.5zM449 532q0 -86 56 -146t144 -60q90 0 146.5 59.5t56.5 146.5q0 89 -56 149t-147 60q-88 0 -144 -60 t-56 -149z" />
<glyph unicode="p" horiz-adv-x="1382" d="M137 -385v1456h393v-102q111 121 289 121q216 0 352 -156.5t136 -401.5q0 -242 -136 -397t-352 -155q-172 0 -289 114v-479h-393zM530 379q72 -60 175 -60q92 0 146 57.5t54 155.5q0 100 -53.5 159t-146.5 59q-47 0 -97 -17.5t-78 -42.5v-311z" />
<glyph unicode="q" horiz-adv-x="1382" d="M78 532q0 245 135 401.5t350 156.5q180 0 291 -121v102h393v-1456h-393v481q-119 -116 -291 -116q-215 0 -350 155t-135 397zM477 532q0 -98 54.5 -155.5t146.5 -57.5q102 0 176 62v307q-30 26 -80 44t-96 18q-93 0 -147 -59t-54 -159z" />
<glyph unicode="r" horiz-adv-x="1034" d="M137 0v1071h393v-178q104 197 297 197q113 0 199 -54l-100 -348q-87 41 -185 41q-80 0 -136 -41t-75 -108v-580h-393z" />
<glyph unicode="s" horiz-adv-x="1058" d="M86 72l78 284q192 -98 317 -98q105 0 105 53q0 42 -86 66l-142 39q-138 38 -200 112.5t-62 194.5q0 168 123.5 267.5t347.5 99.5q102 0 214.5 -24.5t179.5 -57.5l-97 -287q-152 82 -291 82q-86 0 -86 -60q0 -22 14 -33t52 -22l160 -47q150 -43 210 -120.5t60 -188.5 q0 -155 -128.5 -253.5t-340.5 -98.5q-240 0 -428 92z" />
<glyph unicode="t" horiz-adv-x="1075" d="M57 768v303h195l47 272h326v-272h352v-303h-352v-297q0 -83 26.5 -117.5t81.5 -34.5q89 0 189 70l118 -297q-186 -112 -430 -112q-180 0 -279.5 105t-99.5 306v377h-174z" />
<glyph unicode="u" d="M125 455v616h393v-549q0 -180 156 -180q64 0 109.5 25.5t70.5 62.5v641h393v-1071h-393v119q-125 -137 -324 -137q-105 0 -184.5 36.5t-127 102t-70.5 149.5t-23 185z" />
<glyph unicode="v" horiz-adv-x="1302" d="M16 1071h428l205 -721l211 721h428l-403 -1071h-471z" />
<glyph unicode="w" horiz-adv-x="2088" d="M31 1071h428l159 -721l203 721h455l188 -721l176 721h428l-358 -1071h-469l-194 635l-203 -635h-469z" />
<glyph unicode="x" horiz-adv-x="1286" d="M53 0v29l318 503l-318 512v27h420l170 -319l174 319h418v-27l-320 -512l320 -503v-29h-422l-170 313l-166 -313h-424z" />
<glyph unicode="y" horiz-adv-x="1267" d="M-4 1071h436l201 -643l213 641q66 0 197.5 1t195.5 1l-410 -1036q-64 -163 -128 -255t-155 -139t-222 -47q-64 0 -133.5 21t-112.5 49l53 289q96 -47 180 -47q55 0 85.5 25t52.5 77l16 33z" />
<glyph unicode="z" horiz-adv-x="1093" d="M100 0v270l404 496h-404v305h893v-270l-397 -496h397v-305h-893z" />
<glyph unicode="{" horiz-adv-x="772" d="M57 416v225q118 0 172 34.5t54 106.5q0 65 -45 195.5t-45 208.5q0 268 364 268h127v-270h-88q-52 0 -75 -27t-23 -65q0 -47 45 -171.5t45 -193.5q0 -165 -187 -199q187 -34 187 -198q0 -69 -45 -194t-45 -171q0 -39 23 -66.5t75 -27.5h88v-270h-127q-185 0 -274.5 69 t-89.5 215q0 79 45 212t45 202q0 66 -52 91.5t-174 25.5z" />
<glyph unicode="|" horiz-adv-x="598" d="M145 -385v1839h308v-1839h-308z" />
<glyph unicode="}" horiz-adv-x="770" d="M88 -129h86q52 0 76 27.5t24 66.5q0 46 -45 171t-45 194q0 164 185 198q-185 34 -185 199q0 69 45 193.5t45 171.5q0 38 -24 65t-76 27h-86v270h125q367 0 367 -268q0 -78 -45.5 -208.5t-45.5 -195.5q0 -73 53.5 -107t172.5 -34v-225q-123 0 -174.5 -25.5t-51.5 -91.5 q0 -69 45.5 -202t45.5 -212q0 -145 -90.5 -214.5t-276.5 -69.5h-125v270z" />
<glyph unicode="~" horiz-adv-x="1101" d="M86 621q29 78 103.5 133t166.5 55q59 0 115.5 -19.5t93 -43t81 -43t81.5 -19.5q100 0 170 107l121 -189q-35 -91 -112 -146t-167 -55q-54 0 -106 20t-87.5 43.5t-82.5 43.5t-92 20q-50 0 -95 -29t-75 -79z" />
<glyph unicode="&#xa1;" horiz-adv-x="620" d="M84 885q0 102 59.5 158.5t165.5 56.5q107 0 165 -56t58 -159q0 -102 -58.5 -159.5t-164.5 -57.5t-165.5 58t-59.5 159zM115 -322l73 881h244l76 -881h-393z" />
<glyph unicode="&#xa2;" horiz-adv-x="1220" d="M74 537q0 121 40 224t114 178.5t186 118t250 42.5q32 0 98 -8l61 225l138 -37l-62 -221q107 -36 195 -105l-170 -290q-51 40 -117 61l-113 -399q125 0 230 82l170 -291q-84 -66 -196 -106t-234 -40q-26 0 -66 4l-72 -260l-135 37l68 248q-183 53 -284 197t-101 340z M473 537q0 -118 86 -177l107 381q-93 -7 -143 -64t-50 -140z" />
<glyph unicode="&#xa3;" horiz-adv-x="1306" d="M78 227q0 99 62 161.5t159 62.5q25 0 84 -13q-2 68 -39 197h-188v143h147q-31 121 -31 228q0 87 27.5 159.5t82.5 128.5t145 87.5t206 31.5q123 0 254 -41t195 -92l-109 -338q-41 33 -70.5 53t-82.5 40t-105 20q-74 0 -110.5 -40t-36.5 -110q0 -45 10 -127h319v-143h-301 q23 -185 11 -293q1 -1 14 -9t17.5 -10.5t16 -9t18.5 -9t17 -6.5t18.5 -5.5t16.5 -1.5q62 0 83.5 47.5t15.5 144.5h290q9 -87 6.5 -162.5t-24 -138.5t-58.5 -107.5t-96 -69.5t-137 -25q-71 0 -133 32t-149 99q-57 -70 -125 -100.5t-176 -30.5q-114 0 -179 69t-65 178z M250 188q0 -49 47 -49q52 0 72 88q-20 17 -56 17q-29 0 -46 -16.5t-17 -39.5z" />
<glyph unicode="&#xa4;" horiz-adv-x="1144" d="M100 365l99 98q-33 65 -33 155q0 91 33 158l-99 98l217 218l109 -109q73 25 135 25q74 0 152 -31l114 115l217 -218l-114 -112q28 -67 28 -144q0 -74 -26 -141l112 -112l-217 -218l-114 115q-73 -29 -152 -29q-71 0 -135 23l-109 -109zM410 618q0 -64 43 -108.5 t108 -44.5q66 0 108 44.5t42 108.5q0 65 -42 110.5t-108 45.5q-65 0 -108 -46t-43 -110z" />
<glyph unicode="&#xa5;" horiz-adv-x="1302" d="M72 1366v27h403l170 -559l191 559h401v-27l-346 -733h225v-141h-274v-115h274v-141h-274v-236h-393v236h-273v141h273v115h-273v141h223z" />
<glyph unicode="&#xa6;" horiz-adv-x="606" d="M152 326h305v-711h-305v711zM152 768v686h305v-686h-305z" />
<glyph unicode="&#xa7;" horiz-adv-x="1282" d="M106 575q0 145 119 246q-116 74 -116 226q0 163 145 264.5t405 101.5q142 0 276.5 -25.5t217.5 -62.5l-102 -305q-89 43 -212.5 73.5t-226.5 30.5q-125 0 -125 -49q0 -32 78 -49l252 -55q183 -40 272 -123.5t89 -198.5q0 -154 -127 -256q127 -81 127 -215 q0 -166 -148.5 -269.5t-402.5 -103.5q-143 0 -280.5 29.5t-217.5 65.5l88 313q87 -47 210 -80t232 -33q54 0 87.5 12t33.5 33q0 43 -114 66l-244 51q-163 35 -239.5 112.5t-76.5 200.5zM469 627q0 -33 19 -53t71 -31l146 -35q42 6 68 33t26 61q0 39 -26 59t-81 31l-143 29 q-38 -10 -59 -39t-21 -55z" />
<glyph unicode="&#xa8;" horiz-adv-x="1228" d="M166 1354q0 164 199 164q196 0 196 -164t-196 -164q-199 0 -199 164zM696 1354q0 164 201 164q193 0 193 -164t-193 -164q-201 0 -201 164z" />
<glyph unicode="&#xa9;" horiz-adv-x="1609" d="M88 694q0 152 54.5 285.5t149.5 228.5t227.5 150t283.5 55q152 0 285.5 -55t228.5 -150t150 -228.5t55 -285.5q0 -201 -93 -364.5t-258 -256.5t-368 -93q-201 0 -365 93t-257 256.5t-93 364.5zM229 694q0 -123 43.5 -230.5t119 -184.5t182 -121.5t229.5 -44.5 q165 0 297.5 75.5t206 208.5t73.5 297q0 166 -73.5 300t-206 210t-297.5 76q-123 0 -229.5 -44.5t-182 -122t-119 -186.5t-43.5 -233zM446 696q0 155 102.5 256t268.5 101q156 0 279 -101l-99 -176q-75 55 -159 55q-66 0 -105 -37.5t-39 -97.5q0 -63 39 -100t105 -37 q89 0 159 55l99 -178q-122 -100 -279 -100q-166 0 -268.5 101t-102.5 259z" />
<glyph unicode="&#xaa;" horiz-adv-x="995" d="M113 856q0 105 83 167.5t238 72.5q27 2 78 2v22q0 42 -22.5 57t-69.5 15q-49 0 -109 -17t-96 -38l-45 221q100 34 262 45q12 2 39 2q89 0 148.5 -16.5t93 -51t46.5 -79.5t13 -111v-234q0 -28 7.5 -43.5t31.5 -15.5q33 0 68 18l6 -200q-102 -35 -191 -35q-102 0 -149 82 q-86 -82 -213 -82q-93 0 -156 55t-63 164zM170 317v185h664v-185h-664zM358 887q0 -64 74 -64q47 0 80 29v113h-37q-117 -9 -117 -78z" />
<glyph unicode="&#xab;" horiz-adv-x="1193" d="M78 580v73l336 428h28l144 -63l-183 -402l183 -397l-144 -65h-28zM596 580v73l336 428h26l144 -63l-180 -402l180 -397l-144 -65h-26z" />
<glyph unicode="&#xac;" horiz-adv-x="1265" d="M113 590v305h1011l-2 -657h-305v352h-704z" />
<glyph unicode="&#xad;" horiz-adv-x="1110" d="M125 467v305h860v-305h-860z" />
<glyph unicode="&#xae;" horiz-adv-x="1609" d="M88 694q0 152 54.5 285.5t149.5 228.5t227.5 150t283.5 55q152 0 285.5 -55t228.5 -150t150 -228.5t55 -285.5q0 -201 -93 -364.5t-258 -256.5t-368 -93q-201 0 -365 93t-257 256.5t-93 364.5zM229 694q0 -123 43.5 -230.5t119 -184.5t182 -121.5t229.5 -44.5 q165 0 297.5 75.5t206 208.5t73.5 297q0 166 -73.5 300t-206 210t-297.5 76q-123 0 -229.5 -44.5t-182 -122t-119 -186.5t-43.5 -233zM496 346v696h381q113 0 180 -63t67 -166q0 -141 -129 -199l148 -219v-49h-242l-141 242h-21v-242h-243zM739 748h95q45 0 45 45 q0 18 -10.5 30.5t-34.5 12.5h-95v-88z" />
<glyph unicode="&#xaf;" horiz-adv-x="1228" d="M356 1229v229h543v-229h-543z" />
<glyph unicode="&#xb0;" horiz-adv-x="950" d="M78 1024q0 166 112.5 277.5t282.5 111.5q171 0 285 -111.5t114 -277.5t-113.5 -275.5t-285.5 -109.5q-170 0 -282.5 109.5t-112.5 275.5zM324 1024q0 -64 42 -110t107 -46q66 0 108 45.5t42 110.5t-42 110.5t-108 45.5q-65 0 -107 -46t-42 -110z" />
<glyph unicode="&#xb1;" horiz-adv-x="1269" d="M129 63v306h1012v-306h-1012zM129 700v306h354v354h305v-354h353v-306h-353v-194h-305v194h-354z" />
<glyph unicode="&#xb2;" horiz-adv-x="724" d="M55 1348q3 125 82.5 197.5t216.5 72.5q140 0 213.5 -68t73.5 -180q0 -132 -156 -237l-98 -66h270v-182h-575v155l260 195q82 58 82 123q0 29 -19.5 48t-54.5 19q-102 0 -102 -114z" />
<glyph unicode="&#xb3;" horiz-adv-x="692" d="M53 1579q41 14 113 26.5t133 12.5q305 0 305 -209q0 -51 -32 -90.5t-89 -56.5q146 -37 146 -179q0 -97 -82.5 -153t-247.5 -56q-122 0 -242 39l52 174q90 -36 190 -36q54 0 83.5 17.5t29.5 47.5t-26 42.5t-83 12.5h-156v162h156q43 0 65.5 15t22.5 41q0 51 -92 51 q-96 0 -199 -39z" />
<glyph unicode="&#xb4;" horiz-adv-x="1228" d="M354 1186l164 332h385l-225 -332h-324z" />
<glyph unicode="&#xb5;" horiz-adv-x="1347" d="M145 -385v1456h394v-471q0 -150 27.5 -206t121.5 -56q102 0 156 65v668h393v-1071h-393v88q-120 -105 -305 -108v-365h-394z" />
<glyph unicode="&#xb6;" horiz-adv-x="1259" d="M57 750q0 151 93 235t239 86h336v-1456h-209v815h-127q-146 0 -239 84.5t-93 235.5zM889 -385v1456h209v-1456h-209z" />
<glyph unicode="&#xb7;" horiz-adv-x="659" d="M106 600q0 103 58.5 160t165.5 57q106 0 165.5 -57t59.5 -160q0 -102 -59.5 -157.5t-165.5 -55.5q-107 0 -165.5 55t-58.5 158z" />
<glyph unicode="&#xb8;" horiz-adv-x="1228" d="M403 -385l31 119q82 -23 125 -23q96 0 96 43q0 20 -26 31.5t-72 11.5q-21 0 -129 -8l-10 10l63 201h150l-35 -102q28 4 45 4q87 0 134.5 -39t47.5 -103q0 -77 -70 -121.5t-182 -44.5q-83 0 -168 21z" />
<glyph unicode="&#xb9;" horiz-adv-x="589" d="M14 1419l318 187h151v-721h-211v481l-176 -104z" />
<glyph unicode="&#xba;" horiz-adv-x="1019" d="M113 1024q0 166 112.5 277.5t282.5 111.5q171 0 285 -111.5t114 -277.5t-113.5 -275.5t-285.5 -109.5q-170 0 -282.5 109.5t-112.5 275.5zM178 317v185h662v-185h-662zM350 1024q0 -67 45 -114.5t113 -47.5q69 0 113.5 47.5t44.5 114.5q0 68 -44.5 116t-113.5 48 q-68 0 -113 -48.5t-45 -115.5z" />
<glyph unicode="&#xbb;" horiz-adv-x="1193" d="M92 215l180 401l-180 398l144 67h26l336 -428v-73l-336 -426h-26zM608 1014l144 67h28l334 -428v-73l-334 -426h-28l-142 61l181 401z" />
<glyph unicode="&#xbc;" horiz-adv-x="1718" d="M55 1214l318 187h151v-721h-211v481l-176 -104zM336 0v29l758 1364h192v-27l-754 -1366h-196zM956 117v135l293 469h285v-449h104v-155h-104v-117h-211v117h-367zM1165 272h158v254z" />
<glyph unicode="&#xbd;" horiz-adv-x="1728" d="M57 1206l318 187h151v-721h-211v481l-176 -104zM336 0v29l758 1364h192v-27l-754 -1366h-196zM1038 463q3 126 82 198t217 72q140 0 213.5 -67.5t73.5 -178.5q0 -135 -156 -237l-98 -68h270v-182h-575v156l260 194q82 60 82 123q0 29 -20 49.5t-54 20.5q-104 0 -104 -115 z" />
<glyph unicode="&#xbe;" horiz-adv-x="1777" d="M78 1374q41 14 113 26.5t133 12.5q305 0 305 -209q0 -51 -32 -90.5t-89 -56.5q145 -37 145 -178q0 -97 -82 -153t-247 -56q-122 0 -242 39l51 174q93 -37 191 -37q54 0 83 17.5t29 47.5t-26 43t-82 13h-156v161h156q43 0 65.5 15t22.5 41q0 51 -92 51q-96 0 -199 -39z M410 0v29l757 1364h193v-27l-754 -1366h-196zM1030 117v135l293 469h285v-449h104v-155h-104v-117h-211v117h-367zM1239 272h158v254z" />
<glyph unicode="&#xbf;" horiz-adv-x="993" d="M70 31q0 51 10.5 94t24.5 72t40.5 58.5t45 45.5t51.5 41l118 82q25 19 32.5 26t15.5 22.5t8 37.5q0 29 -8 53h317q2 -5 9 -23.5t9.5 -26.5t7 -23t6 -29.5t1.5 -30.5q0 -103 -125 -188l-107 -74q-63 -48 -63 -107q0 -37 25.5 -59t68.5 -22q66 0 147.5 31t133.5 71l94 -309 q-190 -115 -434 -115q-201 0 -314.5 103.5t-113.5 269.5zM342 885q0 103 58.5 159t164.5 56t164.5 -56t58.5 -159q0 -102 -59 -159.5t-164 -57.5t-164 57.5t-59 159.5z" />
<glyph unicode="&#xc0;" horiz-adv-x="1501" d="M-2 0l522 1393h463l518 -1393h-397l-84 236h-543l-82 -236h-397zM393 1839h385l164 -332h-324zM575 524h349l-172 482z" />
<glyph unicode="&#xc1;" horiz-adv-x="1501" d="M-2 0l522 1393h463l518 -1393h-397l-84 236h-543l-82 -236h-397zM555 1507l164 332h385l-225 -332h-324zM575 524h349l-172 482z" />
<glyph unicode="&#xc2;" horiz-adv-x="1501" d="M-2 0l522 1393h463l518 -1393h-397l-84 236h-543l-82 -236h-397zM356 1507l205 332h377l203 -332h-283l-108 150l-109 -150h-285zM575 524h349l-172 482z" />
<glyph unicode="&#xc3;" horiz-adv-x="1501" d="M-2 0l522 1393h463l518 -1393h-397l-84 236h-543l-82 -236h-397zM342 1642q38 87 103.5 141t142.5 54q52 0 102 -18t82 -39.5t70.5 -39.5t70.5 -18q90 0 140 90l102 -112q-51 -100 -110 -148.5t-136 -48.5q-47 0 -96.5 18t-84 39.5t-73.5 39.5t-67 18q-84 0 -146 -88z M575 524h349l-172 482z" />
<glyph unicode="&#xc4;" horiz-adv-x="1501" d="M-2 0l522 1393h463l518 -1393h-397l-84 236h-543l-82 -236h-397zM289 1675q0 164 198 164q197 0 197 -164t-197 -164q-198 0 -198 164zM575 524h349l-172 482zM819 1675q0 164 201 164q192 0 192 -164t-192 -164q-201 0 -201 164z" />
<glyph unicode="&#xc5;" horiz-adv-x="1501" d="M-2 0l522 1393h51q-20 45 -20 90q0 83 59 141.5t142 58.5t141.5 -58.5t58.5 -141.5q0 -48 -22 -90h53l518 -1393h-397l-84 236h-543l-82 -236h-397zM575 524h349l-172 482zM680 1483q0 -31 20.5 -51.5t51.5 -20.5t51 20.5t20 51.5t-20 51t-51 20t-51.5 -20t-20.5 -51z " />
<glyph unicode="&#xc6;" horiz-adv-x="2191" d="M-43 0l748 1393h1384v-342h-758v-189h608v-313h-608v-209h758v-340h-1135v236h-458l-123 -236h-416zM637 524h317v617z" />
<glyph unicode="&#xc7;" horiz-adv-x="1441" d="M82 696q0 151 57 284t155 228t236 150t295 55q322 0 555 -213l-178 -285q-82 63 -165.5 99.5t-196.5 36.5q-157 0 -254 -103t-97 -252t97 -251.5t254 -102.5q113 0 197 36.5t165 98.5l178 -284q-225 -205 -530 -213l-27 -82q28 4 45 4q87 0 135 -39.5t48 -102.5 q0 -77 -70 -121.5t-182 -44.5q-83 0 -168 21l31 119q82 -23 124 -23q97 0 97 43q0 20 -26.5 31.5t-72.5 11.5q-21 0 -129 -8l-10 10l60 191q-273 38 -448 234.5t-175 471.5z" />
<glyph unicode="&#xc8;" horiz-adv-x="1398" d="M162 0v1393h1134v-342h-759v-185h610v-321h-610v-203h759v-342h-1134zM371 1839h385l164 -332h-324z" />
<glyph unicode="&#xc9;" horiz-adv-x="1398" d="M162 0v1393h1134v-342h-759v-185h610v-321h-610v-203h759v-342h-1134zM535 1507l163 332h385l-225 -332h-323z" />
<glyph unicode="&#xca;" horiz-adv-x="1398" d="M162 0v1393h1134v-342h-759v-185h610v-321h-610v-203h759v-342h-1134zM336 1507l205 332h377l202 -332h-282l-109 150l-108 -150h-285z" />
<glyph unicode="&#xcb;" horiz-adv-x="1398" d="M162 0v1393h1134v-342h-759v-185h610v-321h-610v-203h759v-342h-1134zM266 1675q0 164 199 164q197 0 197 -164t-197 -164q-199 0 -199 164zM797 1675q0 164 200 164q193 0 193 -164t-193 -164q-200 0 -200 164z" />
<glyph unicode="&#xcc;" horiz-adv-x="716" d="M-16 1839h385l163 -332h-323zM162 0v1393h393v-1393h-393z" />
<glyph unicode="&#xcd;" horiz-adv-x="716" d="M162 0v1393h393v-1393h-393zM182 1507l164 332h385l-225 -332h-324z" />
<glyph unicode="&#xce;" horiz-adv-x="716" d="M-37 1507l205 332h377l203 -332h-283l-109 150l-108 -150h-285zM162 0v1393h393v-1393h-393z" />
<glyph unicode="&#xcf;" horiz-adv-x="716" d="M-104 1675q0 164 198 164q197 0 197 -164t-197 -164q-198 0 -198 164zM162 0v1393h393v-1393h-393zM426 1675q0 164 201 164q192 0 192 -164t-192 -164q-201 0 -201 164z" />
<glyph unicode="&#xd0;" horiz-adv-x="1626" d="M47 598v186h125v609h647q155 -1 286 -47t227.5 -132.5t151 -220t54.5 -299.5q0 -165 -54.5 -297.5t-151 -218.5t-227.5 -132t-286 -46h-647v598h-125zM565 340h238q151 0 242.5 94t91.5 260q0 169 -91.5 264t-242.5 95h-238v-269h215v-186h-215v-258z" />
<glyph unicode="&#xd1;" horiz-adv-x="1689" d="M162 0v1393h340l633 -768v768h393v-1393h-340l-633 766v-766h-393zM438 1642q38 87 103.5 141t142.5 54q52 0 102 -18t82 -39.5t71 -39.5t71 -18q89 0 139 90l102 -112q-51 -100 -109.5 -148.5t-135.5 -48.5q-47 0 -96.5 18t-84.5 39.5t-74 39.5t-67 18q-83 0 -145 -88z " />
<glyph unicode="&#xd2;" horiz-adv-x="1597" d="M82 694q0 152 54.5 285.5t149.5 228.5t227.5 150t283.5 55q152 0 285.5 -55t228.5 -150t150 -228.5t55 -285.5q0 -201 -93 -364.5t-258 -256.5t-368 -93q-201 0 -365 93t-257 256.5t-93 364.5zM424 1839h385l164 -332h-324zM467 694q0 -147 93.5 -246.5t238.5 -99.5 q146 0 238.5 99.5t92.5 246.5q0 150 -92.5 249t-238.5 99q-145 0 -238.5 -99.5t-93.5 -248.5z" />
<glyph unicode="&#xd3;" horiz-adv-x="1597" d="M82 694q0 152 54.5 285.5t149.5 228.5t227.5 150t283.5 55q152 0 285.5 -55t228.5 -150t150 -228.5t55 -285.5q0 -201 -93 -364.5t-258 -256.5t-368 -93q-201 0 -365 93t-257 256.5t-93 364.5zM467 694q0 -147 93.5 -246.5t238.5 -99.5q146 0 238.5 99.5t92.5 246.5 q0 150 -92.5 249t-238.5 99q-145 0 -238.5 -99.5t-93.5 -248.5zM623 1507l163 332h385l-225 -332h-323z" />
<glyph unicode="&#xd4;" horiz-adv-x="1597" d="M82 694q0 152 54.5 285.5t149.5 228.5t227.5 150t283.5 55q152 0 285.5 -55t228.5 -150t150 -228.5t55 -285.5q0 -201 -93 -364.5t-258 -256.5t-368 -93q-201 0 -365 93t-257 256.5t-93 364.5zM403 1507l205 332h377l203 -332h-283l-108 150l-109 -150h-285zM467 694 q0 -147 93.5 -246.5t238.5 -99.5q146 0 238.5 99.5t92.5 246.5q0 150 -92.5 249t-238.5 99q-145 0 -238.5 -99.5t-93.5 -248.5z" />
<glyph unicode="&#xd5;" horiz-adv-x="1597" d="M82 694q0 152 54.5 285.5t149.5 228.5t227.5 150t283.5 55q152 0 285.5 -55t228.5 -150t150 -228.5t55 -285.5q0 -201 -93 -364.5t-258 -256.5t-368 -93q-201 0 -365 93t-257 256.5t-93 364.5zM389 1642q38 87 103.5 141t142.5 54q52 0 102 -18t82 -39.5t71 -39.5t71 -18 q89 0 139 90l102 -112q-51 -100 -110 -148.5t-136 -48.5q-47 0 -96.5 18t-84 39.5t-73.5 39.5t-67 18q-84 0 -146 -88zM467 694q0 -147 93.5 -246.5t238.5 -99.5q146 0 238.5 99.5t92.5 246.5q0 150 -92.5 249t-238.5 99q-145 0 -238.5 -99.5t-93.5 -248.5z" />
<glyph unicode="&#xd6;" horiz-adv-x="1597" d="M82 694q0 152 54.5 285.5t149.5 228.5t227.5 150t283.5 55q152 0 285.5 -55t228.5 -150t150 -228.5t55 -285.5q0 -201 -93 -364.5t-258 -256.5t-368 -93q-201 0 -365 93t-257 256.5t-93 364.5zM334 1675q0 164 198 164q197 0 197 -164t-197 -164q-198 0 -198 164z M467 694q0 -147 93.5 -246.5t238.5 -99.5q146 0 238.5 99.5t92.5 246.5q0 150 -92.5 249t-238.5 99q-145 0 -238.5 -99.5t-93.5 -248.5zM864 1675q0 164 201 164q192 0 192 -164t-192 -164q-201 0 -201 164z" />
<glyph unicode="&#xd7;" horiz-adv-x="1132" d="M100 371l250 250l-250 247l217 217l248 -249l250 249l217 -217l-252 -247l252 -250l-217 -217l-250 252l-248 -252z" />
<glyph unicode="&#xd8;" horiz-adv-x="1597" d="M82 694q0 152 54.5 285.5t149.5 228.5t227.5 150t283.5 55q220 0 391 -108l74 88h206v-27l-143 -174q91 -97 141 -225t50 -273q0 -201 -93 -364.5t-258 -256.5t-368 -93q-205 0 -375 98l-64 -78h-211v29l132 161q-94 97 -145.5 226.5t-51.5 277.5zM463 694 q0 -114 59 -205l426 523q-68 35 -151 35q-144 0 -239 -102t-95 -251zM662 373q66 -29 135 -29q147 0 241.5 101.5t94.5 248.5q0 110 -54 195z" />
<glyph unicode="&#xd9;" horiz-adv-x="1607" d="M143 604v789h394v-762q0 -138 68.5 -214.5t197.5 -76.5q130 0 200 78t70 215v760h393v-789q0 -127 -44.5 -239.5t-126.5 -198.5t-209.5 -136t-282.5 -50q-156 0 -281.5 46.5t-208 130t-126.5 197.5t-44 250zM428 1839h385l164 -332h-324z" />
<glyph unicode="&#xda;" horiz-adv-x="1607" d="M143 604v789h394v-762q0 -138 68.5 -214.5t197.5 -76.5q130 0 200 78t70 215v760h393v-789q0 -127 -44.5 -239.5t-126.5 -198.5t-209.5 -136t-282.5 -50q-156 0 -281.5 46.5t-208 130t-126.5 197.5t-44 250zM629 1507l164 332h385l-226 -332h-323z" />
<glyph unicode="&#xdb;" horiz-adv-x="1607" d="M143 604v789h394v-762q0 -138 68.5 -214.5t197.5 -76.5q130 0 200 78t70 215v760h393v-789q0 -127 -44.5 -239.5t-126.5 -198.5t-209.5 -136t-282.5 -50q-156 0 -281.5 46.5t-208 130t-126.5 197.5t-44 250zM410 1507l204 332h377l203 -332h-283l-108 150l-109 -150h-284 z" />
<glyph unicode="&#xdc;" horiz-adv-x="1607" d="M143 604v789h394v-762q0 -138 68.5 -214.5t197.5 -76.5q130 0 200 78t70 215v760h393v-789q0 -127 -44.5 -239.5t-126.5 -198.5t-209.5 -136t-282.5 -50q-156 0 -281.5 46.5t-208 130t-126.5 197.5t-44 250zM340 1675q0 164 199 164q196 0 196 -164t-196 -164 q-199 0 -199 164zM870 1675q0 164 201 164q193 0 193 -164t-193 -164q-201 0 -201 164z" />
<glyph unicode="&#xdd;" horiz-adv-x="1421" d="M-4 1366v27h438l277 -508l276 508h438v-27l-518 -840v-526h-393v524zM535 1507l163 332h385l-225 -332h-323z" />
<glyph unicode="&#xde;" horiz-adv-x="1470" d="M162 0v1393h393v-170h324q108 0 200 -31t164 -92.5t113 -162t41 -230.5q0 -118 -41.5 -215.5t-112.5 -161.5t-164.5 -98.5t-199.5 -34.5h-324v-197h-393zM555 537h264q76 0 126 47.5t50 124.5q0 78 -50 126t-126 48h-264v-346z" />
<glyph unicode="&#xdf;" horiz-adv-x="1437" d="M135 0v860q0 133 34 239.5t91.5 175.5t136.5 115t163.5 65.5t178.5 19.5q108 0 197.5 -27t148.5 -70.5t99.5 -100.5t58 -115.5t17.5 -117.5q0 -63 -18.5 -119.5t-41 -88t-41 -59t-18.5 -40.5t23.5 -38t56.5 -59t66.5 -76t57 -100.5t23.5 -119.5q0 -183 -106.5 -273.5 t-292.5 -90.5q-143 0 -305 51l53 313q68 -35 129 -35q44 0 70 21.5t26 58.5q0 28 -22 60.5t-54 62.5t-63.5 59.5t-53.5 61t-22 57.5q0 38 20.5 76.5t45 67.5t45 75t20.5 97q0 59 -41 94t-112 35q-88 0 -132.5 -65t-44.5 -179v-891h-393z" />
<glyph unicode="&#xe0;" horiz-adv-x="1196" d="M68 295q0 176 131 272.5t356 96.5q43 0 135 -9v2q0 64 -33.5 91.5t-107.5 27.5q-78 0 -171 -20t-161 -45l-65 301q90 33 207.5 55.5t228.5 22.5q136 0 231.5 -31t150.5 -92.5t79 -141.5t24 -188v-637h-383v96q-125 -116 -293 -116q-158 0 -243.5 85t-85.5 230zM264 1518 h385l164 -332h-324zM444 340q0 -100 113 -100q64 0 133 43v166q-34 6 -67 6q-76 0 -127.5 -29.5t-51.5 -85.5z" />
<glyph unicode="&#xe1;" horiz-adv-x="1196" d="M68 295q0 176 131 272.5t356 96.5q43 0 135 -9v2q0 64 -33.5 91.5t-107.5 27.5q-78 0 -171 -20t-161 -45l-65 301q90 33 207.5 55.5t228.5 22.5q136 0 231.5 -31t150.5 -92.5t79 -141.5t24 -188v-637h-383v96q-125 -116 -293 -116q-158 0 -243.5 85t-85.5 230zM436 1186 l164 332h385l-225 -332h-324zM444 340q0 -100 113 -100q64 0 133 43v166q-34 6 -67 6q-76 0 -127.5 -29.5t-51.5 -85.5z" />
<glyph unicode="&#xe2;" horiz-adv-x="1196" d="M68 295q0 176 131 272.5t356 96.5q43 0 135 -9v2q0 64 -33.5 91.5t-107.5 27.5q-78 0 -171 -20t-161 -45l-65 301q90 33 207.5 55.5t228.5 22.5q136 0 231.5 -31t150.5 -92.5t79 -141.5t24 -188v-637h-383v96q-125 -116 -293 -116q-158 0 -243.5 85t-85.5 230zM215 1186 l205 332h377l202 -332h-282l-109 149l-108 -149h-285zM444 340q0 -100 113 -100q64 0 133 43v166q-34 6 -67 6q-76 0 -127.5 -29.5t-51.5 -85.5z" />
<glyph unicode="&#xe3;" horiz-adv-x="1196" d="M68 295q0 176 131 272.5t356 96.5q43 0 135 -9v2q0 64 -33.5 91.5t-107.5 27.5q-78 0 -171 -20t-161 -45l-65 301q90 33 207.5 55.5t228.5 22.5q136 0 231.5 -31t150.5 -92.5t79 -141.5t24 -188v-637h-383v96q-125 -116 -293 -116q-158 0 -243.5 85t-85.5 230zM213 1321 q38 87 103.5 141t142.5 54q52 0 102 -18t82 -39.5t70.5 -39.5t70.5 -18q90 0 140 90l102 -113q-51 -99 -109.5 -147.5t-136.5 -48.5q-59 0 -121 28.5t-114 57t-86 28.5q-84 0 -146 -88zM444 340q0 -100 113 -100q64 0 133 43v166q-34 6 -67 6q-76 0 -127.5 -29.5 t-51.5 -85.5z" />
<glyph unicode="&#xe4;" horiz-adv-x="1196" d="M68 295q0 176 131 272.5t356 96.5q43 0 135 -9v2q0 64 -33.5 91.5t-107.5 27.5q-78 0 -171 -20t-161 -45l-65 301q90 33 207.5 55.5t228.5 22.5q136 0 231.5 -31t150.5 -92.5t79 -141.5t24 -188v-637h-383v96q-125 -116 -293 -116q-158 0 -243.5 85t-85.5 230zM152 1354 q0 164 198 164q197 0 197 -164t-197 -164q-198 0 -198 164zM444 340q0 -100 113 -100q64 0 133 43v166q-34 6 -67 6q-76 0 -127.5 -29.5t-51.5 -85.5zM682 1354q0 164 201 164q192 0 192 -164t-192 -164q-201 0 -201 164z" />
<glyph unicode="&#xe5;" horiz-adv-x="1196" d="M68 295q0 176 131 272.5t356 96.5q43 0 135 -9v2q0 64 -33.5 91.5t-107.5 27.5q-78 0 -171 -20t-161 -45l-65 301q90 33 207.5 55.5t228.5 22.5q136 0 231.5 -31t150.5 -92.5t79 -141.5t24 -188v-637h-383v96q-125 -116 -293 -116q-158 0 -243.5 85t-85.5 230zM416 1372 q0 83 58.5 142t141.5 59t142 -59t59 -142t-59 -142t-142 -59t-141.5 59t-58.5 142zM444 340q0 -100 113 -100q64 0 133 43v166q-34 6 -67 6q-76 0 -127.5 -29.5t-51.5 -85.5zM545 1372q0 -31 20 -51.5t51 -20.5t51.5 20.5t20.5 51.5t-20.5 51.5t-51.5 20.5t-51 -20.5 t-20 -51.5z" />
<glyph unicode="&#xe6;" horiz-adv-x="1824" d="M66 295q0 70 23 127t64.5 96t94 67t117 44t127.5 23t131 7q13 0 35.5 -1t31.5 -1q0 70 -34.5 94.5t-120.5 24.5q-68 0 -163.5 -22t-156.5 -49l-65 315q106 33 225 51.5t203 18.5q82 0 144 -10t103 -30t67 -41.5t48 -50.5q142 142 322 142q117 0 210.5 -36t151.5 -98 t88.5 -142t30.5 -171q0 -129 -23 -196h-643q8 -84 68 -135.5t172 -51.5q66 0 146.5 29.5t127.5 65.5l146 -248q-85 -69 -204 -107.5t-255 -38.5q-282 0 -404 164q-190 -155 -434 -155q-176 0 -275 85.5t-99 229.5zM442 338q0 -100 113 -100q82 0 137 51v168q-40 4 -71 4 q-86 -1 -132.5 -33.5t-46.5 -89.5zM1083 659h353v13q0 71 -41 113t-125 42q-79 0 -130 -46.5t-57 -121.5z" />
<glyph unicode="&#xe7;" horiz-adv-x="1150" d="M76 537q0 121 40 224t114 178.5t186 118t250 42.5q122 0 234 -40t196 -106l-170 -290q-102 79 -230 79q-106 0 -163.5 -58t-57.5 -148q0 -91 57.5 -151t163.5 -60q125 0 230 82l170 -291q-80 -63 -186 -102.5t-222 -43.5l-24 -73q28 4 45 4q87 0 134.5 -39t47.5 -103 q0 -77 -70 -121.5t-182 -44.5q-83 0 -168 21l31 119q82 -23 125 -23q96 0 96 43q0 20 -26 31.5t-72 11.5q-21 0 -129 -8l-11 10l58 183q-220 35 -343.5 186t-123.5 369z" />
<glyph unicode="&#xe8;" horiz-adv-x="1212" d="M76 532q0 162 70 291t200 203t299 74q119 0 213 -35.5t152.5 -97.5t89 -142t30.5 -172q0 -127 -22 -202h-653q14 -79 75.5 -128t165.5 -49q70 0 152.5 29.5t130.5 65.5l145 -252q-85 -69 -204.5 -107.5t-255.5 -38.5q-148 0 -261.5 42t-184 118t-106.5 177t-36 224z M305 1518h385l164 -332h-324zM461 664h350v18q0 65 -41 101t-121 36q-78 0 -127.5 -43t-60.5 -112z" />
<glyph unicode="&#xe9;" horiz-adv-x="1212" d="M76 532q0 162 70 291t200 203t299 74q119 0 213 -35.5t152.5 -97.5t89 -142t30.5 -172q0 -127 -22 -202h-653q14 -79 75.5 -128t165.5 -49q70 0 152.5 29.5t130.5 65.5l145 -252q-85 -69 -204.5 -107.5t-255.5 -38.5q-148 0 -261.5 42t-184 118t-106.5 177t-36 224z M461 664h350v18q0 65 -41 101t-121 36q-78 0 -127.5 -43t-60.5 -112zM465 1186l164 332h385l-226 -332h-323z" />
<glyph unicode="&#xea;" horiz-adv-x="1212" d="M76 532q0 162 70 291t200 203t299 74q119 0 213 -35.5t152.5 -97.5t89 -142t30.5 -172q0 -127 -22 -202h-653q14 -79 75.5 -128t165.5 -49q70 0 152.5 29.5t130.5 65.5l145 -252q-85 -69 -204.5 -107.5t-255.5 -38.5q-148 0 -261.5 42t-184 118t-106.5 177t-36 224z M258 1186l205 332h377l202 -332h-282l-109 149l-108 -149h-285zM461 664h350v18q0 65 -41 101t-121 36q-78 0 -127.5 -43t-60.5 -112z" />
<glyph unicode="&#xeb;" horiz-adv-x="1212" d="M76 532q0 162 70 291t200 203t299 74q119 0 213 -35.5t152.5 -97.5t89 -142t30.5 -172q0 -127 -22 -202h-653q14 -79 75.5 -128t165.5 -49q70 0 152.5 29.5t130.5 65.5l145 -252q-85 -69 -204.5 -107.5t-255.5 -38.5q-148 0 -261.5 42t-184 118t-106.5 177t-36 224z M188 1354q0 164 199 164q197 0 197 -164t-197 -164q-199 0 -199 164zM461 664h350v18q0 65 -41 101t-121 36q-78 0 -127.5 -43t-60.5 -112zM719 1354q0 164 201 164q192 0 192 -164t-192 -164q-201 0 -201 164z" />
<glyph unicode="&#xec;" horiz-adv-x="665" d="M-18 1518h385l163 -332h-323zM137 0v1071h393v-1071h-393z" />
<glyph unicode="&#xed;" horiz-adv-x="665" d="M137 0v1071h393v-1071h-393zM145 1186l164 332h385l-225 -332h-324z" />
<glyph unicode="&#xee;" horiz-adv-x="665" d="M-61 1186l204 332h377l203 -332h-283l-108 149l-109 -149h-284zM137 0v1071h393v-1071h-393z" />
<glyph unicode="&#xef;" horiz-adv-x="665" d="M-127 1354q0 164 199 164q196 0 196 -164t-196 -164q-199 0 -199 164zM137 0v1071h393v-1071h-393zM403 1354q0 164 201 164q193 0 193 -164t-193 -164q-201 0 -201 164z" />
<glyph unicode="&#xf0;" horiz-adv-x="1263" d="M76 483q0 189 113.5 310.5t314.5 121.5q135 0 264 -84q-38 152 -152 263l-86 -93l-96 82l82 88q-63 39 -123 60l156 244q100 -15 192 -62l86 92l99 -80l-74 -77q148 -106 237 -274.5t89 -375.5q0 -330 -154 -524t-436 -194q-227 0 -369.5 136.5t-142.5 366.5zM467 481 q0 -59 34.5 -101t100.5 -42q80 0 120.5 57.5t51.5 163.5q-94 62 -172 62q-64 0 -99.5 -38t-35.5 -102z" />
<glyph unicode="&#xf1;" d="M137 0v1071h393v-119q123 138 324 138q105 0 184.5 -36.5t127 -102.5t71 -150t23.5 -185v-616h-394v549q0 180 -161 180q-60 0 -104.5 -26t-70.5 -62v-641h-393zM291 1321q38 87 103.5 141t142.5 54q52 0 102 -18t82 -39.5t70.5 -39.5t70.5 -18q89 0 139 90l103 -113 q-51 -99 -109.5 -147.5t-136.5 -48.5q-59 0 -121 28.5t-114 57t-86 28.5q-84 0 -146 -88z" />
<glyph unicode="&#xf2;" horiz-adv-x="1302" d="M72 532q0 161 74.5 291t206.5 203.5t296 73.5q166 0 299 -73.5t208 -203.5t75 -291q0 -159 -75 -287.5t-208 -201t-299 -72.5q-164 0 -296 72.5t-206.5 201t-74.5 287.5zM274 1518h385l164 -332h-323zM449 532q0 -86 56 -146t144 -60q90 0 146.5 59.5t56.5 146.5 q0 89 -56 149t-147 60q-88 0 -144 -60t-56 -149z" />
<glyph unicode="&#xf3;" horiz-adv-x="1302" d="M72 532q0 161 74.5 291t206.5 203.5t296 73.5q166 0 299 -73.5t208 -203.5t75 -291q0 -159 -75 -287.5t-208 -201t-299 -72.5q-164 0 -296 72.5t-206.5 201t-74.5 287.5zM449 532q0 -86 56 -146t144 -60q90 0 146.5 59.5t56.5 146.5q0 89 -56 149t-147 60q-88 0 -144 -60 t-56 -149zM475 1186l164 332h385l-225 -332h-324z" />
<glyph unicode="&#xf4;" horiz-adv-x="1302" d="M72 532q0 161 74.5 291t206.5 203.5t296 73.5q166 0 299 -73.5t208 -203.5t75 -291q0 -159 -75 -287.5t-208 -201t-299 -72.5q-164 0 -296 72.5t-206.5 201t-74.5 287.5zM256 1186l205 332h377l202 -332h-282l-109 149l-108 -149h-285zM449 532q0 -86 56 -146t144 -60 q90 0 146.5 59.5t56.5 146.5q0 89 -56 149t-147 60q-88 0 -144 -60t-56 -149z" />
<glyph unicode="&#xf5;" horiz-adv-x="1302" d="M72 532q0 161 74.5 291t206.5 203.5t296 73.5q166 0 299 -73.5t208 -203.5t75 -291q0 -159 -75 -287.5t-208 -201t-299 -72.5q-164 0 -296 72.5t-206.5 201t-74.5 287.5zM242 1321q38 87 103 141t142 54q52 0 102 -18t82 -39.5t71 -39.5t71 -18q89 0 139 90l103 -113 q-51 -99 -109.5 -147.5t-136.5 -48.5q-47 0 -96.5 18t-84.5 39t-74 39t-67 18q-83 0 -145 -88zM449 532q0 -86 56 -146t144 -60q90 0 146.5 59.5t56.5 146.5q0 89 -56 149t-147 60q-88 0 -144 -60t-56 -149z" />
<glyph unicode="&#xf6;" horiz-adv-x="1302" d="M72 532q0 161 74.5 291t206.5 203.5t296 73.5q166 0 299 -73.5t208 -203.5t75 -291q0 -159 -75 -287.5t-208 -201t-299 -72.5q-164 0 -296 72.5t-206.5 201t-74.5 287.5zM186 1354q0 164 199 164q197 0 197 -164t-197 -164q-199 0 -199 164zM449 532q0 -86 56 -146 t144 -60q90 0 146.5 59.5t56.5 146.5q0 89 -56 149t-147 60q-88 0 -144 -60t-56 -149zM717 1354q0 164 201 164q192 0 192 -164t-192 -164q-201 0 -201 164z" />
<glyph unicode="&#xf7;" horiz-adv-x="1177" d="M84 467v305h1010v-305h-1010zM397 193q0 89 51.5 139.5t143.5 50.5t144 -50.5t52 -139.5t-51.5 -138t-144.5 -49q-92 0 -143.5 49t-51.5 138zM397 1042q0 89 51.5 139t143.5 50t144 -50t52 -139q0 -90 -51.5 -139t-144.5 -49t-144 49t-51 139z" />
<glyph unicode="&#xf8;" horiz-adv-x="1302" d="M72 532q0 161 74.5 291t206.5 203.5t296 73.5q181 0 326 -90l51 61h141v-29l-94 -112q75 -76 116.5 -179t41.5 -219q0 -159 -75 -287.5t-208 -201t-299 -72.5q-171 0 -309 80l-43 -51h-143v29l84 100q-78 77 -122 180.5t-44 222.5zM449 532q0 -64 30 -114l256 305 q-41 18 -86 18q-88 0 -144 -60t-56 -149zM578 336q29 -10 71 -10q90 0 146.5 59.5t56.5 146.5q0 55 -25 103z" />
<glyph unicode="&#xf9;" d="M125 455v616h393v-549q0 -180 156 -180q64 0 109.5 25.5t70.5 62.5v641h393v-1071h-393v119q-125 -137 -324 -137q-105 0 -184.5 36.5t-127 102t-70.5 149.5t-23 185zM303 1518h385l164 -332h-324z" />
<glyph unicode="&#xfa;" d="M125 455v616h393v-549q0 -180 156 -180q64 0 109.5 25.5t70.5 62.5v641h393v-1071h-393v119q-125 -137 -324 -137q-105 0 -184.5 36.5t-127 102t-70.5 149.5t-23 185zM530 1186l164 332h385l-225 -332h-324z" />
<glyph unicode="&#xfb;" d="M125 455v616h393v-549q0 -180 156 -180q64 0 109.5 25.5t70.5 62.5v641h393v-1071h-393v119q-125 -137 -324 -137q-105 0 -184.5 36.5t-127 102t-70.5 149.5t-23 185zM291 1186l205 332h376l203 -332h-282l-109 149l-109 -149h-284z" />
<glyph unicode="&#xfc;" d="M125 455v616h393v-549q0 -180 156 -180q64 0 109.5 25.5t70.5 62.5v641h393v-1071h-393v119q-125 -137 -324 -137q-105 0 -184.5 36.5t-127 102t-70.5 149.5t-23 185zM223 1354q0 164 199 164q196 0 196 -164t-196 -164q-199 0 -199 164zM754 1354q0 164 200 164 q193 0 193 -164t-193 -164q-200 0 -200 164z" />
<glyph unicode="&#xfd;" horiz-adv-x="1267" d="M-4 1071h436l201 -643l213 641q66 0 197.5 1t195.5 1l-410 -1036q-64 -163 -128 -255t-155 -139t-222 -47q-64 0 -133.5 21t-112.5 49l53 289q96 -47 180 -47q55 0 85.5 25t52.5 77l16 33zM453 1186l163 332h385l-225 -332h-323z" />
<glyph unicode="&#xfe;" horiz-adv-x="1382" d="M137 -385v1839h393v-485q111 121 289 121q216 0 352 -156.5t136 -401.5q0 -242 -136 -397t-352 -155q-172 0 -289 114v-479h-393zM530 381q74 -62 175 -62q92 0 146 57.5t54 155.5q0 100 -53.5 159t-146.5 59q-48 0 -97 -18t-78 -44v-307z" />
<glyph unicode="&#xff;" horiz-adv-x="1267" d="M-4 1071h436l201 -643l213 641q66 0 197.5 1t195.5 1l-410 -1036q-64 -163 -128 -255t-155 -139t-222 -47q-64 0 -133.5 21t-112.5 49l53 289q96 -47 180 -47q55 0 85.5 25t52.5 77l16 33zM172 1354q0 164 199 164q196 0 196 -164t-196 -164q-199 0 -199 164zM702 1354 q0 164 201 164q193 0 193 -164t-193 -164q-201 0 -201 164z" />
<glyph unicode="&#x100;" horiz-adv-x="1501" d="M-2 0l522 1393h463l518 -1393h-397l-84 236h-543l-82 -236h-397zM479 1550v230h543v-230h-543zM575 524h349l-172 482z" />
<glyph unicode="&#x101;" horiz-adv-x="1196" d="M68 295q0 176 131 272.5t356 96.5q43 0 135 -9v2q0 64 -33.5 91.5t-107.5 27.5q-78 0 -171 -20t-161 -45l-65 301q90 33 207.5 55.5t228.5 22.5q136 0 231.5 -31t150.5 -92.5t79 -141.5t24 -188v-637h-383v96q-125 -116 -293 -116q-158 0 -243.5 85t-85.5 230zM356 1229 v229h543v-229h-543zM444 340q0 -100 113 -100q64 0 133 43v166q-34 6 -67 6q-76 0 -127.5 -29.5t-51.5 -85.5z" />
<glyph unicode="&#x102;" horiz-adv-x="1501" d="M-2 0l522 1393h463l518 -1393h-397l-84 236h-543l-82 -236h-397zM426 1694l88 133q34 -37 97 -65.5t139 -28.5q73 0 136 28.5t97 67.5l90 -135q-46 -79 -127 -130t-194 -51t-196.5 51.5t-129.5 129.5zM575 524h349l-172 482z" />
<glyph unicode="&#x103;" horiz-adv-x="1196" d="M68 295q0 176 131 272.5t356 96.5q43 0 135 -9v2q0 64 -33.5 91.5t-107.5 27.5q-78 0 -171 -20t-161 -45l-65 301q90 33 207.5 55.5t228.5 22.5q136 0 231.5 -31t150.5 -92.5t79 -141.5t24 -188v-637h-383v96q-125 -116 -293 -116q-158 0 -243.5 85t-85.5 230zM291 1372 l88 133q34 -38 96.5 -66t138.5 -28q73 0 136.5 28.5t97.5 67.5l90 -135q-46 -79 -127.5 -129.5t-194.5 -50.5q-114 0 -196.5 51t-128.5 129zM444 340q0 -100 113 -100q64 0 133 43v166q-34 6 -67 6q-76 0 -127.5 -29.5t-51.5 -85.5z" />
<glyph unicode="&#x104;" horiz-adv-x="1501" d="M-2 0l522 1393h463l518 -1393h-123q-73 0 -117 -37t-44 -92q0 -44 24 -70t70 -26q47 0 106 41l37 -158q-80 -53 -192 -53q-103 0 -162.5 57t-59.5 152q0 60 31 110t78 76h-45l-84 236h-543l-82 -236h-397zM575 524h349l-172 482z" />
<glyph unicode="&#x105;" horiz-adv-x="1196" d="M68 295q0 176 131 272.5t356 96.5q43 0 135 -9v2q0 64 -33.5 91.5t-107.5 27.5q-78 0 -171 -20t-161 -45l-65 301q90 33 207.5 55.5t228.5 22.5q136 0 231.5 -31t150.5 -92.5t79 -141.5t24 -188v-637h-57q-73 0 -117.5 -37t-44.5 -92q0 -44 24 -70t70 -26q48 0 107 41 l37 -158q-80 -53 -193 -53q-103 0 -162 57t-59 152q0 60 30.5 110t77.5 76h-96v96q-125 -116 -293 -116q-158 0 -243.5 85t-85.5 230zM444 340q0 -100 113 -100q64 0 133 43v166q-34 6 -67 6q-76 0 -127.5 -29.5t-51.5 -85.5z" />
<glyph unicode="&#x106;" horiz-adv-x="1439" d="M80 696q0 151 57 284t155 228t236 150t295 55q322 0 555 -213l-178 -285q-82 63 -165.5 99.5t-196.5 36.5q-157 0 -254 -103t-97 -252t97 -251.5t254 -102.5q113 0 197 36.5t165 98.5l178 -284q-233 -213 -555 -213q-209 0 -379.5 93.5t-267 257.5t-96.5 365zM670 1507 l164 332h385l-226 -332h-323z" />
<glyph unicode="&#x107;" horiz-adv-x="1146" d="M74 537q0 121 40 224t114 178.5t186 118t250 42.5q122 0 234 -40t196 -106l-170 -290q-102 79 -230 79q-106 0 -163.5 -58t-57.5 -148q0 -91 57.5 -151t163.5 -60q125 0 230 82l170 -291q-84 -66 -196 -106t-234 -40q-274 0 -432 159t-158 407zM487 1186l164 332h385 l-225 -332h-324z" />
<glyph unicode="&#x108;" horiz-adv-x="1439" d="M80 696q0 151 57 284t155 228t236 150t295 55q322 0 555 -213l-178 -285q-82 63 -165.5 99.5t-196.5 36.5q-157 0 -254 -103t-97 -252t97 -251.5t254 -102.5q113 0 197 36.5t165 98.5l178 -284q-233 -213 -555 -213q-209 0 -379.5 93.5t-267 257.5t-96.5 365zM436 1507 l205 332h377l203 -332h-283l-109 150l-108 -150h-285z" />
<glyph unicode="&#x109;" horiz-adv-x="1146" d="M74 537q0 121 40 224t114 178.5t186 118t250 42.5q122 0 234 -40t196 -106l-170 -290q-102 79 -230 79q-106 0 -163.5 -58t-57.5 -148q0 -91 57.5 -151t163.5 -60q125 0 230 82l170 -291q-84 -66 -196 -106t-234 -40q-274 0 -432 159t-158 407zM276 1186l205 332h377 l203 -332h-283l-108 149l-109 -149h-285z" />
<glyph unicode="&#x10a;" horiz-adv-x="1439" d="M80 696q0 151 57 284t155 228t236 150t295 55q322 0 555 -213l-178 -285q-82 63 -165.5 99.5t-196.5 36.5q-157 0 -254 -103t-97 -252t97 -251.5t254 -102.5q113 0 197 36.5t165 98.5l178 -284q-233 -213 -555 -213q-209 0 -379.5 93.5t-267 257.5t-96.5 365zM606 1679 q0 174 215 174q211 0 211 -174t-211 -174q-215 0 -215 174z" />
<glyph unicode="&#x10b;" horiz-adv-x="1146" d="M74 537q0 121 40 224t114 178.5t186 118t250 42.5q122 0 234 -40t196 -106l-170 -290q-102 79 -230 79q-106 0 -163.5 -58t-57.5 -148q0 -91 57.5 -151t163.5 -60q125 0 230 82l170 -291q-84 -66 -196 -106t-234 -40q-274 0 -432 159t-158 407zM453 1358q0 174 215 174 q211 0 211 -174t-211 -174q-215 0 -215 174z" />
<glyph unicode="&#x10c;" horiz-adv-x="1439" d="M80 696q0 151 57 284t155 228t236 150t295 55q322 0 555 -213l-178 -285q-82 63 -165.5 99.5t-196.5 36.5q-157 0 -254 -103t-97 -252t97 -251.5t254 -102.5q113 0 197 36.5t165 98.5l178 -284q-233 -213 -555 -213q-209 0 -379.5 93.5t-267 257.5t-96.5 365zM440 1839 h285l109 -149l108 149h283l-203 -332h-377z" />
<glyph unicode="&#x10d;" horiz-adv-x="1146" d="M74 537q0 121 40 224t114 178.5t186 118t250 42.5q122 0 234 -40t196 -106l-170 -290q-102 79 -230 79q-106 0 -163.5 -58t-57.5 -148q0 -91 57.5 -151t163.5 -60q125 0 230 82l170 -291q-84 -66 -196 -106t-234 -40q-274 0 -432 159t-158 407zM276 1518h285l109 -150 l108 150h283l-203 -332h-377z" />
<glyph unicode="&#x10e;" horiz-adv-x="1615" d="M162 0v1393h647q155 -1 286 -47t227.5 -132.5t151 -220t54.5 -299.5q0 -165 -54.5 -297.5t-151 -218.5t-227.5 -132t-286 -46h-647zM322 1839h284l109 -149l108 149h283l-203 -332h-377zM555 340h238q150 0 239.5 94t89.5 260q0 169 -89.5 264t-239.5 95h-238v-713z" />
<glyph unicode="&#x10f;" horiz-adv-x="1615" d="M76 537q0 244 135.5 398.5t351.5 154.5q171 0 293 -119v483h393v-1454h-393v102q-112 -122 -293 -122q-216 0 -351.5 156.5t-135.5 400.5zM477 537q0 -100 54.5 -159t146.5 -59q46 0 96 18t82 44v307q-78 62 -178 62q-91 0 -146 -57.5t-55 -155.5zM1341 1243 q0 77 52 122.5t131 45.5q106 0 162.5 -49.5t56.5 -149.5q0 -138 -146 -315l-180 66l49 124q-125 35 -125 156z" />
<glyph unicode="&#x110;" horiz-adv-x="1626" d="M47 598v186h125v609h647q155 -1 286 -47t227.5 -132.5t151 -220t54.5 -299.5q0 -165 -54.5 -297.5t-151 -218.5t-227.5 -132t-286 -46h-647v598h-125zM565 340h238q151 0 242.5 94t91.5 260q0 169 -91.5 264t-242.5 95h-238v-269h215v-186h-215v-258z" />
<glyph unicode="&#x111;" d="M76 537q0 244 135.5 398.5t351.5 154.5q171 0 293 -119v198h-186v189h186v96h393v-96h154v-189h-154v-1169h-393v102q-112 -122 -293 -122q-216 0 -351.5 156.5t-135.5 400.5zM477 537q0 -100 54.5 -159t146.5 -59q46 0 96 18t82 44v307q-78 62 -178 62q-91 0 -146 -57.5 t-55 -155.5z" />
<glyph unicode="&#x112;" horiz-adv-x="1398" d="M162 0v1393h1134v-342h-759v-185h610v-321h-610v-203h759v-342h-1134zM459 1550v230h542v-230h-542z" />
<glyph unicode="&#x113;" horiz-adv-x="1212" d="M76 532q0 162 70 291t200 203t299 74q119 0 213 -35.5t152.5 -97.5t89 -142t30.5 -172q0 -127 -22 -202h-653q14 -79 75.5 -128t165.5 -49q70 0 152.5 29.5t130.5 65.5l145 -252q-85 -69 -204.5 -107.5t-255.5 -38.5q-148 0 -261.5 42t-184 118t-106.5 177t-36 224z M377 1229v229h543v-229h-543zM461 664h350v18q0 65 -41 101t-121 36q-78 0 -127.5 -43t-60.5 -112z" />
<glyph unicode="&#x114;" horiz-adv-x="1398" d="M162 0v1393h1134v-342h-759v-185h610v-321h-610v-203h759v-342h-1134zM403 1694l89 133q34 -38 96.5 -66t138.5 -28q73 0 136.5 28.5t97.5 67.5l90 -135q-46 -79 -127.5 -130t-194.5 -51t-196.5 51.5t-129.5 129.5z" />
<glyph unicode="&#x115;" horiz-adv-x="1212" d="M76 532q0 162 70 291t200 203t299 74q119 0 213 -35.5t152.5 -97.5t89 -142t30.5 -172q0 -127 -22 -202h-653q14 -79 75.5 -128t165.5 -49q70 0 152.5 29.5t130.5 65.5l145 -252q-85 -69 -204.5 -107.5t-255.5 -38.5q-148 0 -261.5 42t-184 118t-106.5 177t-36 224z M330 1372l88 133q34 -38 96.5 -66t138.5 -28q73 0 136.5 28.5t97.5 67.5l90 -135q-46 -79 -127.5 -129.5t-194.5 -50.5q-114 0 -196.5 51t-128.5 129zM461 664h350v18q0 65 -41 101t-121 36q-78 0 -127.5 -43t-60.5 -112z" />
<glyph unicode="&#x116;" horiz-adv-x="1398" d="M162 0v1393h1134v-342h-759v-185h610v-321h-610v-203h759v-342h-1134zM514 1679q0 174 215 174q211 0 211 -174t-211 -174q-215 0 -215 174z" />
<glyph unicode="&#x117;" horiz-adv-x="1212" d="M76 532q0 162 70 291t200 203t299 74q119 0 213 -35.5t152.5 -97.5t89 -142t30.5 -172q0 -127 -22 -202h-653q14 -79 75.5 -128t165.5 -49q70 0 152.5 29.5t130.5 65.5l145 -252q-85 -69 -204.5 -107.5t-255.5 -38.5q-148 0 -261.5 42t-184 118t-106.5 177t-36 224z M440 1358q0 174 215 174q211 0 211 -174t-211 -174q-215 0 -215 174zM461 664h350v18q0 65 -41 101t-121 36q-78 0 -127.5 -43t-60.5 -112z" />
<glyph unicode="&#x118;" horiz-adv-x="1398" d="M162 0v1393h1134v-342h-759v-185h610v-321h-610v-203h759v-342h-59q-67 -3 -107 -39.5t-40 -89.5q0 -44 24 -70t70 -26q47 0 106 41l37 -158q-80 -53 -192 -53q-103 0 -162.5 57t-59.5 152q0 60 31 110t78 76h-860z" />
<glyph unicode="&#x119;" horiz-adv-x="1212" d="M76 532q0 162 70 291t200 203t299 74q119 0 213 -35.5t152.5 -97.5t89 -142t30.5 -172q0 -127 -22 -202h-653q14 -79 75.5 -128t165.5 -49q70 0 152.5 29.5t130.5 65.5l145 -252q-137 -112 -350 -140q-65 -35 -65 -106q0 -44 24 -70t70 -26q47 0 106 41l37 -158 q-80 -53 -192 -53q-103 0 -162.5 57t-59.5 152q0 94 72 159q-262 17 -395 168.5t-133 390.5zM461 664h350v18q0 65 -41 101t-121 36q-78 0 -127.5 -43t-60.5 -112z" />
<glyph unicode="&#x11a;" horiz-adv-x="1398" d="M162 0v1393h1134v-342h-759v-185h610v-321h-610v-203h759v-342h-1134zM336 1839h285l108 -149l109 149h282l-202 -332h-377z" />
<glyph unicode="&#x11b;" horiz-adv-x="1212" d="M76 532q0 162 70 291t200 203t299 74q119 0 213 -35.5t152.5 -97.5t89 -142t30.5 -172q0 -127 -22 -202h-653q14 -79 75.5 -128t165.5 -49q70 0 152.5 29.5t130.5 65.5l145 -252q-85 -69 -204.5 -107.5t-255.5 -38.5q-148 0 -261.5 42t-184 118t-106.5 177t-36 224z M254 1518h285l108 -150l109 150h282l-202 -332h-377zM461 664h350v18q0 65 -41 101t-121 36q-78 0 -127.5 -43t-60.5 -112z" />
<glyph unicode="&#x11c;" horiz-adv-x="1533" d="M82 694q0 166 58 303t158 227t235 139.5t290 49.5q312 0 551 -182l-178 -299q-150 119 -362 119q-153 0 -249 -94.5t-96 -262.5q0 -166 98.5 -259t262.5 -93q108 0 221 47v158h-307v276h663v-645q-100 -80 -274 -139t-330 -59q-155 0 -290 49t-235 139t-158 226t-58 300z M434 1507l205 332h377l203 -332h-283l-109 150l-108 -150h-285z" />
<glyph unicode="&#x11d;" horiz-adv-x="1382" d="M78 573q0 106 36 201t98.5 164.5t154 110.5t196.5 41q180 0 291 -121v102h393v-911q0 -138 -47 -248t-127.5 -178.5t-182.5 -104t-218 -35.5q-109 0 -209.5 20.5t-140.5 36.5t-101 44l80 287q56 -26 89 -40t105 -31t144 -17q97 0 156 43.5t59 138.5v88 q-118 -103 -291 -103q-140 0 -252 69.5t-172.5 186t-60.5 256.5zM313 1186l205 332h377l203 -332h-283l-108 149l-109 -149h-285zM477 573q0 -81 54 -126.5t147 -45.5q100 0 176 64v223q-30 26 -80 44t-96 18q-94 0 -147.5 -47t-53.5 -130z" />
<glyph unicode="&#x11e;" horiz-adv-x="1533" d="M82 694q0 166 58 303t158 227t235 139.5t290 49.5q312 0 551 -182l-178 -299q-150 119 -362 119q-153 0 -249 -94.5t-96 -262.5q0 -166 98.5 -259t262.5 -93q108 0 221 47v158h-307v276h663v-645q-100 -80 -274 -139t-330 -59q-155 0 -290 49t-235 139t-158 226t-58 300z M504 1694l88 133q34 -38 96.5 -66t138.5 -28q73 0 136.5 28.5t97.5 67.5l90 -135q-46 -79 -127.5 -130t-194.5 -51t-196 51.5t-129 129.5z" />
<glyph unicode="&#x11f;" horiz-adv-x="1382" d="M78 573q0 106 36 201t98.5 164.5t154 110.5t196.5 41q180 0 291 -121v102h393v-911q0 -138 -47 -248t-127.5 -178.5t-182.5 -104t-218 -35.5q-109 0 -209.5 20.5t-140.5 36.5t-101 44l80 287q56 -26 89 -40t105 -31t144 -17q97 0 156 43.5t59 138.5v88 q-118 -103 -291 -103q-140 0 -252 69.5t-172.5 186t-60.5 256.5zM385 1372l88 133q34 -37 97 -65.5t139 -28.5q73 0 136 28.5t97 67.5l90 -135q-46 -79 -127 -129.5t-194 -50.5q-114 0 -197 51t-129 129zM477 573q0 -81 54 -126.5t147 -45.5q100 0 176 64v223q-30 26 -80 44 t-96 18q-94 0 -147.5 -47t-53.5 -130z" />
<glyph unicode="&#x120;" horiz-adv-x="1533" d="M82 694q0 166 58 303t158 227t235 139.5t290 49.5q312 0 551 -182l-178 -299q-150 119 -362 119q-153 0 -249 -94.5t-96 -262.5q0 -166 98.5 -259t262.5 -93q108 0 221 47v158h-307v276h663v-645q-100 -80 -274 -139t-330 -59q-155 0 -290 49t-235 139t-158 226t-58 300z M612 1679q0 174 215 174q211 0 211 -174t-211 -174q-215 0 -215 174z" />
<glyph unicode="&#x121;" horiz-adv-x="1382" d="M78 573q0 106 36 201t98.5 164.5t154 110.5t196.5 41q180 0 291 -121v102h393v-911q0 -138 -47 -248t-127.5 -178.5t-182.5 -104t-218 -35.5q-109 0 -209.5 20.5t-140.5 36.5t-101 44l80 287q56 -26 89 -40t105 -31t144 -17q97 0 156 43.5t59 138.5v88 q-118 -103 -291 -103q-140 0 -252 69.5t-172.5 186t-60.5 256.5zM477 573q0 -81 54 -126.5t147 -45.5q100 0 176 64v223q-30 26 -80 44t-96 18q-94 0 -147.5 -47t-53.5 -130zM514 1358q0 174 215 174q211 0 211 -174t-211 -174q-215 0 -215 174z" />
<glyph unicode="&#x122;" horiz-adv-x="1533" d="M82 694q0 166 58 303t158 227t235 139.5t290 49.5q312 0 551 -182l-178 -299q-150 119 -362 119q-153 0 -249 -94.5t-96 -262.5q0 -166 98.5 -259t262.5 -93q108 0 221 47v158h-307v276h663v-645q-100 -80 -274 -139t-330 -59q-155 0 -290 49t-235 139t-158 226t-58 300z M594 -274q0 77 51.5 122.5t130.5 45.5q106 0 162.5 -49.5t56.5 -149.5q0 -140 -145 -316l-180 66l49 125q-125 35 -125 156z" />
<glyph unicode="&#x123;" horiz-adv-x="1382" d="M78 573q0 106 36 201t98.5 164.5t154 110.5t196.5 41q180 0 291 -121v102h393v-911q0 -138 -47 -248t-127.5 -178.5t-182.5 -104t-218 -35.5q-109 0 -209.5 20.5t-140.5 36.5t-101 44l80 287q56 -26 89 -40t105 -31t144 -17q97 0 156 43.5t59 138.5v88 q-118 -103 -291 -103q-140 0 -252 69.5t-172.5 186t-60.5 256.5zM477 573q0 -81 54 -126.5t147 -45.5q100 0 176 64v223q-30 26 -80 44t-96 18q-94 0 -147.5 -47t-53.5 -130zM496 1364q0 139 145 315l180 -65l-49 -125q125 -35 125 -156q0 -77 -51.5 -122.5t-130.5 -45.5 q-106 0 -162.5 49.5t-56.5 149.5z" />
<glyph unicode="&#x124;" horiz-adv-x="1691" d="M162 0v1393h393v-519h582v519h393v-1393h-393v535h-582v-535h-393zM451 1507l204 332h377l203 -332h-283l-108 150l-109 -150h-284z" />
<glyph unicode="&#x125;" d="M137 0v1454h393v-500q124 136 324 136q105 0 184.5 -36.5t127 -102.5t71 -150t23.5 -185v-616h-394v549q0 180 -157 180q-117 0 -179 -88v-641h-393zM289 1540l205 332h376l203 -332h-282l-109 150l-109 -150h-284z" />
<glyph unicode="&#x126;" horiz-adv-x="1703" d="M78 1036v187h90v170h393v-170h582v170h393v-170h96v-187h-96v-1036h-393v535h-582v-535h-393v1036h-90zM561 874h582v162h-582v-162z" />
<glyph unicode="&#x127;" d="M6 1169v189h131v96h393v-96h209v-189h-209v-215q124 136 324 136q105 0 184.5 -36.5t127 -102.5t71 -150t23.5 -185v-616h-394v549q0 180 -157 180q-117 0 -179 -88v-641h-393v1169h-131z" />
<glyph unicode="&#x128;" horiz-adv-x="716" d="M-49 1642q38 87 103.5 141t142.5 54q52 0 102 -18t82 -39.5t70.5 -39.5t70.5 -18q90 0 140 90l102 -112q-51 -100 -110 -148.5t-136 -48.5q-47 0 -96.5 18t-84 39.5t-73.5 39.5t-67 18q-84 0 -146 -88zM162 0v1393h393v-1393h-393z" />
<glyph unicode="&#x129;" horiz-adv-x="665" d="M-80 1321q38 87 103.5 141t142.5 54q52 0 102 -18t82 -39.5t71 -39.5t71 -18q89 0 139 90l102 -113q-51 -99 -109.5 -147.5t-136.5 -48.5q-59 0 -121 28.5t-114 57t-86 28.5q-84 0 -146 -88zM137 0v1071h393v-1071h-393z" />
<glyph unicode="&#x12a;" horiz-adv-x="716" d="M86 1550v230h543v-230h-543zM162 0v1393h393v-1393h-393z" />
<glyph unicode="&#x12b;" horiz-adv-x="665" d="M57 1229v229h543v-229h-543zM137 0v1071h393v-1071h-393z" />
<glyph unicode="&#x12c;" horiz-adv-x="716" d="M33 1694l88 133q34 -38 96.5 -66t138.5 -28q73 0 136.5 28.5t97.5 67.5l90 -135q-46 -79 -127.5 -130t-194.5 -51t-196 51.5t-129 129.5zM162 0v1393h393v-1393h-393z" />
<glyph unicode="&#x12d;" horiz-adv-x="665" d="M8 1372l88 133q34 -37 97 -65.5t139 -28.5q73 0 136 28.5t97 67.5l90 -135q-46 -79 -127 -129.5t-194 -50.5q-114 0 -197 51t-129 129zM137 0v1071h393v-1071h-393z" />
<glyph unicode="&#x12e;" horiz-adv-x="716" d="M125 -186q0 60 30.5 110t77.5 76h-71v1393h393v-1393h-92q-73 0 -117.5 -37t-44.5 -92q0 -44 24 -70t70 -26q48 0 107 41l37 -158q-80 -53 -193 -53q-103 0 -162 57t-59 152z" />
<glyph unicode="&#x12f;" horiz-adv-x="665" d="M121 1358q0 174 215 174q209 0 209 -174t-209 -174q-215 0 -215 174zM137 0v1071h393v-1071h-67q-67 -3 -107.5 -40t-40.5 -89q0 -44 24.5 -70t70.5 -26q47 0 106 41l37 -158q-80 -53 -193 -53q-103 0 -162 57t-59 152q0 60 31 110t78 76h-111z" />
<glyph unicode="&#x130;" horiz-adv-x="716" d="M143 1679q0 174 215 174q211 0 211 -174t-211 -174q-215 0 -215 174zM162 0v1393h393v-1393h-393z" />
<glyph unicode="&#x131;" horiz-adv-x="665" d="M137 0v1071h393v-1071h-393z" />
<glyph unicode="&#x132;" horiz-adv-x="2064" d="M162 0v1393h393v-1393h-393zM776 551l387 35q4 -64 13 -107t29 -79.5t55 -54t86 -17.5q101 0 138.5 67t37.5 201v797h393v-824q0 -132 -34 -238.5t-102.5 -185.5t-179 -122t-256.5 -43q-144 0 -251 40t-173 117t-100.5 179t-42.5 235z" />
<glyph unicode="&#x133;" horiz-adv-x="1443" d="M121 1358q0 174 215 174q209 0 209 -174t-209 -174q-215 0 -215 174zM137 0v1071h393v-1071h-393zM766 -174q149 108 149 283v962h394v-934q0 -109 -25 -198t-71 -152.5t-96 -107.5t-116 -82zM901 1358q0 174 213 174q102 0 156.5 -40.5t54.5 -133.5t-54.5 -133.5 t-156.5 -40.5q-213 0 -213 174z" />
<glyph unicode="&#x134;" horiz-adv-x="1310" d="M25 551l387 35q8 -131 46 -194.5t136 -63.5q101 0 138.5 67t37.5 201v797h393v-824q0 -132 -34 -238.5t-102 -185.5t-178.5 -122t-256.5 -43q-144 0 -251 40t-173 117t-100.5 179t-42.5 235zM561 1507l205 332h377l203 -332h-283l-109 150l-108 -150h-285z" />
<glyph unicode="&#x135;" horiz-adv-x="665" d="M-59 1186l204 332h377l203 -332h-283l-108 149l-109 -149h-284zM-12 -182q65 48 107 121t42 165v967h393v-934q0 -88 -17 -163.5t-45 -131t-69 -103t-82.5 -80t-93.5 -62.5z" />
<glyph unicode="&#x136;" horiz-adv-x="1517" d="M162 0v1393h393v-529h139l371 529h403v-60l-464 -641l483 -651v-41h-438l-363 524h-131v-524h-393zM573 -274q0 77 52 122.5t131 45.5q106 0 162.5 -49.5t56.5 -149.5q0 -139 -146 -316l-180 66l49 125q-125 35 -125 156z" />
<glyph unicode="&#x137;" horiz-adv-x="1335" d="M137 0v1454h393v-821l326 438h418v-63l-375 -451l393 -491v-66h-424l-338 461v-461h-393zM467 -274q0 77 51.5 122.5t130.5 45.5q106 0 162.5 -49.5t56.5 -149.5q0 -140 -145 -316l-180 66l49 125q-125 35 -125 156z" />
<glyph unicode="&#x138;" horiz-adv-x="1333" d="M137 0v1071h393v-459l326 459h418v-63l-377 -469l395 -473v-66h-424l-338 436v-436h-393z" />
<glyph unicode="&#x139;" horiz-adv-x="1253" d="M162 0v1393h393v-1053h668v-340h-1061zM184 1507l164 332h385l-225 -332h-324z" />
<glyph unicode="&#x13a;" horiz-adv-x="737" d="M133 303v1151h393v-1053q0 -92 60 -92q39 0 102 25l10 -311q-137 -43 -274 -43q-142 0 -216.5 75t-74.5 248zM137 1540l164 332h385l-225 -332h-324z" />
<glyph unicode="&#x13b;" horiz-adv-x="1253" d="M162 0v1393h393v-1053h668v-340h-1061zM471 -274q0 77 51.5 122.5t130.5 45.5q106 0 162.5 -49.5t56.5 -149.5q0 -140 -145 -316l-180 66l49 125q-125 35 -125 156z" />
<glyph unicode="&#x13c;" horiz-adv-x="737" d="M133 303v1151h393v-1053q0 -92 60 -92q39 0 102 25l10 -311q-137 -43 -274 -43q-142 0 -216.5 75t-74.5 248zM186 -274q0 77 52 122.5t131 45.5q106 0 162.5 -49.5t56.5 -149.5q0 -139 -146 -316l-180 66l49 125q-125 35 -125 156z" />
<glyph unicode="&#x13d;" horiz-adv-x="1263" d="M162 0v1393h393v-1053h668v-340h-1061zM758 1243q0 77 51.5 122.5t130.5 45.5q106 0 162.5 -49.5t56.5 -149.5q0 -139 -145 -315l-180 66l49 124q-125 35 -125 156z" />
<glyph unicode="&#x13e;" horiz-adv-x="903" d="M133 303v1151h393v-1053q0 -92 60 -92q39 0 102 25l10 -311q-137 -43 -274 -43q-142 0 -216.5 75t-74.5 248zM618 1243q0 77 52 122.5t131 45.5q106 0 162.5 -49.5t56.5 -149.5q0 -138 -146 -315l-180 66l49 124q-125 35 -125 156z" />
<glyph unicode="&#x13f;" horiz-adv-x="1282" d="M162 0v1393h393v-1053h668v-340h-1061zM733 805q0 89 50.5 137.5t144.5 48.5q91 0 141.5 -48.5t50.5 -137.5t-50.5 -136.5t-141.5 -47.5q-94 0 -144.5 47.5t-50.5 136.5z" />
<glyph unicode="&#x140;" horiz-adv-x="997" d="M133 303v1151h393v-1053q0 -92 60 -92q39 0 102 25l10 -311q-137 -43 -274 -43q-142 0 -216.5 75t-74.5 248zM629 805q0 89 50 137.5t144 48.5q91 0 142 -48.5t51 -137.5t-51 -136.5t-142 -47.5q-94 0 -144 47.5t-50 136.5z" />
<glyph unicode="&#x141;" horiz-adv-x="1259" d="M88 442v308l80 38v605h393v-408l197 98v-305l-197 -98v-340h670v-340h-1063v481z" />
<glyph unicode="&#x142;" horiz-adv-x="747" d="M57 461v305l86 43v645h394v-442l125 63v-307l-125 -63v-304q0 -44 12.5 -68t46.5 -24q39 0 102 25l11 -311q-137 -43 -275 -43q-142 0 -216.5 75t-74.5 248v201z" />
<glyph unicode="&#x143;" horiz-adv-x="1689" d="M162 0v1393h340l633 -768v768h393v-1393h-340l-633 766v-766h-393zM682 1507l164 332h385l-225 -332h-324z" />
<glyph unicode="&#x144;" d="M137 0v1071h393v-119q123 138 324 138q105 0 184.5 -36.5t127 -102.5t71 -150t23.5 -185v-616h-394v549q0 180 -161 180q-60 0 -104.5 -26t-70.5 -62v-641h-393zM524 1186l164 332h385l-225 -332h-324z" />
<glyph unicode="&#x145;" horiz-adv-x="1689" d="M162 0v1393h340l633 -768v768h393v-1393h-340l-633 766v-766h-393zM625 -274q0 77 51.5 122.5t130.5 45.5q106 0 162.5 -49.5t56.5 -149.5q0 -140 -145 -316l-181 66l50 125q-125 35 -125 156z" />
<glyph unicode="&#x146;" d="M137 0v1071h393v-119q123 138 324 138q105 0 184.5 -36.5t127 -102.5t71 -150t23.5 -185v-616h-394v549q0 180 -161 180q-60 0 -104.5 -26t-70.5 -62v-641h-393zM494 -274q0 77 51.5 122.5t130.5 45.5q106 0 162.5 -49.5t56.5 -149.5q0 -140 -145 -316l-181 66l49 125 q-124 35 -124 156z" />
<glyph unicode="&#x147;" horiz-adv-x="1689" d="M162 0v1393h340l633 -768v768h393v-1393h-340l-633 766v-766h-393zM455 1839h284l109 -149l108 149h283l-203 -332h-377z" />
<glyph unicode="&#x148;" d="M137 0v1071h393v-119q123 138 324 138q105 0 184.5 -36.5t127 -102.5t71 -150t23.5 -185v-616h-394v549q0 180 -161 180q-60 0 -104.5 -26t-70.5 -62v-641h-393zM299 1518h285l108 -150l109 150h282l-202 -332h-377z" />
<glyph unicode="&#x149;" horiz-adv-x="1691" d="M-8 1245q0 77 51.5 122.5t130.5 45.5q106 0 162.5 -49.5t56.5 -149.5q0 -139 -145 -315l-180 66l49 125q-125 35 -125 155zM444 0v1071h394v-119q123 138 323 138q105 0 184.5 -36.5t127 -102.5t71 -150t23.5 -185v-616h-393v549q0 180 -162 180q-112 0 -174 -88v-641 h-394z" />
<glyph unicode="&#x14a;" horiz-adv-x="1689" d="M162 0v1393h340l633 -750v750h393v-1248q0 -110 -24.5 -199t-70 -153t-96 -108t-116.5 -82l-236 223q64 47 107 120t43 165l-580 655v-766h-393z" />
<glyph unicode="&#x14b;" horiz-adv-x="1382" d="M137 0v1071h393v-119q123 138 324 138q105 0 184.5 -36.5t127 -102.5t71 -150t23.5 -185v-471q0 -89 -17.5 -165t-45 -131t-69 -103t-83 -80.5t-93.5 -62.5l-237 223q65 46 108 119.5t43 167.5v436q0 180 -161 180q-60 0 -104.5 -26t-70.5 -62v-641h-393z" />
<glyph unicode="&#x14c;" horiz-adv-x="1597" d="M82 694q0 152 54.5 285.5t149.5 228.5t227.5 150t283.5 55q152 0 285.5 -55t228.5 -150t150 -228.5t55 -285.5q0 -201 -93 -364.5t-258 -256.5t-368 -93q-201 0 -365 93t-257 256.5t-93 364.5zM467 694q0 -147 93.5 -246.5t238.5 -99.5q146 0 238.5 99.5t92.5 246.5 q0 150 -92.5 249t-238.5 99q-145 0 -238.5 -99.5t-93.5 -248.5zM524 1550v230h543v-230h-543z" />
<glyph unicode="&#x14d;" horiz-adv-x="1302" d="M72 532q0 161 74.5 291t206.5 203.5t296 73.5q166 0 299 -73.5t208 -203.5t75 -291q0 -159 -75 -287.5t-208 -201t-299 -72.5q-164 0 -296 72.5t-206.5 201t-74.5 287.5zM377 1229v229h543v-229h-543zM449 532q0 -86 56 -146t144 -60q90 0 146.5 59.5t56.5 146.5 q0 89 -56 149t-147 60q-88 0 -144 -60t-56 -149z" />
<glyph unicode="&#x14e;" horiz-adv-x="1597" d="M82 694q0 152 54.5 285.5t149.5 228.5t227.5 150t283.5 55q152 0 285.5 -55t228.5 -150t150 -228.5t55 -285.5q0 -201 -93 -364.5t-258 -256.5t-368 -93q-201 0 -365 93t-257 256.5t-93 364.5zM467 694q0 -147 93.5 -246.5t238.5 -99.5q146 0 238.5 99.5t92.5 246.5 q0 150 -92.5 249t-238.5 99q-145 0 -238.5 -99.5t-93.5 -248.5zM473 1694l88 133q34 -37 97 -65.5t139 -28.5q73 0 136 28.5t97 67.5l90 -135q-46 -79 -127 -130t-194 -51t-196.5 51.5t-129.5 129.5z" />
<glyph unicode="&#x14f;" horiz-adv-x="1302" d="M72 532q0 161 74.5 291t206.5 203.5t296 73.5q166 0 299 -73.5t208 -203.5t75 -291q0 -159 -75 -287.5t-208 -201t-299 -72.5q-164 0 -296 72.5t-206.5 201t-74.5 287.5zM326 1372l88 133q34 -38 96.5 -66t138.5 -28q73 0 136.5 28.5t97.5 67.5l90 -135 q-46 -79 -127.5 -129.5t-194.5 -50.5q-114 0 -196.5 51t-128.5 129zM449 532q0 -86 56 -146t144 -60q90 0 146.5 59.5t56.5 146.5q0 89 -56 149t-147 60q-88 0 -144 -60t-56 -149z" />
<glyph unicode="&#x150;" horiz-adv-x="1597" d="M82 694q0 152 54.5 285.5t149.5 228.5t227.5 150t283.5 55q152 0 285.5 -55t228.5 -150t150 -228.5t55 -285.5q0 -201 -93 -364.5t-258 -256.5t-368 -93q-201 0 -365 93t-257 256.5t-93 364.5zM416 1507l166 332h383l-226 -332h-323zM467 694q0 -147 93.5 -246.5 t238.5 -99.5q146 0 238.5 99.5t92.5 246.5q0 150 -92.5 249t-238.5 99q-145 0 -238.5 -99.5t-93.5 -248.5zM893 1507l164 332h385l-228 -332h-321z" />
<glyph unicode="&#x151;" horiz-adv-x="1302" d="M72 532q0 161 74.5 291t206.5 203.5t296 73.5q166 0 299 -73.5t208 -203.5t75 -291q0 -159 -75 -287.5t-208 -201t-299 -72.5q-164 0 -296 72.5t-206.5 201t-74.5 287.5zM240 1186l166 332h382l-225 -332h-323zM449 532q0 -86 56 -146t144 -60q90 0 146.5 59.5 t56.5 146.5q0 89 -56 149t-147 60q-88 0 -144 -60t-56 -149zM717 1186l164 332h385l-228 -332h-321z" />
<glyph unicode="&#x152;" horiz-adv-x="2320" d="M82 692q0 203 91 367.5t252.5 258t362.5 93.5q163 0 295 -74v56h1133v-342h-758v-189h608v-313h-608v-209h758v-340h-1133v57q-147 -80 -295 -80q-151 0 -282 54.5t-224 149.5t-146.5 227.5t-53.5 283.5zM463 692q0 -148 98.5 -249t253.5 -101q80 0 151.5 28.5 t116.5 75.5v496q-47 45 -119 73.5t-153 28.5q-153 0 -250.5 -101t-97.5 -251z" />
<glyph unicode="&#x153;" horiz-adv-x="2078" d="M72 532q0 161 74.5 291t206.5 203.5t296 73.5q134 0 245.5 -51.5t184.5 -143.5q72 91 183.5 143t246.5 52q119 0 213.5 -36t153 -98t89 -141.5t30.5 -171.5q0 -128 -21 -196h-661q10 -83 74 -135t180 -52q66 0 147.5 29.5t128.5 65.5l146 -248q-85 -69 -205 -107.5 t-256 -38.5q-307 0 -453 183q-75 -86 -185 -134.5t-241 -48.5q-164 0 -296 72.5t-206.5 201t-74.5 287.5zM449 532q0 -86 56 -146t144 -60q90 0 146.5 59.5t56.5 146.5q0 89 -56 149t-147 60q-88 0 -144 -60t-56 -149zM1317 659h375q0 23 -2 31q-9 67 -57.5 102t-123.5 35 t-128.5 -45t-63.5 -123z" />
<glyph unicode="&#x154;" horiz-adv-x="1517" d="M162 0v1393h704q237 0 377.5 -119.5t140.5 -347.5q0 -144 -81.5 -252.5t-217.5 -155.5l377 -434v-84h-405l-393 487h-109v-487h-393zM539 1507l163 332h385l-225 -332h-323zM555 768h274q70 0 110 40t40 101q0 62 -40 103t-110 41h-274v-285z" />
<glyph unicode="&#x155;" horiz-adv-x="1034" d="M137 0v1071h393v-178q104 197 297 197q113 0 199 -54l-100 -348q-87 41 -185 41q-80 0 -136 -41t-75 -108v-580h-393zM381 1186l164 332h385l-225 -332h-324z" />
<glyph unicode="&#x156;" horiz-adv-x="1517" d="M162 0v1393h704q237 0 377.5 -119.5t140.5 -347.5q0 -144 -81.5 -252.5t-217.5 -155.5l377 -434v-84h-405l-393 487h-109v-487h-393zM555 768h274q70 0 110 40t40 101q0 62 -40 103t-110 41h-274v-285zM578 -274q0 77 51.5 122.5t130.5 45.5q106 0 162.5 -49.5 t56.5 -149.5q0 -140 -145 -316l-181 66l49 125q-124 35 -124 156z" />
<glyph unicode="&#x157;" horiz-adv-x="1034" d="M123 -274q0 77 51.5 122.5t130.5 45.5q106 0 162.5 -49.5t56.5 -149.5q0 -140 -145 -316l-180 66l49 125q-125 35 -125 156zM137 0v1071h393v-178q104 197 297 197q113 0 199 -54l-100 -348q-87 41 -185 41q-80 0 -136 -41t-75 -108v-580h-393z" />
<glyph unicode="&#x158;" horiz-adv-x="1517" d="M162 0v1393h704q237 0 377.5 -119.5t140.5 -347.5q0 -144 -81.5 -252.5t-217.5 -155.5l377 -434v-84h-405l-393 487h-109v-487h-393zM301 1839h285l108 -149l109 149h282l-202 -332h-377zM555 768h274q70 0 110 40t40 101q0 62 -40 103t-110 41h-274v-285z" />
<glyph unicode="&#x159;" horiz-adv-x="1034" d="M137 0v1071h393v-178q104 197 297 197q113 0 199 -54l-100 -348q-87 41 -185 41q-80 0 -136 -41t-75 -108v-580h-393zM156 1518h284l109 -150l108 150h283l-203 -332h-377z" />
<glyph unicode="&#x15a;" horiz-adv-x="1282" d="M92 100l92 344q90 -61 203 -100t231 -39q183 0 183 111q0 36 -30.5 60.5t-96.5 43.5l-221 64q-180 52 -267.5 145.5t-87.5 243.5q0 192 148 315t418 123q138 0 275 -33t230 -78l-110 -325q-87 48 -200 79t-212 31q-151 0 -151 -92q0 -33 23 -52.5t79 -37.5l240 -69 q191 -57 277.5 -153.5t86.5 -240.5q0 -204 -162 -332t-428 -128q-144 0 -292 38t-228 82zM485 1507l164 332h385l-225 -332h-324z" />
<glyph unicode="&#x15b;" horiz-adv-x="1058" d="M86 72l78 284q192 -98 317 -98q105 0 105 53q0 42 -86 66l-142 39q-138 38 -200 112.5t-62 194.5q0 168 123.5 267.5t347.5 99.5q102 0 214.5 -24.5t179.5 -57.5l-97 -287q-152 82 -291 82q-86 0 -86 -60q0 -22 14 -33t52 -22l160 -47q150 -43 210 -120.5t60 -188.5 q0 -155 -128.5 -253.5t-340.5 -98.5q-240 0 -428 92zM330 1186l164 332h385l-226 -332h-323z" />
<glyph unicode="&#x15c;" horiz-adv-x="1282" d="M92 100l92 344q90 -61 203 -100t231 -39q183 0 183 111q0 36 -30.5 60.5t-96.5 43.5l-221 64q-180 52 -267.5 145.5t-87.5 243.5q0 192 148 315t418 123q138 0 275 -33t230 -78l-110 -325q-87 48 -200 79t-212 31q-151 0 -151 -92q0 -33 23 -52.5t79 -37.5l240 -69 q191 -57 277.5 -153.5t86.5 -240.5q0 -204 -162 -332t-428 -128q-144 0 -292 38t-228 82zM248 1507l205 332h376l203 -332h-282l-109 150l-109 -150h-284z" />
<glyph unicode="&#x15d;" horiz-adv-x="1058" d="M86 72l78 284q192 -98 317 -98q105 0 105 53q0 42 -86 66l-142 39q-138 38 -200 112.5t-62 194.5q0 168 123.5 267.5t347.5 99.5q102 0 214.5 -24.5t179.5 -57.5l-97 -287q-152 82 -291 82q-86 0 -86 -60q0 -22 14 -33t52 -22l160 -47q150 -43 210 -120.5t60 -188.5 q0 -155 -128.5 -253.5t-340.5 -98.5q-240 0 -428 92zM139 1186l205 332h377l203 -332h-283l-109 149l-108 -149h-285z" />
<glyph unicode="&#x15e;" horiz-adv-x="1284" d="M94 100l92 344q90 -61 203.5 -100t231.5 -39q182 0 182 111q0 36 -30.5 60.5t-96.5 43.5l-221 64q-180 52 -267.5 145.5t-87.5 243.5q0 192 148 315t418 123q138 0 275 -33t230 -78l-110 -325q-87 48 -200 79t-212 31q-151 0 -151 -92q0 -33 23 -52.5t79 -37.5l240 -69 q191 -57 277.5 -153.5t86.5 -240.5q0 -196 -149 -322t-400 -136l-26 -84q28 4 45 4q87 0 134.5 -39t47.5 -103q0 -77 -70 -121.5t-182 -44.5q-83 0 -168 21l31 119q82 -23 125 -23q96 0 96 43q0 20 -26 31.5t-72 11.5q-21 0 -129 -8l-10 10l57 187q-121 11 -236 44.5 t-178 69.5z" />
<glyph unicode="&#x15f;" horiz-adv-x="1060" d="M86 72l78 284q192 -98 317 -98q105 0 105 53q0 42 -86 66l-142 39q-138 38 -200 112.5t-62 194.5q0 168 123.5 267.5t347.5 99.5q102 0 214.5 -24.5t179.5 -57.5l-97 -287q-152 82 -291 82q-86 0 -86 -60q0 -22 14 -33t52 -22l160 -47q150 -43 210 -120.5t60 -188.5 q0 -149 -117.5 -245t-314.5 -105l-27 -84q28 4 45 4q87 0 135 -39.5t48 -102.5q0 -77 -70 -121.5t-182 -44.5q-82 0 -168 21l30 119q82 -23 125 -23q97 0 97 43q0 20 -26.5 31.5t-72.5 11.5q-21 0 -129 -8l-10 10l57 187q-176 18 -317 86z" />
<glyph unicode="&#x160;" horiz-adv-x="1282" d="M92 100l92 344q90 -61 203 -100t231 -39q183 0 183 111q0 36 -30.5 60.5t-96.5 43.5l-221 64q-180 52 -267.5 145.5t-87.5 243.5q0 192 148 315t418 123q138 0 275 -33t230 -78l-110 -325q-87 48 -200 79t-212 31q-151 0 -151 -92q0 -33 23 -52.5t79 -37.5l240 -69 q191 -57 277.5 -153.5t86.5 -240.5q0 -204 -162 -332t-428 -128q-144 0 -292 38t-228 82zM238 1839h284l109 -149l108 149h283l-203 -332h-377z" />
<glyph unicode="&#x161;" horiz-adv-x="1058" d="M86 72l78 284q192 -98 317 -98q105 0 105 53q0 42 -86 66l-142 39q-138 38 -200 112.5t-62 194.5q0 168 123.5 267.5t347.5 99.5q102 0 214.5 -24.5t179.5 -57.5l-97 -287q-152 82 -291 82q-86 0 -86 -60q0 -22 14 -33t52 -22l160 -47q150 -43 210 -120.5t60 -188.5 q0 -155 -128.5 -253.5t-340.5 -98.5q-240 0 -428 92zM137 1518h285l108 -150l109 150h283l-203 -332h-377z" />
<glyph unicode="&#x162;" horiz-adv-x="1290" d="M51 1051v342h1188v-342h-395v-1051h-144l-36 -102q24 4 43 4q88 0 136 -39t48 -103q0 -77 -70.5 -121.5t-181.5 -44.5q-85 0 -168 21l31 119q79 -23 125 -23q94 0 94 43t-96 43q-23 0 -131 -8l-9 10l66 201h-100v1051h-400z" />
<glyph unicode="&#x163;" horiz-adv-x="1079" d="M61 768v303h195l47 272h326v-272h352v-303h-352v-297q0 -83 26.5 -117.5t81.5 -34.5q89 0 189 70l118 -297q-179 -106 -403 -112l-27 -82q28 4 45 4q87 0 135 -39.5t48 -102.5q0 -77 -70 -121.5t-182 -44.5q-82 0 -168 21l31 119q82 -23 125 -23q96 0 96 43 q0 20 -26.5 31.5t-72.5 11.5q-21 0 -129 -8l-10 10l62 195q-126 30 -194 130.5t-68 266.5v377h-175z" />
<glyph unicode="&#x164;" horiz-adv-x="1290" d="M51 1051v342h1188v-342h-395v-1051h-393v1051h-400zM252 1839h285l108 -149l109 149h282l-202 -332h-377z" />
<glyph unicode="&#x165;" horiz-adv-x="1220" d="M57 768v303h195l47 272h326v-272h352v-303h-352v-297q0 -83 26.5 -117.5t81.5 -34.5q89 0 189 70l118 -297q-186 -112 -430 -112q-180 0 -279.5 105t-99.5 306v377h-174zM969 1243q0 77 51.5 122.5t130.5 45.5q106 0 162.5 -49.5t56.5 -149.5q0 -139 -145 -315l-181 66 l50 124q-125 35 -125 156z" />
<glyph unicode="&#x166;" horiz-adv-x="1290" d="M51 1051v342h1188v-342h-395v-346h176v-187h-176v-518h-393v518h-162v187h162v346h-400z" />
<glyph unicode="&#x167;" horiz-adv-x="1079" d="M61 768v303h201l45 272h322v-272h352v-303h-352v-117h196v-188h-196q1 -79 27 -112.5t79 -33.5q87 0 189 70l120 -295q-186 -112 -440 -112q-172 0 -270 105.5t-98 305.5v72h-142v188h142v117h-175z" />
<glyph unicode="&#x168;" horiz-adv-x="1607" d="M143 604v789h394v-762q0 -138 68.5 -214.5t197.5 -76.5q130 0 200 78t70 215v760h393v-789q0 -127 -44.5 -239.5t-126.5 -198.5t-209.5 -136t-282.5 -50q-156 0 -281.5 46.5t-208 130t-126.5 197.5t-44 250zM395 1642q38 87 103.5 141t142.5 54q52 0 102 -18t82 -39.5 t71 -39.5t71 -18q89 0 139 90l102 -112q-51 -100 -109.5 -148.5t-135.5 -48.5q-47 0 -96.5 18t-84.5 39.5t-74 39.5t-67 18q-83 0 -145 -88z" />
<glyph unicode="&#x169;" d="M125 455v616h393v-549q0 -180 156 -180q64 0 109.5 25.5t70.5 62.5v641h393v-1071h-393v119q-125 -137 -324 -137q-105 0 -184.5 36.5t-127 102t-70.5 149.5t-23 185zM283 1321q38 87 103 141t142 54q52 0 102 -18t82 -39.5t71 -39.5t71 -18q89 0 139 90l103 -113 q-51 -99 -109.5 -147.5t-136.5 -48.5q-47 0 -96.5 18t-84.5 39t-74 39t-67 18q-83 0 -145 -88z" />
<glyph unicode="&#x16a;" horiz-adv-x="1607" d="M143 604v789h394v-762q0 -138 68.5 -214.5t197.5 -76.5q130 0 200 78t70 215v760h393v-789q0 -127 -44.5 -239.5t-126.5 -198.5t-209.5 -136t-282.5 -50q-156 0 -281.5 46.5t-208 130t-126.5 197.5t-44 250zM530 1550v230h543v-230h-543z" />
<glyph unicode="&#x16b;" d="M125 455v616h393v-549q0 -180 156 -180q64 0 109.5 25.5t70.5 62.5v641h393v-1071h-393v119q-125 -137 -324 -137q-105 0 -184.5 36.5t-127 102t-70.5 149.5t-23 185zM418 1229v229h543v-229h-543z" />
<glyph unicode="&#x16c;" horiz-adv-x="1607" d="M143 604v789h394v-762q0 -138 68.5 -214.5t197.5 -76.5q130 0 200 78t70 215v760h393v-789q0 -127 -44.5 -239.5t-126.5 -198.5t-209.5 -136t-282.5 -50q-156 0 -281.5 46.5t-208 130t-126.5 197.5t-44 250zM479 1694l88 133q34 -37 97 -65.5t139 -28.5q73 0 136 28.5 t97 67.5l90 -135q-46 -79 -127 -130t-194 -51t-196.5 51.5t-129.5 129.5z" />
<glyph unicode="&#x16d;" d="M125 455v616h393v-549q0 -180 156 -180q64 0 109.5 25.5t70.5 62.5v641h393v-1071h-393v119q-125 -137 -324 -137q-105 0 -184.5 36.5t-127 102t-70.5 149.5t-23 185zM362 1372l89 133q34 -38 96.5 -66t138.5 -28q73 0 136.5 28.5t97.5 67.5l90 -135 q-46 -79 -127.5 -129.5t-194.5 -50.5q-114 0 -197 51t-129 129z" />
<glyph unicode="&#x16e;" horiz-adv-x="1607" d="M143 604v789h394v-762q0 -138 68.5 -214.5t197.5 -76.5q130 0 200 78t70 215v760h393v-789q0 -127 -44.5 -239.5t-126.5 -198.5t-209.5 -136t-282.5 -50q-156 0 -281.5 46.5t-208 130t-126.5 197.5t-44 250zM602 1612q0 83 59 141.5t142 58.5t142 -58.5t59 -141.5 t-59 -142t-142 -59t-142 59t-59 142zM731 1612q0 -31 20.5 -51.5t51.5 -20.5t51 20.5t20 51.5t-20 51t-51 20t-51.5 -20t-20.5 -51z" />
<glyph unicode="&#x16f;" d="M125 455v616h393v-549q0 -180 156 -180q64 0 109.5 25.5t70.5 62.5v641h393v-1071h-393v119q-125 -137 -324 -137q-105 0 -184.5 36.5t-127 102t-70.5 149.5t-23 185zM483 1372q0 83 59 142t142 59t142 -59t59 -142t-59 -142t-142 -59t-142 59t-59 142zM612 1372 q0 -31 20.5 -51.5t51.5 -20.5t51.5 20.5t20.5 51.5t-20.5 51.5t-51.5 20.5t-51.5 -20.5t-20.5 -51.5z" />
<glyph unicode="&#x170;" horiz-adv-x="1607" d="M143 604v789h394v-762q0 -138 68.5 -214.5t197.5 -76.5q130 0 200 78t70 215v760h393v-789q0 -127 -44.5 -239.5t-126.5 -198.5t-209.5 -136t-282.5 -50q-156 0 -281.5 46.5t-208 130t-126.5 197.5t-44 250zM389 1507l166 332h383l-225 -332h-324zM866 1507l164 332h385 l-227 -332h-322z" />
<glyph unicode="&#x171;" d="M125 455v616h393v-549q0 -180 156 -180q64 0 109.5 25.5t70.5 62.5v641h393v-1071h-393v119q-125 -137 -324 -137q-105 0 -184.5 36.5t-127 102t-70.5 149.5t-23 185zM283 1186l166 332h382l-225 -332h-323zM760 1186l164 332h385l-228 -332h-321z" />
<glyph unicode="&#x172;" horiz-adv-x="1607" d="M141 604v789h394v-762q0 -138 69 -216.5t197 -78.5q130 0 200 79.5t70 217.5v760h393v-789q0 -147 -56 -272.5t-170 -215t-271 -120.5q-121 -38 -121 -125q0 -44 24 -70t72 -26q43 0 105 41l34 -158q-74 -53 -198 -53q-96 0 -154.5 57.5t-58.5 151.5q0 103 82 168 q-287 13 -449 184t-162 438z" />
<glyph unicode="&#x173;" d="M125 455v616h393v-549q0 -180 156 -180q64 0 109.5 25.5t70.5 62.5v641h393v-1071h-61q-73 0 -117.5 -37t-44.5 -92q0 -44 24 -70t70 -26q48 0 107 41l37 -158q-80 -53 -193 -53q-103 0 -162 57t-59 152q0 60 30.5 110t77.5 76h-102v119q-125 -137 -324 -137 q-105 0 -184.5 36.5t-127 102t-70.5 149.5t-23 185z" />
<glyph unicode="&#x174;" horiz-adv-x="2273" d="M0 1393h426l340 -953l205 510l-156 443h428l289 -885l313 885h430l-522 -1393h-430l-182 483l-195 -483h-428zM741 1507l205 332h377l203 -332h-283l-108 150l-109 -150h-285z" />
<glyph unicode="&#x175;" horiz-adv-x="2088" d="M31 1071h428l159 -721l203 721h455l188 -721l176 721h428l-358 -1071h-469l-194 635l-203 -635h-469zM655 1186l205 332h377l203 -332h-283l-108 149l-109 -149h-285z" />
<glyph unicode="&#x176;" horiz-adv-x="1421" d="M-4 1366v27h438l277 -508l276 508h438v-27l-518 -840v-526h-393v524zM315 1507l205 332h377l203 -332h-283l-108 150l-109 -150h-285z" />
<glyph unicode="&#x177;" horiz-adv-x="1267" d="M-4 1071h436l201 -643l213 641q66 0 197.5 1t195.5 1l-410 -1036q-64 -163 -128 -255t-155 -139t-222 -47q-64 0 -133.5 21t-112.5 49l53 289q96 -47 180 -47q55 0 85.5 25t52.5 77l16 33zM240 1186l204 332h377l203 -332h-283l-108 149l-109 -149h-284z" />
<glyph unicode="&#x178;" horiz-adv-x="1421" d="M-4 1366v27h438l277 -508l276 508h438v-27l-518 -840v-526h-393v524zM246 1675q0 164 198 164q197 0 197 -164t-197 -164q-198 0 -198 164zM776 1675q0 164 201 164q192 0 192 -164t-192 -164q-201 0 -201 164z" />
<glyph unicode="&#x179;" horiz-adv-x="1339" d="M104 0v270l623 783h-623v340h1129v-271l-615 -782h615v-340h-1129zM492 1507l163 332h385l-225 -332h-323z" />
<glyph unicode="&#x17a;" horiz-adv-x="1093" d="M100 0v270l404 496h-404v305h893v-270l-397 -496h397v-305h-893zM369 1186l163 332h386l-226 -332h-323z" />
<glyph unicode="&#x17b;" horiz-adv-x="1339" d="M104 0v270l623 783h-623v340h1129v-271l-615 -782h615v-340h-1129zM473 1679q0 174 215 174q211 0 211 -174t-211 -174q-215 0 -215 174z" />
<glyph unicode="&#x17c;" horiz-adv-x="1093" d="M100 0v270l404 496h-404v305h893v-270l-397 -496h397v-305h-893zM354 1358q0 174 215 174q211 0 211 -174t-211 -174q-215 0 -215 174z" />
<glyph unicode="&#x17d;" horiz-adv-x="1339" d="M104 0v270l623 783h-623v340h1129v-271l-615 -782h615v-340h-1129zM285 1839h284l109 -149l108 149h283l-203 -332h-377z" />
<glyph unicode="&#x17e;" horiz-adv-x="1093" d="M100 0v270l404 496h-404v305h893v-270l-397 -496h397v-305h-893zM154 1518h284l109 -150l108 150h283l-203 -332h-377z" />
<glyph unicode="&#x192;" horiz-adv-x="1060" d="M68 -360l49 292q78 -32 131 -32q86 0 86 86v649h-217v143h217v309q0 79 23 148t67.5 123t116 85.5t161.5 31.5q168 0 291 -45l-49 -297q-88 36 -131 36t-64.5 -24.5t-21.5 -65.5v-301h229v-143h-229v-653q0 -165 -96 -276.5t-273 -111.5q-64 0 -152.5 14t-137.5 32z" />
<glyph unicode="&#x1fa;" horiz-adv-x="1501" d="M-2 0l522 1393h43q-12 30 -12 69q0 81 57.5 129.5t143.5 48.5t143 -48.5t57 -129.5q0 -41 -14 -69h45l518 -1393h-397l-84 236h-543l-82 -236h-397zM575 524h349l-172 482zM633 1673l115 185h274l-158 -185h-231zM680 1462q0 -53 72 -53q71 0 71 53q0 54 -71 54 q-72 0 -72 -54z" />
<glyph unicode="&#x1fb;" horiz-adv-x="1196" d="M68 295q0 176 131 272.5t356 96.5q43 0 135 -9v2q0 64 -33.5 91.5t-107.5 27.5q-78 0 -171 -20t-161 -45l-65 301q90 33 207.5 55.5t228.5 22.5q136 0 231.5 -31t150.5 -92.5t79 -141.5t24 -188v-637h-383v96q-125 -116 -293 -116q-158 0 -243.5 85t-85.5 230zM418 1333 q0 81 57 129.5t143 48.5t143.5 -48.5t57.5 -129.5t-57.5 -128.5t-143.5 -47.5t-143 47.5t-57 128.5zM444 340q0 -100 113 -100q64 0 133 43v166q-34 6 -67 6q-76 0 -127.5 -29.5t-51.5 -85.5zM500 1546l112 183h277l-160 -183h-229zM547 1333q0 -53 71 -53q72 0 72 53 t-72 53q-71 0 -71 -53z" />
<glyph unicode="&#x1fc;" horiz-adv-x="2191" d="M-43 0l748 1393h1384v-342h-758v-189h608v-313h-608v-209h758v-340h-1135v236h-458l-123 -236h-416zM637 524h317v617zM1186 1507l164 332h385l-226 -332h-323z" />
<glyph unicode="&#x1fd;" horiz-adv-x="1824" d="M66 295q0 70 23 127t64.5 96t94 67t117 44t127.5 23t131 7q13 0 35.5 -1t31.5 -1q0 70 -34.5 94.5t-120.5 24.5q-68 0 -163.5 -22t-156.5 -49l-65 315q106 33 225 51.5t203 18.5q82 0 144 -10t103 -30t67 -41.5t48 -50.5q142 142 322 142q117 0 210.5 -36t151.5 -98 t88.5 -142t30.5 -171q0 -129 -23 -196h-643q8 -84 68 -135.5t172 -51.5q66 0 146.5 29.5t127.5 65.5l146 -248q-85 -69 -204 -107.5t-255 -38.5q-282 0 -404 164q-190 -155 -434 -155q-176 0 -275 85.5t-99 229.5zM442 338q0 -100 113 -100q82 0 137 51v168q-40 4 -71 4 q-86 -1 -132.5 -33.5t-46.5 -89.5zM768 1186l164 332h385l-225 -332h-324zM1083 659h353v13q0 71 -41 113t-125 42q-79 0 -130 -46.5t-57 -121.5z" />
<glyph unicode="&#x1fe;" horiz-adv-x="1597" d="M82 694q0 152 54.5 285.5t149.5 228.5t227.5 150t283.5 55q220 0 391 -108l74 88h206v-27l-143 -174q91 -97 141 -225t50 -273q0 -201 -93 -364.5t-258 -256.5t-368 -93q-205 0 -375 98l-64 -78h-211v29l132 161q-94 97 -145.5 226.5t-51.5 277.5zM463 694 q0 -114 59 -205l426 523q-68 35 -151 35q-144 0 -239 -102t-95 -251zM623 1507l163 332h385l-225 -332h-323zM662 373q66 -29 135 -29q147 0 241.5 101.5t94.5 248.5q0 110 -54 195z" />
<glyph unicode="&#x1ff;" horiz-adv-x="1302" d="M72 532q0 161 74.5 291t206.5 203.5t296 73.5q181 0 326 -90l51 61h141v-29l-94 -112q75 -76 116.5 -179t41.5 -219q0 -159 -75 -287.5t-208 -201t-299 -72.5q-171 0 -309 80l-43 -51h-143v29l84 100q-78 77 -122 180.5t-44 222.5zM449 532q0 -64 30 -114l256 305 q-41 18 -86 18q-88 0 -144 -60t-56 -149zM475 1186l164 332h385l-225 -332h-324zM578 336q29 -10 71 -10q90 0 146.5 59.5t56.5 146.5q0 55 -25 103z" />
<glyph unicode="&#x218;" horiz-adv-x="1282" d="M92 100l92 344q90 -61 203 -100t231 -39q183 0 183 111q0 36 -30.5 60.5t-96.5 43.5l-221 64q-180 52 -267.5 145.5t-87.5 243.5q0 192 148 315t418 123q138 0 275 -33t230 -78l-110 -325q-87 48 -200 79t-212 31q-151 0 -151 -92q0 -33 23 -52.5t79 -37.5l240 -69 q191 -57 277.5 -153.5t86.5 -240.5q0 -204 -162 -332t-428 -128q-144 0 -292 38t-228 82zM418 -274q0 77 51.5 122.5t130.5 45.5q106 0 162.5 -49.5t56.5 -149.5q0 -140 -145 -316l-180 66l49 125q-125 35 -125 156z" />
<glyph unicode="&#x219;" horiz-adv-x="1058" d="M86 72l78 284q192 -98 317 -98q105 0 105 53q0 42 -86 66l-142 39q-138 38 -200 112.5t-62 194.5q0 168 123.5 267.5t347.5 99.5q102 0 214.5 -24.5t179.5 -57.5l-97 -287q-152 82 -291 82q-86 0 -86 -60q0 -22 14 -33t52 -22l160 -47q150 -43 210 -120.5t60 -188.5 q0 -155 -128.5 -253.5t-340.5 -98.5q-240 0 -428 92zM322 -274q0 77 51.5 122.5t130.5 45.5q106 0 162.5 -49.5t56.5 -149.5q0 -140 -145 -316l-181 66l49 125q-124 35 -124 156z" />
<glyph unicode="&#x21a;" horiz-adv-x="1290" d="M51 1051v342h1188v-342h-395v-1051h-393v1051h-400zM430 -274q0 77 51.5 122.5t130.5 45.5q106 0 162.5 -49.5t56.5 -149.5q0 -140 -145 -316l-180 66l49 125q-125 35 -125 156z" />
<glyph unicode="&#x21b;" horiz-adv-x="1075" d="M57 768v303h195l47 272h326v-272h352v-303h-352v-297q0 -83 26.5 -117.5t81.5 -34.5q89 0 189 70l118 -297q-186 -112 -430 -112q-180 0 -279.5 105t-99.5 306v377h-174zM375 -274q0 77 51.5 122.5t130.5 45.5q106 0 162.5 -49.5t56.5 -149.5q0 -140 -145 -316l-180 66 l49 125q-125 35 -125 156z" />
<glyph unicode="&#x2c6;" horiz-adv-x="1228" d="M236 1186l204 332h377l203 -332h-283l-108 149l-109 -149h-284z" />
<glyph unicode="&#x2da;" horiz-adv-x="1228" d="M428 1290q0 83 59 142t142 59t141.5 -59t58.5 -142t-58.5 -141.5t-141.5 -58.5t-142 58.5t-59 141.5zM557 1290q0 -31 20.5 -51t51.5 -20t51 20t20 51t-20 51.5t-51 20.5t-51.5 -20.5t-20.5 -51.5z" />
<glyph unicode="&#x2dc;" horiz-adv-x="1228" d="M221 1321q38 87 103.5 141t142.5 54q52 0 102 -18t82 -39.5t71 -39.5t71 -18q89 0 139 90l102 -113q-51 -99 -109.5 -147.5t-136.5 -48.5q-59 0 -121 28.5t-114 57t-86 28.5q-83 0 -145 -88z" />
<glyph unicode="&#x1e80;" horiz-adv-x="2273" d="M0 1393h426l340 -953l205 510l-156 443h428l289 -885l313 885h430l-522 -1393h-430l-182 483l-195 -483h-428zM778 1839h385l164 -332h-323z" />
<glyph unicode="&#x1e81;" horiz-adv-x="2088" d="M31 1071h428l159 -721l203 721h455l188 -721l176 721h428l-358 -1071h-469l-194 635l-203 -635h-469zM682 1518h385l164 -332h-324z" />
<glyph unicode="&#x1e82;" horiz-adv-x="2273" d="M0 1393h426l340 -953l205 510l-156 443h428l289 -885l313 885h430l-522 -1393h-430l-182 483l-195 -483h-428zM956 1507l164 332h385l-225 -332h-324z" />
<glyph unicode="&#x1e83;" horiz-adv-x="2088" d="M31 1071h428l159 -721l203 721h455l188 -721l176 721h428l-358 -1071h-469l-194 635l-203 -635h-469zM881 1186l163 332h386l-226 -332h-323z" />
<glyph unicode="&#x1e84;" horiz-adv-x="2273" d="M0 1393h426l340 -953l205 510l-156 443h428l289 -885l313 885h430l-522 -1393h-430l-182 483l-195 -483h-428zM672 1675q0 164 198 164q197 0 197 -164t-197 -164q-198 0 -198 164zM1202 1675q0 164 201 164q192 0 192 -164t-192 -164q-201 0 -201 164z" />
<glyph unicode="&#x1e85;" horiz-adv-x="2088" d="M31 1071h428l159 -721l203 721h455l188 -721l176 721h428l-358 -1071h-469l-194 635l-203 -635h-469zM588 1354q0 164 198 164q197 0 197 -164t-197 -164q-198 0 -198 164zM1118 1354q0 164 201 164q192 0 192 -164t-192 -164q-201 0 -201 164z" />
<glyph unicode="&#x1ef2;" horiz-adv-x="1421" d="M-4 1366v27h438l277 -508l276 508h438v-27l-518 -840v-526h-393v524zM334 1839h385l164 -332h-324z" />
<glyph unicode="&#x1ef3;" horiz-adv-x="1267" d="M-4 1071h436l201 -643l213 641q66 0 197.5 1t195.5 1l-410 -1036q-64 -163 -128 -255t-155 -139t-222 -47q-64 0 -133.5 21t-112.5 49l53 289q96 -47 180 -47q55 0 85.5 25t52.5 77l16 33zM254 1518h385l164 -332h-324z" />
<glyph unicode="&#x2000;" horiz-adv-x="936" />
<glyph unicode="&#x2001;" horiz-adv-x="1872" />
<glyph unicode="&#x2002;" horiz-adv-x="936" />
<glyph unicode="&#x2003;" horiz-adv-x="1872" />
<glyph unicode="&#x2004;" horiz-adv-x="624" />
<glyph unicode="&#x2005;" horiz-adv-x="468" />
<glyph unicode="&#x2006;" horiz-adv-x="312" />
<glyph unicode="&#x2007;" horiz-adv-x="312" />
<glyph unicode="&#x2008;" horiz-adv-x="234" />
<glyph unicode="&#x2009;" horiz-adv-x="374" />
<glyph unicode="&#x200a;" horiz-adv-x="104" />
<glyph unicode="&#x2010;" horiz-adv-x="1110" d="M125 467v305h860v-305h-860z" />
<glyph unicode="&#x2011;" horiz-adv-x="1110" d="M125 467v305h860v-305h-860z" />
<glyph unicode="&#x2012;" horiz-adv-x="1110" d="M125 467v305h860v-305h-860z" />
<glyph unicode="&#x2013;" horiz-adv-x="1310" d="M125 467v305h1063v-305h-1063z" />
<glyph unicode="&#x2014;" horiz-adv-x="1843" d="M125 467v305h1595v-305h-1595z" />
<glyph unicode="&#x2018;" horiz-adv-x="620" d="M88 874q0 123 55 273t127 266l215 -86l-84 -250q129 -45 129 -203q0 -105 -58 -164t-163 -59q-103 0 -162 60t-59 163z" />
<glyph unicode="&#x2019;" horiz-adv-x="616" d="M94 1190q0 105 57 164t162 59q104 0 163 -60t59 -163q0 -122 -55.5 -271t-127.5 -268l-217 86l86 250q-62 20 -94.5 73t-32.5 130z" />
<glyph unicode="&#x201a;" horiz-adv-x="638" d="M98 182q0 105 57 164.5t162 59.5q104 0 163 -60.5t59 -163.5q0 -122 -55 -270t-128 -268l-217 86l86 250q-127 41 -127 202z" />
<glyph unicode="&#x201c;" horiz-adv-x="1064" d="M92 940q0 108 48 237.5t112 235.5l186 -74l-73 -223q110 -34 110 -176q0 -91 -49 -141.5t-141 -50.5q-91 0 -142 51t-51 141zM590 940q0 109 47.5 239t110.5 234l186 -74l-74 -223q113 -35 113 -176q0 -91 -50.5 -141.5t-142.5 -50.5q-90 0 -140 51t-50 141z" />
<glyph unicode="&#x201d;" horiz-adv-x="1058" d="M94 1221q0 90 50 141t141 51t141.5 -51.5t50.5 -140.5q0 -109 -47.5 -240.5t-110.5 -235.5l-188 76l76 221q-113 34 -113 179zM590 1221q0 90 50 141t142 51q90 0 141.5 -52t51.5 -140q0 -108 -48.5 -239.5t-111.5 -236.5l-186 76l73 221q-55 17 -83.5 64t-28.5 115z" />
<glyph unicode="&#x201e;" horiz-adv-x="1083" d="M100 117q0 91 50 141.5t141 50.5q92 0 142 -51t50 -141q0 -108 -48 -239.5t-111 -233.5l-185 73l74 224q-113 35 -113 176zM598 117q0 91 49 141.5t141 50.5q90 0 141.5 -51.5t51.5 -140.5q0 -107 -48 -237.5t-112 -235.5l-186 73l74 224q-111 34 -111 176z" />
<glyph unicode="&#x2020;" horiz-adv-x="1226" d="M61 674v305h400v475h305v-475h397v-305h-397v-1059h-305v1059h-400z" />
<glyph unicode="&#x2021;" horiz-adv-x="1282" d="M90 59v306h397v309h-397v305h397v475h306v-475h399v-305h-399v-309h399v-306h-399v-444h-306v444h-397z" />
<glyph unicode="&#x2022;" horiz-adv-x="903" d="M147 618q0 147 79 227.5t225 80.5q145 0 225 -81t80 -227q0 -147 -80 -226t-225 -79q-147 0 -225.5 78.5t-78.5 226.5z" />
<glyph unicode="&#x2026;" horiz-adv-x="1779" d="M100 164q0 93 53.5 144.5t149.5 51.5t151.5 -52t55.5 -144q0 -94 -55 -144.5t-152 -50.5t-150 50t-53 145zM686 164q0 93 53.5 144.5t149.5 51.5t151.5 -52t55.5 -144q0 -94 -55 -144.5t-152 -50.5t-150 50t-53 145zM1272 164q0 93 53.5 144.5t149.5 51.5t151 -52 t55 -144q0 -94 -54.5 -144.5t-151.5 -50.5t-150 50t-53 145z" />
<glyph unicode="&#x202f;" horiz-adv-x="374" />
<glyph unicode="&#x2030;" horiz-adv-x="2760" d="M66 1024q0 166 113 277.5t284 111.5t284 -111.5t113 -277.5t-112.5 -275.5t-284.5 -109.5t-284.5 109.5t-112.5 275.5zM319 1024q0 -61 40.5 -104t103.5 -43q62 0 101.5 43t39.5 104q0 63 -39.5 106.5t-101.5 43.5q-63 0 -103.5 -43.5t-40.5 -106.5zM463 0v29l741 1364 h223v-27l-739 -1366h-225zM1042 365q0 167 113 278t285 111t284.5 -111t112.5 -278q0 -166 -112.5 -275.5t-284.5 -109.5t-285 109.5t-113 275.5zM1296 365q0 -61 40.5 -104.5t103.5 -43.5q62 0 101.5 43.5t39.5 104.5q0 63 -39.5 106t-101.5 43q-63 0 -103.5 -43 t-40.5 -106zM1903 365q0 167 112.5 278t284.5 111q170 0 283.5 -111t113.5 -278q0 -166 -113.5 -275.5t-283.5 -109.5q-172 0 -284.5 109.5t-112.5 275.5zM2154 365q0 -61 41.5 -104.5t104.5 -43.5q62 0 101.5 43.5t39.5 104.5q0 63 -39.5 106t-101.5 43q-64 0 -105 -43 t-41 -106z" />
<glyph unicode="&#x2039;" horiz-adv-x="675" d="M78 580v73l336 428h28l144 -63l-183 -402l183 -397l-144 -65h-28z" />
<glyph unicode="&#x203a;" horiz-adv-x="675" d="M92 215l180 401l-180 398l144 67h26l336 -428v-73l-336 -426h-26z" />
<glyph unicode="&#x2044;" horiz-adv-x="278" d="M-336 0v29l758 1364h192v-27l-753 -1366h-197z" />
<glyph unicode="&#x205f;" horiz-adv-x="468" />
<glyph unicode="&#x20ac;" horiz-adv-x="1271" d="M88 494v141h94q-2 18 -2 59v25h-92v141h102q37 264 191 408.5t401 144.5q241 0 410 -176l-137 -293q-45 49 -112 80t-126 31q-173 0 -219 -195h420l-66 -141h-370v-25v-59h333l-63 -141h-248q48 -156 201 -156q127 0 248 90l143 -324q-181 -124 -424 -124 q-233 0 -382.5 134t-192.5 380h-109z" />
<glyph unicode="&#x2122;" horiz-adv-x="1693" d="M129 1153v205h535v-205h-166v-422h-205v422h-164zM807 731v627h170l199 -230l200 230h170v-627h-205v305l-147 -176h-35l-147 176v-305h-205z" />
<glyph unicode="&#x25ca;" horiz-adv-x="1218" d="M68 682l419 711h242l422 -711l-422 -682h-242zM393 682l215 -352l217 352l-217 367z" />
<glyph unicode="&#x25fc;" horiz-adv-x="1075" d="M0 0v1075h1075v-1075h-1075z" />
<glyph unicode="&#xf8ff;" horiz-adv-x="1351" d="M152 0v1475h1048v-1475h-1048zM416 948h96q0 82 43.5 136.5t132.5 54.5q83 0 130.5 -44.5t47.5 -111.5q0 -39 -28 -74.5t-68 -65t-80 -63.5t-68 -85.5t-28 -114.5h98q0 45 20.5 83.5t51.5 63.5t67.5 53t67.5 53.5t51.5 64.5t20.5 85q0 104 -75 174t-208 70 q-65 0 -115 -20.5t-79 -51t-47.5 -70t-24.5 -73t-6 -64.5zM571 252h140v145h-140v-145z" />
<glyph unicode="&#xfb01;" horiz-adv-x="1622" d="M68 727v303h178v49q0 81 23.5 151t70 125.5t123 87.5t174.5 32q68 0 149.5 -13.5t133.5 -31.5l-58 -295q-74 34 -139 34q-42 0 -63 -25t-21 -67v-47h262v-303h-262v-727h-393v727h-178zM1081 1358q0 174 215 174q209 0 209 -174t-209 -174q-215 0 -215 174zM1098 0v1071 h393v-1071h-393z" />
<glyph unicode="&#xfb02;" horiz-adv-x="1695" d="M68 727v303h178v49q0 81 23.5 151t70 125.5t123 87.5t174.5 32q68 0 149.5 -13.5t133.5 -31.5l-58 -295q-74 34 -139 34q-42 0 -63 -25t-21 -67v-47h262v-303h-262v-727h-393v727h-178zM1092 303v1151h393v-1053q0 -44 12.5 -68t46.5 -24q40 0 103 25l10 -311 q-137 -43 -275 -43q-142 0 -216 75t-74 248z" />
</font>
</defs>
</svg>
